<svg xmlns="http://www.w3.org/2000/svg"  viewBox="0 0 303 152"><g><g><path d="M174 0l17 2c2.677 1.363 5.252 5.84 8 7h51l1-3c3.165-1.688 8.455-.671 11 1 6.34 2.333 6.366 8.067 14 10-1.021.804-.274.355-2 1-1.424 3.605-3.07 3.185-8 3-6.001-5.82-27.794-7.558-41-5-12.517 2.424-29.313.3-43 0v-2c1.754-.63.971-.193 2-1 10.085 2.188 17.67.578 23 0 10.875-1.179 27.273 1.188 35 0 3.558-.547 10.216 2.395 14 0-14.472-2.792-25.354-1.008-41-1-7.832.004-14.745-1.086-20 0-8.138 1.682-18.04-2.693-20-1-8.095 6.791-15.866 25.745-25 29v-2c6.442-4.692 19.29-22.796 24-30 9.483 1.858 11.44 1.41 19 1V7h-1c-4.84-4.813-13.814-4.14-22-3-1.683 2.216-4.1 2.126-6 4-4.89 4.822-6.287 12.977-12 17v-2c3.649-4.023 5.459-10.281 8.572-15H161a26.603 26.603 0 0 1-.15-.412A17.41 17.41 0 0 1 163 5c2.622-2.559 8.156-2.748 11-5zm-14 6c.731.928.426.395.85 1.588-.094.136-.187.273-.278.412H160V6zm94 1c2.568 3.997 8.225 9.362 13 11v-4c-5.749-3.78-6.973-4.965-13-7zm49 2v3h-1v-1c-9.326 2.585-19.302 1.105-32 1l-1-2c2.241-.78 5.431-1.02 9-1 2.94 1.958 17.792-.105 25 0zM152 9c2.421.34.883.326 4 0v5h-1c-1.568-1.829-.882-1.396-4-2-1.664 2.201-2.836 2.026-4 5-8.426 10.598-6.103 33.537-6 51h-1v-2c-2.495-3.84-1.132-15.225-1-21h-1v2c-6.869 7.875-8.933 23.955-9 34-.032 4.738 4.46 7.17 5 13h-1v-1c-7.042-7.227-6.176-28.158-4-34 2.03-5.452 6.244-8.269 7-16 2.365.772 1.69.046 4 1-1.106-4.42-.777-22.1 3-26 2.458-3.719 6.36-5.59 9-9zm28 3c.804 1.021.355.274 1 2h-1v-2zm99 1c6.996 2.24 19.871-.484 23 1 .804 1.021.355.274 1 2h-28c-.74-.872-1.26-1.128-2-2 2.72.007 4.597-.039 6-1zm-105 1h6v2l-7 1v-1c.804-1.021.355-.274 1-2zm-23 3c2.076.372 1.924.242 3 1h-1c-1.021.804-.274.355-2 1v-2zm87 1c2.327.195 2.826.193 4 1zm-88 1c.613 1.73-.196 3.962-2 6zm54 0h5v1h1v2h-2c-1.406-1.211-2.79-1.52-4-3zm31 0c2.076.372 1.924.242 3 1h-1c-5.174 4.068-16.805 3.146-26 3v-1h1c5.206-2.917 17.325 1.034 23-3zm7 0h2v1c-1.754-.63-.972-.193-2-1zm-96 8h2v4h-1v-1c-.752-1.073-.601-.946-1-3zm0 5c.804 1.021.355.274 1 2h-1v-2zm-2 5h3c-.628 16.773-2.298 37.487 0 51h-1v-1c-5.083-7.124-1.275-39.546-2-50zm-6 30c4.212 5.65 3.34 13.64 6 21 6.773 18.738 13.647 22.018 8 47h-2c1.828-11.035 4.3-19.122 1-29-4.34-12.994-12.337-24.091-13-39zm3 3c.804 1.021.355.274 1 2h-1v-2zm-7 24c2.285 2.155 3.416 3.996 4 8h-1v-1c-1.877-1.925-2.514-3.524-3-7zm-33 8c4.56.275 5.927 1.496 9 3v1c-10.062-1.189-16.884.961-21 11-2.639-.022-1.18-.369-4 1v-2h1c2.525-7.505 9.392-9.554 15-14zm37 0c.35.301 1.997.523 1 2zm1 2c2.62 2.144 3.707 5.5 4 10h-1v-1c-1.934-2.333-2.71-4.961-3-9zm-29 2c2.329.294 2.477.451 4 1v1h-2c-.74-.872-1.26-1.128-2-2zm-50 1c5.908 1.247 11.204 5.147 18 7v2h-1c-2.637-2.105-2.439-1.251-7-1 .026-3.009.32-2.91-5-3-3.167 1.266-10.35.366-13-2h2c1.73-1.228 4.475-1.61 6-3zm55 2c11.487 4.094 8.036 22.822 20 24 1.18-.803 1.681-.773 4-1 1.235-2.275 3.265-5.173 4-8 .933-3.589-.547-7.585 1-10v11c-2.144 3.121-2.066 6.672-5 9-1.8 1.263-7 2-7 2-11.397-2.697-6.342-5.634-8-12-1.297-4.977-6.423-10.948-9-15zm21 12c.676-4.788 2.283-7.797 1-12h2v2c2.024 3.119-.477 8.054-1 10-1.191.867-1.125.822-2 2-1.952-.287-5.13-.09-8 1l-1-3h2c2.113 1.197 3.431.311 7 0zm-116-2v-6c2.281-1.225 2.25-1.638 6-2 1.197-.564 4.844-.606 7 0-.868 1.191-.823 1.125-2 2-1.985.922-6.137.334-10 1v1c1.261 1.358 1.365 1.768 2 4h-3zm15-8c6.519.295 10.481.294 17 0 .867 1.191.822 1.125 2 2v1h-2c-3.186 2.037-14.334-.746-17-3zm69 3c6.279 3.47 15.915 21.72 17 31h-2v-2c-2.35-2.022-15.023-28.871-15-29zm-5 1c2.329.294 2.477.451 4 1-.962 1.766-1.257 1.68-2 4h-1c-.161-2.612-.43-3.395-1-5zm-39 1c5.356.088 10.506 1.457 14.562 3H66c1.857 1.36 7.01 1.448 9.416.334.552.22 1.08.444 1.584.666 1.442.636 11.403-.888 14 0v-1l-1-1h2c5.693 4.72 12.126.29 15 5-1.546 1.133-.843 1.085-3 2-6.016-4.36-13.247 1.845-23-1-2.453-.716-12.757-4.461-19-3-12.649 2.96-26.93 6.09-39-2h1c3.373-1.464 8.22 2.067 12 3 8.066 1.99 20.796-2.26 24-6zm-28 1l3 1v1c-2.389-.842-1.645-.402-3-2zm-25 2c.755 2.275.218 1.515-1 4h1c4.844-3.414 15.468-1.656 19 1-8.99-.082-20.25-1.126-26 1v-2c2.034-1.062 5.334-2.423 7-4zm68.416.334a51.258 51.258 0 0 0-.854-.334H76a3.591 3.591 0 0 1-.584.334zM141 120c1.243 1.567.642.51 0 2-1.037 3.26-1.784 3.918-5 5-2.573 1.88-2.943 1.37-6 1v-3h2c2.24 1.4 3.275.545 6 0l3-5zm162 4c-.294 2.329-.452 2.477-1 4-11.809-3.897-45.467-1.728-58 0-2.636.363-10.615-1-15-1-17.376-.001-36.494.09-51 0v-2c46.152-.582 82.168.027 125-1zm-196 2c.797.98 1.446 2.743 2 4h-2c-.899-2.19-.862-1.443-2-3 1.754-.63.971-.193 2-1zM4 131c-.674-3.152-.666-2.098-2-4 17.397.539 28.882.477 51 1 14.98.354 39.023-4.493 52 0v1c-6.7 1.158-12.619 2.852-20 1v1c2.389.842 1.645.401 3 2h-4c-3.917-4.112-19.486-1.995-27-2-17.523-.01-34.673-.545-53 0zm121-4v4h2v-2c-.872-.74-1.128-1.26-2-2zm-52 5c6.99 2.507 9.84 13.915 21 7 2.51-1.555 2.22-5.326 5-7v2c-.803 1.18-.773 1.681-1 4-2.918 1.05-2.346 1.818-5 3-5.025 4.284-15.005.897-16-2-2.018-1.924-3.144-3.823-4-7zm76 3c.804 1.02.355.274 1 2h-1v-2zm-1 2c.752 1.073.601.946 1 3-1.834 1.285-1.712 1.968-4 3v-2c2.006-1.397 2.066-1.346 3-4zm-4 6h1c.488 2.757-.558 1.18-2 2v1h-1v-2c1.754-.63.971-.193 2-1zm-22 2c1.546 1.133.843 1.085 3 2 2.94 2.443 8.425-.003 13 3-4.426.562-5.91 1.72-11 2-1.975-2.862-3.969-3.007-5-7zm18 0l2 1c1.076.113-3.448.934-4 1v-1c1.754-.63.971-.193 2-1zm-7 2h2v1c-1.754-.63-.971-.193-2-1z"/></g></g></svg>