<svg xmlns="http://www.w3.org/2000/svg" viewBox="0 0 281 154">
    <g>
        <g>
            <path
                d="M113 0c12.87 1.263 15.618 7.236 24 12-.029 2-1.023.281 0 2v1l2-1v1c3.41 3.123 4.168 5.226 5 9 1.922-.552.857-1.641 2 0 2.71 3.716 1.581 10.093 7 13v-1h1v4h-1v1h-2c-2.052-5-5.444-7.946-9-13-9.77-13.884-9.214-20.965-30-25-4.733-.919-18.833 6.768-23 6v1h1c1.923.775-2 1-2 1v-1c-.804-1.021-.355-.274-1-2 6.915-.565 8.846-5.962 15-7 1.803-.304 7.052 1.59 11-1zM37 5c4.807.865 7.651 2.503 11 4v1h-4c-1.171-.13-2.5-1.672-7-2-2.355 4.092-4.882.975-8 5-1.105 1.384-1.494 2.873-2 5h2c3.302-5.262 6.258-7.451 13-8v1h-2c-2.389 3.91-14.975 12.366-16 11-.804-1.021-.355-.274-1-2 1.76-1.955 1.429-4.618 3-7 2.453-3.717 7.803-4.978 11-8zm74 2h2v1c-1.754-.63-.972-.193-2-1zm2 1c20.06 6.846 21.302 29.448 36 41l-1-3h1v1c3.698 3.044 4.284 5.508 5 11h-1v-2c-18.27-10.034-18.279-34.322-41-45l1-3zm-22 2c6.092 1.961 15.455.403 20 2l1 3h-2c-7.842-4.788-15.989 2.803-26 1-8.07-1.454-35.393 1.645-41-1h-1v-1c10.99-3.425 22.675-.919 31-2 6.627-.86 14.702 2.906 18-2zm-73 1c2.397.88 3.707.76 5 3h-1c-4.413 2.973-14.27 1.854-21 2-.536-1.516-.675-1.693-1-4h1c1.219.628 14.393.788 17-1zm128 1c5.34.283 8.544 1.903 13 3 2.27 3.614 6.73 8.74 8 13 .26.871-1 8.283-1 11v47h1v-1c.777-1.194 1.197-4.815 2-6v2c1.154 3.314-1.093 10.232-2 14h-1c-.372-2.076-.242-1.925-1-3v2c-5.653 3.68-8.18 10.623-10 18h-1v-1h-1v-1c1.555-1.944 3.12-5.685 4-8 0 0-3.908-.195-2-1h2c2.21-4.043 6.868-7.424 8-12 1.073-4.338-1.847-13.86-2-18-.53-14.344 6.14-44.166-7-53-3.179-2.528-10.778-.99-12-3-1.191-.868-1.125-.822-2-2h4v-1zM0 21v-4h1c4.153 2.4 11.121.475 19 0v2c-3.123 2.16-8.195 2.166-14 2-.726-.288-2.89-.094-6 0zm40-4c21.549-.31 25.124.15 47 0 9.765-.067 29.366-2.608 34 3h1v1h-14c-6.1-2.925-46.321 1.586-60-1v1h1v1c14.84 7.664 12.95 1.47 30 1v1c-9.968.469-11.387 5.728-23 6-2.671-3.296-7.915-4.256-10-8-.369-.834-3.57-1.205-8-1 .708-2.347 1.025-2.234 2-4zm106 1l9 2c.506 1.704 4 15 4 15-1.021.804-.274.355-2 1-.05-13.102-5.807-11.559-13-17 1.754-.63.971-.193 2-1zm12 19c.804 1.021.355.274 1 2h-1v-2zm-14 2c1.624 1.35 1.121.64 2 3h-1v-1c-.804-1.021-.355-.274-1-2zm13 0c2.19 1.886 2.087 3.723 2 8-2.596 4.13-.087 11.318 0 17 .166 10.87 2.944 19.83 1 28-1.189-1.072-1.647-2.004-3-3 1.193-7.211.513-19.79-1-28-1.193-6.473 1.115-14.116 1-22zm-11 3c.804 1.021.355.274 1 2h-1v-2zm1 2c.804 1.021.355.274 1 2h-1v-2zm21 17c5.02 5.297 11.991 28.6 9 36-2.41 5.963-8.529 8.35-10 15h1v1c1.36-.995 1.806-1.929 3-3 .001 6.245 2.548 12.897 4 15 8.173 5.907 20.366-3.594 24 3-4.284.588-5.769 2.267-9 3-11.804 2.676-25.951-6.771-27-16 .44-.525 12.205-24.803 12-26-1.733-10.121-6.857-16.46-7-28zm104 52c-3.96.452-8.765 2.977-12 3-5.55.04-5.956-4.006-14-1-8.635 3.226-11.108 9.531-24 10v-2h1v-1c4.473.13 7.68-.11 10-2 2-2.666-.82-2.64 5-3 4.215-6.81 26.249-2.9 33-8-2.242-.78-5.431-1.02-9-1-3.415-.11-13.15 1.692-19 4v-2c7.055-.649 9.64-4.583 15-6l13 1c.867 1.191.822 1.125 2 2-.6 1.724-.89 3.152-1 6zm-88-8c1.259.525 3.033 1.198 4 2-2.797 1.737-1.085 1.293-2 4-6.208-3.386-9.586-.26-9 9 1.826 1.182 2.801 2.192 4 4h-3l-1-3-3-8c3.24-1.432 7.622-5.432 10-8zm5 1c2.184.993 5.236 3.205 7 4 .675.304 3.685-1.356 6 0v2c5.053 3.574 11.62 4.344 16 3l-1 2h1c.236-.238 15.105-4.778 21-5v1h-2c-9.99 13.013-28.468 4.865-39-2-3.901-2.543-6.86-.644-9-5zm69 1c1.02.804.274.355 2 1zm-58 12c-5.285-.418-5.42-2.088-10-3 .294-2.33.451-2.477 1-4 3.182 1.548 7.733 1.504 9 7zm-48-5c2.467 1.295.68-.43 2 2-.745 1.216-.137.992 0 4h-1v-1h-1v-1h-1c.536-1.516.675-1.693 1-4zm15 0c.072 4.27.817 6.164 2 9h2v-1c-1.756-2.67-1.125-6.27-4-8zm34 4c3.107.701 4.01 1.524 6 3 2.728 6.121 4.975 15.658-2 19-10.068 7.556-36.092.435-45-4v-2h1c9.599 9.015 23.903 5.736 39 5 2.83-3.79 5.446-4.5 6-11-2.022-2.814-3.528-7.06-5-10zm-49 2c.804 1.021.355.274 1 2h-1v-2zm1 2c1.654 2.229 2.549 5.727 3 9h-1v-1c-2.22-2.32-2.425-5.677-2-8zm43 0c.804 1.021.355.274 1 2h-1v-2zm-8 1c.804 1.021.355.274 1 2h-1v-2zm23 0l11 2v1c-5.39.038-6.146 1.134-10 2 .06-2.6-.068-1.579-1-5zm29 1c10.743 2.887 23.512.947 38 1v2h-9c-4.052 2.406-13.512-.113-20 2l1-2h-1c-.83.55-16.463 1.655-19 0 3.593-.3 7.793-1.186 10-3zm-124 4v3c-35.508-.025-77.401-.017-116 0v-3c38.432.064 82.01.02 116 0zm4 3c.828-3.245-.49-1.528 2-3 1.294 2.467-.43.68 2 2v1h-4zm92 3v-3c9.942-.033 17.118 1.787 25 1 14.252-1.423 36.411-3.317 44-1l-1 3h-3c-2.315-1.05-8.447 1.112-12 1-14.047-.443-37.518-.399-53-1zm-56-3h2v1c-1.754-.63-.972-.193-2-1zm2 1c2.26 1.94.45 1.069.892 2.675zm.892 2.675L159 135a3.486 3.486 0 0 1-.108-.325zM183 136c.35.301 1.997.523 1 2" />
        </g>
    </g>
</svg>