<svg xmlns="http://www.w3.org/2000/svg"  viewBox="0 0 822 498"><g><g><path d="M134 0c11.568 2.958 27.955 2.352 41 10 3.429 2.01 6.078 6.423 9 9l4 1c1.586 1.154 1.637 3.649 3 5 4.851 4.808 12.115 8.344 16 14 7.293 10.616 9.976 21.989 14 36 1.84 6.408 5.162 16.842 4 24-1.844 11.356 1.298 26.443-4 35l-5 3c-.931 1.92.774 2.99 1 4-.976 2.66-3.098 8.358-5 11-5.479 7.608-21.545 20.949-31 24-3.855 1.244-9.782-.757-11 0-.804-1.021-.355-.274-1-2l2-1c1.767-1.143 7.252-1.953 11-4 13.06-7.132 25.535-20.434 30-33 3.228-9.085 11.41-38.124 9-47-7.966-29.346-20.005-57.436-45-73C139.063-7 70.16 11.78 52 42h1c.867-1.191.822-1.125 2-2v2l-2 1c-1.608 1.554-.568-.718-2 1-3.695 4.374-13.512 25.293-16 34-3.915 13.697 2.126 26.389 2 37-.546 45.84 49.453 88.248 90 104 8.463 3.288 13.8 3.008 22 1 13.63 4.522 34.84 4.938 48 11v2h-1c-4.73-2.93-11.307-.458-18-2-10.58-2.438-27.82-.456-37-7 1.754-.63.971-.193 2-1-8.77 1.684-44.164-10.675-49-16-2.126-2.341 1.881-1.697-1-3-4.59-4.429-15.629-10.068-22-16-10.834-10.088-18.871-20.824-27-34-16.717-27.096-17.27-81.511-3-109l6-5C60.713 21.513 75.28 10.984 96 1v2l-4 1v1h3c9.598-6.527 30.832.064 39-5zM92 10l-1 2zm31 25c36.531 6.168 63.205 16.143 70 57 3.38 20.328-7.87 48.258-17 56l-5 1c-2.917 1.82-5.293 6.35-8 8-3.438 2.094-7.321 1.439-11 3-13.517 5.736-28.066 9.048-38 1-.752-1.073-.601-.946-1-3h1c13.172 12.042 51.66-7.6 61-17 6.756-6.799 12.725-22.318 11-34 10.166-21.003-15.419-52.097-26-60-6.629-4.951-25.175-5.222-36-5-.387-2.53.58-1.578-3-2-.909-1.084.078-.085-1-1v2c2.075.372 1.924.242 3 1-27.122-1.323-51.404 25.908-57 52-1.382 6.443 2.202 25.574 4 30l2 1-1 8c2.426 7.62 12.804 11.824 15 20h-1c-6.57-6.85-22.242-19.66-19-32h-1v1c-.775 1.923-1-2-1-2 2.135-4.345-2.952-21.716 0-31 1.572-4.945 5.355-8.09 6-15l2 1v-1c-1.181-2.302-.586-2.78 0-6 4.712-3.908 5.53-10.709 12-13v1c-1.191.867-1.125.822-2 2h1c6.81-10.209 20.252-15.97 32-21 2.685-1.15 5.89-.565 8-2zm-68 3h2c-.909 1.084.078.085-1 1v1c-.804-1.021-.355-.274-1-2zm26 21l-2 3zm-3 4l-4 7h1v-1c1.907-1.73 3.782-4.476 3-6zm-5 8v2h1c-.63-1.754-.193-.971-1-2zm13 82c2.26 1.477 5.061 2.613 2 4v-1c-1.624-1.35-1.121-.64-2-3zm4 4c3.087 1.353 8.131 6.61 11 11h-2c-2.821-4.173-7.22-5.746-9-11zm12 7l3 1v1c-2.39-.842-1.645-.402-3-2zm-1 4c4.174 1.303 10.528 5.723 13 9h1v1h-3c-2.272-4.599-8.104-5.72-11-10zm32 9c48.373-1.059 79.89 7.64 111 30 5.941 4.27 13.691 7.234 18 13 2.976 3.983 3.286 8.41 6 13 4.781 8.088 8.741 12.324 14 21-.188 5.29 1.475 12.391 3 18l1 31c1.927 6.754 5.29 14.508 5 21h-1c-.24-1.76-3.08-12.193-4-14-.497-.976-3.567-1.289-4-2v-19c-1.563-7.932.02-18.5-4-30-5.568-15.933-14.527-31.761-27-41-4.89-3.622-11.377-9.15-16-12-1.954-1.204-4.648-.39-6-2v-4c-.401-.462-4.651-2.793-5-3l-14-4c-6.548-2.675-36.699-16.73-46-11 3.245.828 1.528-.49 3 2h-2c-3.003-1.792-8.524-.84-11-3 2.903.06 5.468.048 7-1-14.929-.096-19.843-.73-32 2v-1c.804-1.021.355-.274 1-2 1.257-.65 2.07-1.09 3-2zm-18 1c12.281 3.225 21.813 17.29 34 17-.02 2.707-1.327 1.61 2 3 5.683 3.877 23.317 5.642 30 14h1v1h-3c-6.688-6.194-9.49-2.79-17-6-13.62-5.82-39.484-17.548-47-29zm36 3h2v1c-1.754-.63-.972-.193-2-1zm20 2h5v2h-1c-.86-.649-3.145-1.338-4-2zm9 21c20.6 12.694 55.889 31.308 60 59h-1v-2c-4.489-3.527-5.53-9.356-9-14-7.537-10.087-21.68-20.018-31-27-4.584-3.434-17.109-9.607-18-13l-1-3zm-2 2h2v1c-1.754-.63-.972-.193-2-1zm-104 4c2.542 1.455 1.128-.217 2 3-9.709 3.194-31.945 28.977-37 38h-1v-2c2.032-2.19 1.337-4.062 3-7 3.856-6.814 11.993-11.245 17-17v-3l3-1c2.232-2.315 4.255-7.458 7-9 3.083-1.733 3.884.3 6-2zm46 15v3c-9.189 2.629-15.443 9.424-24 12v-2h1v-1h-1c4.153-3.329 18.478-11.068 24-12zm4 7h2v1h-2v-1zm-32 5h4v1h-1c-3.453 3.211-8.621 5.89-13 8v-2c3.536-1.094 7.952-4.274 10-7zm-54 8c1.212 2.555-2.204 5.133-3 9 1.332.536-6.958 10.72-9 14-7.105 11.409-8.136 28.705-13 42h-1v-6c2.278-3.944.567-11.253 2-16 2.179-7.218 11.965-33.145 17-36 1.54-1.433 4.745-3.191 7-7zm41 2h2c-.909 1.084.078.085-1 1v1c-.804-1.021-.355-.274-1-2zm204 2c12.94 10.965 23.127 62.743 26 83h-2v-2c-4.393-5.406-4.74-22.003-7-30-4.403-15.583-12.187-31.486-17-51zm-247 3c.804 1.021.355.274 1 2h-1v-2zm204 11c7.884 7.746 12.918 22.884 13 38h-1c-.188-10.91-8.427-20.407-7-28h-1v1c-.775 1.923-1-2-1-2h1v-1c-2.617-.384-1.31.743-2-2-1.344-1.68-1.637-3.143-2-6zM53 289c1.368 3.053-3.695 20.093-5 27-2.277 12.044 1.127 22.789 3 32l-1 3c2.717 11.113 12.943 31.95 19 41 4.335 6.478 15.89 16.35 18 24h-1v1l-2-1v1c-8.751 9.316-8.432 19.255-12 31l-1.835-.612c-.465-.425-.929-.842-1.388-1.25C66.42 436.963 64.66 427.483 70 418c-3.162.008-1.345 1.694-3-1-4.975-6.445-.937-14.914 2-18-2.433-2.105-.557-3.042-3-6 .028 3.901.497 4.5-2 6v1h-1v-2c-2.469-3.794-1.136-10.4-3-15-12.271-30.284-21.231-60.883-7-94zm17.165 158.388C76.711 453.37 83.674 460.931 87 466h-2c-4.12-5.287-11.398-7.114-17-11-10.447-7.246-16.153-18.966-24-29l-3-1c-3.162-2.609-7.686-8.707-10-12-4.336-6.171-10.648-19.845-13-27-2.588-7.87-2.578-17.088-5-22l3 1c3.091 26.32 21.626 45.65 34 64 2.657 3.94 7.157 6.085 9 11 1.922-.552.856-1.641 2 0 2.226 1.453 4.933 3.615 7.777 6.138.073.287.148.575.223.862l1.165.388zM252 302c2.542 1.455 1.128-.217 2 3h-1l-1-3zm1 6c2.26 1.941.45 1.069.891 2.675zm.892 2.675L254 311a3.485 3.485 0 0 1-.108-.325zM254 312c1.184 1.755 1.143 3.251 0 5zm-243 3c.804 1.02.355.274 1 2h-1v-2zm244 3c.91 1.48 5 21 5 21h-1v-1c-4.158-5.077-4.519-12.868-4-20zm-244 4c.804 1.021.355.274 1 2h-1v-2zm280 2c5.943 3.677 9.07 10.534 16 13v1h-3c-2.401-2.288-6.096-3.197-10-4-.812-4.61-2.451-4.729-3-10zm138 0h2v1c-1.754-.63-.972-.193-2-1zm-21 1h7v1h-1c-6.658 4.272-12.195 1.739-18 4-11.3 4.401-46.911 16.025-61 13-12.156-2.61-21.197 2.071-28-5 12.038.191 19.52 3.823 31 2 2.272-.36 3.724 1.666 7 1 6.625-1.348 15.158-1.77 22-4 5.651-1.841 9.79-5.289 17-6-.029 2-1.023.281 0 2 3.663-4.075 19.746-3.4 24-8zm27 0c2.075.372 1.924.242 3 1zm4 1c2.076.372 1.924.242 3 1zm5 1c2.076.372 1.924.242 3 1zm166 10c9.098-.507 15.888-5.657 22-6 6.239-.35 12.242-.672 18-2h12c1.664-.413 3.079-2.391 6-2 14.57 1.952 32.247 3.484 44 8 6.432 2.472 11.778 7.812 18 10v1h-4c-7.354-9.135-27.298-9.27-41-9-2.372.047-11.598-1.415-14-2-13.442-3.273-28.038 2.12-37 0-9.587 3.332-20.198 6.946-34 7l-1-2c5.831-.67 6.861-2.659 11 0v-3zm-163-9h2v1c-1.754-.63-.972-.193-2-1zm2 1c8.357.473 14.412 4.786 21 7l29 7c.207 1.399-.822-.403-1 1-1.923.775 2 1 2 1 7.123 2.886 30.593.001 44 0 31.904-.003 66.416.004 98 0 16.435-.002 39.532-2.515 50 2v2c-2.67 1.441-4.221 1.994-9 2-3.408 1.413-18.036 0-25 0-21.544-.001-37.2.002-58 0-61.775-.005-127.45.085-192 0-.536-1.516-.675-1.693-1-4h1v-1c7.684 1.756 8.748-2.401 18-1 12.486 1.89 55.777 1.72 69 0v-1c-11.54-1.92-38.57-3.12-46-15zm-439 4c3.512 5.896 2.315 22.228 5 30h-2v-6c-3.436-5.187-3.092-15.894-3-24zm614 2c1.02.804.274.355 2 1zm-205 2c6.152-.19 16.011-.665 20 2-4.19.159-8.51.633-12.908 1.364L425 340c.016.203.026.384.032.545C405.886 343.897 385.384 351.999 368 360c-7.795 3.587-13.11.75-21 4-13.492 5.557-29.66 10.556-47 9-.018-3.366-.12-1.465-3-4 26.908 2.254 65.858-15.833 93-26h9c3.294-.925 17.023-4.089 20-6zm-159 2c13.053 10.467 16.63 23.725 37 29v1h-6c-2.618-1.725-5.97-1.608-9-3-8.245-3.787-12.167-9.59-17-17-2.293-3.517-4.5-3.884-5-10zm165.032 1.545c.354-.062.707-.122 1.06-.18L428 341v1c-3.302-.41-2.889.474-2.968-1.455zM689 340c37.536 9.248 51.15 46.807 66 79 5.377 11.657 3.982 26.406 11 36 3.747 5.122 18.14 19.818 24 22h6c5.405 1.823 11.316 5.862 18 7 3.35.57 4.367-2.03 8 0h-1c-9.497 6.509-35.981.753-42-8-.315-.458-4.965-8.501-9-11l-5-1c-2.748-2.954-2.073-8.216-4-12-1.194-2.344-4.756-5.218-6-8-6.538-14.621-4.831-29.312-12-42-9.375-16.593-28.283-32.754-35-50-6.27-.016-10.998-2.107-15-5 1.191-.868 1.124-.822 2-2-2.787-1.35-4.36-2.523-6-5zm-92 1h2v1c-1.754-.63-.972-.193-2-1zm-25 31c-13.759 1.756-30.577 7.258-45 5-9.208-1.441-17.223-8.362-25-12 .058-2.906.964-1.39 0-3-4.837 2.836-32.475-.103-36-1-11.461 3.785-24.566 1.261-32 0-3.552-.603-15.57 1.13-16 2-.484.173-10.398-3.123-12-3-9.815.754-17.613 2.972-25 4v-2c5.898-1.368 13.035-5.374 18-7l18 3c22.97-.9 57.7.171 100-1 10.826-.3 14.792 2.534 23 1 7.257-1.356 18.314.118 24 1 1.307.203 8.707-1.802 10-2 .943-.144 7.127 1.848 8 2 4.642.808 11.416-.144 16-1h19c19.51-.001 29.081 1.851 39 0 18.683-3.487 40.854 1.334 50 0 .759 2.631 1.198 2.385 2 5-4.229-1.223-5.055.927-8 2-1.88.684-4.05-2.672-5-2-.776.548-.884 2.239-2 3v-3l-1 1c-6.01-.365-18.84.275-23 1 .028-2 1.023-.282 0-2-2.23 2.299-13.164 1.846-17 0v2h-1c-2.37-1.438-8.14-.3-14-2-10.032 3.796-24.903-.898-37 2-1.653.396-4.968-2.66-6-3l-2 1c-1.872.781-13 0-13 0-.804 1.021-.355.274-1 2-3.903-2.435-13.772-3.434-19-1-2.973-1.572-32.186-1.789-36 0v-2h-2c-5.166.277-10.509 1.495-15 0v2c7.37.67 14.571 4.41 21 6 3.424.847 24.55.285 30-1 6.388-1.506 11.045 1.76 14 0 .752 1.073.601.946 1 3zm-304-9c2.848 1.972 3.014 3.013 3 8-4.185 4.926-5.213 15.615-10 23-1.14 1.758-4.748 3.214-6 5-2.484 3.544-1.872 7.777-4 12-1.986 3.939-6.658 8.265-8 13-1.497 5.28 3.679 9.922 2 17-1.502 6.332-4.731 10.78-5 18h1c7.711-8.23 20.134-15.375 27-24 4.498-5.651 9.132-13.842 15-18v2c-.878 1.295-.894 2.467-1 5-7.223 4.932-10.285 13.525-16 20-8.59 9.732-18.875 16.678-31 23-5.414 2.823-13.458 8.515-20 7-.387 2.53.58 1.578-3 2v-1c.804-1.021.355-.274 1-2 3.049-.921 4.768-2.25 6-5-2.273.36-1.514.22-5 0-12.71 19.225-74.113 19.484-98 10-5.089-2.02-10.012-1.444-15-4-4.33-2.219-6.624-6.687-9-9-.983-.957-2.085-1.179-3 0-2.86-4.298-6.294-7.862-9-12l-2-10c4.59-6.715 4.393-20.255 11-25 7.252-5.208 25.232-6.626 37-9 21.368-4.31 53.254-3.275 79 5 6.175 1.985 17.082 8.06 22 9 4.767-4.916 11.153-8.166 16-13 7.11-7.091 26.672-36.056 25-47zm325 0c.804 1.021.355.274 1 2h-1v-2zm-294 15h5c-.753 12.505-15.352 31.567-20 39h-1v-2c5.645-6.079 15.09-26.74 16-37zM65 390v2h1c-.63-1.754-.193-.971-1-2zm6 16c-.738 2.4-.805 2.646-1 7h1c.952-1.577 3.633-2.998 2-4-.842-2.39-.402-1.645-2-3zm118 6v1h-1c-1.923.775 2 1 2 1v-1h1c-1.021-.804-.274-.355-2-1zm-103 5h2v1c-1.754-.63-.972-.193-2-1zm149 1l-1 3h1c.058-2.906.964-1.39 0-3zm-3.5 4l.5-1zm-.5 1l.5-1-.5 1zm-4 2c1.481 6.677 4.35 13.708 6 21 3.772-.067 1.822-.544 5 1-3.759-7.717-4.506-17.068-11-22zm5 22c-1.945 7.821-7.591 11.946-10 19h2v-1c4.465-4.785 8.258-10.54 10-18h-2zm35 2c9.124 2.226 22.208 12.018 27 19v3c1.316 1.495 4.921.93 5 1 8.431 7.494 20.063 13.164 28 17v1h-1c-2.854 1.718-3.51-.595-7 0-26.374 4.5-31.961-8.051-49-20-4.498-3.155-10.837-3.494-13-9 1.215-1.774.014-1.75 1-3 3.409-3.9 6.479-6.787 12-6v-1c-2.39-.842-1.645-.402-3-2zm130 40v3c-9.588.207-13.554 2.205-18 3-13.248 2.368-28.796-13.478-36-19-5.671-4.347-17.416-4.811-21-11h1v-1c8.823-.802 11.634-4.806 20-2 19.617 6.58 31.55 24.635 54 27zM87 466h2v1h-2v-1zm311 2c11.188 3.71 34.557 1.577 46 0 2.06-.284 8.21 1.391 12 1 15.02-1.551 41.227 1.337 58-1 3.5-.488 12.713 1 18 1h59c54.196 0 102.506-.105 154 0 .961 1.766 1.257 1.68 2 4h-1c-6.384 4.905-17.999-.847-26 1-7.366 1.7-31.554.757-45 1-3.597.065-11.22-1.375-13-1-7.361 1.549-35.506.226-46 1-3.513.259-10.29-1.35-12-1-7.804 1.602-19.737-.915-27 0-31.501 3.969-59.095-2.453-90 2-.702.101-3.711-1.97-4-2-5.285-.55-19.143.548-22 1-26.164 4.139-56.715-3.618-75 0-10.975 2.171-21.806-.142-26-6 7.814.138 33.36 1.968 38-1zm-92 1c9.765-.257 12.374 2.009 18 5v1h-5c-3.654-1.972-12.405.802-13-6zm20 2l2 2c-1.64 1.738-2.602.04-4-1 1.754-.63.971-.193 2-1zm-5 10c5.24.745 10.847 1.13 16 0 4.054 1.412 7.366 3.89 12 5v1h-1c-1.295.877-2.467.894-5 1-3.648-1.985-6.206 1.488-11 0-2.969-.921-9.174-4.484-11-7zm64 0c23.264 4.037 43.78-1.947 66 1 4.476.593 10.891-2.457 19-1 9.611 1.727 29.302-.467 42 1l16-1c8.327 1.496 21.201-1.242 33 0 31.124 3.277 65.419-2.39 94 1 11.343 1.345 21.705-1.504 30 0 4.539.823 14.885-.388 16-1 13.117 1.1 33.582-.638 45 1 14.102 2.023 24.183-4.235 32 1 .752 1.073.601.946 1 3h-1v1c-15.916 1.685-27.415.39-46 0-11.634-.244-26.027 1.453-35 0-3.738-.606-9.596 1.265-14 1-12.575-.756-33.006.795-44-1-7.358-1.202-19.4.196-25 1-3.944.566-12.89-.742-18-1-19.77-.997-54.76 2.958-73 0-2.264-.367-8.854.604-11 1-3.834.708-7.428-.57-10-1-7.16-1.195-12.745 1.72-21 1-30.455-2.658-70.056 2.525-100-4v-1h1c.771-.682 2.231-1.311 3-2zM0 492l5 1c.63 1.754.193.971 1 2-.63 1.754-.193.971-1 2-1.295.877-2.467.894-5 1v-6zm274 1c2.327.195 2.826.193 4 1"/></g></g></svg>