<svg xmlns="http://www.w3.org/2000/svg" viewBox="0 0 1024 1024"><g><g><path d="M988 0h7c.097 41.31-.678 72.137-2 115-1.13 36.648 5.533 78.529 0 117-.288 2.004 1.928 9.913 2 12 .44 12.786-.164 34.28-2 47-.29 2.002 1.925 9.914 2 12 .174 4.874-1.28 17.105-2 22-1.188 8.077 1.062 17.478 0 25-.45 3.194 1 12.027 1 17 0 18.333-1.055 38.82 1 53 .159 1.095-.994 6.296-1 9-.03 12.733.6 27.912-1 39-.29 2.003 1.93 9.914 2 12 .45 13.575-1.553 34.389-2 48-.454 13.841 3.72 35.111 1 53-2.257 14.836.097 49.684 1 76 .439 12.788-.167 34.278-2 47-.224 1.554 1.775 9.447 2 11 .18 1.245-1.959 6.693-2 8-.356 11.26 2.286 27.049 1 40-1.474 14.84 0 37.854 0 60h-1.971c1.835 5.419 3.481 10.88 7.97 14 1.089 1.105 1.074.388 3 2v-5c-5.045-8.507 1.934-31.578 0-42-1.957-10.557-.857-32.942 0-49 1.25-23.383-2.187-61.226-1-85 .403-8.058.201-24.46-1-33-.976-6.948 1.111-24.829 0-31-.86-4.79.922-6.892 1-9 .384-10.191.212-20.403-1-27-.61-3.322 1.216-4.642 1-7-.823-9.022-.917-13.595 0-23 .51-5.212-.444-19.212-1-23-.396-2.708.487-7.23 1-11 .435-3.187-.943-6.324-1-9-.18-8.679.904-15.91 0-25l3-8c.566-3.304-.298-27.375-1-33-2.938-23.577 4.742-61.362-1-84l2-1c1.28-5.786-1.676-26.774-2-34-.168-3.783 1.824-22.16 2-26 1.412-30.697-2.643-58.48-2-92 .676-35.122-.453-67.47-1-101 0 0 1.777-6.96 2-8-.332-9-.666-18-1-27 1.608-15.8.823-28.565 0-46H1024v1024H0v-11h766c32.545.001 65.813 3.957 89-4l1-3h-3c-4.394 3.482-24.2-.662-33 1-4.445.84-9.094-.246-14-1-10.737-1.65-22.25 2.091-34 0-8.851-1.575-18.826 7.504-32 5-.536-1.516-.675-1.694-1-4 3.555-.704 4.72-.82 6-4h-1c-8.484 7.937-27.122 1.65-41 3-27.612 2.686-61.783-.758-91 1-1.45-.778-20.75-1.38-25-1-10.018.894-26.857 1.858-38 1-2.847-.22-9.43-1.823-14-1-12.46 2.244-32.22 1.612-45 0-11.467-1.447-28.128 3.774-35 0-15.713 1.686-25.495-1.474-42 0-10.536.941-27.905 1.43-39 0-3.327-.43-9.933.423-13 1-6.161 1.16-8.804-1.64-14-1-11.35 1.4-27.506 2.3-39 0-9.708-1.943-20.25 3.7-27 0-15.712 1.685-25.495-1.476-42 0-10.536.942-27.906 1.43-39 0-11.412-1.472-28.09 3.752-35 0-15.715 1.676-25.49-1.457-42 0-10.545.93-27.896 1.42-39 0-11.63-1.487-27.767 3.729-35 0-8.293.856-43.732 2.21-48 0-.96-1.418-.977-3.273-1-6h700c13.42 0 45.723-2.89 53 3 .372-2.076.242-1.924 1-3 6.617 2.872 15.03-6.073 23-6 7.949.073 22.468 2.996 34 6 9.413 2.452 28.075.747 36-1l16 1v2h-2c-.771.682-2.232 1.311-3 2h1v1c12.539-6.717 29.883-19.294 49-20 9.615-.355 24.026 1.84 32 5 6.747 2.674 19.348 10.419 26 9 1.75-.373 3.132 2.643 4 3 2.8 1.154 16-1 16-1 8.662-2.176 12.314-9.73 12-21-2.793-3.641-2.823-9.83-5-14-10.637-20.379-20.28-33.883-11-57 2.378-5.924 2.388-10.678 6-15-.094 3.09-.14 6.33 1 8 .175-15.064 2.305-54.84-3-61-.63 1.754-.193.971-1 2 .09-11.623-17.04-59.687 2-62 .63 1.754.193.971 1 2v-24c-2.48-4.734 1.287-16.867 0-30-1.08-11.028.567-26.095 1-43 1.235-48.209-1.347-97.226 0-148 .28-10.532 1.158-36.002-1-48-.954-5.303 1.677-9.568-1-11-.796-5.077 1.666-10.755 1-14-2.075-10.112.806-19.474 0-24-1.089-6.114 2.636-18.993-1-21-.719-4.478 1.912-10.6 2-14 .445-17.103-1.733-31.384-2-46l2-5c.599-3.263-.161-27.127-1-32-3.612-20.976 3.006-42.13 0-59-1.126-6.32 2.781-18.932-1-21-.113-.707 1.898-5.46 2-6 .757-3.998-.22-16.723 0-23 .329-9.367-2.749-23.305-1-36 .707-5.135.942-26.658 0-32-1.122-6.361 2.775-18.877-1-21-.982-5.885 3.717-10.253 2-19-3.288-16.747 1.452-41.945-1-54V0zm1 811v1c-.804 1.021-.355.274-1 2 1.795 2.638 2.93 5.76 3.995 8.9-.188-3.645-1.2-9.37-2.995-11.9zm-8-20v4h1v1h2v-2c-2.249-1.156-1.487-1.453-3-3zm6 1l-1 3h1v-1c1.243-1.567.642-.51 0-2zm5 3v2h1c-.63-1.754-.193-.971-1-2zm-2 3c.662 2.006.377 3.118 1 4v-1h1l1-3h-3zm1 5l-1 4h2v-4h-1zm-5 21v5h2v-2c-.682-.771-1.311-2.232-2-3zm7 0h2v1c-1.754-.63-.972-.193-2-1zm-5 8c.974 7.628 6.035 10.9 9 16 3.363 5.785 5.081 14.097 8 20 1.915 3.873-4.093 14.478 0 21 .33-5.091 1.797-4.374 3-7 2.045-4.465.959-12.107 1-18l-3 1c-.284-9.43-12.38-28.439-18-33zm15 9c.842 2.389.401 1.645 2 3zm-10 10c.03 8.062 1.102 17.709 2 25 .728 5.914-.89 17.613-2 24-.483 2.779 1.753 5.277 2 7 1.029 7.177-1.031 20.938-1 31 3.273 2.206 5.65 2.653 7 8h1c-1.895-24.948 1.05-49.967-2-66-2.087-10.969-.713-22.5-7-29zm11 9c.752 1.073.601.946 1 3h-1v-3zm2 16c.804 1.021.355.274 1 2h-1v-2zm-18 30v2h1v-2h-1zm4 24h-3c.217-3.347 1.629-15.967-1-20-.273 11.582-.822 19.435 2 28 2.014 6.114 7.209 8.022 8 16l-2-1v1c1.476.975 7.84 4.798 8 5 2.305 2.908 1.977 5.777 5 8l-5-11s-.195 3.908-1 2v-2c-4.312-4.19-11.075-16.049-11-26zm-1 19c1.396 2.006 1.346 2.066 4 3zm-2 5c1.143 1.195 2.545 2.12 4 3zm3 8c-.328 1.384 1.42 1.451 2 2zm8 1c-.329 1.384 1.419 1.451 2 2zm2 3c1.5 3.161 2.431 4.787 6 6v-1c-2.788-1.28-3.572-3.35-6-5zm-5 1c1.169 2.395 1.903 3.543 4 5zm12 2l1 6c-2.227-.388-2.555-1.074-4 0 .804 1.021.355.274 1 2h-1v-1h-1v1c-1.514-1.411-2.209-2.764-4-4v1c3.171 2.787 5.352 3.13 7 7 1.922-.552.856-1.641 2 0h1v1c-2.304 1.32-1.527 2.16-3 4v-2c-.913-.932-1.33-1.755-2-3h-1v2c4.422 5.228 1.775 10.45-1 15h1v-1c.775-1.923 1 2 1 2l-2 1c-1.31.928-1.256-.349-3 1 1.3.555.741.03 1 1-12.422 15.121-45.59 4.84-61-3-3.429-1.744-5.31-5.789-9-7l-26-2c-6.808 1.606-18.252 1.202-22 3-4.266 2.046-7.343 7.483-11 10l-6 1c-3.624 2.108-8.348 6.21-12 8-8.077 3.957-28.804 4.582-30 7h4c4.876 3.02 17.967-.198 24-2 17.416-5.203 44.373-4 70-4 7.842 0 24.432 2.519 30-1-5.645-.701-8.969-3.566-13-5l-2 1c-11.116-3.55-41.074-2.312-51-1v-2h1v-1c5.67 1.289 9.27-2.246 15-4v-1c-1.7.126-10 1-10 1l-1 3c-1.272.626-7.873-.122-10 1-3.46 1.826-10.23 8.059-14 6h2c2.227-2.842 5.341-2.633 8-5 .99-.882.822-3.21 2-4 4.966-3.33 9.027-2.2 16-4 30.582-7.897 52.535 10.092 79 18 5.277 1.577 11.417-1.083 14-2 5.72-2.032 10.499-1.845 15-5 8.295-5.815 12.303-31.106 5-39zm-118 25h2v1c-1.754-.63-.972-.193-2-1zm42 0c.804 1.021.355.274 1 2h-1v-2zm-157 4c-6.398 3.792-17.41 2.594-21 9h1v1c7.152-2.781 14.1-6.178 22-8 6.669-1.539 17.034 2.177 22-1-9.534-.49-15.39-.282-24-1zm128 1c1.737 1.077 2.27 1.035 4 0zm7 0c2.26 1.63 10.738 1.604 13 0zm22 2c1.021.804.274.355 2 1zm-187 2v2h1v-2h-1zm1 4c1.737 1.077 2.27 1.035 4 0zm119 4h2v1c-1.754-.63-.972-.193-2-1z"/></g></g></svg>