<svg xmlns="http://www.w3.org/2000/svg" viewBox="0 0 1024 1024"><g><g><path d="M0 0h32v2c-3.093 5.062.574 20.39 0 28-1.74 23.051-1.255 49.481 0 76 .801 16.925-2.959 44.004 0 61 .802 4.608-1.376 15.107 0 22 1.916 9.6-1.347 19.342 0 27 2.323 13.207 1.145 40.116-1 54-.393 2.546 1 10.682 1 15 0 14.769-.602 31.863-1 45-2.076 68.567 4.024 117.613 2 180h1c1.384-1.105 2.873-1.494 5-2v-7c3.887-6.358 1.113-26.49 1-32-.43-20.844.246-55.75 2-68 1.563-10.915-2.555-20.928-1-32 .898-6.395.03-18.722 0-27-.073-19.587-.771-38.583 1-56 .873-8.587-1.713-20.037-1-30 1.258-17.591.534-36.687 0-58-.029-1.14 2.134-5.243 2-7-.769-10.056-2.059-25.84 0-39 1.853-11.85-2.542-22.982-1-37 1.047-9.52.128-24.03 0-35-.261-22.41.113-54.563 0-80h5c-.44 34.99-.726 71.816 0 105 .303 13.857.8 36.4 0 44-1.326 12.589 4.02 47.724-1 56 3.311 24.784 1.957 69.864 0 88-.303 2.807 1.006 8.698 1 13-.02 13.783-1.185 26.002 0 33 1.458 8.61-2.277 12.603-1 20 1.243 7.201 1.476 12.797-1 18 2.595 26.038 1.52 53.827 0 70-.51 5.42-.473 25.078 2 30-.186 4.026-1.702 8.415-2 14-.161 3.028 1.307 9.796 1 11-1.485 5.824-9.751 11.277-13 16-6.045 8.786-11.392 20.695-14 32h3v3l2-1v1c1.686 2.488 7 20 7 20-.555 1.3-.03.741-1 1-6.036-5.998-6.655-16.2-12-23v2c-1.716 2.586-.981 6.52-2 10-8.533 29.148-2.362 68.39 8 93 5.03 11.946 14.73 15.726 15 33-.765 1.756-.278 10.904 0 13 .397 2.995-.64 6.523-1 8-.264 1.082.634 5.204 1 7 .945 4.636-1.144 11.225-2 16-.499 2.782 1.33 2.484 1 4-1.882 8.661 2.755 22.791 0 26-1.146 1.456-2.003 2.2-3 4h-1v-2c2.35-3.878-1.197-12.386 0-19 2.127-11.753 1.769-62.616-4-71-1.073-.752-.946-.601-3-1-1.34 1.902-1.283.874-2 4 2.789 4.733-.195 15.297 1 24 2.353 17.138-1.652 52.027 1 69 1.108 7.094-3.236 20.104 1 26v-2c.596-.633 7.98-11.942 8-12 .744-2.284-1.178-6.81-1-9 3.564-1.236 3.5-3.276 6-5 13.745-9.481 24.22-19.804 36-31 2.625 1.96 6.184 3.566 9 5-3.408 3.55-8.165 5.891-11 10 2.265-.4 1.084-.918 3 0-1.084.909-.085-.078-1 1-3.011.997-2.657-.398-4 2l1 1h-2v-1c-1.01-.99-.989.985-1 1-3.58 3.687-12.02 14.781-18.904 20.157A17.504 17.504 0 0 0 52 777v.232c-1.818 1.408-3.524 2.412-5 2.768-.005 3.09-.34 5.133-1 7h-2c-.372-2.076-.242-1.925-1-3 .037 3.323-.28 5.963-1 8h-1c-.195-2.328-.193-2.826-1-4v1c-4.722 4.886-5.41 10.648-8 18l-4-2c-1.22 8.595-.914 12.123 1 20h-2c-1.934-3.744-2.59.686-3-6-2.238-3.634-.486-7.168-1-11h-1v1c-1.644 2.477-1.123 8.9-1 13 3.872 3.416 4.917 8.764 7 14h-2v-1c-2.121-2.472-2.052-7.274-4-10v1h-1c1.504 3.337 2.655 6.201 3 11h-1v-1c-2.311-3.22-.614-4.833-3-8-.03 4.891-.054 9.261 2 12-.364 1.545-2.682 5.888-3 8-.101.67 1.342 6.466 1 7 0 0-4.177 6.59-4 9 .994 13.535 3.674 20.326 6 30 1.046 4.349-.498 13.755 1 18 .177.5 2.73 3.074 3 4 1.085 3.735-1.264 6.205 1 11 1.019 2.158 3.272 2.787 4 4l-1 3h2c.598 1.33.11 5.196 2 8 1.49 2.211 5.883 4.762 7 7l-1 3c6.737-.88 16.411 19.603 22 24 5.571 4.383 12.19 5.99 17 11 1.754-.63.971-.193 2-1 .478-.402 2.43-2.498 3-5-1.925-1.896-2.918-3.991-2-6 .663-2.647 1.763-5.736 4-7 4.637 10.864 16.888 13.241 27 21 31.065 23.835 91.882 23.261 109-13h1c.074 2.532.12 3.716 1 5v-4c6.275-.54 12.436-5.82 15-9 23.663 9.633 34.262 34.034 59 43 10.41 3.772 23.86-1.348 37 0 17.138 1.758 33.867.998 55 1 5.452 0 14.28-1.377 18-1 12.627 1.278 27.282 1 46 1 5.083 0 12.514-1.39 16-1 19.687 2.206 55.463 2.038 75 0 2.244-.234 9.079.999 13 1 17.343.005 32.729.282 45-1 6.512-.68 18.7 1.002 27 1 28.127-.007 64.054 1.63 89-1 7.468-.787 20.73 1.015 30 1 23.481-.039 53.902 1.639 79-1 10.852-1.141 32.166 1.88 46 0 7.681-1.044 39.527 4.614 47 0-5.638-1.042-7.41-4.981-13-6-6.032-1.1-26.31.811-38 0v-3h2c20.76-14.063 42.37 5.03 65 11 13.888 3.664 22.78-6.535 32-9v2c-3.245.828-1.528-.49-3 2h1c2.986-2.134 12.748-7.882 14-8v-1c1.01-.99.988.985 1 1 2.646 2.324 2.542 2.934 8 3 5.304 3.717 19.095-2.233 21-6-1.495-1.552-.777-1.838-3-3-2.413 1.48-4.36.355-8 0 .818 2.531.81 3.47 0 6-4.504.454-5.15.32-10 0l-1-6h-3c-5.205 4.836-15.213 4.281-21 6-14.365 4.266-31.266 6.692-44 0-5.89-3.096-13.12-10.028-20-12-4.868-1.396-14.767 1.524-17 3l-5 7c-3.947 2.875-21.206 5.654-24 4 16.443-2.463 17.571-8.226 31-16 4-2.315 13.81-3.242 14-3 11.343 7.201 34.21 15.841 49 16 5.015.054 9.718-4.61 13-6h7c2.375-.656 4.478-3.298 6-4 8.66-3.998 26.663-.943 36 1 .891 2.684 1.028 2.59 3 4l-1 5c2.076.372 1.924.242 3 1h-2c-5.646 14.25-39.61 3.21-51 12 22.451.063 39.01.06 61 0v12H0V0zm191 0h5c-.273 97.23-.05 183.156 0 279-1.516.535-1.694.675-4 1v-2c-1.9-3.065-.005-8.172 0-11 .028-17.818-.28-40.79 0-59 1.052-68.52-1.06-135.17-1-208zm-4 280c16.386 5.42 25.145 20.444 21 40h-1c.528-19.343-3.556-31.179-18-37v2c8.046 7.878 10.051 19.798 11 30h-2s-.195-3.908-1-2v2c-3.467 5.425 1.276 13.915 1 16l-2 1c-.984 3.181.986 7.296 1 9 .063 7.903-.323 18.278-1 23-.442 3.078 2.778 12.458 2 13v1h-1v-1c-2.937-1.998-4.14-4.975-7-7 2.374-7.558 1.086-23.035 1-34h-2c-1.72.88-1.278.889-3 0 1.754-.63.971-.193 2-1-1.754-.63-.971-.193-2-1 4.998-.608 5.098-1.4 5-7 1.676-4.87-.387-19.807 1.102-29.266.646 4.122 2.752 10.328 4.898 13.266v-6c-2.105-1.808-2.002-2.919-2-7l-2.786-.929c.202-1.12.46-2.153.786-3.071-4.432-3.267-7.767-10.131-6-14zm5.214 17.071c-.04.218-.077.439-.112.663-.04-.253-.074-.498-.102-.734l.214.071zM206 320c.751 1.073.601.946 1 3h-1v-3zm-23 17c2.076.372 1.924.242 3 1h-2c-.692.132-1.944.053-1-1zm-4 3h2v1c-1.754-.63-.972-.193-2-1zm-5 2c2.076.372 1.924.242 3 1-7.444 6.084-12.095 22.266-8 34h-2v-4c-6.647-9.833 3.806-24.683 7-31zm10 5c1.61 4.088-4.63 7.973-3 16 .798 3.932 3.18 8.96 4 12l-1 4c.884 2.637 3.888 3.237 5 7h-1v-1c-9.95-8.042-9.637-23.454-6-37 1.754-.63.971-.193 2-1zm-16 31c2.467 1.294.68-.43 2 2 1.597 2.065 4.009 6.894 5 9l-1 3c3.657 6.192 11.598 11.469 15 18l1 7c3.502 6.567 8.99 11.028 8 18-.695 4.895 4.549 13.402 0 20 .406-40.159-25.112-47.783-30-77zm23 10c2.968 1.853 5.764 4.362 7 8h-2v-1c-2.302-1.917-3.952-3.742-5-7zm7 8c2.006 1.397 2.066 1.346 3 4h-1c-1.021-.804-.274-.355-2-1v-3zm5 6c9.887 9.66 18.208 39.318 13 54h-1v-2c7.91-12.08-11.17-42.29-12-52zm-4 29c.804 1.021.355.274 1 2h-1v-2zm-10 3c.804 1.021.355.274 1 2h-1v-2zm1 4c11.298 14.346 6.106 80.237 6 109h-1c-2.539-3.71-4.643-3.609-5-10-2.083-5.13 2.151-20.387 1-30-1.6-13.349-3.212-32.21-1-44 2.08-11.087-2.605-16.88 0-25zm26 18c5.262 7.895-8.357 30.76-11 36l-2-1c-.045 2.703.168.66-1 4h-1v-5c8.891-2.732 13.26-24.155 15-34zm-32 5c2.467 1.295.68-.43 2 2h-1v1h-1v-3zm-3 4c2.931 2.516 3.137 3.996 3 12-.682.771-1.311 2.231-2 3v-1c-2.245-2.613-1.66-3.896-4-7 1.353-1.725 2.128-4.847 3-7zm0 5l1 5h1v-3c-2.03-1.638.702-1.166-2-2zm-3 5c2.538 3.595 1.834 9.134 2 13h-2c-.327-2.212 1.038-1.08-1-2-.891 2.684-1.028 2.59-3 4v-3c.143-.363-1.2-3.957 0-6 1.655-2.82 3.342-.517 4-6zm-15 24l-1-8c-.804 1.021-.355.274-1 2-1.143 1.336.706 1.66-1 4-2.257 3.095-7.308 3.777-9 5 .804 1.021.355.274 1 2-3.287-.789-15.087.956-19 0-6.938-1.695-15.55-6.86-23-9-6.974-2.004-14.723 2.4-19 4-11.271 4.215-21.015 7.805-28 16-2.063 2.42-1.682 7.883-4 10h-4c1.093 2.285.822 2.737 0 5h-3c-.828 3.245.49 1.528-2 3-1.35-1.624-.64-1.121-3-2v1h-1c2.173 4.575 1.232 9.891-1 13-1.457-2.502-.586-2.156-4-3v2c2.5 3.08 2.607 8.175-1 10-1.073-.752-.946-.601-3-1 .648 4.392 3.3 6.085 2 9v2c-.804-1.021-.355-.274-1-2-2.062-1.928-1.442-5.555-3-8-1.073.752-.946.601-3 1 .633 4.611 2.282 6.25 3 11h-1c-1.146-1.456-2.003-2.2-3-4h-1c-1.024.64-.204 2.169-1 1-.86-1.386 1.082-1.87 0-5-.664-1.92-4.207-4.442-5-6-2.214-4.349.414-11.954 1-15 2.266.4 1.084.918 3 0 1.718-2.732-1.428-6.34 1-9 8.928-9.783 23.086-28.25 39.776-39.078L69 489v-.223c9.664-6.222 20.171-9.866 31-7.777l13-1 26 7h-2v2h1c1.417.96 3.273.976 6 1v-1c-3.571-.281-3.334-.107-5-2h5c.75.296 3.553.555 6 1-.552 1.922-1.641.857 0 2 7.06 4.009 17.076-4.792 23-8v5c-1.084 1.511.666 6.765-2 11 .117-3.28.236-7.184-1-9-1.02 1.519-1.498 1.967-3 3 1.478 2.509 1.7 4.637-1 8-1.073-.752-.946-.601-3-1zm-94-10.223a77.03 77.03 0 0 0-.224.145c-2.119-.737-1.465-.376-2.776-1.922l3 1v.777zM61 488c.804 1.021.355.274 1 2h-1v-2zm117 1c.859 1.883.474.738 0 3h-1l1-3zm5 23c.803 1.18.773 1.681 1 4h-1v1c-6.246.196-6.847.966-12 2v-2c5.194-.245 9.331-2.182 12-5zm-85 1c11.334-.114 19.388 3.583 29 5 2.524.372 10.854-1.181 12-1 7.543 1.19 16.53-3.488 22 0-3.312.365-6 1.302-8 3l18-1v1h-2c-5.21 4.102-37.936 3.2-45 1-5.43-1.691-14.64-7.234-23-5-16.554 4.424-21.82 13.517-35 22v-2c4.62-4.28 7.696-11.581 13-15 5.837-3.763 14.037-3.503 19-8zm67 1c2.075.372 1.924.242 3 1zm-4 1c2.327.195 2.826.193 4 1zM47 525c-1.133 1.546-1.085.843-2 3h1c1.021-.804.274-.355 2-1-.63-1.754-.193-.971-1-2zm173 123v-6c-2.266.4-1.084.918-3 0 2.237-3.798-1.505-8.588-2-14l2 1c-2.378-4.56-6.683-10.655-5-14 .555-1.3.03-.741 1-1 2.62 2.596 2.167 6.943 4 8 .828-3.245-.49-1.528 2-3 .63 1.754.193.971 1 2v-2c-.053-.093.298-5.925-2-9-.161 2.612-.43 3.395-1 5l-2-1c-.65-1.257-1.09-2.07-2-3 .568-2.558 1.538-5.266 3-7v2c.913.932 1.33 1.755 2 3h1v-3c-3.229-1.942-.82-3.224-3-6h-2c-3.853-3.572-8.988-8.772-12-13-3.013-4.23-5.17-12.21-8-14-.691.14-.209-.243-2 1-1.468-6.445-7.771-6.97-10-13h1c1.35 1.624.64 1.121 3 2v-1c-8.717-3.806-17.118-8.747-26-12-10.892-3.989-19.733-2.595-27-4-34.985-6.765-61.958 15.415-74 32 .752 1.073.601.946 1 3-3.315.164-4.897.094-5 6-2.329.294-2.477.451-4 1-.496-4.477-1.414-12.448-3-17 6.254-3.6 7.851-11.305 12-17 5.18-7.11 16.47-14.417 24-19 8.47-5.155 41.26-13.449 60-8 8.326 2.42 19.218 5.003 27 9 2.445 1.256 5.365 4.938 8 6l3-1c2.033.943 23.723 24.982 25 27 1.754 2.772 2.128 7.047 3 8v-1c1.01-.99.988.985 1 1 8.9 11.239 15.515 56.16 9 75-1.922-.552-.857-1.641-2 0-.814 1.188-1.489 4.59-2 6h-1v-4c.778-1.065 1.49-3.692 2-5h3zM38.5 530l.5-1zm-.5 1l.5-1-.5 1zm-4-1c-.536 1.516-.675 1.693-1 4h1v-1c.88-1.72.889-1.278 0-3zm5 4l1 6h2v-1c.804-1.021.355-.274 1-2-.752-1.073-.601-.946-1-3h-3zm-5 4c-.558 1.603-.8 2.404-1 5h2v-1h1c-.525-1.26-1.198-3.033-2-4zm-5 3c.074 2.532.12 3.716 1 5zm7 4c-.797 2.722-.546 2.91 0 6h3v-2c-1.211-1.406-1.52-2.79-3-4zm-15 2c.804 1.021.355.274 1 2h-1v-2zm9 7c2.329-.294 2.477-.452 4-1v-1h-1c-1.295-2.467.43-.681-2-2v-1c-1.01-.99-.989.985-1 1h-1c.535 1.516.675 1.693 1 4zm-12 5c5.16 4.652 7.957 23.188 10 27-2.389.842-1.645.401-3 2h-1c-2.543-10.827-6.14-15.511-6-29zm169 4c1.713 1.68 3.692 2.669 5 2h1c-1.021-.804-.274-.355-2-1-1.153-.822-1.24-.47-4-1zm7 2c1.35 1.624.64 1.121 3 2zm-163 2c.804 1.021.355.274 1 2h-1v-2zm5 1c.804 1.021.355.274 1 2h-1v-2zm166 2c-.329 1.384 1.419 1.451 2 2zm-5 5v2c6.062 2.01 10.214 7.532 14 12v-3c-4.953-3.273-8.589-7.808-14-11zm-152 3h2c.275 7.55 2.38 11.8 1 19h-1v-1c-1.183-2.576-3.801-12.645-2-18zm9 1v2h2v-2h-2zm-12 8c2.374 3.545 3.418 12.497 4 17-2.845.017-.392-.788-3 1-.924-5.766-2.324-11.401-1-18zm9 2c.804 1.021.355.274 1 2h-1v-2zm158 1c1.021.804.274.355 2 1zm6 0l1 4h1c-.587-2.245-.748-2.655-2-4zm-10 3c2.588 2.443 3.325 3.914 1 7zm3 4c3.367 1.524 3.699 2.722 6 5-1.202 3.61-.8 6.04-3 7v-1c-2.448-2.225-3.582-3.509-4-8l2 1c-.536-1.516-.675-1.694-1-4zm-170 1c4.047 5.181 5.883 15.979 3 20zm171 10c1.772 1.919 1.896 3.136 2 7h-1v-1c-.96-1.418-.977-3.273-1-6zm-174 3h2c.294 2.329.451 2.477 1 4h-2v-2c-.804-1.021-.355-.274-1-2zm155 4c5.555 6.655 2.918 16.312 1 25-.804-1.021-.355-.274-1-2-1.635-4.598-.068-15.881 0-23zm-153 1h2l2 9h-2v-2c-1.521-1.895-1.789-3.59-2-7zm-2 3c1.077 1.737 1.035 2.27 0 4zm1 4c1.877 1.924 2.514 3.524 3 7h-1v1h-1l-1-8zm177 6c.804 1.021.355.274 1 2h-1v-2zm-175 2c2.344 3.2 4.335 8.621 5 13h-1v-1c-2.819-2.874-4.59-8.697-4-12zm25 5c4.354 4.034 5.231 8.74 6 14-2.688.423-2.197 2.477-2 8 1.325 1.712 2.278 3.934 2.973 6.382.222 1.61.602 3.354 1.088 5.16.562 3.674.77 7.418.939 10.458h-1v-2c-1.642-1.78-9.271-23.344-7-28 .606-1.242 2.065.103 3-5-3.75-1.974-1.393-2.575-3-5-.63 1.754-.193.971-1 2v-6zm2 0h2v2h-2v-2zm-6 3c2.542 1.455 1.128-.217 2 3h-1l-1-3zm1 5c.804 1.021.355.274 1 2h-1v-2zm157 1h2v1h-1v1c-.804-1.021-.355-.274-1-2zm-28 9c.803 1.18.773 1.681 1 4h-2v-2c.804-1.021.355-.274 1-2zm25 3c1.624 1.35 1.121.64 2 3h-1v1h-1v-4zM71.06 669.543c-.27-1.765-.62-3.514-1.088-5.16-.285-2.066-.312-3.911.027-5.383 8.435 5.826 10.368 15.49 17 23 4.339 4.913 10.69 8.013 16 12l8 9c16.423 12.225 34.127 22.173 57 28v1h-8c-1.481-.946-9.852-4.253-12-5-3.107-1.08-3.234 2.284-7 1-1.997-.68-5.83-4.31-8-5l-4 1c1.88-4.085-8.046-6.19-12-8-10.96-5.016-20.51-14.658-30-18-2.667-5.154-5.326-15.632-10-19v1c1.96 2.005 4.72 8.667 4 10v1l-2-1c-2.141-4.573-5.942-13.043-7.939-20.457zM213 661c2.181 2.596-.093 5.838-2 10h-1v-1c-.246-2.354 2.168-4.807 3-9zm-150 2c.804 1.021.355.274 1 2h-1v-2zm115 7c.752 1.073.601.946 1 3h-1v-3zm34 0c.804 1.021.355.274 1 2h-1v-2zm-37 1c1.697 2.643.38 5.306 0 9l-5 3v-3c2.165-2.286 3.6-6.027 5-9zm33 0c2.885 3.791-5.986 10.51-9 15h-1v-1h-1v-1c4.556-1.598 9.546-8.306 11-13zm3 1c.875 2.085.089 2.502-1 5h-1v-2c.913-.932 1.33-1.755 2-3zm-43 6c-.662 4-1.957 4.388-3 8h-1c-.372-2.076-.242-1.925-1-3-1.752 13.007-21.173 15.356-32 13-3.95-.86-9.856.693-11 0-1.52-1.02-1.967-1.498-3-3 1.084-.909.085.078 1-1 2.45.789 1.753.487 5 1-.392-2.933-1.636-1.253 1-3 3.493-2.256 7.686 1.133 16-1 11.501-2.95 20.665-9.955 28-11zm-124 9c.752 1.073.601.946 1 3h-1v-3zm152 0c2.305 1.345 1.823 1.22 2 2-1.336 1.107-3.444.898-5 2-2.027 1.436-1.498 3.632-4 5v-1c1.06-1.755.601-2.183 1-5 3.542-.344 4.609-.435 6-3zm-81 3c.913.932 1.33 1.755 2 3h-2v-3zm-20 4l-1 2h1c-.216 1.398 1 1 1 1 1.224-1.236-1-3-1-3zm166 75c-3.245.828-1.528-.49-3 2 1.327 1.832 1.29 5.17 0 7-.483-3.827-1.645-5.222-3-8l-5 1c-.356-1.316-5.1-13.436-6-14v1c-1.01.99-.989-.986-1-1h-1v-1c2.524-1.752 2.639-1.838 3-6h-1c-.161 2.612-.43 3.395-1 5h-2c-5.947-18.312-51.545-33.287-70-38l-13-1c-.322.165-4.25 5.486-6 3-3.59-.746-16.651-7.785-18-9-.804-1.021-.355-.274-1-2l3-1c4.37-2.813 31.227.017 40 2 16.892 3.819 62.7 15.979 67 37 .804-1.021.355-.274 1-2 .928-1.31-.349-1.255 1-3 6.808 8.185 10.145 3.013 13 18h2c-.52-2.243-1.163-2.899 0-5v1c7.597 8.116 3.43 22.847 4 34h-1v-2c-3.842-3.982-1.986-11.55-2-18zm-109-53c1.72.881 1.278.889 3 0zm-31 3h2v1c-1.754-.63-.972-.193-2-1zm-34 25h2v1c-1.754-.63-.972-.193-2-1zm-2 1h2l-1 2c-2.876 1.714-4.577 3.816-8 5v-1h1c1.73-2.562 4.173-3.63 6-6zm163 0l2 6h1c-.308-4.19-.53-4.222-3-6zm-16 1c1.623 1.254 2.007 2.101 3 4h-2v-1c-.752-1.073-.601-.946-1-3zm8 2c1.021.804.274.355 2 1zm1 3c1.66 1.116 1.068 1.77 2 0zm12 4h-4v1c2.61 1.256 2.109 1.063 3 4h1v-5zm5 7c.96 2.663-.895 2.346 2 4v-4h-2zm-10 1c1.648 3.553 2.391 4.357 6 6v-4c-.252-.968-.784-.38 0-1-1.418-.96-3.273-.976-6-1zm21 5c2.26 1.94.45 1.069.892 2.675zm.892 2.675L270 771a3.485 3.485 0 0 1-.108-.325zM270 771c2.438 2.64 3.494 7.517 4 12l-2-1v1c.918 1.8-.133 9.624-2 14h-1c.203-9.457-.346-6.704-2-12-.522-1.67.792-7.968 0-12h1v1c.682.771 1.311 2.231 2 3v-6zm-230 3c-.962 1.766-1.257 1.68-2 4h1v-1c1.322-1.737 1.727-1.607 1-3zm12 3.232l.096-.075c.977 1.614.907 2.167-.096 3.843zM276 780c5.95 5.909 9.963 28.175 0 34zM37 794c2.022 1.737 1.868 2.145 2 6 1.513 2.304.624 5.06-1 7l-1-13zm234 3c1.464 2.089 1.823 5.684 2 9h-1v-2c-2.883-1.843-1.452-2.748-1-7zm-242 5v2h1c-.63-1.754-.193-.971-1-2zm5 3c1.263 1.786 1.224 4.218 0 6zm-5 2c2.743 2.222 3.837 11.566 5 17h-2v-2c-2.574-3.258-3.024-9.256-3-15zm6 5c.752 1.073.601.946 1 3h-1v-3zm245 1c1.05 1.55 1.03 4.085 1 7h-1v-1c-1.221-2.14-.388-2.77 0-6zm9 31c2.92 2.42 5.897 7.95 7 12 2.906-.058 1.389-.964 3 0 4.14 5.17 4.028 8.177 14 8 11.19 9.553 46.881 1.964 62-2 10.663-2.796 41.22-16.287 62-11 11.317 2.879 18.988 6.55 29 11v1h-4c-4.146-2.88-13.391-3.973-17-4l-19-3c-4.67 2.885-15.267 3.332-24 6-10.3 3.147-18.667 7.8-32 9l1-2h-1c-3.724 2.957-11.9 4.933-17 6l-5-1c-2.358.736-6.423 4.19-9 5-19.642 6.179-42.375-10.094-45-18l2 1c-.621-2.449-.605-4.873-2-8h-1v2c1.96 2.51 1.321 1.64 1 5h-1v-1c-2.727-3.467-3.42-10.58-4-16zm396 19v-3c-9.513-.425-25.685-.543-32 0-2.892.249-11.436-1.281-17 0-6.083 1.4-20.137 8.2-26 5h-1v-1c7.089-.589 11.727-4.136 17-6 6.981-2.469 13.702-1.098 18-1 6.528.149 10.586-2.157 15-3 4.588-.877 14.013 2.687 19 4 4.398 1.158 20.685 2.012 25 1 9.926 3.582 20.33 9.932 30 13v1h-1v1c-1.766-.962-1.68-1.257-4-2v1h1c5.082 4.809 11.789 7.32 16 13 3.995 5.387 6.27 13.748 12 17-.86 1.51-2.849.742-1 2 1.285 1.834 1.968 1.712 3 4-2.266-.4-1.084-.918-3 0 3.22 1.816 4.873 2.91 6 7h-1c-.868-1.191-.823-1.125-2-2v2c3.106 2.119 5.775 6.073 7 10h-1l-7-5v1c.803 1.18.773 1.681 1 4 3.35 2.014 4.966 4.86 8 7-.525 1.26-1.198 3.033-2 4-5.244-5.595-11.502-10.662-15-18-.055-.115.274-8.544 0-9-.625-1.04-4.24-1.728-5-3-13.366-22.396-25.32-42.95-60-44zm-83 2c2.076.372 1.924.242 3 1zm122 5c1.35 1.624.64 1.121 3 2zm9 3h2v1c-1.754-.63-.972-.193-2-1zM47 884c1.184 1.754 1.143 3.251 0 5zm0 6h2v1c-1.754-.63-.972-.193-2-1zm0 2h2v1c-1.754-.63-.972-.193-2-1zm2 7c2.477 3.423 3.654 9.83 4 15h-2v-5c-1.767-2.388-1.994-5.777-2-10zm6 1h2c-3.458 11.803 6.745 26.982 8 40h-1v-1h-1c-3.444-7.607-12.964-25.882-8-39zm694 5c-.328 1.384 1.42 1.45 2 2zM78 954c-1.172-6.578-7.001-10.109-8-13h1v-1c-2.933.392-1.254 1.636-3-1-4.943-5.466-8.733-18.666-9-28l4-1c1.886 15.412 18.188 26.557 24 41-4.88.619-3.517 1.526-6 4-1.073-.752-.946-.601-3-1zm677-44l.765 2.294zm.765 2.294L756 913l-.235-.706zM265 914c2.239 3.078.839 9.824-1 12v-1c-.804-1.021-.355-.274-1-2 1.082-1.705 1.361-7.074 2-9zm-213 1h2v4h-1v-1c-.752-1.073-.601-.946-1-3zm701 1l2 5h2v-1c-1.685-1.27-2.316-2.73-4-4zm-494 23h-3v-1c1.076-1.738 1.035-2.27 0-4-.268 5.937-2.1 8.932-4 13-2-.029-.282-1.023-2 0-3.955 5.005-2.408 7.675-6 9 .27-4.455 2.296-3.596-2-5-4.24 2.137-2.548-1.315-5-2-2.12-.592-2.907 1.507-5 2v-3c4.4-3.624 11.219-9.635 15-16l3 2c.245-2.74.722-5.314 2-7v1c1.05 1.55 1.03 4.085 1 7-1.76 2.468-2.68 6.359-3 10h1v-2c3.34-4.292 2.82-13.611 4-20h1c.29 4.89-.368 8.905 2 10v-5c1.855-2.774 1.318-7.656 1-10h2c.764 7.43-1.52 13.021-2 21zM54 919c2.036 2.593 3.188 7.383 4 11h-1v-1c-2.738-2.874-3.354-6.597-3-10zm711 9c2.61 1.256 2.11 1.063 3 4h-1v-1h-1l-1-3zm-9 3c1.116 1.66 1.77 1.069 0 2zm-673 2c3.843 1.187 4.645 2.21 5 7h-1v-2c-2.272-1.47-3.01-2.103-4-5zm675 0c3.655 2.075 15.976 11.991 17 16h-1c-5.482-4.2-11.062-6.58-16-11 .273-3.33.373-1.66 0-5zm-693 7c1.98 1.672 2.88 4.538 4 7h-2v-2c-2.157-2.173-2.38-2.621-2-5zm697 5c.804 1.021.355.274 1 2h-1v-2zm1 2c4.427.602 16.71 9.404 17 11 .804 1.021.355.274 1 2h-1c-7.359-5.004-12.971-4.53-17-13zm6 11c6.29 1.903 11.107 6.128 18 8v1h-1v1c-1.956.417-.72-1.536-2 0h1c2.435 2.146 4.548 1.563 6 5 .804 1.021.355.274 1 2h-1c-1.02-1.519-1.498-1.967-3-3v1c3.454 2.783 8.79 4.64 8 9 7.775 1.23 10.975 4.234 17 6 13.544 3.97 24.522-2.96 32-5 .805-.22 6.08 1.392 9 0l5-6c8.415-5.486 22.438-11.169 33-11 3.61 9.617 15.889 4.255 16 20h-2c-5.352-6.585-14.202-10.194-19-17-7.465 2.639-24.994 6.93-28 13h1v1c9.017-4.253 18.425-9.224 27-11 1.121 2.091 1.434 1.832 2 5-24.49 8.876-68.814 29.527-96 13-7.818-4.753-12.91-11.905-17-18 2.532-.074 3.716-.12 5-1-5.595-.906-6.808-3.908-10-7 .899-2.19.862-1.443 2-3-2.684-.891-2.59-1.028-4-3zm-7 9c4.07 3.179 4.915 7.794 8 12 6.28 8.56 15.724 18.442 25 24 3.19 1.912 8.011 1.017 10 1 5.967-.052 18.412 4.635 26 3 7.062-1.522 17.347-4.633 24-4v1c-10.017.376-16.961 6.649-26 4-.467 2.87-5.141 2.218-11 2-4.614-2.822-17.027.22-25-4-13.906-7.36-28.474-20.959-31-39zm23 6c1.35 1.624.64 1.121 3 2v-1l-3-1zm207 21v5h2v-1c-.649-.86-1.338-3.144-2-4zm5 3v1h-1c-1.923.775 2 1 2 1-.63-1.754-.193-.972-1-2zm20 2h6c.599 1.725.89 3.152 1 6h-1v1c-2.65-.687-2.408-.34-6 0-.536-1.516-.675-1.694-1-4 .751-1.073.601-.946 1-3zm-46 2c2.076.372 1.924.242 3 1"/></g></g></svg>