<svg xmlns="http://www.w3.org/2000/svg" viewBox="0 0 153 109">
    <g>
        <g>
            <path
                d="M56 0c6.013 1.032 22.808 1.98 29 6 14.704 9.547 18.732 34.041 22 49h-3c-3.897-18.01-5.986-30.59-18-41-2.799-2.425-11.082-5.19-14-4-19.533-11.01-50.448 3.595-58 19l-2-1c.004.905-.59 6.38-1 7l-3 1c-2.848 4.076-4.778 29.36-4 32C7.27 79.1 15.73 86.813 20 96h1v-1c.953-1.682 3.952 3.213 6 4 6.91 2.656 15.698-.502 19 5h-1c-.74.872-1.26 1.128-2 2-15.712-4.93-27.314-8.093-36-21C-6.008 65.672.455 31.921 14 18c6.541-6.723 17.93-12.123 28-15 5.5-1.571 9.955-.378 14-3zm-4 16c3.302.908 6.102.153 10 0 8.572-.337 24.2 14.962 27 21 3.149 6.79 1.778 17.6 4 22 1.142 3.703 4.329 7.721 8 9 10.057 8.47 17.89-2.378 25-5v3c-3.507 2.247-8.095 5.964-11 9-14.818-2.45-23.096-7.365-27-17-4.823-6.622.09-11.723-2-17-3.19-8.055-8.725-17.954-19-19-3.414-2.25-10.673-.191-14 0-25.105 1.444-33.169 19.38-32 46 5.74 3.253 7.387 12.378 13 16 7.714 4.978 18.481-.105 28 3-.909 1.084.078.085-1 1-1.771 2.995-2.46 4.457-7 5-2.456-1.275-16.903-2.625-23-4-3.152-4.635-8.694-8.78-11-14-6.81-15.416-1.824-42.74 9-51 7.19-5.487 15.981-3.407 23-8zm100 18c1.077 1.737 1.035 2.27 0 4zm-86 1c2.126.855 2.683 1.493 4 3-5.195 8.036-1.744 9.237-11 15 3.364 6.147 9.25 11.901 10 16l-1 2c-2.99-1.354-5.05-1.98-10-2-1.66-2.998-3.76-6.517-7-8-3.194 5.257-6.469 8.839-15 9-.558-1.604-.8-2.404-1-5 1.935-2.07 11.382-11.082 10-12-2.715-5.492-7.453-4.691-8-13-.566-.713-1.442-.042-1-2h1c.63-1.754.193-.971 1-2 4.685 5.493 7.524 2.006 12 11 1.754-.63.971-.193 2-1 3.38-3.04 6.9-6.672 10-10 2.327-.195 2.826-.193 4-1zm-26 5v2h1c-.63-1.754-.193-.972-1-2zm33 57h3v2c2.556 3.418 1.476 6.485 0 10h-1v-5c-1.284-1.748-1.683-4.222-2-7z" />
        </g>
    </g>
</svg>