<svg xmlns="http://www.w3.org/2000/svg" viewBox="0 0 245 280">
    <g>
        <g>
            <path
                d="M177 13c.294-2.33.451-2.477 1-4 3.867 2.221 12.48-.16 20 2 3.905 1.122 5.766 4.24 10 5 5.718 1.025 9.21-1.44 17-2 .125-4.165.705-4.608 2-7-5.007-.496-6.524-2.816-10-4-6.08-2.07-10.822 2.036-14 3-6.374 1.934-16.505-2.122-21-4-4.818 2.502-9.5 5.812-16 8-12.619 4.247-22.232-8.86-33-1-4.664 3.404-7.231 16.86-11 19v-5c.804-1.021.355-.274 1-2h-11c-3.37 2.29-6.931 1.28-11 1 .872 4.559 3.784 4.907 5 8 1.01 2.569-.519 9.398 0 14-1.084.909-.085-.078-1 1h-1c-.737-12.083-7.835-19.927-16-25-3.743-2.326-6.476-8.412-11-10-18.874-6.625-47.884-1.641-63 15-2.628 2.893-2.454 6.953-4 11-8.8 23.04-3.043 50.708 18 61-1.316 6.793-1.037 16.664-1 25 1.084-.909.085.078 1-1 3.927.302 8.437-3.27 13-4 4.989-.8 15.59 2.586 21-3 2.212-2.284.918-4.259 4-6-.465 1.973-.15 5.8-1 7-1.752 2.524-1.838 2.639-6 3-3.807 2.46-12.694 2.92-18 3 .028-2 1.023-.282 0-2-7.055 6.174-16.862 5.582-25 14-2.934 3.034-6.814 9.736-8 14-1.418 5.096.025 11.088-1 13 .383 3.092 4.005 10.934 2 15-2.815 5.708-6.184 19.761-7 33h2c.083-10.308 9.163-44.961 14-53 3.385-5.625 11.065-10.367 13-17 4.412.245 4.436.533 8 0v1c-9.34 9.515-16.458 33.753-22 47-1.433 3.424-.062 7.508-2 11-.18.325-2.702 1.28-3 2-5.554 13.391-1.423 19.183-11 30-.126-49.257.006-105.576 0-158-.002-15.583-3.276-51.667 3-61 9.258-13.768 43.54-8.957 66-9C127.145.89 189.093.96 245 1v1h-1c-5.316 3.582-9.424.73-16 3l-1 10c-7.008 3.22-15.594 2.125-25 3-1.182-1.826-2.192-2.801-4-4-.384 2.617.743 1.31-2 2-2.01-1.382-9.38-2.958-12-3-2.715-.044-7.29 6.03-12 8-8.92 3.73-24.473-5.242-32-4v-1c2.371-2.072 1.47-2.523 6-3 13.392 11.385 17.344 1.24 31 0zm-38 4c.47 2.135.95 1.035-1 3v1h-1c.708-2.347 1.025-2.234 2-4zm10 4c5.09 2.205 8.36 1.982 14 3v2c-13.742 3.934-22.89 12.633-34 18l-3-1c-4.783 3.369-5.758 9.472-13 11-1.552-1.495-1.838-.777-3-3-1.344-1.681-1.637-3.143-2-6 4.495-1.563 7.348-5.909 11-8 5.643-3.232 10.491-3.815 16-7 1.59-.92 3.342-4.012 5-5 1.262-.752 6.505-1.61 9-4zm-16 25c3.172 4.923-6.214 22.277-10 24-3.446 1.568-8.083.23-10 1 1.191.867 1.125.822 2 2h-6c-3.137-2.2-1.456-1.195-5 0-.214-3.864-12.55-5.39-13-19 1.084-.909.084.078 1-1 2.091 1.907 3.972 3.995 5 7l-2-1v1h1v1c1.956.417.72-1.536 2 0 1.138 1.845.195 1.87 1 4 21.826 9.375 24.464-2.645 34-19zM17 52c5.374 4.902 3.828 19.002 8 25 1.58 2.27 14.133 9.938 17 11 5.659 2.095 7.82-1.857 14 0v2c-4.175.394-7.694 1.713-10 4-19.493-4.446-34.208-17.33-29-42zm41 59c-5.31.86-8.282 3.347-14 4v-5c3.992-2.542 6.776-7.774 10-8v-1c1.367-11.12 26.686-26.846 33-38 .804 1.021.355.274 1 2a18.989 18.989 0 0 1 5 8c-7.725 2.144-33.483 29.703-35 38zm17-18c2.067 1.183 1.882.684 3 3 6.272 7.37 3.324 26.97-6 30v-1h-1c2.347-4.66 6.397-11.241 7-15 1.418-8.838-4.837-10.287-3-17zm-36 35h8v1h-2c-.771.682-2.232 1.311-3 2 .565.713 1.442.042 1 2h-1c-10.115-6.69-26.932 20.898-27 21h-1v-4c3.344-3.644 6.062-11.27 11-16 3.495-3.347 9.949-3.165 14-6zm25 0c1.116 1.66 1.77 1.068 0 2-4.512 3.767-9.358 2.346-15 1v-2c5.87.333 10.631 2.432 15-1zm-26 8h2v1c-1.754-.63-.972-.193-2-1zm-25 18c.752 1.073.601.946 1 3h-1v-3zm6 36c2.467 1.295.68-.43 2 2 4.725 5.179.556 21.85-1 28l-5 3v-2c6.27-6.74 4.636-19.918 4-31zM3 229c5.192-.984 8.27-6.008 11-6 1.243 1.567.642.51 0 2-1.78 5.133-6.163 5.175-11 7v-3zm2 3c2.076.372 1.924.242 3 1zm-1 1c2.444 3.947-1.941 25.522-2 33-.035 4.397.813 11.251-1 14v-45c1.257-.65 2.07-1.09 3-2z" />
        </g>
    </g>
</svg>