<svg xmlns="http://www.w3.org/2000/svg"  viewBox="0 0 1024 1024"><g><g><path d="M0 0h1024v12h-77c-11.802 0-27.499-1.748-35 1-23.04 8.441-26.61 42.706-60 32-5.413-1.736-11.095-.988-15-4h-1v-1c2.842.32 2.07 1.056 4 0-12.967-5.989-18.488-18.562-34-22-5.906-1.31-8.91 1.583-14 2-2.183 3.167-3.831 2.773-7 5-4.44 3.121-10.528 14.398-12 20-4.61 17.542 6.776 38.383 11 51 9.14 27.307 2.506 53.673-17 65-7.558 4.389-15.372 11.656-29 10l-21-1c-7.664-2.667-16.53-8.058-25-11-7.748-2.69-16.035-2.11-23-6l1-2-3 1v-2c-4.344-2.388-10.433.48-14-2h1c8.197-5.022 26.604 4.674 34 8 4.896 2.202 8.87 1.295 14 3 22.982 7.637 46.055 13.771 69-3 9.8-7.163 17.611-31.276 13-49-5.394-20.732-25.25-51.859-9-77 4.42-6.839 12.666-9.699 21-13 8.604-3.409 12.268-.586 23 0 5.512 8.03 34.137 34.72 48 26-1.754-.63-.972-.193-2-1 4.486.731 4.465 2.631 8 0-2.076-.372-1.925-.242-3-1 3.958-.208 4.355-.703 7 0v-1h-1c2.474-1.954 6.387-2.124 9-4 5.423-3.895 8.585-17.668 14-18v-1h-1c-.99-1.01.985-.988 1-1 4.864-5.484 15.955-10.11 25-9 3.568.438 8.568 3.71 12 2-4.096-1.102-5.898-3.688-9-5-7.054-2.983-12.1-.626-21 0-2.82 3.664-7.768 4.783-11 8-7.535 7.5-11.468 20.705-24 23-9.696 6.565-24.176-4.003-29-10-13.272-16.497-43.226-30.42-64-12-.976.865-.905 3.155-2 4-1.88 1.45-5.634 2.2-7 4-1.702 2.243-.762 5.552-2 8-.325.642-2.749 2.133-3 3-.249.858 1.683 2.77 1 5-.902 2.944-4.027 7.397-5 11v21c1.413 6.788 6.284 18.89 9 27l4 26c.644 3.891-2.716 11.478-4 14-9.148 17.957-24.856 26.744-50 19-10.324-3.18-20.665-9.363-30-13-14.67-5.715-31.038-2.41-38-11h7c6.053 3.8 11.804.697 20 3 4.638 1.303 9.487 4.052 15 6l23 9c29.726 7.927 51.663-7.422 53-34 .475-9.453-4.919-16.742-7-23-3.85-11.575-5.62-25.777-7-34-2.581-15.381 8.723-32.762 13-44h2v1c-1.191.867-1.125.822-2 2h1c1.02-1.52 1.498-1.967 3-3-.029-2-1.023-.282 0-2-1.021-.804-.274-.355-2-1-6.095 4.386-39.104 2.655-48 1-12.168 5.158-24.679-1.652-42 1-22.233 3.404-64.396-3.322-99 1-10.933 1.365-27.28-2.976-40-1-7.947 1.235-29.728 1.902-39 0-2.646-.543-7.037.547-10 1-8.467-3.554-24.945.084-32-1-8.057-1.238-13.635.994-19 1-10.488.012-23.664.677-33-1-5.718-1.027-21.518.68-26 0-5.956-.904-12.245.125-18 1-4.62.702-15.538-.999-22-1-15.154-.004-28.51 4.258-35 3-.432-.084-2.055-1.856-3-2-5.113 2.2-10.877 1.789-17 4-4.073 1.47-20.224 11.03-24 14-6.589 5.182-10.059 15.229-20 17-4.4-5.814-10.214-6.551-16-9v1l9 7c1.323 1.777.982 5.062 3 6 .748.347 5.542.03 8 1l-1 3c-2-.029-.282-1.023-2 0 5.409 5.384 6.84 15.439 13 20-2.802 3.934-1.36 8.16-2 9v1c-2.693-1.67-4.9-3.491-8-5v1h1l6 5c-.837 1.87-1.38 2.663-2 5-3.042.074-2.744.756-4 0-5.128-3.45-6.457-9.143-9-13h1v-1l6 3c-4.328-5.907-12.42-7.855-17-14 4.273-.214 4.249-.463 8 1-4.24-4.881-15.38-5.93-19-10v-4l-4 1c-2.743-1.343-9.157-8.753-12-11-3.049-2.41-14.434-7.854-18-9l-13-2c-1.869-.728-16.593-4.948-20-3-1.194.682-.23 2.608-5 4v-2c3.245-.828 1.528.49 3-2h-6c-3.21 1.633-5.436-1.395-10 0-3.815 1.166-10.997 4.664-15 6-2.685.896-5.275-3.507-10 0-.686.51-1.309 3.542-2 4-.82.543-3.223-2.341-5-2-3.429.659-9.56 6.603-12 9-9.763-4.984-12.15-.958-23-2v2c-2.21 3.916-.967 9.6-9 11 .374-2.404.63-1.538 0-4h-1v1c-1.317 1.366-2.121 3.18-3 5-3.196.256-3.192.994-5 0-2.036-2.448 1.224-1.452-2-3v1c-19.12 18.017-22.031 45.147-29 76-1.599 7.079 2.692 17.683 1 25 3.715 10.585 4.6 24.401 9 36 1.195 3.15 4.632 6.906 6 10 5.006 11.323 7.413 22.453 16 30-2.177 6.964 1.633 19.76-2 30h1c4.518-7.7 6.611-4.447 13-9 1.86-1.326 1.421-4.462 3-6l2 1c1.05-.332 3.475-3.648 4-4 2.939-1.974 4.314.626 7 0 4.351-1.014 7.278-5.161 13-6v-3c-2.306.02-4.036-1.061-6-4 2.906.058 1.389.964 3 0 .751-1.073.601-.946 1-3-3.026-1.324-7.634-2.77-9-6 3.313-5.47-3.724-11.791 1-19-2.69-1.809-3.428-2.92-4-7h1v2c2.816 1.804 4.528 3.473 8 5-4.032 12.31 9.367 24.633 7 34h3v3c7.904-.289 39.051-6.126 42-8-1.754-.63-.972-.193-2-1h4c-.029 2-1.023.281 0 2 4.575-3.963 20.889-2.81 25-3 .828-3.245-.49-1.528 2-3-.029 2-1.023.281 0 2 4.054-3.253 10.018-4.78 16-6v1c-3.336 3.703-8.572 15.94-12 18-4.122-4.211-11.834 2.915-17 2v3h-7c-.787 1.458-1.899 3.728-3 5-4.587-3.861-29.501 8.433-31 7-1.959-1.178-7.08-5.25-8-4-.566.713-1.442.042-1 2h1c2.21 2.184 3.002 1.142 4 5-2.808.636-3.615 1.776-5 1-3.543-2.608-4.999-5.585-10-7v2c3.865 1.519 6.193 4.386 8 8-2.245.587-2.655.748-4 2-1.754-.63-.971-.193-2-1-4.111-2.64-4.276-5.925-4-13 .944-1.186 2.846-7.225 3-12h-2v2c-1.445 1.85-.714 2.683-3 4 0 0-.195-3.908-1-2v2c-.942 1.665.158 8.748-2 12-1.667-1.938-1.44-1.668-5-2v-1h1c-.296-2.616.649-4.537 1-9h-1v-1c-7.282 1.238-12.77 3.24-18 9 2.05 2.257 2.103 4.65 1 6-2.815 3.577-7.986 4.714-11 8-5.24 5.712-14.983 27.071-17 36-.804-1.021-.355-.274-1-2-.282-.629.152-4.18-1-6-.36 5.576-2.735 6.91-4 10-1 2.44 1.104 4.895 1 6-.823 8.71-2.308 16.134-3 22-.872 7.39 1.683 11.929 0 15 .987 9.647 4.55 24.604 3 33-3.697 20.025-15.555 38.334-13 62 .32 2.959 3.422 8.3 4 11 .247 1.152-.36 6.921 0 8 7.751 23.18 22.367 35.038 38 50 7.64 7.313 13.841 16.209 21 24 5.437 5.918 14.416 24.926 10 31v1h-1c-.211-2.682-.71-7.167-2-9v1c-1.46 3.412.967 13.648-2 18-5.613 8.233-16.263 9.345-25 14-5.286 2.816-11.418 7.981-17 11v-5c.943-1.764.22-.012 0-2 4.354-3.029 6.736-9.175 11-12 2.318-1.536 5.525-.461 8-2 2.222-1.382 8.038-5.068 12-8 3.074-2.274 4.23-6.256 8-8 1.073.752.946.601 3 1v-1c-5.805-5.28-.326-10.212-4-19-1.951-4.667-6.427-9.785-9-14l-1-5c-3.476-.07-8.865-6.3-12-10-7.184-8.48-18.19-15.151-27-22v7c2.858 5.12-2.484 15.403-1 24 1.123 6.507 1.682 67.343 0 73-.556 1.869-4.933 5.924-6 8-4.587 8.923-4.551 20.011-4 29h2v-6c-6.054-10.96 9.628-28.469 14-33v5c-1.463.877-2.284 3.597 0 6-1.592 1.705-1.845 1.305-3 4h-1v-4c.752-1.073.601-.946 1-3h-1v1c-2.023 2.522-2.095 6.21-2 11-2.933-.392-1.254-1.636-3 1-3.812 6.132 2.54 31.304 4 38 2.522 11.56-1.17 17.43-4 29-2.508 10.256 3.63 15.062 4 24 3.106 2.094 3.417 4.093 8 5 1.545.707.135.13 3 0 1.351-2.942 2.786-2.697 4-6 1.118-2.895 3.92-14.292 4-24 .039-4.695-5.672-7.028-7-10-.067-.15-.273-2.691-.491-6H46c-.478-1.28-.355-1.2-.587-1.49-.376-6.017-.73-13.61-.413-14.51-2.845-.017-.392.787-3-1 .83-9.346-2.166-21.76 1-29 11.49-26.273 46.044-22.634 65-41-1.192-.868-1.125-.823-2-2 5.327-1.425 17.527-10.812 12-19-.074 2.532-.12 3.716-1 5-.587-6.717-1.603-5.104-4-10 .682-.771 1.311-2.232 2-3 1.281 2.322 1.709 2.693 4 4v-3c-.708-1.545-.13-.136 0-3h-3c.548-5.285 2.976-7.684 0-12-.293 2.837-.666 4.364-2 6-1.533-2.464-2.291-2.276-3-6 .798-.98 1.446-2.744 2-4 1.189 1.072 1.647 2.004 3 3-1.527-3.47-3.019-5.747-4-10h-1c-.372 2.076-.242 1.924-1 3-1.466-2.525-.44-1.545-4-2 .828 3.245-.49 1.528 2 3 .555-1.301.03-.742 1-1 .877 1.295.894 2.467 1 5-.804 1.02-.355.274-1 2-.804-1.021-.355-.274-1-2-1.215-1.774-.015-1.75-1-3-2.377 2.252-.35 1.091-4 1 .268-4.648.898-10.209-2-12v10c-2.347.708-2.234 1.025-4 2 .327-4.938-.946-3.797-2-9 1.767-1.21-.67-13.598-1-22-4.275.007-2.982-1.01-8-2v-5h-2c-.294 2.329-.451 2.477-1 4-2.95-.573-3.103-2.033-5 1 3.188.505 2.92.872 5 2-.36 2.272-.221 1.514 0 5h-5l-1-7h-2v4c1.624 1.35 1.121.64 2 3h-1c-2.379-3.7-4.128-6.123-6-11h2c1.322 2.458 2.042 2.287 5 3-.304-2.038-1.043-5.383 2-7h6c21.693 15.784 54.693 58.992 29 89-5.432 6.344-15.715 16.103-24 19h-7c-4.418 1.157-9.142 4.642-13 6-2.089.735-5.844-.236-9 2-3.769 2.67-9.11 8.55-11 13-1.542 3.629-.895 7.268-3 10 .088-3.153.475-5.214 0-6l-1 3c-2.732 4.346.417 10.594 1 14 .663 3.87-1.264 4.23-2 7h1c1.295-2.468-.43-.681 2-2v2c1.404 2.725-1.283 7.9 0 13 1.956 7.778 7.378 15.937 9 23 1.539 6.702-2.473 16.754-3 24-5.148 4.197-4.559 9.596-14 10-3.307-4.373-8.403-7.75-11-13l-5-21h-1v4c2.879 4.387 2.017 10.665 4 16 1.089 2.93 5.098 6.547 6 9 1.085 2.95-.958 8.62-1 10-.373 12.305 1.97 25.234 0 39-.221 1.547 2.345 6.916 1 10-1.19 2.727-2.8 10.954-2 19 1.034 10.395 1.07 28.274 1 40-.026 4.23-1.496 7.61-1 12 5.495 48.67-2.634 115.59 1 171H0V0zm894 7c-7.612 8.847-30.419 6.258-40 5-6.71-.881-13.125 1.528-18 0v3c13.307 5.309 9.185 14.966 33 15 2.333-2.102 5.125-2.221 8-4 5.58-3.452 9.25-8.554 13-14 .896-1.3 6.304-3.794 4-5zm-121 4v2h1v-1h1c-1.021-.804-.274-.355-2-1zm251 6v5c-27.039.108-59.513.032-86 0-7.837-.01-31.192 2.003-36-1h2c4.948-6.194 25.065-4.214 39-4 3.636-1.827 13.67 0 24 0h57zm-174 0c8.437 2.636 20.76-.137 30 2v1h-1c-2.13 2.903-3.937 3.837-9 4-5.4-3.372-17.71.148-20-1-2.542-1.287-2.872-1.097-4-4h1v-1c2.076-.372 1.924-.242 3-1zm30 0c.804 1.021.355.274 1 2h-1v-2zm-80 3c4.197 1.291 13.21.248 17 5h1v1h-26l-1-2c3.117-.678 6.987-2.077 9-4zm148 3c3.313.82 4.35 1.616 6 4h1v1h-3c-1.138-2.515-2.543-2.878-4-5zm7 0c9.08.044 10.976 2.157 19 4l12-1c3.33.666 8.122 3.066 12 4v2h-3c-6.65-7.756-28.393 2.22-40-9zM85.135 29.73L86 28zM85 30l.135-.27L85 30zm870-2c5.705.823 12.194 3.67 18 5l16-1c3.54.845 6.285 2.568 11 3v-1c-1.191-.868-1.125-.823-2-2h2c1.457 2.124 2.624 2.785 5 4l-1 3c-9.154-3.182-14.23-4.405-20-5-11.886-1.225-21.035 2.229-29-6zM81 31c-1.706 1.84-3.28 3.09-6 4v1h3c1.255-2.622 2.505-2.792 5-4-1.021-.804-.274-.355-2-1zm682 3v2h1v-2h-1zM84 36l-1 3h1v-1c1.243-1.567.642-.51 0-2zm-18 7c-1.556 2.39-2.923 2.924-4 6h1v-2c2.067-1.183 1.882-.684 3-3h1c.99-1.01-.985-.989-1-1zm8 6h2c-.192 3.762-.917 5.4-2 8-2.494-.174-4.912.801-10 1v-1c2.264-1.677 2.09-5.55 4-7 1.24-.94 5.025-.335 6-1zm5 0c4.042.602 4.227-.181 8 1v1h-1c-2.123 2.338-4.696 4.858-8 6v-5c.752-1.073.601-.946 1-3zm-21 1c-2.278 3.212-5.762 4.662-8 8h1v-1c3.23-1.655 7.49-4.497 7-7zm14 10c.804 1.021.355.274 1 2h-1v-2zm-9 1h6c-.417 4.345-.966 6.048-5 7-.65-1.257-1.09-2.07-2-3 .535-1.516.675-1.694 1-4zm-3 1v6h-2c-1.295.877-2.467.894-5 1v-1c.803-1.18.773-1.681 1-4 2.281-1.225 2.25-1.638 6-2zm-17 2c2.316 2.82 2.33 4.805 2 8-2.355.572-3.142 1.14-5 2v-3c1.677-1.957 2.473-3.82 3-7zm9 1l-1 6c-1.604.558-2.404.8-5 1v-1c.877-1.295.894-2.467 1-5h1v-1h4zm12 5c1.243 1.567.642.51 0 2-1.021.804-.274.355-2 1v-2c1.754-.63.971-.193 2-1zm-11 1c3.245.828 1.528-.49 3 2-1.262 1.359-1.365 1.768-2 4h-2v-2c.643-.902.3-1.976 1-4zm-8 2c3.245.828 1.528-.49 3 2-.933 1.905-.38 1.17 0 4-2.833.01-2.32.762-6 2v-1c1.353-1.725 2.128-4.847 3-7zm18 1h2v1c-1.754-.63-.971-.193-2-1zm-25 1c.752 1.073.601.946 1 3h-1v-3zm13 2c1.736 1.964 2.065 2.252 0 5zm7 0c.35.301 1.997.523 1 2zm204 24c-6.062 1.04-4.249 1.832-9-1v1c2.08 1.21 4.819 2.774 6 5l-2-1v1c.51 2.41 1.62 1.228-1 3-2.273-6.494-8.343-4.11-10-12 3.161.401 3.795.985 6 2 .926-4.177 2.795-6.78 5-7-1.312-3.317-1.799-9.214 1-13v2c4.106 3.138 3 15 3 15 1.35 1.624.64 1.121 3 2v-1h1c-1.66-2.907-1.057-.414-1-5h1v1c2.654 2.681 3.827 5.727 4 11h-1c-.63-1.754-.193-.972-1-2v2c.877 1.295.894 2.467 1 5-1.26.525-3.033 1.198-4 2 2.638 2.298 1.743 3.415 1 7-.804-1.021-.355-.274-1-2-1.841-1.706-3.09-3.28-4-6 1.628-2.2 1.917-5.178 2-9zM37 81c.859 1.883.474.738 0 3h-1l1-3zm13 1c.35.301 1.997.523 1 2zm-8 3c2.467 1.294.681-.43 2 2-.682.771-1.311 2.232-2 3-.142-3.522-.487-2.669 0-5zm-6 2h2c-.81 2.629-.667 7.36-4 10v1c-1.01.99-.989-.985-1-1-1.46-2.426.729-6.275 3-10zm235 18c4.78 4.715 7.078 17.137 7 23h-1v1c-.804-1.021-.355-.274-1-2-3.038-1.98-4.06-3.847-5-8 2.954-.923 1.764-2.385 3-5h-1c-1.568 1.828-.882 1.395-4 2l-3-5c3.409-1.502 4.438-1.272 5-6zm-16 4c.797.98 1.446 2.743 2 4h-2v-4zm3 6c3.45 2.395 4.858 6.265 5 12h-2c-1.45-3.643-3.568-3.218-5-7 .778-1.065 1.49-3.692 2-5zm10 2c3.12 3.59 2.463 5.474 2 11h-1v-2c-1.36-.995-1.806-1.929-3-3l2-6zm12 7c2.28 1.97 2.14 4.543 2 9-.814 1.187-1.49 4.59-2 6-1.262-1.359-1.365-1.768-2-4-1.902 1.34-.874 1.283-4 2l-1-3c-1.481-2.413-.355-4.36 0-8h1v1c1.955 2.056 2.46 5.494 5 7l1-10zm-15 1c3.245 2.237 4.346 9.038 1 13-1.533-2.464-2.292-2.276-3-6h2v1h1c-2.068-3.442-2.09-1.915-2-6 .804-1.021.355-.274 1-2zm362 3c3.038.845 15.859-.797 19 1l1 3c2.637 1.59 5.146 2.183 8 3v2h-2c-4.002-1.828-22.377-2.554-33 0-4.764 1.145-14.459 3.624-18 3l-12 3c-1.666-.464-3.446-3.197-6-4v1c1.519 1.02 1.967 1.498 3 3l-10 1c-1.962-2.666-3.558-3.635-8-4v1c3.625.478 3.642.262 5 3h1v1h-2c-4.384 3.36-8.503.013-14-1v1l5 1v2h-20c-1.081-2.72-1.623-.329-6 0v-2l3-1c2.776-2.12 8.334-2.707 11-2v-1c.35-.771.053-.67 4-1 3.432-2.572 7.528-1.63 12-1v-1c-1.192-.867-1.125-.823-2-2 10.795-1.463 7.625-.498 17 2v-2c-2.076-.372-1.925-.242-3-1h2c6.623-3.854 24.817-4.634 35-7 3.622-.842 7.6.545 10-1zm21 2c2.076.372 1.924.242 3 1zm18 4c1.366 1.317 3.18 2.121 5 3l-2-3h-3zm-380 1c.804 1.021.355.274 1 2h-1v-2zm-16 1c2.062 2.403 3.526 5.065 4 9-4.991-.3-.192-.079-3 4-.519-3.9-1.51-4.711-3-7 .975-2.34 1.693-2.203 2-6zm18 0c2.467 1.295.68-.43 2 2-.682.771-1.311 2.231-2 3v-2c-.859-1.883-.474-.738 0-3zm355 0h2v1c-1.754-.63-.972-.193-2-1zm-349 4c12.675 1.197 22.883 1.04 38 1 2.137-.006 8.861 3.29 11 4 7.04 2.336 12.066 1.509 19 4 8.055 2.894 17.044 9.214 25 12 5.676 1.987 11.356 1.022 16 3 1.134.483 2.52 3.526 4 4l5-1c11.752 1.884 24.473 5.262 36 0 1.427-.652 7.783 1.478 11 1 6.154-.915 19.582-2.745 30 1v1c-20.24-1.035-58.444 17.614-80 7-1.784-.878-1.58-2.95-4-4v1c1.773 1.341 2.852 3.07 4 5h-3c-1.008-.693-3.999-1.287-5-2-3.836-4.172-5.17-9.759-10-13v2c3.72 2.378 7.092 6.911 8 12h-1c-3.73-2.609-12.198-4.418-19-5-1.337-5.667-5.746-12.106-10-15v1c3.79 2.844 6.75 7.627 8 13h-1c-1.675-1.383-5.431-1.438-7-3-2.94-2.926-.577-6.041-5-8-1.021-.804-.274-.355-2-1v1c2.566 2.365.087 1.338 2 5h-2c-1.18-.803-1.681-.773-4-1-.8-2.69-1.841-3.707-3-6h-1v2c1.624 1.35 1.121.64 2 3h-3c-4.916-3.152-11.652-2.195-18-4-17.236-4.902-25.723-4.424-43-6-1.06-3.819-1.324-8.313-2-13 2.338.07 1.72.888 4-1zm-18 2c1.142 1.69 1.066 4.896 1 8h-2v-1h-1c.933-2.344 1.578-3.863 2-7zm269 4c1.021.804.274.355 2 1zm-272 3c2.119 2.026 2.65 2.942 3 7h-1v-2c-1.495-1.624-1.552-2.023-2-5zm415 0h2v1c-1.754-.63-.972-.193-2-1zm-422 2c2.963.829 2.732.443 4 3l-2 1v1h-1l-1-5zm81 1c1.722 1.913 3.945 4.448 6 6zm10 2c1.66 1.116 1.068 1.77 2 0zm-86 1c2.574 1.98 2.902 3.375 3 8-1.084.909-.085-.078-1 1h-1c-.9-2.19-.862-1.443-2-3 .76-1.507.258-3.637 1-6zm-3 1c.804 1.021.355.274 1 2h-1v-2zm92 0l1 3h1c-.842-2.39-.402-1.645-2-3zm20 5c.961 1.766 1.257 1.68 2 4h1c-.891-2.684-1.029-2.59-3-4zm-106 4l3 1v1h-3v-2zm-3 2c.804 1.021.355.274 1 2h-1v-2zm113 0l1 3h1v-3h-2zm150 1h7v1h-1c-3.613 3.083-17.195 3.615-19 5-1.507 1.156-3.103 2.018-6 4-1.077-.19-1.109-2.73-2-2v2c-1.19.987-5.733 2.622-7 3l-4-1v3l-3-1c-1.862 1.658.143 1.91-3 3v-1c2.134-2.218 1.087-.279 1-3 2.144-.332 35.417-11.824 37-13zm-262 1c.752 1.073.601.946 1 3h-1v-3zm31 1c4.085.9 14.244-1.79 21 0 2.578.683 5.95 3.31 8 4 6.58 2.216 13.881.762 18 2 26.206 7.877 60.121 26.2 96 18 7.865-1.798 10.435.02 21-3l21-7v1c-1.084.909-.085-.078-1 1-42.981 20.27-102.31 11.718-141-8h-5c-18.86-5.58-33.966-3.635-52-3v-1c.804-1.021.355-.274 1-2 1.516-.536 1.693-.675 4-1 1.12.6 6.952.478 9-1zm84 0l1 4h2v-1c-1.36-.995-1.806-1.929-3-3zM61 180c2.748 1.004 2.195 1.44 4 3-.528 2.95-.664 4.661-3 6v-1c-1.142-1.69-1.066-4.896-1-8zm432 4c.804 1.021.355.274 1 2h-1v-2zm-22 2c.804 1.021.355.274 1 2h-1v-2zm18 0h2v1c-1.754-.63-.972-.193-2-1zm-419 3c-.372 2.076-.242 1.924-1 3l-2-3h3zm142 0c2.542 1.455 1.128-.217 2 3-2.39 2.678-2.801 7.064-5 10-2.43 2.228-7.836 4.931-11 6v-3l14-16zm-152 2c2.075.372 1.924.242 3 1 1.05 1.55 1.03 4.085 1 7-2.105-.788-1.806.031-3-1-1.05-1.55-1.03-4.085-1-7zm8 3c2.329-.294 2.477-.451 4-1v2c2.22 2.274 2.657 4.627 2 9h-3c-2.232-3.153-3.073-3.84-3-10zm-6 6c2.848 1.971 3.014 3.013 3 8h-1v-2c-1.344-1.681-1.637-3.144-2-6zm6 4c3.137 1.45 4.688 2.94 7 5-.491 3.493-.372 3.047 0 7h-1v1c-3.73-1.635-4.758-1.53-5-7-.96-1.418-.977-3.273-1-6zm136 3c2.542 1.455 1.128-.217 2 3-1.87.837-2.663 1.38-5 2v-3c1.257-.65 2.07-1.09 3-2zm-14 13v-3c3.461-2.37 4.067-4.723 9-6v1c-3.01 3.22-3.855 6.749-9 8zm11-4c.803 1.18.773 1.681 1 4-3.279.911-4.18.907-5 3 .251.968.784.38 0 1-1.021.804-.274.355-2 1v-2c2.108-2.453 3.866-4.703 6-7zm-125 3l1 6h-1v-1l-6-5v-2h1c1.624 1.495 2.023 1.552 5 2zm115 3h2v5c-2.222 1.479-4.467 3.846-6 6h-1v-3c1.837-2.276 3.52-5.642 5-8zm5 4c.804 1.021.355.274 1 2h-1v-2zm-115 6c.804 1.021.355.274 1 2h-1v-2zm108 0c.804 1.021.355.274 1 2h-1v-2zm-106 2c.804 1.021.355.274 1 2h-1v-2zm105 0c1.704 2.704.023 8.566-3 10-.909 1.084.078.085-1 1-.07-6.921 1.524-7.29 4-11zm-100 3c-.328 1.384 1.42 1.45 2 2zm103 4c2.467 1.294.68-.43 2 2-.589.962-.107 1.913 0 5l-4 3v-7c1.624-1.35 1.121-.64 2-3zm-13 6c.752 1.073.601.946 1 3h-1v-3zm8 0c1.051 1.521 1.586 4.915 2 7h-2v-2c-1.28-2.043-.686-2.833 0-5zm-9 3c1.557 2.528 1.19 6.4-2 8v-1c.884-1.34 1.461-5.446 2-7zm15 2h2c.074 3.042.756 2.744 0 4-1.35 1.624-.64 1.121-3 2 .068-2.856.39-4.28 1-6zm-103 2c1.263 1.786 1.224 4.218 0 6zm98 2h2c-.66 2.086-.033 3.644-2 6v-6zm3 3c.804 1.021.355.274 1 2h-1v-2zm3 0c.804 1.021.355.274 1 2h-1v-2zm-119 1c3.309 1.927 3.208 3.604 3 9h-1c-1.733-1.724-2.783-1.499-4-4 1.105-1.384 1.494-2.873 2-5zm100 0c.804 1.021.355.274 1 2h-1v-2zm23 1c.804 1.021.355.274 1 2h-1v-2zm-5 1c.916 1.652.469 3.142-1 5zm-111 2c2.076.372 1.924.242 3 1 1.456 1.146 2.2 2.003 4 3 .22 4.172.12 3.97 0 9h-1v-1c-4.368-3.159-6.194-3.844-6-12zm116 0c.804 1.021.355.274 1 2h-1v-2zM70 277l-6-1v-2c4.038-1.798 2.297-3.89 5-5v2c.704 1.008.845 2.342 1 6zm3 1c-.023-3.578-.463-5.414-1-8h1v-1c3.147 1.047 4.184.284 5 4-.777 1.194-1.197 4.815-2 6-1.073-.752-.946-.601-3-1zm120-9c1.117 1.982.596 1.808 0 4h-1c.294-2.33.451-2.477 1-4zm8 0c.277.36 2.002 1.383 1 3zm-4 1c.804 1.021.355.274 1 2h-1v-2zm-107 2l3 1v3h-2c-.294-2.33-.452-2.477-1-4zm106 0c1.624 1.35 1.121.64 2 3-1.495 1.552-.777 1.838-3 3 .76-2.467.64-2.1 1-6zm4 0c.804 1.021.355.274 1 2h-1v-2zm-119 2c3.028 1.352 4.064 1.22 5 5 .804 1.021.355.274 1 2-2.631.759-2.386 1.198-5 2v-7c-.804-1.021-.355-.274-1-2zm120 3c1.184 1.754 1.143 3.251 0 5zm-4 3c1.337 1.992 1.103 6.507 1 10h-2v-8c.804-1.021.355-.274 1-2zm-133 1h6c-.887 3.965 1.884 5.79-5 6l-1-6zm9 0c4.566 1.423 5.936 4.012 6 10-1.191.867-1.125.822-2 2h-1c-.709-3.5-1.742-8.517-3-12zm-13 1c1.314 1.31 3.274 3.003 2 4-1.021.804-.274.355-2 1v-5zm142 5c2.062 2.28 4.012 4.72 5 8 .872-.74 1.128-1.26 2-2 2.206 20.238 15.528 30.057 16 53-2.523-.18-2.608.73-3 5 4.238 1.536 3.675 3.056 3 7-.804-1.021-.355-.274-1-2-5.41-3.871-8.777-12.183-7-18-1.207-2.437-4.88-3.865-6-6-.74-1.411-.571-7.385-2-11l-2-1c-.528-2.163 2.066-2.171 1-4-.868 1.191-.823 1.125-2 2-.258-13.324-6.375-17.668-4-31zm-9 2c.752 1.073.601.946 1 3h-1v-3zm-136 2c1.076 1.737 1.035 2.27 0 4zm4 0c1.261 1.359 1.365 1.768 2 4h-2v-4zm5 4v-4h2c1.35 1.624.64 1.121 3 2v2h-5zm132 0c.804 1.021.355.274 1 2h-1v-2zm-139 5l3 1v2h-2l-1-3zm139 0c.804 1.021.355.274 1 2h-1v-2zm-130 1c3.245.828 1.528-.49 3 2zm-6 4h2v1c-1.754-.63-.972-.193-2-1zm-12 16h2v1c-1.754-.63-.971-.193-2-1zm-4 4c.752 1.073.601.946 1 3h-1v-3zm9 1c2.542 1.455 1.128-.217 2 3h-2v-3zm5 3c.804 1.021.355.274 1 2h-1v-2zm-10 3c3.245.828 1.528-.49 3 2-2.468 1.295-.681-.43-2 2h-1v-4zm4 2c.565.713 1.442.042 1 2h-1c-1.295 2.467.429.68-2 2v-1c.913-.932 1.33-1.755 2-3zm154 1c.804 1.021.355.274 1 2h-1v-2zm-145 2c1.936 1.606 3.9 1.74 1 3v-1c-.804-1.021-.355-.274-1-2zm-9 1c.35.301 1.997.523 1 2zm158 0c1.829 1.568 1.395.882 2 4-.804 1.021-.355.274-1 2h-1v-6zm-153 3c2.006 1.397 2.065 1.346 3 4-1.192.867-1.125.822-2 2h-2c-.63-1.754-.193-.971-1-2 .708-2.347 1.025-2.234 2-4zm-9 2c.752 1.073.601.946 1 3h-1v-3zm4 4c2.315 1.615 2.352 1.46 3 5h-1c-2.04-2.956-2.533-1.485-2-5zm11 0c2.917 1.177 3.248 1.534 4 5-1.766.961-1.68 1.257-4 2v-1c-.872-.74-1.128-1.26-2-2l2-4zm149 5c3.384 2.387 3.121 5.328 2 9h-1c-.986-4.688-1.487-3.734-1-9zm-154 1l5 3-1 3h-2c-1.892-3.023-2.735-2.477-2-6zm-8 1c1.116 1.66 1.77 1.069 0 2zm18 0c1.105 1.384 1.494 2.873 2 5h-1c-1.396-2.862-1.663-1.862-1-5zm147 3c5.153 1.729 11.074 13.803 9 16l-1 3c-.804-1.021-.355-.274-1-2-5.403-5.592-4.7-9.815-7-17zm-161 1c2.963.83 2.732.443 4 3h1v1h-2c-1.285-1.834-1.968-1.712-3-4zm10 1h3c3.273 4.897 10.403 8.034 12 14h-2c-3.618-4.756-12.664-9.4-13-14zm-11 1c1.757 1.081 3.618 2.515 5 4h-1c-1.02 1.519-1.498 1.967-3 3-.71-4.215-1.68-3.662-1-7zm9 3c5.697 3.687 8.748 10.09 17 11 1.366-1.317 3.18-2.121 5-3 1.929 6.114 6.932 7.435 9 13h-6c-.63-1.754-.193-.972-1-2l2-3c-3.365-.93-3.49-1.352-5-4-3.659 1.333-2.672 1.664-7 1v2h2c1.87 1.66 5.804 2.827 8 4v2h-4c-3.294-2.506-6.713-2.498-11-5v2h2c6.977 8.417 17.772 3.01 24 5 3.94 1.26 4.237 5.877 7 8 .285.22 8 4 8 4 3.633 1.493 7.515.57 9 1 30.526 8.852 37.959-8.591 59-21v6c-3.08 1.225-4.654.642-6 3 4.468.19 2.231 1.052 4 2 .81.434 5.706-5.082 9 0-1.105 1.384-1.494 2.873-2 5h-5c-2.672-1.822-7.893-3.19-11-4v3c3.653.8 13.387 3.623 14 5h-1c-.74.872-1.26 1.128-2 2-1.953-.373-17-5-17-5h-1c.63 1.754.193.971 1 2 4.121 2.872 10.997 2.872 15 6h-2c-1.525 1.577-2.544 2.214-5 3-2.4-1.488-9.706-3.144-14-5v1h1v1c3.01 1.634 8.855 2.807 12 5h-2c-5.995 5.596-20.267 8.834-29 11h-11c-25.521 6.448-65.267-23.188-72-49 2.248-1.69 4.473-4.625 6-7zm132 1h2c-.525 1.26-1.198 3.033-2 4v-4zm-14 2h2c-.909 1.084.078.085-1 1v1c-.804-1.021-.355-.274-1-2zm34 2c3.504 2.87 7.811 11.312 7 13v1h-1v-1c-3.125-2.983-5.705-7.234-6-13zm7 0c.372 2.076.242 1.924 1 3zm-31 1c.804 1.021.355.274 1 2h-1v-2zm-127 1c.151 3.536 7.515 5.973 12 8v-3c-4.427-1.025-8.274-3.182-12-5zm126 4c3.245.828 1.528-.49 3 2-1.708 2.215-2.84 5.391-4 8-3.325.084-4.53.487-7 1v-1c.804-1.021.355-.274 1-2 2.741-1.938 4.843-5.497 7-8zm23 3c3.756 1.952 3.876 6.452 7 9l-1 3c-1.766.961-1.68 1.257-4 2-.513-5.867-2.532-5.855-3-12 .804-1.021.355-.274 1-2zM37 388h2v1c-1.754-.63-.972-.193-2-1zm173 3c2.246 2.36 2.775 3.766 3 9-2.018 1.578-2.848 3.577-4 6h-1v-3c2.48-3.148 1.825-8.732 2-12zm-171 1c4.206 1.994 6.197 7.648 8 12-2.962.753-3.826 1.723-6 3l-2-10h1s.437 3.971 1 2v-1h1c-.856-1.158-1.982-2.903-3-4-.714 3.395-1.624 3.469-3 6 4.073 1.589 3.543 4.555 3 8-2.457-.287-.482-.659-3 0v2h1c1.737-1.322 1.607-1.728 3-1l3 2v-1c-.51-2.41-1.62-1.228 1-3 3.021-1.975 5.435-1.084 6 0 .804 1.021.355.274 1 2h-1v-1c-.775-1.923-1 2-1 2 4.2 2.289 1.015 7.698-2 9-.759-2.631-1.198-2.385-2-5 2.467-1.295.68.43 2-2h-1c-1.684 1.136-4.05 1.58-7 3v1h3v-1c2.757-.488 1.18.558 2 2 1.695 1.412 2.058 2.83 3 5-3.196.256-3.192.994-5 0l-3-1c.135-5.625-2.233-4.85-4-12h-1v1h-1c1.455 2.697 2.501 4.971 3 9-2.499.43-4.197.443-5 1 .984 1.536 2.602 6.086 3 10-1.725.788-1.84 2.627-3 1-2.77-2.646-3.124-5.232-3-11 .682-.771 1.311-2.232 2-3 1.021.804.274.355 2 1v-1c-2.39-.842-1.645-.402-3-2 1.954-1.736 3.24-6.29 4-9 .872.74 1.128 1.26 2 2-.423-8.418.831-9.89 4-16zm126 7c1.021.804.274.355 2 1zm41 8c1.243 1.567.642.51 0 2-1.404 4.865-7.078 10.474-11 13v-2c4.156-2.762 8.676-8.448 11-13zm-154 3c.804 1.021.355.274 1 2h-1v-2zm-4 1v2h1v-1h1c-1.021-.804-.274-.355-2-1zm-12 9h2c.416 2.973 2.107 4.148 1 5-1.624 1.495-2.023 1.552-5 2 .552-3.12.453-2.128-1-5 1.257-.65 2.07-1.09 3-2zm35 59h3c1.128 9.556 7.352 13.326 10 21h-2c-1.153-.822-1.24-.47-4-1-.294-2.33-.452-2.477-1-4-2.376 1.403-.58 1.699-3 1-2.245-.587-2.655-.748-4-2 1.346-2.253-.5-3.969 3-6 .968.251.38.784 1 0h1v-1c-4.633-2.154-9.72-4.038-10-11h1c.83 1.393 2.085 4.557 3 3 .643-.902.3-1.976 1-4-5.16-1.847-1.711-2.332-4-7-6.068-12.375-7.539-28.076 0-45h1v1c2.067 1.183 1.882.684 3 3-3.212 2.712-2.343 5.424-4 10-7.329 20.243 4.405 21.78 5 42zm118-54h2v1c-1.754-.63-.972-.193-2-1zm-147 1l3 1-2 7h-1v-1c-2.272-1.47-3.01-2.103-4-5 1.754-.63.971-.193 2-1 2.19.899 1.443.862 3 2l-1-3zm143 1c2.076.372 1.924.242 3 1h-2c-2.74 5.203-17.451 11.877-24 7 8.331-.319 18.85-3.999 23-8zm-159 1c2.522 1.21 2.255 2.279 4 4-.842 2.389-.402 1.645-2 3v1h-1c-.34-3.73-.498-5.825-1-8zm8 4h2c-1.182 1.826-2.192 2.801-4 4 .708-2.347 1.025-2.234 2-4zm157 592c.074-30.214.35-62.836 1-93 .338-15.684-2.794-40.355 0-58l-2-5c-.557-17.085-.53-37.977 2-54l-2-5c-.54-16.59 1.891-33.164 1-50-.552-10.419-2.653-18.67 0-30 1.989-8.492-1.686-20.1-1-27 2.451-24.679 1.022-45.32 1-72-.008-9.092-1.17-19.27 0-26 1.138-6.55-1.5-15.092-1-20 3.085-30.344-4.62-63.733 1-97 3.674-21.746-3.17-41.838 2-55h2v2c1.72 2.652.687 14.749 1 22 .38 8.835.002 19.333 0 32-.002 12.14 2.294 23.425 1 31-.61 3.573-2.345 7.683-2 12 .326 4.082 2.443 6.317 2 11-.9 9.516-2.234 23.87-1 35 1.59 14.35-2.729 34.483 0 59 1.5 13.482 2.226 69.194 0 82-1.947 11.2.162 24.435-1 32l2 19c.321 13.185-1 23.355-1 43 0 16.648 1.77 27.902 0 38-2.031 11.59.753 26.949 1 37 .323 13.184-1 23.356-1 43 0 16.666 1.73 27.878 0 38-3.697 21.623 1.603 42.984 0 56h-5zM37 434c2.347.708 2.234 1.025 4 2v1l-4 1c.34-2.422.326-.883 0-4zm-12 3c3.108.833 4.657.532 8 2-.63 1.754-.193.971-1 2v1c-2.347-.708-2.234-1.025-4-2 .478 3.281.145 3.046-3 5v-8zm15 3c-.294 2.329-.451 2.477-1 4-.804-1.021-.355-.274-1-2-.804-1.021-.355-.274-1-2h3zm-5 9v-6h1v1h1c.961 1.766 1.257 1.68 2 4h-1c-1.073.752-.946.601-3 1zm-5-4c1.344 1.68 1.637 3.143 2 6-1.754.63-.972.193-2 1-1.754-.63-.972-.193-2-1-1.262-1.359-1.365-1.768-2-4 2.245-.587 2.655-.748 4-2zm-5 7c2.524 1.752 2.639 1.838 3 6-.682.771-1.311 2.232-2 3 .068-2.856.39-4.28 1-6-2.53-.387-1.578.58-2-3zm7 0c1.029.582 6.518 2.093 3 5zm26 4h2l-1 9h-1v-2c-.872-.74-1.128-1.26-2-2v-1h1c1.638-2.03 1.166.702 2-2-.804-1.021-.355-.274-1-2zm-28 2c3.364 1.12 3.314 1.133 4 5h-1c-1.021-.804-.274-.355-2-1l-1-4zm21 0c.804 1.021.355.274 1 2h-1v-2zm2 5l3 1c.218 4.146.078 4.677 0 10h-1v-2c-2.131-3.047-2.029-8.847-2-9zm-21 3l3 1 1 7h-2c-.937-3.198-1.74-3.495-2-8zm28 5c2.187 1.88 2.555 2.052 3 6h-1v1h-2c-.63-1.754-.193-.971-1-2 .579-2.16.16-2.5 1-5zm-7 3c1.937 1.667 1.668 1.439 2 5h-1l-1-5zm-19 2c2.124 1.457 2.785 2.624 4 5h-2v-2c-1.624-1.35-1.121-.64-2-3zm24 2c2.006 1.397 2.065 1.346 3 4h-2v-1c-.752-1.073-.601-.946-1-3zm0 5c2.896 1.674 2.8 1.442 3 6h-1v-2c-1.829-1.568-1.395-.882-2-4zm6 0c2.178 1.323 3.87 2.523 5 5-.96 1.417-.977 3.273-1 6h-1c-1.806-2.57-2.425-1.64-3-6 .589-.962.107-1.913 0-5zm-5 7h2v1c-1.754-.63-.972-.193-2-1zm5 4c3.969 2.335 4.272 4.352 4 11h-1v-1c-2.626-2.503-3.063-4.564-3-10zm7 3l5 3c-.6 1.724-.89 3.152-1 6h-1c-1.733-1.724-2.783-1.499-4-4 .757-1.078.668-1.727 1-5zm-32 14c10.882 8.702 7.672 26.596 6 43-.992 9.73 1.41 28.853 0 41-2.355.572-3.142 1.14-5 2v-9c-1.542-3.945.002-19.293 0-29l-1-48zm46 0c2.706.6 5.392 1.426 6 2 2.2 3.348 2.065 10.865 2 16h-1v-2c-2.631-1.417-4.45-2.387-6-5 3.58-.416 2.516.472 4-2-1.587-1.322-4-4-4-4-.558-1.603-.8-2.404-1-5zm-6 7c1.23.293 6.056 1.072 4 4zm21 4c.084 3.325.487 4.53 1 7h1v-7h-2zm-56 1v2h1v-2h-1zm59 20c2.511 2.63 2.346 3.605 2 7h-2v-1c1.22-2.14.388-2.77 0-6zm3 5c2.542 1.455 1.128-.217 2 3-1.495 1.552-.777 1.838-3 3l1-6zm4 4c1.924 1.895 2.918 3.991 2 6l-1 3c-.804-1.021-.355-.274-1-2-1.198-2.113-.311-3.431 0-7zm4 22c3.245.828 1.528-.49 3 2-.803 1.18-.773 1.681-1 4-1.191.867-1.125.822-2 2-2.6-.625-1.903-.464-5 0v-1c2.053-2.428 2.036-7.455 4-10-.007 2.72.039 4.597 1 6v-3zm-31 2l-1 6h1c.205-3.417.914-4.337 0-6zm-2 7l-1 7h1v-1c1.263-1.786 1.224-4.218 0-6zm-32 12h2v1c-1.754-.63-.971-.193-2-1zm-2 1h2c-.939 1.548-3.336 2.688-4 4-2.536 5.01-.165 10.585-4 14v1h-1v-6c1.52-1.895 1.789-3.59 2-7h-1v1c-.775 1.923-1-2-1-2 3.145-1.235 5.813-3.35 7-5zm0 34v2h1c-.63-1.754-.193-.972-1-2zm-21 16c-2.076.372-1.925.242-3 1 2.45 3.772.598 8.7 2 14 1.063 4.02 6.113 18.483 3 25-1.443 3.02-3.985 2.269-5 7h1c1.02-.804.274-.355 2-1 7.908-16.993 1.345-28.802 0-46zm23 15c.804 1.021.355.274 1 2h-1v-2zm1 2c.804 1.021.355.274 1 2h-1v-2zm-5 12c.208.264.332.41.413.51l.096 1.49H45v-2zm-3 349c-.736-14.158.507-27.042-1-43-.171-1.812 2.282-5.852 2-8-1.45-11.043-2.747-29.722-1-39 .789-4.19-1.306-10.527-1-13 1.843-14.888-1.03-33.26 1-46 1.135-7.124-.07-13.882-1-18-2.388-10.563 1.86-25.049 1-34-1.165-12.115-3.01-32.918-2-45 .887-10.608 1.828-27.86 0-43 2.272.36 1.514.221 5 0l1 3c2.8 5.77.528 18.394 1 28 .915 18.622-.007 25.608 0 45v25c1.306 8.926.915 22.655 0 35-.629 8.476 1.445 18.776 0 27-2.078 11.826 1.413 25.721 0 33-.72 3.706 1.198 6.518 1 9-.525 6.582-.06 20.942-1 26-2.82 15.154 2.154 30.208 0 43-.85 5.044 1.826 11.511 0 14-1.295.877-2.467.894-5 1z"/></g></g></svg>