<svg xmlns="http://www.w3.org/2000/svg" viewBox="0 0 1024 1024"><g><g><path d="M0 0h1024v1024h-22c1.221-7.44 1.651-34.398 1-39l-2-4c3.12-23.57.336-59.186 2-81 .817-10.716-1.512-17.437 0-25 1.16-5.805-.603-12.07-1-15l1-11c-1.01-4.96-1.096-22.384 0-28 1.205-6.174 1.567-35.175 0-42-.373-1.625-2.168-9.357-2-11 2.946-28.873-1.437-66.194 1-92 .876-9.283-1.915-17.624-1-26 1.44-13.194-2.145-31.235 1-46 .896-4.21-1.277-10.48-1-13 1.456-13.26 1.443-26.71 0-43l1-12c-.307-10.609-.036-24.855-1-35-.917-9.656.594-26.21 1-33 .923-15.46.615-40.28-1-57-.387-4.007 1.921-6.385 1-12-2.084-12.702.417-37.534-1-52-1.397-14.26 4.102-31.933 1-50-2.064-12.022 1.88-28.02-1-43l1-16c-1.287-7.551-.17-23.46-1-32-.175-1.796 1.768-6.583 1-10-1.523-6.775-1.63-16.897-1-23-4.926-3.338-6.662-8.997-12-12v1c5.859 9.198 3.003 35.944 3 44-.004 9.073.774 25.421 1 38 .118 6.57-.821 20.986 0 25 3.675 17.964-1.406 35.427 1 51 .265 1.718-2.203 5.902-2 8 2.23 23.074-1.386 44.398 1 67 1.936 18.343-1.114 34.266 0 53 1.045 17.577 1.846 39.084 0 56-.352 3.227 1.43 9.214 1 14-1.71 19.01 1.213 27.24-1 42-1.416 9.445 2.25 24.652 1 36-1.893 17.184.312 53.067 1 76 1.151 38.371-1.23 78.869 0 118 .564 17.964-2.381 42.534 0 58 .189 1.227-1.96 6.707-2 8-.465 15.17.043 38.36 2 51 .482 3.115-1 12.086-1 17 0 20.855-1.13 39.479 1 51v49h-8c-.112-14.422 1.886-16.322 1-24-.4-3.47-1.362-7.958-1-11 .54-4.53 1.426-8.348 1-12-.783-6.704-2.076-16.508-1-23 1.412-8.526 1.482-20.375 0-30-1.98-12.86 1.17-32.827 0-42-.836-6.546 1.047-8.285 1-14-.122-14.595.264-35.084-1-45-.944-7.4.024-21.372 1-28 1.076-7.305-1.644-15.629-1-23 1.394-15.96 1.983-51.454 0-67-1.247-9.775.688-19.4 1-29 .627-19.32-1.738-33.01 0-52 .638-6.969-2.562-9.28-1-18 1.91-10.664 1.944-36.82-1-52-.529-2.726 1.55-12.323 2-15 .482-2.87.471-16.048 0-21-1.198-12.575-1.253-34.654 0-48 .732-7.806-1.925-15.12-1-23 .935-7.963 1.098-19.82 0-28-1.112-8.277 1.348-22.61 0-32-1.51-10.516 2.54-17.211 1-27-.457-2.903-2.757-34.467 0-40-1.224-15.549-1.701-29.48 0-41 1.033-6.992-2.455-12.337-1-20 2.375-12.51 1.477-27.679 0-38-4.437-31 7.73-53.76-8-76 5.473-5.287-3.441-13.016-1-22 .55-2.024 2.3-3.583 3-6h2c1.201 14.013 11.594 16.265 16 29h1v-12c1.365-2.133 1.22-4.01 2-7-6.503-4.721-6.529-16.333-20-17-2.797-1.67-7.987-.285-14 0v-1.676c-12.935 4.35-35.866-2.696-47-9.324v1c1.191.867 1.124.822 2 2h-3c-5.53-5.35-12.774-8.315-17-15-2.507-3.966-10.418-21.63-11-26-.445-3.345.414-9.468 0-12-2.073-12.655 2.174-30.308-7-36-4.98-5.015-21.253-3.198-31-3v1c2.933 1.474 3.222 1.082 4 5 9.287 1.316 14.867 1.915 27 2 .837 1.87 1.38 2.663 2 5h-4c-2.24.435-5.96-1.481-9-3v1c1.257.65 2.07 1.09 3 2h-3c-2.16-2.652-1.366-3.908-8-4v1h2c3.07 2.733 5.24 1.473 6 7-5.204.623-5.12 2.92-8 4-3.466 1.3-6.319-1.438-8-2-14.787-4.94-15.165-8.674-25-17-4.02 2.355-46.806 2.246-55 0-6.231 2.495-48.118 2.74-58 0-7.755 3.046-30.113 1.002-43 1-21.137-.003-46.064 1.57-72 0-18.207-1.101-54.4.002-74 0-13.362-.001-31.517 2.212-43-1-7.188 2.784-46.024 2.376-57 0l-3 2c-11.815.63-43.722.441-55-2l-3 2c-13.367.712-49.946.484-58-1h-87c-8.66 0-20.007.956-27-1-6.386 2.47-48.021 2.79-58 0-7.193 2.778-46.025 2.383-57 0l-3 2c-11.82.618-43.733.453-55-2-2.994-.652-18.492 1.26-25 0V0zm972 107h-1c-.752.427-1.557.797-2.41 1.115 2.167.476 1.403.945 3.41-1.115zM826 3c-2.863 2.225-7.596 3.55-11 5 1.021.804.274.355 2 1 .896.28 14.448-1.56 15-1 3.224 2.141 6.408 5.43 10 8.728V17h.297c6.037 5.505 13.244 10.943 23.703 11 .961-1.766 1.257-1.68 2-4-11.536-.85-13.114-8.353-20-14-6.233-5.112-15.066-5.015-22-7zm104 95v3h2c6.848 4.823 9.666-.422 18 1 5.775.985 27.389 5.084 36 2 .674 1.587 16.966 16.044 19 17 .201 7.558 2.176 11.014 1 16h1v-1c5.464-8.239-1.642-28.901-8-33-3.662-2.36-6.909-2.053-11-4-.742-.353-2.87-2.675-4-3-4.224-1.216-10.338 4.094-15 0v2c-5.106 2.592-10.366-3.015-15 0-2.967-2.182-15.17-2.56-22-7-.573-.373-2.609-3.367-4-4-2.015-.916-8.34-1.834-11-5-2.588-3.08-1.379-5.573-3-10-1.652-4.51-5.603-9.25-7-15-2.226-9.16-.296-27.242-3-37-1.49-5.376-6.494-10.188-9-15-6.426-.496-12.094-3.831-17 0 4.93.71 9.226 3.08 13 5l1 5-2-1v1c9.197 9.897 2.877 27.935 7 42 4.05 13.816 11.572 29.348 22 37 2.35 1.724 4.97 2.079 7 4h4zM875 5c1.021.804.274.355 2 1zm29 3c.786 5.506 4.602 7.896 6 12 1.772 5.203-2.166 17.886 0 26 5.009 18.764 6.955 37.696 30 45 13.581 4.304 33.202-5.999 44 2-2.076.372-1.925.242-3 1 12.477-.4 15.073.849 22 7v-6c-2.98-4.979-2.005-34.961-1-44 .72-6.477 1.134-21.68-5-31C984.29.69 929.524 14.147 904 8zm-61.703 9c-.1-.09-.198-.182-.297-.272V15c.804 1.021.355.274 1 2h-.703zM0 19c20.869-1.038 51.7-.008 73 0 15.276.006 36.07-1.233 48 0 18.398 1.902 40.194-.5 57-1 12.853-.383 30.443 1.004 45 1 45.025-.013 95.088-.038 140 0 27.118.023 49.089 0 75 0 9.639 0 24.687-1.127 31 0 18.192 3.248 43-2.68 58 0 19.463 3.476 48.692-2.354 62 0 17.217 3.045 38.412-2.564 54-1 43.567 4.37 90.524.991 131 1 13.51.003 23.649-1.068 32 0 12.157 1.555 16.993-2.786 27-1 .756 4.14 1.287 4.006 5 5v1h-15c-3.267 1.356-11.548-1.988-17-1-11.626 2.107-20.752-.84-36 0-23.297 1.283-50.143-.76-76 1-11.389.775-21.428-1.854-32 0-4.877.855-11.607-.694-15-1-12.157-1.097-24.216 2.005-39 1-2.37-.161-8.874-2.074-15-1-7.43 1.303-19.437 1.297-27 0-4.839-.83-10.345 1.388-16 1-2.37-.163-8.874-2.073-15-1-8.456 1.48-21.651.13-32 0-19.72-.247-36.165 1.91-54 0-3.295-.353-11.241 1.243-15 1-12.696-.82-31.848-1.612-43 0-11.653 1.684-18.42-1.98-30 0l-7-1c-20.276 2.755-44.674-1.462-65 1-7.823.948-13.079-2.474-22-1-6.11 1.01-19.571-1.354-29 0-3.163.454-9.903 1.433-16 1-3.95-.28-5.914-2.097-13-1-8.347 1.292-27.362 1.8-38 0-3.322-.562-4.646 1.217-7 1-8.557-.789-17.772-.12-23-1-3.378-.569-12.73.816-14 1-1.904.276-6.434-.836-8-1-9.446-.99-17.609.305-27 1-9.784.724-31.298.52-45-1-18.327-2.032-30.47 2.565-47 0v-4zm917-2c11.128 2.06 20.905 2 35 2h17c2.34.686 4.472 1.911 9 2 3.845 4.692 9.376 6.787 12 13 5.884 13.933 1.114 44.258 1 55-1.516.536-1.693.675-4 1-.536-1.516-.675-1.693-1-4 .282-.665 1.169-.07 1-2-.181-2.067-2.74-3.736-2-7 1.292-5.693 4.801-28.654 2-37-1.46-4.348-5.814-8.827-8-13-5.123-.303-6.003-1.583-10-3-.248-.088-6.008 1.031-8 1-9.852-.155-34.042 1.132-40-2-3.962-2.083-5.83 3.551-9-4 1.299-.474 3.96-1.215 5-2zm-40 6h2v1c-1.754-.63-.971-.193-2-1zm-84 3c3.245.828 1.528-.49 3 2-2.57 1.594-5.692 4.13-7 7h1c2.844-2.054 16.159-8.736 20-9v1c-8.02 5.116-12.889 11.64-26 12v-2c-.803-1.18-.773-1.681-1-4 3.752-1.678 7.665-3.885 10-7zm116 62v2l8 7v-1h1c-2.526-2.641-6.083-5.866-9-8zm52 6c.932.913 1.755 1.33 3 2zm4 1c1.021.804.274.355 2 1zm-47 2c1.66 1.116 1.068 1.77 2 0zm27 8c-.328 1.384 1.42 1.451 2 2zm46 10c.608 5.418.736 10.563 1 15h-3v-2c-3.008-3.639-3.147-9.063-3-16h1c1.456 2.502.586 2.156 4 3zm-6 15h-4v2c2.49 3.529 1.458 8.998 4 13h2c2.561 3.637 2.489 8.414 5 12l3 1v4c1.366 2.44 5.654 4.624 7 7 2.957 5.221.681 14.866 4 20v-1c13.126-19.598-18.563-42.457-21-58zm2 28c-.329 1.384 1.42 1.45 2 2zm-3 38c4.675 4.56-.418 19.677-3 26h2c.65-1.257 1.09-2.07 2-3v6c-3.687 1.477-2.853 3.304-5 6-3.263-1.32-4.352 2.143-8 2l-9-3c-.558-1.604-.8-2.404-1-5 2.935-3.542 4.039-8.456 7-12l3-1c4.744-3.79 9.123-10.42 12-16zm-9 19c1.121 2.091 1.434 1.832 2 5-3.159.996-3.726-.18-5 2h1c1.073.752.946.601 3 1 1.533-2.464 2.291-2.276 3-6l-4-2zm-5 7c-1.556 2.39-2.923 2.924-4 6 2.245.587 2.655.748 4 2 2.727-.928 5.737-2.414 7-5-4.518 1.147-4.12-.24-7-3zm14 9c1.077 1.737 1.035 2.27 0 4"/></g></g></svg>