<svg xmlns="http://www.w3.org/2000/svg" viewBox="0 0 796 449"><g><g><path d="M0 0h6v1C3.828 3.015 2.903 4.491 0 6V0zm260 1h2v1c-1.754-.63-.971-.193-2-1zm536 0v4c-15.779 7.166-26.512 15.651-34 31-2.493 5.11-1.518 12.397-2 19-2.19 29.993 23.958 61.156 9 84-23.642 36.106-54.924 10.034-84 0-13.006-4.488-25.95-5.39-42-6-1-2.273-.745-2.774-3-4l-31 2c-6.603 1.33-16.612.322-24 3-6.858 2.486-13.817 6.862-24 7l-1-2c12.337-4.895 26.102-10.438 37-13l26-3 9 1c3.546-.97 6.942-2.912 11-2 8.956 2.012 31.665 2.145 35 8h-2c-1.073-.752-.946-.601-3-1v1c12.423 1.405 26.871 5.267 36 11 2.809 1.764 4.719 5.71 8 7 13.806 5.428 21.216.266 34 0 5.963-7.611 20.609-16.756 17-33-.404-1.817-2.681-6.178-3-8-.192-1.097 1.838-4.382 1-7-1.877-5.863-8.374-11.916-10-18l1-7c-.664-2.983-2.316-6.6-3-11l2-12c-.415-1.177-3.42-.863-3-4 .988-7.376 6.686-16.48 10-22 1.665-2.774 1.56-8.055 4-10l5-1c7.563-5.352 11.122-13.473 24-14zM258 52l-1 6h-1c-3.469-3.975-7.137-8.401-11-12v-1c8.204-3.015 23.514-18.098 31-24 8.71-6.867 34.948-12.222 50-16 8.018-2.013 19.242 2.58 26 4v2h-1c-6.187 4.4-18.154 5.273-23 6-.207 1.399.822-.403 1 1 1.923.775-2 1-2 1-2.449-1.245-4.51.793-7 2-17.91-2.195-39.408 14.895-52 23-4.075 2.623-4.077 7.023-10 8zm108-26l1-5c5.804 3.38 13.649-2.904 20-5 1.47-.485 5.587.439 9-1 1.8-.759 1.755-2.981 3-4 8.864-7.253 27.299-5.857 38-1v2c-.624-.174-12.904-.257-15 1-.151.09-4.758 5.83-5 6l-7 1c-4.63 2.55-13.627 9.469-19 10-5.05.499-9.033.284-12 1-11.135 2.688-25.737 2.63-32-3 7.874.114 12.961-1.161 19-2zm27-17h2v1c-1.754-.63-.971-.193-2-1zm372 0h8v1c-6.904 4.396-8.872 8.101-21 8-1.795-.811-7.463.426-12 0-10.639-1-39.305 2.973-57 0-7.565-1.271-17.697-.35-28 0-16.789.57-33.859-.827-62 0-15.652.46-47.7.996-65-2-4.746-.822-13.785 1.784-21 2-30.7.918-49.443-.998-80-1v-2h1v-1c14.466-.45 31.414-.667 37-3 1.305-.545.498.433 1 1 1.197 1.352 3.793.192 5 0 3.92-.625 15.22 1.715 16 1 .804-1.021.355-.274 1-2 5.344 3.355 36.028 1.737 41 1 3.707-.55 15.205 1.694 16 1 .804-1.021.355-.274 1-2 5.768 3.62 36.955 1.605 41 1 3.947-.59 15.195 1.707 16 1 .804-1.021.355-.274 1-2 5.718 3.643 37.166 1.572 41 1 3.948-.589 15.195 1.707 16 1 .804-1.021.355-.274 1-2 5.718 3.643 37.166 1.572 41 1 3.948-.589 15.195 1.707 16 1 .804-1.021.355-.274 1-2 7.75 4.785 32.925-.605 41 2v-1c.23-.635 1.91-.162 4-3zm-411 2c9.717.005 14.98.46 21 0l-1 2h1c2.752-1.958 8.1-1.533 13-2v1h1c-1.021.804-.274.355-2 1-4.387 3.46-41.06 6.823-46 3h2c4.125-2.513 11.15-1.344 15-4-2.328-.195-2.826-.193-4-1zm41 1h2v1c-1.754-.63-.971-.193-2-1zm-261 2c11.233 1.725 18.412 1.062 31 1 5.107-.025 12.522 3.942 17 5 2.37.56 3.17-3.621 6-3 .803.176 3.89 3.54 5 4 7.853 3.258 18.294 8.566 27 13h4c6.37 4.078 11.376 11.946 17 17 3.48 3.127 8.285 5.201 11 9 19.857 27.785 26.521 61.505 35 96 1.485 6.043-3.927 17.155-5 22-.44 1.986 1.958 6.151 0 9-.754 1.096-3.323 1.356-4 3-12.879 31.261-27.947 59.11-58 74v-2c.707-1.545.13-.135 0-3 16.76-5.396 34.285-24.342 43-41 1.842-3.521.044-5.598 1-8 2.038-5.12 8.422-11.405 11-17 2.685-5.827 3.183-13.078 2-17 1.622-3.967 4.304-9.575 6-14l-1-2c-3.052-3.744-5.915-19.76-7-25-.756-3.65 1.34-8.004 0-13-9.59-35.737-24.935-64.935-53-84-5.25-3.566-10.792-4.427-17-7-4.998-2.072-11.161-6.102-16-8l-12-1c-3.34-1.093-22.512-3.765-35-4-6.27-.118-18.442 4.89-25 6-.21.036-31.831 8.895-33 10v2l-2-1 1 2c-3.903 2.264-15.98 13.018-16 13l-1 4h-8c-.831.443-14.311 15.73-15 17v4c-3.237 6.176-10.165 13.067-13 20-9.17 22.421-9.164 41.652-9 72h1c.63-1.754.193-.972 1-2 .673 35.091 29.25 60.575 32 97-3.55 2.097-2.604 5.319-7 7v-1h-1c5.934-14.765-11.207-55.736-17-69-3.01-6.894-8.4-15.036-7-21-2.53-.387-1.578.58-2-3-5.807-8.323-4.51-22.243-4-31 .318-5.46-2.121-16.47 1-28 4.226-15.612 12.128-29.216 19-42 2.055-3.824 1.54-7.492 4-11l2 1c1.612-2.326.863-1.31 3-3 2.333-1.846 3.039-4.715 5-7 2.689-3.134 7.826-4.268 11-7 .894-.77 1.108-3.227 2-4 4.412-3.823 10.702-5.059 15-9 2.783-2.552 4.49-7.178 8-9 7.587-3.94 22.692-6.905 31-9 3.291-.83 11.035 1.237 16-2zm254 0c2.076.372 1.924.242 3 1zm-83 13v-3l60-2v1h-2c-5.126 4.57-12.98 2.945-22 4-8.274.967-23.225.126-36 0zm115-5c11.993 3.649 25.837-1.377 37 0 19.68 2.427 36.263-2.44 59 1 7.093 1.073 18.331-1.993 25-1 14.476 2.155 39.168-2.236 58 0 11.504 1.366 37.417 2.393 53 0 4.904-.753 16.748.297 21 1 18.381 3.038 57.977-.01 81 0l1 2h1c.99 1.01-.986.988-1 1-5.281 3.456-10.472.623-15 1-9.93.826-19.08 1.31-33 0-3.533-.332-6.241 2.134-13 1-13.31-2.232-45.546-.35-68-1-14.782-.427-39.935 3.242-53 1-24.338-4.176-47.122 2.558-62 0-9.553-1.643-24.617 1.062-31 0-19.957-3.32-34.597 1.545-51-1-7.878-1.222-19.385 3.514-25 0 3.712-1.94-.55-1.596 3-3v2s12.136-3.36 13-4zm-17 3h2v1h-2v-1zm-2 1h2v1c-1.754-.63-.972-.193-2-1zm-2 1h2v1c-1.754-.63-.972-.193-2-1zm374 11c.804 1.021.355.274 1 2h-1v-2zM148 58c8.666 3.581 19.714 1.985 30 5l22 10c15.028 9.916 26.52 29.645 32 49 2.126 7.507.05 13.559 2 22 .973 4.213 4.341 8.906 3 15-1.678 7.624-6.893 22.192-10 32-2.794 8.82-2.413 27.133-7 34-.172-5.963-.578-8.462-2-11 2.742-3.803.96-10.684 3-18 3.83-13.736 8.376-28.312 11-41 1.747-8.449-5.343-35.662-8-41-3.034-6.095-3.567-11.498-7-17-16.396-26.277-49.091-37.842-88-33v-1h1c1.737-2.022 2.145-1.869 6-2 4.318-2.732 8.618-.553 12-3zm-30 5h5v1h-2c-2.842 1.387-2.793 1.345-3-1zm-4 2c2.076.372 1.924.242 3 1zm-3 1h2v1c-1.754-.63-.971-.193-2-1zm-2 1h2v1c-1.754-.63-.971-.193-2-1zm-4 1c2.422.34.883.326 4 0v1h-1c-5.48 6.412-14.965 14.57-24 17v-3c.804-1.021.355-.274 1-2 3.216-1.586 17.55-10.591 20-13zM78 91h4v1c-15.198 7.309-18.296 34.884-22 46h-1v-11c3.673-4.926 3.375-11.8 6-18 3.035-7.168 8.01-12.781 13-18zm677 36h2v1c-1.754-.63-.971-.193-2-1zm-468 10c21.695-.339 45.745-1.606 61 3 3.783 1.142 7.63 4.514 11 6 12.224 5.392 23.507 9.285 37 13 9.349 2.574 43.983 9.313 53 3-1.725-.6-3.152-.89-6-1-8.565-3.808-27.448 4.429-37-3-1.084-.909-.085.078-1-1 1.084-.909.084.078 1-1 6.66 2.345 11.01-.011 16 0 13.509.03 23.97 1.008 37 0 10.496-.812 23.642 1.695 37 1 12.512-.65 30.152-2.065 42 0 6.189 1.079 12.663-.116 18-1 1.992-.33 11.47.74 13 1 4.55.772 5.79-.976 8-1 9.074-.098 22.095-.408 30 1 5.03.896 7.941-.941 10-1 11.25-.323 27.494-.526 37 1 9.582 1.539 17.853-2.37 26 4-7.89.27-16.672 1.247-24-1l-1 2c-.164.047-7.831-2.147-9-2-14.628 1.841-52.109 1.922-63 0-3.027-.534-3.533 1.627-5 2-1.695.43-35.4-1.049-38-2-.384 2.617.743 1.31-2 2-5.029-3.963-24.201-.023-37 0-.321 0-6.616-1.935-7-2-1.768-.299-7.812 1.147-12 0l-1 2c-.49.127-7.587-2.156-9-2 0 0-.55 1.822-1 2-2.031-1.233-3.205-2.887-7-2-18.795 4.39-37.296 11.922-59 4 .392 2.933 1.636 1.253-1 3-6.83-4.552-17.035-4.62-25-8-32.68-13.869-61.517-17.978-93-16-.83-3.393-.504-3.1 1-6zm-228 5c.804 1.021.355.274 1 2h-1v-2zm309 2h4l-1 2h1c2.412-1.353 15.776.062 19 1 8.66-4.043 38.573.946 58 1 7.539.021 29.106-1.723 39-2 19.12-.535 35.158 3.083 55 0 4.053-.63 16.86 1.31 21 2 6.445 1.073 32.578-.997 39-2 3.536-.552 15.38 1.438 19 2 1.123.175 6.244-1.07 9-1 10.599.272 18.176 1.18 31-2 11.815 4.504 24.79 13.294 36 19v2h-2c-4.119-3.41-8.716-3.313-14-6-4.965-2.525-11.381-8.132-18-9 0 0-2.38 3.054-4 3-2.67-.09-13.817-.948-18-2-15.131-3.804-36.992.486-55-2-11.745-1.622-39.888 2.503-58 0-11.745-1.623-39.888 2.502-58 0-15.61-2.157-54.097.011-71 0l-1 2c-.842 1.205-.361.919-1 3-5.464-2.085-26.199-5.86-30-11zm-306 2c-.412 15.805 3.228 31.248 11 44 3.73 6.121 9.912 12.072 13 19 4.119 9.241 4.993 19.422 8 27-2.612.16-3.395.43-5 1-.53-10.34-11.451-34.682-17-41-.63 1.754-.193.971-1 2-1.322-5.368-5.951-9.292-8-14-3.39-7.792-7.186-32.643-4-37v-1h3zm320 6c3.005.523 6.993 1.36 9 3zm10 3c2.076.372 1.924.242 3 1zm4 1h2v1c-1.754-.63-.971-.193-2-1zm6 0h2v1c-1.754-.63-.972-.193-2-1zm126 8c2.343 2.648 1.213 1.365-2 3v-2c1.754-.63.971-.193 2-1zm-121 2c2.076.372 1.924.242 3 1zm-119 9c.3-4.7.459-7.086 5-8 9.548 4.103 35.918.897 47 4 25.175 7.05 47.038 16.574 75 22 11.804 2.29 35.525-6 44-3 10.23-4.778 24.65-3.735 35-9 13.927-7.085 27.387-14.483 44-15v1h1v1c-6.015.62-9.056 3.51-15 6l-17 4c-9.286 3.785-16.904 7.547-27 11-19.23 6.577-39.948 5.927-60 9-6.073.93-18.618-3.43-24-5-8.695-2.538-15.42-1.249-24-4-8.18-2.623-16.772-6.959-24-10-10.344-4.353-41.224-9.913-50-8-4.013.874-5.273 3.393-10 4zm-66-1c1.22 2.14.388 2.77 0 6-6.183 4.46-10.302 11.228-16 16-1.545.707-.136.13-3 0-.274 7.742-9.888 14.895-15 23-8.41 13.334-9.874 29.686-14 45-1.354 5.027 3.429 37.328 5 41 .525 1.227 3.455 3.5 4 5v7c5.194 18.568 6.896 37.628 5 50l-2-1v1c2.461 4.579-11.44 18.583-14 23l-2-1c-.361 8.485-15.517 12.004-23 14-2.241.598-7.745 1.57-10 2-4.122.785-10.976-2.208-14-3-1.79-.47-9.416-1.48-11-1-18.773-8.843-25.46-24.083-37-40h4c1.79 6.51 8.593 9.081 12 14 10.897 15.732 29.646 30.521 52 24 2.195-.64 3.718 1.928 8 0 5.156-2.322 10.5-7.808 15-11 4.703-3.337 9.69-5.387 13-10 14.229-19.834 1.736-32.696 1-57h1v1c.775 1.923 1-2 1-2-2.712-2.467-5.377-20.12-5-22l-2 1v-1c-5.72-6.1-2.204-22.163-2-29v-17c5.63-18.436 15.649-42.89 28-58 5.972-7.306 14.438-13.175 21-20zm-6 45c4.238 9.33-1.897 48.659-2 60-.212 23.239 8.757 52.483 13 73 2.871 13.884-2.391 21.857-6 30-3.516 7.932-2.63 16.324-7 23-1.781 2.722-5.972 4.49-8 7-20.296 25.112-36.925 25.794-73 36-10.485 2.966-25.212-2.583-32-5-3.647-1.299-11.32-1.127-16-4-25.029-15.369-64.373-56.031-55-98l-1-16c1.305-5.477 1.49-13.133 4-19 3.325-7.77 11.398-14.441 13-23-2.252-2.377-1.092-.35-1-4 6.393-4.502 15.45-15.034 21-21 1.022-1.099.667-3.242 2-4 5.456-3.103 9.484-3.487 14-2 5.155-2.916 10.586-7.72 16-10l24-5c5.427-1.709 32.524-8.533 37-6-12.24 1.192-25.877 5.3-33 9-.384 2.617.743 1.31-2 2-6.557-3.48-19.903 3.825-25 6-5.535 2.362-17.88 4.846-25 9-4.744 2.767-17.425 17.923-21 23-2.834 4.025-8.578 7.854-9 14-.245 3.56-4.265 9.615-6 14-3.488 8.815-4.727 19.6-6 25-2.187 9.277-.793 17.88 1 25 2.008 7.976.251 14.104 3 21 9.429 23.66 36.598 50.983 60 61 11.306 4.84 38.63 4.703 52 1 39.771-11.016 62.528-29.398 74-68 5.2-17.497-2.196-39.919-6-53v-8c-3.703-13.45-5.482-27.624-3-43 .355-2.2-.998-7.354-1-11-.01-12.901-.331-27.315 4-39zm-57 10h2v1c-1.754-.63-.972-.193-2-1zm7 6h2v1c-1.754-.63-.972-.193-2-1zm44 27c.752 1.073.601.946 1 3h-1v-3zm-42 23c-27.174-.62-52.869 7.397-73 14 2.177 8.161-8.677 10.106-12 16-6.512 11.548-10.234 29.144-5 42-2.356 1.103-1.78.959-3 3h-1v-5c-5.131-7.772 2.645-28 3-34l2 1v-1c1.542-11.508 19.242-30.925 32-28v-1s-.104-.397 3-1c4.195-4.306 20.236-2.464 25-6-2.076-.372-1.924-.242-3-1 4.656.574 5.795 2.794 10 0-2.72.007-4.598-.039-6-1 10.512-.634 17.631-4.656 29-5v2c-.877 1.295-.895 2.467-1 5zm-12-3c1.02.804.274.355 2 1zm-6 1c1.72.88 1.278.889 3 0zm-8 9c5.316.312 22.683 4.029 28 6v1c-2.842-.32-2.07-1.056-4 0h2c1.133 1.546 1.085.843 2 3 .707 1.545.129.135 0 3h-3c-7.488-5.295-23.805-3.675-28-12 2.076-.372 1.924-.242 3-1zm-53 18c1.68 2.463 1.125 9.312 0 13-3.164 10.37-5.271 17.637-8 29h-1c-.808-9.167 6.743-33.142 9-42zm91 31c1.476 1.811 2.344 4.4 3 7h-2l-1-7zm-98 13c.804 1.021.355.274 1 2h-1v-2zm-60 31c.804 1.021.355.274 1 2h-1v-2zm2 23c1.184 1.754 1.143 3.251 0 5zm-1 14c.804 1.021.355.274 1 2h-1v-2z"/></g></g></svg>