<svg xmlns="http://www.w3.org/2000/svg" viewBox="0 0 930 198"><g><g><path d="M78 0c3.659 1.264 2.68 3.488 5 5 2.397 1.563 3.099-1.628 4-2 .683.38 2.093 2.737 3 3 2.392.693 5.709-.967 8-1 17.023-.248 38.508-.035 51 2-.28 2.064-.503 2.436-.41 3.226-.187.154-.13.28.06.381.069.34.181.773.35 1.393h-2c-5.706-3.177-43.666.393-53-1-7.707-1.15-13.106 3.368-19-3 3.977-1.562 3.615-4.086 3-8zm694 19v-4c4.106.083 5.52-1.73 7.22-2.576-2.379.022-4.494-.096-6.22-.424-14.184-2.697-25.379.472-39 0-14.153-.49-31.187-1.33-50 0-12.441.88-28.21-.71-40-1-17.294-.426-37.676 1.7-52 0-4.591-.545-9.664.546-14 1-9.746 1.02-35.589-.015-44-1-6.684-.783-10.374 2.17-19 1-8.981-1.219-26.572-.678-37 0-4.33.282-15.446.093-21-1-3.072-.605-6.672.461-10 1-7.711 1.248-24.905-.529-29-1-5.004-.576-9.147 1.042-14 1-12.39-.107-33.167.23-44-1-6.714-.762-14.965.321-20 1-6.795.916-13.028-1.948-22-1-10.863 1.147-23.583.641-39 0-13.964-.58-21.97 1.785-35 0-9.839-1.348-38.5 3.753-43 0-.913-.932-1.33-1.755-2-3 4.548-.314 7.397-1.657 10-3 .104-.054 12.823 1.476 18 2 21.38 2.162 48.687-.834 66 1 6.681.707 18.58-1 27-1 27.397.002 57.248-.164 83-1 11.012-.358 23.801.83 30 1 25.177.689 55.118-1 82-1 84.89.001 174.381-.516 251 0V5c-2.407-1.241-7.527-2.27-10-4 5.508.085 19.063 1.156 21 0 .797.98 1.446 2.743 2 4 13.345-2.087 46.98.355 70 1 10.696.3 28.264-6.428 36-2 1.27-.751 2.387-3.42 4-4 8.572-3.08 23.134 2.22 30 3 5.07 11.678 12.3 22.737 9 40-.713-.002-1.103-.1-1.336-.193.25.69.336 2.193.336 2.193-.804 1.021-.355.274-1 2h-2v-8c-2.223-5.024-3.066-19.191-6-26-3.8-1.94-12.306-5.63-15-9l-9 2v1c5.724.637 16.442 10.582 18 15l1 12c.617 2.539 3.256 6.897 2 11-1.941 6.34-8.268 11.324-12 16-1.485 1.86.257 4.629-1 7-1.273 2.402-4.94 2.665-6 6-3.25 10.219 1.108 17.541 1 28h-1v-1c-10.06-9.748-5.062-34.452 4-42-.684-2.493-2.358-1.856-1-3 3.524-4.67 7.212-6.046 9-13 2.544-17.035-.818-17.776-12-29-4.257 1.135-16.739 4.017-21 3-2.281.8-8.206 5.243-13 3v-2c-.178-.1-3-1-3-1-3.235-1.001-9.371 1.203-14 0-13.737 5.39-46.305 2.023-73 2zm10-5c4.948 1.112 8.6-.597 14-1 10.815-.807 32.848 1.465 42 0 4.8-.768 15.892 4.05 20-2h-36c-7.465-3.083-27.414.882-40.812 1.377L782 14zm143 30h1v-1c.043-.107.084-.196.124-.268-.156.156-.438.524-1.124 1.268zM55 1c2.774 3.82-14.597 6.281-20 11-3.449 3.012-5.33 8.236-9 11-2.693 2.028-6.144 3.276-8 6-4.815 7.065-6.761 14.52-12 21v-1c-1.656-3.613 2.374-8.923 3-14 2.616.007.883 1.296 3-1-2.617-.384-1.31.743-2-2 6.567-5.528 17.374-21.757 25-25 6.282-2.671 14.355-1.848 20-6zm141 1c3.872-.147 9.715-.537 12 1-4.4.601-7.889 2.422-12 4v1h1c1.923.775-2 1-2 1-3.03-.457-22.035 7.387-24 11h1v1c-17.65 1.213-22.095 14.564-46 4-3.396-1.5-6.498-.893-9-3-.872-.74-1.128-1.26-2-2 .74-.872 1.26-1.128 2-2-12.245.266-19.207-.722-32-1-5.412-.118-12.942 1.4-16 1-4.946-.646-14.261.92-16 0h-1v-1c3.198-.937 3.495-1.74 8-2 2.413-1.611 19.124-1.676 23-1 14.392 2.51 50.882-3.763 67 1v-1c-.089-2.087-.459-.618 1-3 0 0-1.776-.089-2.35-.393a4.834 4.834 0 0 1-.06-.38c.083-.07.217-.146.41-.227h2c4.482-5.835 12.111-5.421 21-7v1h-1c-2.535 1.957-12.1 7.559-17 9 .552 1.922 1.64.857 0 2-7.29 8.62-25.294-1.222-34 4 6.775 1.02 12.219 4.281 19 6 8.279 2.099 21.36-4.494 29-6v-1c-2.533-.074-3.716-.12-5-1h2c3.367-3.29 6.86-3.05 11-5-.74-.872-1.26-1.128-2-2 7.833-.712 17.043-2.36 22-8zm664 6c-.274 3.33-.374 1.66 0 5 12.642.675 22.266.482 35-1v-1c-12.58-3.23-21.16-1.295-35-3zM339 159c-.828 3.245.49 1.528-2 3-5.899-4.177-22.347-3.503-30-9h2c6.736-4.17 39.698 2.72 55-3v-1h-2c-4.818 2.15-13.535-.773-21 0-9.088.941-23.656 1.916-37 0v2c1.257.65 2.07 1.09 3 2h-3c-6.369-4.58-15.543-5.595-22-10-.994.294-1.05 2.62-2 2-7.143-4.67-23.429-10.166-35-11v1h-1v2c14.458.06 28.578 8.17 39 13 6.355 2.945 13.84 2.17 17 8h-5c-6.296.726-18.45-9.386-26-12-18.9-6.544-50.933-8.287-61-6-6.753 1.534-9.53.428-14 4 20.233-.245 49.167-4.37 62 5-16.447.417-40.55 1.844-49 0-4.916-1.073-6.944 1.774-9 0-2.517-2.207-1.948-2.764-7-3-7.28 4.965-24.727-.004-33 1-16.575 2.012-52.84 4.827-75 0-6.52-1.42-6.263 5.244-14 3-16.966-4.922-42.138-29.838-48-46h1c.867 1.191.822 1.125 2 2-14.416-31.933-8.084-64.399 13-84 6.488-6.032 15.978-17.205 25-9-18.184.167-40.882 30.303-40 50h1v1c-3.996 1.28 1.543 20.939 3 26v9c10.797 20.943 12.768 25.816 34 39 2.249 1.397 5.435 5.17 8 6 10.788 3.488 33.662-2.865 47-1 10.36 1.449 20.38-1.408 32 0 4.003.485 13.479 2.546 19 1 22.11-6.192 38.7-10.772 64-14 15.783-2.014 42.677 6.499 62 14 8.164 3.17 22.125-1.833 29-1 21.617 2.62 41.095.375 63 1v1h-2c-7.838 7.675-29.529 13.962-43 14zM78 9c1.021.804.274.355 2 1zm687 6v4c-8.137.134-13.56-.235-21 2-.278-2.588.466-1.775-4-2-1.814 2.146-15.055-.337-25 0-12.801.433-37.574-.73-58 0-6.367.228-22.693.747-34-1-2.841-.44-10.36 1.528-15 1-30.06-3.423-71.056 3.252-101-1-1.344-.191-7.006 1.026-10 1-11.42-.1-20.45.328-32-1l-10 1c-21.556-3.416-49.976 1.463-79 0-40.864-2.06-91.591 2.216-135-1-22.445-1.663-35.695 1.548-55 0v-3c15.711-.38 31.555-1.133 55-1 13.293.075 22.664 1.482 33 0 22.26-3.192 42.783 2.167 58 0 22.211-3.163 42.756 2.162 58 0 18.071-2.564 40.745-.756 57 1 11.953 1.291 32.037-3.23 44-2 11.81 1.214 30.662 3.26 44 1 12.97-2.198 35.512.291 54 0 6.037-.095 17.464-1.523 22-1 9.067 1.045 24.379 2.827 35 1 8.548-1.47 20.39 2.237 33 0 5.504-.977 13.762 1.767 24 0 20.69-3.572 37.51.686 62 1zm117 3c3.763.227 4.557.874 7 2v1h-1c-3.47 6.048-13.615 9.009-23 9-3.707-3.722-10.87-4.785-14-9h4c9.244 4.452 19.104 4.81 27-3zm11 0c2.552 1.041 2.925 1.483 4 4l-5 1v-2c.752-1.073.601-.946 1-3zm-792 5h2v1c-1.754-.63-.972-.193-2-1zm636 1l5 1c1.565 4.461 5.416 7.913 7 12 9.635 24.86 12.415 44.263 4 71-3.42 10.867-5.61 21.567-15 26-1.073.752-.946.601-3 1v-1h-1l1-3c19.766-13.13 20.744-59.994 12-84-2.824-7.754-9.158-17.637-10-23zm166 111c.157-15.714-.012-37.262 0-56h4c.892-6.317 13.683-27.06 18-31v1c1.938 1.667 1.668 1.439 2 5-6.918 8.326-7.6 17.594-14 25-2.588-1.235-5.36 1.133-6 2 2.233 3.468.96 12.728 1 18 .108 14.482 2.19 25.14-2 36h-3zM5 50c1.118 1.983.596 1.808 0 4H4c.294-2.33.451-2.477 1-4zm-2 6c2.542 1.455 1.128-.217 2 3H3v-3zm0 9c.35.301 1.997.523 1 2zm-2 5c3.245.828 1.528-.49 3 2-4.412 7.9 1.637 30.91 8 43 3.265 6.204 4.531 13.883 9 19 9.457 10.83 51.676 31.129 71 32 16.34.737 32.535-4.756 52-6v2c-6.727-.202-20.07 4.067-30 6-15.061 2.932-60.862-6.838-70-13-10.57-11.53-28.439-15.226-33-33l2 1c-4.437-7.08-9.61-15.914-12-25-2.25-8.552.354-22.004 0-28zm918 8c.76.766 1.985.427 2 2 .01 1.105 1.62 33.5-1 37 .094-3.09.14-6.33-1-8 .151 9.432-.484 17.945-2 25-5.623 2.866-7.325 8.748-12 12-2.889 2.01-5.674 1.64-8 4-20.589.168-21.098-13.487-41-14v1h-1c1.021.804.274.355 2 1 3.61 2.821 8.097 1.82 13 5 12.618 8.184 20.205 18.17 36 8 3.499-2.253 4.537-1.622 6-6h1c.416 3.58-.472 2.516 2 4-.529-6.812 6.054-8.582 8-16 2.063-7.866-.51-15.803 1-21 .804 1.021.355.274 1 2 15.473 15.932-10.03 54.975-37 47-9.663-2.857-14.994-11.392-23-16l-11-3c-3.057-2.427.084-3.601-3-5-4.493 3.577-12.177 4.991-17 1 9.388-.87 17.296-9.122 30-6 14.627 3.594 16.605 14.928 34 14 2.345-3.008 13.656-12.437 17-15-2.341-7.026-1.997-12.083 0-18 1.147-3.4-1.047-15.663-1-23h1c.867 1.191.822 1.125 2 2v-2c-2.575-1.98-2.902-3.376-3-8 1.758-1.081 3.617-2.515 5-4zm-50 15c.804 1.021.355.274 1 2h-1v-2zm-51 47c4.166-.072 6.829.228 9 2l-6 1c-.995-1.36-1.929-1.806-3-3zm-11 4c.828-3.245-.49-1.528 2-3v1h1c-.74.872-1.26 1.128-2 2h2c4.514-2.493 10.413 2.37 19 0l2-2c1.941-.385 3.646 1.54 6 2 3.824.747 12.09-1.906 15-1 1.456 1.146 2.2 2.003 4 3-1.021.804-.274.355-2 1-4.799 3.086-17.082-3.36-32 0-12.844 2.893-30.814 1.428-49 2-4.393.138-11.414-1.573-16-1-11.859 1.48-27.978 2.051-45 1-1.218-.075-10.618-1.271-13-1-12.158 1.384-21.61 1.683-37 1-2.152-.096-7.4-1.302-10-1-28.304 3.286-65.67.787-95 1-37.01.269-68.26 2.781-104-1-8.668-.917-35.458 4.658-43 0 6.22-.247 7.283-2.722 11-4 3.336-1.147 11.745-.693 14-1 6.039-.821 17.17 1.345 25 1 25.812-1.139 63.978 2.666 91-1 6.878-.933 18.379 2.459 27 1 15.41-2.608 36.024 3.72 58 0 15.41-2.608 36.023 3.717 58 0 15.719-2.658 38.13 3.344 58 0 14.047-2.364 38.708-.62 55 0zm8-3h2v1c-1.754-.63-.971-.193-2-1zm79 0h2v1h-1c-.691.132-1.944.053-1-1zm-49 1h2v1c-1.754-.63-.971-.193-2-1zm-544 18c.372-2.076.242-1.925 1-3 8.067 5.338 29.177 8.852 37 9 5.074.096 9.769-2.824 16-3-.008 3.162-1.694 1.344 1 3 2.856-2.523 15.972-11.576 19-13 4.915-2.31 8.402.578 13-3-2.076-.372-1.925-.242-3-1h2c.51-.397 17.285-3.225 22 0-5.376-.117-9.068.677-12 3 50.89 3.387 116.797-1.602 207 1 35.7 1.03 77.359-1.002 112-1 17.805 0 39.634-2.138 52 0 8.45 1.461 21.128.07 28-1 1.027-.16 5.377 1.163 8 1 8.762-.544 15.404.002 29 0 7.92-.001 15.725-.568 19 0 4.376.76 10.66-1.424 11-1l4 2v2c-5.67-1.103-9.283-.166-14 2-.585.268-16.586-2.565-19-3-.118 3.741 1.206 2.442-3 3-5.995-2.996-27.054 1.083-36 0-8.866-1.073-24.185-.799-31 0-10.815 1.268-21.758-1.282-34 0-8.531.893-19.028-.064-27-1-6.284-.738-14.99.548-19 1l-10-1c-8.507 1.494-19.51.308-26 1-5.119.546-12.289-.019-17-1-2.348-.49-7.128.954-9 1-12.63.307-22.778-1.01-32 0-14.216 1.556-35.394-2.878-54 0-.88.136-5.555-.99-8-1-12.392-.047-19.17 0-32 0-45.582-.003-96.55-3.529-129 6 1.46 1.92 3.053 2.173 2 4-6.008 5.324-14.488.71-25 3-3.776.822-18.579 2.26-24 0-6.302-2.627-9.853-7.728-19-9zm-172-9c18.211-.644 31.636.29 44 2 5.51.762 10.262-.34 15-1 5.374-.75 8.205.316 12 1 4.965-1.705 24.112-.98 31 0 16.706 2.376 35.79-5.538 47 3-41.483.079-81.272.014-123 0-.83 2.963-.443 2.733-3 4-2.311-2.448-4.094-1.241-9-2v-1h1c1.923-.775-2-1-2-1-2.22 1.248-12.608-1.724-15-4 1.754-.63.971-.193 2-1zm-5 1l3 1v1c-2.389-.842-1.645-.402-3-2zm-41 1c5.309.695 9.009 1.957 16 2v2c-2.47-.757-8.727-1.07-15-1l-1-3zm17 2c2.856.05 16.224 1.217 17 2h1v1h-13c-1.713-1.264-3.599-1.377-5-3zm225 1c1.187.814 4.59 1.489 6 2v-2h-6zm16 6c2.327.195 2.826.193 4 1zm563 35h2v1c-1.754-.63-.971-.193-2-1z"/></g></g></svg>