<svg xmlns="http://www.w3.org/2000/svg" viewBox="0 0 1000 1001"><g><g><path d="M0 0h1000v1000c-6.995.128-16.66.831-22-1 4.08-13.342-5.004-45.696 0-61h-1v1c-.775 1.923-1-2-1-2 3.062-4.716.55-24.288 0-34-1.376-24.27 3.382-48.291 0-78-.942-8.274 2.48-15.69 0-29-.418-2.242 1.82-4.467 1-9-1.543-8.525-.18-18.364 0-27 1.103-1.872-1.607-.581-2-1-.72-3.53 1.426-22.745 2-26 .733-4.153-1.442-4.772-2-7 1.897-6.169 1.963-21.699 0-26-.79-1.732 1.631-26.426 2-28 1.273-5.43-2.161-25.5-2-33 .148-6.916.33-18.128 2-27 1.47-7.814-2.214-23.97-2-32 .168-6.305.062-15.626-.037-26H975l-.039-.201c-.207-21.681-.377-47.896 2.039-60.799 1.707-9.119-2.591-28.756-1-34h-1v1c-.775 1.923-1-2-1-2 3.919-2.56.493-8.825 2-17 .862-4.676-2.34-32.356 0-41h-1v1c-.775 1.923-1-2-1-2 2.542-1.456 1.128.217 2-3-2.468-1.295-.681.429-2-2h1v1c.775 1.923 1-2 1-2-3.729-7.294 3.872-29.262 0-47-2.631-12.053 1.802-42.68-2-65 2.467-1.295.68.43 2-2-2.53-.387-1.578.58-2-3h1v1c.775 1.923 1-2 1-2-1.754-.63-.971-.193-2-1 2.707-1.395 1.567-4.123 2-10 .315-4.275-2.422-32.84 0-41h-1v1c-.775 1.923-1-2-1-2 2.542-1.456 1.128.217 2-3-2.468-1.295-.681.43-2-2h1v1c.775 1.923 1-2 1-2-.56-1.105-.459-7.75 1-12-2.933-6.217-1.461-47.902-1-50 1.469-6.68-1.513-14.293 1-17 3.676-3.6 11.059-8.963 7-17-1.521-3.012-6.442-4.385-8-7-2.224-3.733-.387-29.857-1-35-3.509-29.45 18.654-35.662 0-60 3.198-1.728 3.685-2.218 4-7-9.265-3.278-13.38-8.39-25-9-10.115 12.382-37.673 4.03-50 6-10.523 1.681-16.5-.17-29 0-24.43.331-41.07-.744-66 1-9.298.65-19.347-2.164-31-1-29.02 2.898-65.74-3.273-96 1-2.427.343-5.634-1.065-8-1-8.97.246-16.427-.13-23 1-5.966 1.025-10.006-1.539-15-1-13.346 1.44-32.502-.804-43 1-5.965 1.025-10.007-1.533-15-1-13.346 1.425-32.505-.806-43 1-5.981 1.03-10.004-1.654-15-1-13.5 1.767-32.374-.833-43 1-6.987 1.205-13.906-.527-19-1-10.46-.971-31.45-.306-39 1-5.986 1.035-10.015-1.77-15-1-15.603 2.411-32.305-.845-43 1-5.977 1.03-20.327-.458-24-1-6.596-.973-12.202 1.675-19 1-13.218-1.312-41.055-1.875-57 0V7h1V6c3.22 1.11 4.375 1.246 6-2-4.396-1.116-6.255-2.7-12-3v1c4.014.118 5.527.278 7 3h-1c-6.705 4.108-14.548-2.687-23 0-5.587 1.776-11.583 9.797-18 7-.752-1.073-.602-.946-1-3 3.365-1.983 5.458-3.893 10-5V3c-6.128 1.053-9.034 5.753-14 7-3.75.941-11.804-1.848-17-2-10.43-.305-24.561 1.622-36 0-6.373-.904-31.204 2.622-32 2-2.316-1.615-2.352-1.46-3-5h5V4c-3.959-1.572-12.291-3.435-15-3-7.15 1.15-31.722 16.87-34 23h-3c.074 3.042.756 2.744 0 4-.58 1.786-15 24-15 24v-2c-1.969-2.006-3.156-7.98-1-11 2.807-8.364 11.124-11.944 14-20h-4c-6.473 2.637-59.287.104-75 0v-5h86l-1 2h1c1.69-2.248 4.625-4.473 7-6V9H65c-3.447 2.008-5.513-1.328-13 0-15.182 2.692-32.867.14-52 0V0zm230 22v-4c2.724-1.304 6.635-4.206 9-5 4.936-1.656 9.558 1.978 13 2 8.265.054 23.62-.685 35 0 5.444.328 19.22-1.315 27-1 40.644 1.647 72.496-1.716 112 1 6.878.473 13.244-1.479 23-1 7.044.345 14.11 1.533 22 1 3.675-.248 7.25-1.518 12-1 11.402 1.243 29.204.812 44 0 16.076-.882 27.222 1.635 45 1 14.348-.513 32.5-1.366 45 0 5.729.626 12.712-.723 15-1 8.406-1.017 14.216.706 22 1 10.752.406 26.26-1.927 38 0 5.702.936 20.18-.348 24-1 4.603-.786 18.193-.165 25 1 4.013.687 8.375-.363 13-1 3.236-.446 7.492.656 10 1 9.463 1.297 19.076-.868 27 0 10.523 1.152 16.872-.52 26-1 15.974-.84 31.433 1.868 47 0 5.696-.684 8.866 1.728 14 1 9.188-1.304 18.285-.433 27 0 9.609.477 16.966-1.47 27 0v1c-5.785.734-2.013 1.505-5 3-5.667 2.835-30.97-1.798-40 1-.951.295-18.134-1.539-21-1-11.395 2.14-28.66-3.699-38 1-3.822-2.144-47.754-2.895-57 0-1.37.429-16.469-2.484-21-2-20.285 2.164-42.68-1.89-58 1-11.77 2.22-26.749-2.215-37 1-.937.294-18.144-1.539-21-1-6.59 1.243-37.362-.134-38-1-3.428-.79-12.637 1.833-18 1-7.77-1.206-36.464-.905-41 0-6.082 1.213-15.835-.597-19 0-11.38 2.147-28.68-3.717-38 1-2.576-1.429-11.289.042-18-1-4.29-.666-34.889-1.588-40 1-2.576-1.429-11.289.042-18-1-4.288-.666-34.892-1.587-40 1-6.224-3.455-33.005-1.002-46-1-17.92.003-52.704 3.17-71-1-5.534 1.69-11.282 3.584-17 4zm-109-8c40.22-.27 64.128.322 93 1v1h-1c-4 4.079-13.802 3.213-22 3 0 0-12.311.62-18 0-8.763-.957-36.502-.783-42 0-6.373.908-11.088-.427-14-3h1c.771-.682 2.232-1.311 3-2zm107 1h2c-1.497 2.534-1.509 3.162-5 4v-1h2l1-3zm736 12h4v1h1c-.539 3.753 1.932 10.628 0 16-.897 2.493-3.146 6.737-4 10h-1V38c.3-.796.081-7.227 0-11zM61 47c2.3 2.859 3.106 6.719 6 9-.837 1.87-1.38 2.663-2 5h-2v-1c-.804-1.021-.355-.274-1-2 .913-.932 1.33-1.755 2-3h-1c-.868 1.191-.822 1.125-2 2-.76-2.631-1.198-2.385-2-5 1.105-1.384 1.494-2.873 2-5zm-3 9h2c.085 5.07 1.153 6.87 4 9-1 2.273-.745 2.774-3 4-1.043-3.528-1.974-5.533-2-11-.804-1.021-.355-.274-1-2zm1 12c1.45 1.232 2.55 2.768 4 4l-1 3h-2v-1c-.96-1.418-.976-3.273-1-6zm915 10c1.077 1.737 1.035 2.27 0 4zM60 79c.891 2.072.697 3.569-2 5v-1c.798-.98 1.446-2.743 2-4zm-1 11c.804 1.021.355.274 1 2h-1v-2zm14 7c.804 1.021.355.274 1 2h-1v-2zm3 0c1.947 1.578 2.795 3.511 2 5v1c-1.521-1.313-2.113-1.895-3-4 .804-1.021.355-.274 1-2zm-4 4c.752 1.073.601.946 1 3h-1v-3zm7 1c.804 1.021.355.274 1 2h-1v-2zm-5 1c1.257.65 2.07 1.09 3 2-.798.98-1.446 2.743-2 4h-1v-1c-.752-1.073-.601-.946-1-3 .804-1.021.355-.274 1-2zm3 2c1.46.854 2.867 1.812 4 3-.798.98-1.446 2.743-2 4l-3-1c.76-2.467.64-2.1 1-6zm4 3c3.009 1.969 5.61 5.505 7 9-2.105-.788-1.806.031-3-1-3.664-1.821-4.04-2.34-4-8zm-6 4c1.962 1.743 2.8 2.035 2 4 0 0-.438 3.971-1 2v-1c-.877-1.295-.894-2.467-1-5zm4 4c5.758 2.501 13.662 4.893 17 10h-2c-5.591-4.263-11.748-4.019-16-8 .804-1.021.355-.274 1-2zm1 6c2.305 1.345 1.823 1.22 2 2v1h-1v-1c-.804-1.021-.355-.274-1-2zm894 0c.804 1.021.355.274 1 2h-1v-2zm-890 2c2.851 1.072 6.787 2.154 9 4h-1c-1.073.752-.946.601-3 1-3.204-2.748-4.811-1.453-5-5zm11 4h2v1c-1.754-.63-.972-.193-2-1zm-9 1h2v1c-1.754-.63-.972-.193-2-1zm11 0h2v1c-1.754-.63-.972-.193-2-1zm-9 1c3.551.332 7.681.427 12 2v-1l-1-1h2c1.35 1.624.64 1.121 3 2v1H91c-1.072-1.189-2.004-1.647-3-3zm227 5c2.045.351 5.538.947 7 2h-1c-3.034 1.898-4.351.314-6-2zm-183 11c-5.835-.628-5.784-2.496-10 1h2c1.35 1.624.64 1.121 3 2v1h-3c-4.993-3.679-14.442-2.88-19-7 6.132.236 11.744.217 13-2-8.69.35-17.697 1.508-22-4h10c3.54-2.127 20.958 4.773 26 6v3zm190-9c2.329.294 2.477.451 4 1v1c-3.136-.552-2.433-.21-4-2zm5 1c12.527 4.502 24.371 9.86 36 15 5.323 2.353 15.291 2.41 12 5 10.388 3.508 26.162-5.469 37-1v1h-1c-3.692 3.522-7.566 1.662-14 3-21.89 4.55-36.399-6.02-50-13-6.213-3.189-20.92-5.736-20-10zm647 2c.804 1.021.355.274 1 2h-1v-2zm-11 860V739c1.039-6.122.422-10.38 1-16 .417-4.062-.482-18.345-1-21-1.408-7.22 1.763-12.142 1-19-1.306-11.727-1.223-29.392 0-37 1.107-6.888-1.373-8.351-1-15 .779-13.884-.235-34.276 1-44 .53-4.176-.447-17.021-1-18 2.996-27.262-3.239-49.607 1-73 .576-3.18-1.143-7.413-1-9 .704-7.84-.138-17.339 1-28 .164-1.54-1.573-5.85-1-9 2.402-13.2-4.118-35.802 0-60 2.817-16.56-.786-62.389 1-80 1.3-12.826-1.586-30.565 0-41l-1-9c2.073-11.415 1.602-24.094 0-35-.775-5.272.752-11.071 1-17 .865-20.7-.052-33.998 0-59 2.72-.877 2.938-1.707 5-3v6c2.4 3.993.237 11.983 0 16-.573 9.695.198 24.345 0 39-.697 51.55 1.75 99.231 0 154-.403 12.594 1.006 29.758 1 47-.005 12.382-1.935 23.98 0 35 3.949 22.483-3.011 41.856 0 59 4.158 23.675-3.23 40.562 0 59 1.672 9.542.256 24.032-1 32-.636 4.034.956 8.345 1 15 .106 16.059-1.702 43.258 0 53 2.764 15.818-.437 37.722-1 54-.107 3.087 1.281 10.365 2 15 .43 2.772-1.37 10.43-1 15 1.032 12.76-.192 29.41 1 37l-1 17c.074 17.81-.988 34.823 1 49 .5 3.571-2.04 11.663-1 17 1.2 6.155-.324 15.39 0 24 .771 20.491-1.785 56.666 1 77 1.658 12.106-3.53 23.798 0 34h-8zm11-853c1.077 1.737 1.035 2.27 0 4zm0 11c.804 1.021.355.274 1 2h-1v-2zm0 22c1.327 1.832 1.29 5.17 0 7zm0 9c.804 1.021.355.274 1 2h-1v-2zm0 7c1.184 1.754 1.143 3.251 0 5zm0 10c1.263 1.786 1.224 4.218 0 6zm0 33c1.327 1.832 1.29 5.17 0 7zm0 9c.804 1.021.355.274 1 2h-1v-2zm0 7c1.184 1.754 1.143 3.251 0 5zm0 10c1.263 1.786 1.224 4.218 0 6zm0 33c1.327 1.832 1.29 5.17 0 7zm0 8c1.077 1.737 1.035 2.27 0 4zm0 8c1.184 1.754 1.143 3.251 0 5zm0 10c1.263 1.786 1.224 4.218 0 6zm0 11c.804 1.021.355.274 1 2h-1v-2zm0 22c1.327 1.832 1.29 5.17 0 7zm0 9c.804 1.021.355.274 1 2h-1v-2zm0 7c1.184 1.754 1.143 3.251 0 5zm0 10c1.263 1.786 1.224 4.218 0 6zm0 33c1.327 1.832 1.29 5.17 0 7zm0 9c.804 1.021.355.274 1 2h-1v-2zm0 7c1.184 1.755 1.143 3.251 0 5zm0 10c1.263 1.786 1.224 4.218 0 6zm0 11c.804 1.021.355.274 1 2h-1v-2zm0 22c1.327 1.832 1.29 5.17 0 7zm0 9c.804 1.021.355.274 1 2h-1v-2zm0 7c1.184 1.754 1.143 3.251 0 5zm0 10c1.263 1.786 1.224 4.218 0 6zm0 33c1.077 1.737 1.035 2.27 0 4zm0 20h.963l-.002-.201c-.35-1.846-.235-1.762-.961-2.8V554z"/></g></g></svg>