<svg xmlns="http://www.w3.org/2000/svg"  viewBox="0 0 70 69"><g><g><path d="M30.132.344c24.83-.486 47.732 20.187 36.611 46.468-4.582 10.828-14.186 18.224-26.754 21.122-22.165 5.11-44.663-20.427-38.02-42.244C5.137 15.286 12.806 6.448 22.387 2.456c2.557-1.066 5.598-.731 7.745-2.112zM23.09 43.996c-.314 3.264-.29 5.053-.704 7.744 6.123-.473 4.627 1.73 9.153-.704v2.112c-1.584.814-1.047 1.024-2.113 2.113-.95-1.144-.45-.79-2.112-1.409-2.177 3.47-5.29 2.125-7.04 7.745h.704c2.142 2.922 16.314 6.897 19.01 2.112.05-1.1-1.328-7.522-1.409-11.265h-2.112v-1.408c-.53-.755-.423-.666-.704-2.112 2.143-.992 2.67-2.725 4.225-4.224 1.737 1.53 5.91 2.263 8.448 2.816v4.224c-1.452 1.003-3.37 5.1-2.816 5.633.515 1.007 1.408 6.336 1.408 6.336 4.202-4.006 11.504-4.94 12.673-11.969-2.038-.897-1.45.8-2.112-2.112h-2.816v-3.52c-1.906.014-1.134.934-2.112-1.408 1.7-1.647.963-1.727.704-4.929-1.668-1.181-1.963-2.225-2.817-4.224-1.067.377-1.192.475-2.816.704v-1.408c.398-.843.427-3.41 0-4.929h4.224c.628 1.89.725 1.823 2.113 2.817-.422 1.214-.627 2.219-.704 4.224 3.264.314 5.053.29 7.744.704-.292-2.093-1.484-2.92-.704-3.52.606-.457 2.214-.942 2.817-1.408-.605-1.326-.334-.52 0-2.113 1.235.444.683.136 1.408.704h.704c-.202 1.73-.464.34 0 2.113h.704v-.704c.566-.72.25-.193.704-1.409-.507-.63-.275-2.073-1.408-3.52-1.354 1.2-3.299 2.777-4.929 3.52-1.512-1.999-9.673-3.406-12.673-3.52-.951-4.582-2.724-5.528-4.928-9.153 1.07-.718 1.384-1.054 2.112-2.112-2.673-3.044 2.056-3.829 0-8.449h-1.408c-.536-.975-.437-2.844-.704-3.52 1.737-.912.48.302 1.408-1.408h-4.224C35.146-.113 26.142 4.292 22.387 5.272v.704h1.408c1.338-.841 3.55-1.314 7.04-1.408v.704h.705c-.083 2.31-.167 5.058.704 6.337 3.22-2.43 7.343-.589 8.449 2.816-2.466 1.111-4.601 3.477-7.041 4.928.444 1.235.136.684.704 1.408.867 2.65 2.114 2.768 2.816 5.633-2.282 1.44-2.838 2.103-7.04 2.112-1.144-1.052-1.425-1.092-3.52-1.408-.482 1.21-5.961 6.77-6.337 7.04-.923.654-.884-.245-2.113.705-.561.69-1.018 1.931-1.408 2.816 4.937 1.697-.217 5.401 6.337 6.337zm-2.816-38.02v1.408h.704c-.444-1.235-.136-.684-.704-1.408zm-3.52 2.112c-.734 1.981-1.772.963 0 2.113zm11.264 3.52c.282 2.085 1.018 4.245 2.113 5.633.755.53.665.423 2.112.704v-.704c-.766-1.146-1.122-4.125-1.408-5.632h-2.817zm-11.265 3.52v1.409h.704v-1.408h-.704zm7.745 2.817c-5.57-.983-2.732-2.26-8.449 0v.704h.704c1.093 1.053 1.294.547 2.112 2.112h-.704c-.95 1.144-.45.79-2.112 1.409-.79-1.473-1.01-1.29-1.408-3.52H12.53c-.262 1.46-.17 1.354-.704 2.111-.756.53-.666.424-2.112.705v-1.409c1.737-.911.48.302 1.408-1.408H9.714c-.308.807-.813 3.309-1.408 1.408-1.354-.388-.604-1.155-1.409 0-4.75 5.247-3.211 17.853-1.408 25.347h.704v-4.929c1.462-.262 1.355-.17 2.113-.704-2.013-1.784-1.048-3.141-.704-6.336 6.4-1.298 14.959-7.343 17.601-11.97.427-.91 1.443-2.853 2.112-4.928-1.755-.481-1.307-1.66-2.112-.704-.53.755-.423.666-.704 2.112zm15.49 7.04c.398.503 1.015.03.704 1.409h-.704c-.72.566-.193.25-1.409.704V25.69c1.235-.444.684-.136 1.409-.704zm-16.194 8.45h1.408v.704h-.704v.704c-.566-.72-.25-.193-.704-1.408zm-2.112 2.112h1.408c-.61.839-.58.792-1.408 1.408v.704h-.704V36.25h.704v-.704zm5.632 1.408h1.408v1.408c-1.922-.518-1.284.508-1.408-1.408zM15.346 51.036c-.521.614-.886.795-1.408 1.408 2.023 2.106-.15 2.773.704 4.929 1.154 1.766 2.277 2.534 4.224 3.52v-3.52h-.704c-.06.068-.924 2.032-1.408 1.408v-.704l-1.408-.704.704-2.112h2.112c.719 1.07 1.055 1.384 2.113 2.112.444-1.235.135-.684.704-1.408v-1.408l-5.633-3.52z"/></g></g></svg>