<?xml version="1.0" encoding="UTF-8" standalone="no"?>
<svg
   viewBox="0 0 504 504"
   fill="none"
   version="1.1"
   id="svg247"
   xmlns="http://www.w3.org/2000/svg"
   xmlns:svg="http://www.w3.org/2000/svg">
  <defs
     id="defs251" />
  <path
     d="M 302.40193,54.215 V 0 h -100.5 v 54.215 z m 31.074,212.89 v 54.215 h 29.09 l 37.688,-24.461 v -191.07 c 0,-9.918 -3.304,-18.512 -7.933,-24.461 -4.629,-5.9492 -11.902,-9.918 -19.172,-9.918 h -241.9804 c -7.2734,0 -13.883,3.9688 -18.512,9.918 -5.2891,5.9492 -7.9336,14.547 -7.9336,24.461 v 191.07 l 37.688,24.461 h 29.09 v -54.215 h 13.223 v 54.215 h 135.54 v -54.215 h 13.223 z m 0,70.742 v 67.438 h 21.156 v 17.191 h -21.156 v 45.621 h -13.223 v -45.621 h -21.816 v -17.191 h 21.816 v -67.438 h -135.54 v 67.438 h 21.156 v 17.191 h -21.156 v 45.621 h -13.223 v -45.621 h -21.8158 v -17.191 h 21.8158 v -67.438 h -32.3978 l -1.3242,-0.66 -44.297,-27.77 c -9.918,0 -18.512,5.289 -25.125,13.883 -7.27339,8.594 -11.238,21.156 -11.238,34.379 v 146.12 h 390.75 v -146.12 c 0,-13.223 -4.629,-25.785 -11.238,-34.379 -6.613,-8.594 -15.867,-13.883 -25.785,-13.883 l -44.297,27.77 -1.324,0.66 z"
     id="path245"
     style="display:inline" />
</svg>
