<svg viewBox="0 0 391 504" fill="none" xmlns="http://www.w3.org/2000/svg">
<path d="M245.294 54.215V0H144.794V54.215H245.294ZM276.368 267.105V321.32H305.458L343.146 296.859V105.789C343.146 95.871 339.842 87.277 335.213 81.328C330.584 75.3788 323.311 71.41 316.041 71.41H74.0606C66.7872 71.41 60.1776 75.3788 55.5486 81.328C50.2595 87.2772 47.615 95.875 47.615 105.789V296.859L85.303 321.32H114.393V267.105H127.616V321.32H263.156V267.105H276.379H276.368ZM276.368 337.847V405.285H297.524V422.476H276.368V468.097H263.145V422.476H241.329V405.285H263.145V337.847H127.605V405.285H148.761V422.476H127.605V468.097H114.382V422.476H92.5662V405.285H114.382V337.847H81.9842L80.66 337.187L36.363 309.417C26.445 309.417 17.851 314.706 11.238 323.3C3.96461 331.894 0 344.456 0 357.679V503.799H390.75V357.679C390.75 344.456 386.121 331.894 379.512 323.3C372.899 314.706 363.645 309.417 353.727 309.417L309.43 337.187L308.106 337.847H276.368H276.368Z" />
</svg>
