
<?xml version="1.0" encoding="UTF-8"?>
<svg version="1.1" viewBox="0 0 700 700" xmlns="http://www.w3.org/2000/svg" xmlns:xlink="http://www.w3.org/1999/xlink">
 <defs>
  <symbol id="i" overflow="visible">
   <path d="m2.2188-0.125c-0.11719 0.054688-0.23438 0.09375-0.35938 0.125s-0.25781 0.046875-0.39062 0.046875c-0.39844 0-0.71484-0.10938-0.95312-0.32812-0.23047-0.22656-0.34375-0.53516-0.34375-0.92188 0-0.38281 0.11328-0.6875 0.34375-0.90625 0.23828-0.22656 0.55469-0.34375 0.95312-0.34375 0.13281 0 0.26562 0.015625 0.39062 0.046875 0.125 0.023438 0.24219 0.0625 0.35938 0.125v0.5c-0.11719-0.070312-0.23047-0.125-0.34375-0.15625-0.11719-0.039062-0.23047-0.0625-0.34375-0.0625-0.23047 0-0.40625 0.074219-0.53125 0.21875-0.125 0.13672-0.1875 0.32812-0.1875 0.57812s0.0625 0.44922 0.1875 0.59375c0.125 0.13672 0.30078 0.20312 0.53125 0.20312 0.11328 0 0.22656-0.015625 0.34375-0.046875 0.11328-0.039063 0.22656-0.097656 0.34375-0.17188z"/>
  </symbol>
  <symbol id="d" overflow="visible">
   <path d="m1.625-1.3125c-0.054688-0.03125-0.10547-0.050781-0.15625-0.0625-0.054688-0.007812-0.10156-0.015625-0.14062-0.015625-0.15625 0-0.27734 0.054687-0.35938 0.15625-0.074219 0.09375-0.10938 0.23047-0.10938 0.40625v0.82812h-0.57812v-1.8125h0.57812v0.29688c0.070313-0.11328 0.15625-0.19531 0.25-0.25 0.10156-0.0625 0.21875-0.09375 0.34375-0.09375 0.019531 0 0.039063 0.007813 0.0625 0.015625h0.10938z"/>
  </symbol>
  <symbol id="b" overflow="visible">
   <path d="m2.0938-0.90625v0.15625h-1.3594c0.007813 0.13672 0.054687 0.24219 0.14062 0.3125 0.082031 0.0625 0.20312 0.09375 0.35938 0.09375 0.125 0 0.25-0.015625 0.375-0.046875 0.125-0.039063 0.25391-0.097656 0.39062-0.17188v0.45312c-0.13672 0.054688-0.27344 0.089844-0.40625 0.10938-0.13672 0.03125-0.27734 0.046875-0.42188 0.046875-0.32422 0-0.57812-0.082031-0.76562-0.25-0.17969-0.16406-0.26562-0.39844-0.26562-0.70312 0-0.28906 0.085937-0.51953 0.26562-0.6875 0.17578-0.17578 0.42188-0.26562 0.73438-0.26562 0.28906 0 0.51953 0.089844 0.6875 0.26562 0.17578 0.16797 0.26562 0.39844 0.26562 0.6875zm-0.60938-0.20312c0-0.10156-0.03125-0.1875-0.09375-0.25-0.0625-0.070313-0.14844-0.10938-0.25-0.10938-0.11719 0-0.21094 0.03125-0.28125 0.09375-0.0625 0.0625-0.10547 0.15234-0.125 0.26562z"/>
  </symbol>
  <symbol id="g" overflow="visible">
   <path d="m1.0938-0.8125c-0.125 0-0.21875 0.023438-0.28125 0.0625-0.0625 0.042969-0.09375 0.10156-0.09375 0.17188 0 0.074219 0.023438 0.13281 0.078125 0.17188 0.050781 0.042969 0.11719 0.0625 0.20312 0.0625 0.11328 0 0.20703-0.035156 0.28125-0.10938 0.070312-0.082031 0.10938-0.17969 0.10938-0.29688v-0.0625zm0.875-0.21875v1.0312h-0.57812v-0.26562c-0.074219 0.10547-0.16406 0.18359-0.26562 0.23438-0.09375 0.050781-0.21094 0.078125-0.34375 0.078125-0.1875 0-0.34375-0.050781-0.46875-0.15625-0.11719-0.11328-0.17188-0.25781-0.17188-0.4375 0-0.20703 0.070313-0.35938 0.21875-0.45312 0.14453-0.10156 0.375-0.15625 0.6875-0.15625h0.34375v-0.046875c0-0.09375-0.039063-0.16016-0.10938-0.20312-0.074219-0.039062-0.1875-0.0625-0.34375-0.0625-0.11719 0-0.23047 0.015625-0.34375 0.046875-0.10547 0.023437-0.20312 0.054687-0.29688 0.09375v-0.4375c0.125-0.03125 0.25-0.050781 0.375-0.0625 0.125-0.019531 0.25-0.03125 0.375-0.03125 0.33203 0 0.56641 0.070313 0.70312 0.20312 0.14453 0.125 0.21875 0.33594 0.21875 0.625z"/>
  </symbol>
  <symbol id="c" overflow="visible">
   <path d="m0.90625-2.3281v0.51562h0.59375v0.42188h-0.59375v0.76562c0 0.085938 0.015625 0.14062 0.046875 0.17188 0.039063 0.023437 0.10938 0.03125 0.20312 0.03125h0.29688v0.42188h-0.5c-0.21875 0-0.38281-0.046875-0.48438-0.14062-0.09375-0.09375-0.14062-0.25391-0.14062-0.48438v-0.76562h-0.28125v-0.42188h0.28125v-0.51562z"/>
  </symbol>
  <symbol id="l" overflow="visible">
   <path d="m1.5156-1.5469v-0.96875h0.57812v2.5156h-0.57812v-0.26562c-0.085937 0.10547-0.17188 0.18359-0.26562 0.23438s-0.21094 0.078125-0.34375 0.078125c-0.21875 0-0.40234-0.085938-0.54688-0.26562-0.13672-0.17578-0.20312-0.40625-0.20312-0.6875s0.066406-0.50781 0.20312-0.6875c0.14453-0.17578 0.32812-0.26562 0.54688-0.26562 0.125 0 0.23438 0.027344 0.32812 0.078125 0.10156 0.054688 0.19531 0.13281 0.28125 0.23438zm-0.39062 1.1719c0.125 0 0.21875-0.039062 0.28125-0.125 0.070312-0.09375 0.10938-0.22656 0.10938-0.40625 0-0.16406-0.039063-0.29688-0.10938-0.39062-0.0625-0.09375-0.15625-0.14062-0.28125-0.14062s-0.21875 0.046875-0.28125 0.14062-0.09375 0.22656-0.09375 0.39062c0 0.17969 0.03125 0.3125 0.09375 0.40625 0.0625 0.085938 0.15625 0.125 0.28125 0.125z"/>
  </symbol>
  <symbol id="k" overflow="visible">
   <path d="m1.25-0.375c0.11328 0 0.20312-0.039062 0.26562-0.125 0.070313-0.09375 0.10938-0.22656 0.10938-0.40625 0-0.16406-0.039062-0.29688-0.10938-0.39062-0.0625-0.09375-0.15234-0.14062-0.26562-0.14062-0.125 0-0.22656 0.046875-0.29688 0.14062-0.0625 0.09375-0.09375 0.22656-0.09375 0.39062 0 0.17969 0.03125 0.3125 0.09375 0.40625 0.070313 0.085938 0.17188 0.125 0.29688 0.125zm-0.39062-1.1719c0.082031-0.10156 0.17188-0.17969 0.26562-0.23438 0.09375-0.050781 0.20312-0.078125 0.32812-0.078125 0.22656 0 0.41016 0.089844 0.54688 0.26562 0.14453 0.17969 0.21875 0.40625 0.21875 0.6875s-0.074219 0.51172-0.21875 0.6875c-0.13672 0.17969-0.32031 0.26562-0.54688 0.26562-0.125 0-0.23438-0.027344-0.32812-0.078125s-0.18359-0.12891-0.26562-0.23438v0.26562h-0.57812v-2.5156h0.57812z"/>
  </symbol>
  <symbol id="j" overflow="visible">
   <path d="m0.046875-1.8125h0.57812l0.48438 1.2344 0.40625-1.2344h0.57812l-0.75 1.9844c-0.085938 0.19531-0.17969 0.33594-0.28125 0.42188-0.09375 0.082031-0.22656 0.125-0.39062 0.125h-0.34375v-0.39062h0.1875c0.09375 0 0.16016-0.015625 0.20312-0.046875 0.050781-0.03125 0.085938-0.085938 0.10938-0.15625l0.015625-0.0625z"/>
  </symbol>
  <symbol id="f" overflow="visible">
   <path d="m2.0938-1.1094v1.1094h-0.57812v-0.84375c0-0.15625-0.007813-0.25781-0.015625-0.3125 0-0.0625-0.011719-0.10938-0.03125-0.14062-0.023438-0.039063-0.054688-0.070313-0.09375-0.09375-0.042969-0.019531-0.085938-0.03125-0.125-0.03125-0.125 0-0.22656 0.046875-0.29688 0.14062-0.0625 0.09375-0.09375 0.22656-0.09375 0.39062v0.89062h-0.57812v-2.5156h0.57812v0.96875c0.082031-0.10156 0.17188-0.17969 0.26562-0.23438 0.10156-0.050781 0.21094-0.078125 0.32812-0.078125 0.21875 0 0.37891 0.070313 0.48438 0.20312 0.10156 0.125 0.15625 0.30859 0.15625 0.54688z"/>
  </symbol>
  <symbol id="a" overflow="visible">
   <path d="m1.1406-1.4375c-0.125 0-0.22656 0.046875-0.29688 0.14062-0.0625 0.085937-0.09375 0.21484-0.09375 0.39062 0 0.17969 0.03125 0.3125 0.09375 0.40625 0.070312 0.09375 0.17188 0.14062 0.29688 0.14062s0.21875-0.046875 0.28125-0.14062c0.070313-0.09375 0.10938-0.22656 0.10938-0.40625 0-0.17578-0.039062-0.30469-0.10938-0.39062-0.0625-0.09375-0.15625-0.14062-0.28125-0.14062zm0-0.42188c0.3125 0 0.55469 0.089844 0.73438 0.26562 0.17578 0.16797 0.26562 0.39844 0.26562 0.6875 0 0.30469-0.089844 0.53906-0.26562 0.70312-0.17969 0.16797-0.42188 0.25-0.73438 0.25s-0.55859-0.082031-0.73438-0.25c-0.17969-0.16406-0.26562-0.39844-0.26562-0.70312 0-0.28906 0.085937-0.51953 0.26562-0.6875 0.17578-0.17578 0.42188-0.26562 0.73438-0.26562z"/>
  </symbol>
  <symbol id="e" overflow="visible">
   <path d="m1.7344-1.75v0.46875c-0.074219-0.050781-0.15234-0.085938-0.23438-0.10938-0.074219-0.03125-0.15234-0.046875-0.23438-0.046875-0.16797 0-0.29688 0.046875-0.39062 0.14062-0.085938 0.09375-0.125 0.22656-0.125 0.39062 0 0.16797 0.039062 0.30469 0.125 0.40625 0.09375 0.09375 0.22266 0.14062 0.39062 0.14062 0.082031 0 0.16406-0.015625 0.25-0.046875 0.082031-0.03125 0.15625-0.070312 0.21875-0.125v0.48438c-0.085937 0.03125-0.17188 0.050781-0.26562 0.0625-0.09375 0.019531-0.1875 0.03125-0.28125 0.03125-0.32422 0-0.57812-0.082031-0.76562-0.25-0.1875-0.16406-0.28125-0.39844-0.28125-0.70312 0-0.30078 0.09375-0.53516 0.28125-0.70312 0.1875-0.16406 0.44141-0.25 0.76562-0.25 0.09375 0 0.1875 0.011719 0.28125 0.03125 0.09375 0.011719 0.17969 0.039063 0.26562 0.078125z"/>
  </symbol>
  <symbol id="t" overflow="visible">
   <path d="m0.28125-2.5156h0.57812v2.5156h-0.57812z"/>
  </symbol>
  <symbol id="s" overflow="visible">
   <path d="m0.28125-1.8125h0.57812v1.8125h-0.57812zm0-0.70312h0.57812v0.46875h-0.57812z"/>
  </symbol>
  <symbol id="h" overflow="visible">
   <path d="m2.0938-1.1094v1.1094h-0.57812v-0.84375c0-0.15625-0.007813-0.25781-0.015625-0.3125 0-0.0625-0.011719-0.10938-0.03125-0.14062-0.023438-0.039063-0.054688-0.070313-0.09375-0.09375-0.042969-0.019531-0.085938-0.03125-0.125-0.03125-0.125 0-0.22656 0.046875-0.29688 0.14062-0.0625 0.09375-0.09375 0.22656-0.09375 0.39062v0.89062h-0.57812v-1.8125h0.57812v0.26562c0.082031-0.10156 0.17188-0.17969 0.26562-0.23438 0.10156-0.050781 0.21094-0.078125 0.32812-0.078125 0.21875 0 0.37891 0.070313 0.48438 0.20312 0.10156 0.125 0.15625 0.30859 0.15625 0.54688z"/>
  </symbol>
  <symbol id="r" overflow="visible">
   <path d="m1.4688-2.5156v0.375h-0.3125c-0.085938 0-0.14062 0.015625-0.17188 0.046875s-0.046875 0.085938-0.046875 0.15625v0.125h0.48438v0.42188h-0.48438v1.3906h-0.59375v-1.3906h-0.28125v-0.42188h0.28125v-0.125c0-0.19531 0.054688-0.34375 0.17188-0.4375 0.11328-0.09375 0.28516-0.14062 0.51562-0.14062z"/>
  </symbol>
  <symbol id="q" overflow="visible">
   <path d="m1.9531-1.5156c0.070313-0.10156 0.16016-0.1875 0.26562-0.25 0.10156-0.0625 0.21094-0.09375 0.32812-0.09375 0.20703 0 0.36328 0.070313 0.46875 0.20312 0.11328 0.125 0.17188 0.30859 0.17188 0.54688v1.1094h-0.57812v-0.9375-0.046875-0.0625c0-0.13281-0.023437-0.22656-0.0625-0.28125-0.03125-0.0625-0.089844-0.09375-0.17188-0.09375-0.11719 0-0.20312 0.046875-0.26562 0.14062-0.054687 0.09375-0.085937 0.22656-0.09375 0.39062v0.89062h-0.57812v-0.9375c0-0.20703-0.015625-0.33594-0.046875-0.39062-0.03125-0.0625-0.09375-0.09375-0.1875-0.09375-0.11719 0-0.20312 0.046875-0.26562 0.14062-0.054688 0.09375-0.078125 0.22656-0.078125 0.39062v0.89062h-0.57812v-1.8125h0.57812v0.26562c0.070313-0.10156 0.14844-0.17969 0.23438-0.23438 0.09375-0.050781 0.19531-0.078125 0.3125-0.078125 0.125 0 0.23438 0.03125 0.32812 0.09375s0.16406 0.14844 0.21875 0.25z"/>
  </symbol>
  <symbol id="p" overflow="visible">
   <path d="m0.29688-2.4219h0.70312l0.875 1.6562v-1.6562h0.59375v2.4219h-0.70312l-0.875-1.6562v1.6562h-0.59375z"/>
  </symbol>
  <symbol id="o" overflow="visible">
   <path d="m0.26562-0.70312v-1.1094h0.57812v0.1875 0.375 0.28125 0.32812c0.007812 0.0625 0.023438 0.10547 0.046875 0.125 0.019531 0.042969 0.046875 0.074219 0.078125 0.09375 0.039062 0.023437 0.085938 0.03125 0.14062 0.03125 0.125 0 0.21875-0.046875 0.28125-0.14062 0.070313-0.09375 0.10938-0.22266 0.10938-0.39062v-0.89062h0.57812v1.8125h-0.57812v-0.26562c-0.085938 0.10547-0.17969 0.18359-0.28125 0.23438-0.09375 0.050781-0.19922 0.078125-0.3125 0.078125-0.21094 0-0.37109-0.0625-0.48438-0.1875-0.10547-0.13281-0.15625-0.32031-0.15625-0.5625z"/>
  </symbol>
  <symbol id="n" overflow="visible">
   <path d="m0.29688-2.4219h1.0469c0.30078 0 0.53516 0.074219 0.70312 0.21875 0.16406 0.13672 0.25 0.32812 0.25 0.57812s-0.085937 0.44531-0.25 0.57812c-0.16797 0.13672-0.40234 0.20312-0.70312 0.20312h-0.42188v0.84375h-0.625zm0.625 0.45312v0.67188h0.34375c0.125 0 0.21875-0.023437 0.28125-0.078125 0.070313-0.0625 0.10938-0.14453 0.10938-0.25 0-0.10156-0.039062-0.1875-0.10938-0.25-0.0625-0.0625-0.15625-0.09375-0.28125-0.09375z"/>
  </symbol>
  <symbol id="m" overflow="visible">
   <path d="m0.28125-1.8125h0.57812v1.7812c0 0.23828-0.058594 0.42188-0.17188 0.54688-0.11719 0.13281-0.28906 0.20312-0.51562 0.20312h-0.28125v-0.39062h0.09375c0.11328 0 0.19141-0.027344 0.23438-0.078125 0.039062-0.042969 0.0625-0.13672 0.0625-0.28125zm0-0.70312h0.57812v0.46875h-0.57812z"/>
  </symbol>
 </defs>
 <g>
  <path d="m399.92 81.984v-54.215h-100.5v54.215zm31.074 212.89v54.215h29.09l37.688-24.461v-191.07c0-9.918-3.3047-18.512-7.9336-24.461-4.6289-5.9492-11.902-9.918-19.172-9.918h-241.98c-7.2734 0-13.883 3.9688-18.512 9.918-5.2891 5.9492-7.9336 14.547-7.9336 24.461v191.07l37.688 24.461h29.09v-54.215h13.223v54.215h135.54v-54.215h13.223zm0 70.742v67.438h21.156v17.191h-21.156v45.621h-13.223v-45.621h-21.816v-17.191h21.816v-67.438h-135.54v67.438h21.156v17.191h-21.156v45.621h-13.223v-45.621h-21.816v-17.191h21.816v-67.438h-32.398l-1.3242-0.66016-44.297-27.77c-9.918 0-18.512 5.2891-25.125 13.883-7.2734 8.5938-11.238 21.156-11.238 34.379v146.12h390.75v-146.12c0-13.223-4.6289-25.785-11.238-34.379-6.6133-8.5938-15.867-13.883-25.785-13.883l-44.297 27.77-1.3242 0.66016h-31.738z"/>
 </g>
</svg>
