<svg viewBox="0 0 28 28" fill="none" xmlns="http://www.w3.org/2000/svg">
<mask id="path-1-inside-1_1050_4332" fill="white">
<path fill-rule="evenodd" clip-rule="evenodd" d="M0.87067 25.6068H26.9993V26.8393H0.87067V25.6068ZM2.53923 23.5033H25.3308V24.7358H2.53923V23.5033ZM4.92376 21.8643L8.19561 21.8641V22.6323L4.92355 22.6325L4.92376 21.8643ZM5.46236 13.7748H7.65727L7.65747 20.9931H5.46235L5.46236 13.7748ZM8.19546 11.93L8.19566 12.9041H4.9236V11.93H8.19546ZM2.23812 9.89285H25.5938C25.6087 9.89285 25.6232 9.89285 25.6374 9.89064V11.0594H2.23183C2.23183 10.6968 2.2337 10.2681 2.23812 9.89285ZM13.9353 2.93627L24.6568 9.02167H3.22758L13.9353 2.93627ZM22.9469 12.9039H19.6748V11.9298H22.9469V12.9039ZM22.4081 20.9929H20.2129V13.7746H22.4081V20.9929ZM15.904 20.9929L15.9038 13.7746H16.0067C16.1226 13.775 16.2337 13.7294 16.3157 13.6476C16.3976 13.5659 16.4438 13.4548 16.4436 13.3389V11.9299H18.8053V13.3389C18.8051 13.4544 18.8509 13.5653 18.9326 13.647C19.0142 13.7288 19.1251 13.7746 19.2406 13.7746H19.3435V20.9929H19.2406C19.1251 20.9929 19.0142 21.0389 18.9326 21.1207C18.8509 21.2022 18.8051 21.3131 18.8053 21.4287V22.6324H16.4436V21.4287C16.4436 21.1882 16.2488 20.9931 16.0083 20.9929H15.904ZM12.2993 21.864H15.571V22.6322L12.2993 22.6324V21.864ZM15.571 12.9043H12.2993V11.9302H15.571V12.9043ZM12.8378 20.9933V13.775H15.0328V20.9933H12.8378ZM8.63166 20.9933H8.52881V13.775H8.63166C8.74718 13.775 8.85786 13.7292 8.93963 13.6474C9.02118 13.5657 9.06699 13.4548 9.06699 13.3393V11.9303H11.4286V13.3393C11.4284 13.4548 11.4742 13.5657 11.556 13.6474C11.6376 13.7292 11.7485 13.775 11.864 13.775H11.9668V20.9933H11.864C11.6235 20.9935 11.4286 21.1886 11.4286 21.4291V22.6328H9.067V21.4291C9.067 21.3136 9.02119 21.2027 8.93963 21.1211C8.85787 21.0393 8.74718 20.9933 8.63166 20.9933ZM19.6746 22.6328L19.6744 21.8644H22.9465V22.6326L19.6746 22.6328ZM0.435184 27.7104H27.4345C27.55 27.7104 27.6609 27.6646 27.7425 27.583C27.8242 27.5013 27.87 27.3906 27.87 27.2751V25.1714C27.87 24.9309 27.675 24.7361 27.4345 24.7361H26.2013V23.0681C26.2013 22.9524 26.1551 22.8415 26.0731 22.7597C25.9911 22.678 25.8801 22.6324 25.7643 22.6328H23.8167V21.429C23.8167 21.1886 23.6219 20.9935 23.3814 20.9933H23.2786V13.775H23.3814C23.4969 13.775 23.6076 13.7292 23.6894 13.6474C23.7709 13.5657 23.8168 13.4548 23.8168 13.3393V11.9302H26.0739C26.3144 11.9302 26.5093 11.7356 26.5097 11.4953V11.4799C26.5097 10.924 26.5097 9.88942 26.5067 9.32109C26.5059 9.16521 26.4213 9.02177 26.2857 8.94483L14.1499 2.05665C14.0165 1.98112 13.8532 1.98112 13.7198 2.05665L1.59785 8.94637C1.46566 9.0213 1.38229 9.15991 1.37768 9.31199C1.3606 9.88211 1.3606 10.9309 1.3606 11.4952C1.3606 11.7355 1.55587 11.9302 1.79612 11.9302H4.05291V13.3392C4.05291 13.4551 4.09891 13.5662 4.18107 13.6479C4.26324 13.7297 4.37433 13.7755 4.49024 13.7749H4.5933V20.9932H4.49024C4.24978 20.9934 4.05492 21.1885 4.05492 21.429V22.6327H2.10572C1.99021 22.6325 1.87952 22.6785 1.79776 22.76C1.716 22.8418 1.67019 22.9525 1.67019 23.068V24.736H0.435528C0.195064 24.7362 0.000205709 24.9311 0 25.1713V27.275C0 27.5155 0.194721 27.7104 0.435184 27.7104Z"/>
</mask>
<path fill-rule="evenodd" clip-rule="evenodd" d="M0.87067 25.6068H26.9993V26.8393H0.87067V25.6068ZM2.53923 23.5033H25.3308V24.7358H2.53923V23.5033ZM4.92376 21.8643L8.19561 21.8641V22.6323L4.92355 22.6325L4.92376 21.8643ZM5.46236 13.7748H7.65727L7.65747 20.9931H5.46235L5.46236 13.7748ZM8.19546 11.93L8.19566 12.9041H4.9236V11.93H8.19546ZM2.23812 9.89285H25.5938C25.6087 9.89285 25.6232 9.89285 25.6374 9.89064V11.0594H2.23183C2.23183 10.6968 2.2337 10.2681 2.23812 9.89285ZM13.9353 2.93627L24.6568 9.02167H3.22758L13.9353 2.93627ZM22.9469 12.9039H19.6748V11.9298H22.9469V12.9039ZM22.4081 20.9929H20.2129V13.7746H22.4081V20.9929ZM15.904 20.9929L15.9038 13.7746H16.0067C16.1226 13.775 16.2337 13.7294 16.3157 13.6476C16.3976 13.5659 16.4438 13.4548 16.4436 13.3389V11.9299H18.8053V13.3389C18.8051 13.4544 18.8509 13.5653 18.9326 13.647C19.0142 13.7288 19.1251 13.7746 19.2406 13.7746H19.3435V20.9929H19.2406C19.1251 20.9929 19.0142 21.0389 18.9326 21.1207C18.8509 21.2022 18.8051 21.3131 18.8053 21.4287V22.6324H16.4436V21.4287C16.4436 21.1882 16.2488 20.9931 16.0083 20.9929H15.904ZM12.2993 21.864H15.571V22.6322L12.2993 22.6324V21.864ZM15.571 12.9043H12.2993V11.9302H15.571V12.9043ZM12.8378 20.9933V13.775H15.0328V20.9933H12.8378ZM8.63166 20.9933H8.52881V13.775H8.63166C8.74718 13.775 8.85786 13.7292 8.93963 13.6474C9.02118 13.5657 9.06699 13.4548 9.06699 13.3393V11.9303H11.4286V13.3393C11.4284 13.4548 11.4742 13.5657 11.556 13.6474C11.6376 13.7292 11.7485 13.775 11.864 13.775H11.9668V20.9933H11.864C11.6235 20.9935 11.4286 21.1886 11.4286 21.4291V22.6328H9.067V21.4291C9.067 21.3136 9.02119 21.2027 8.93963 21.1211C8.85787 21.0393 8.74718 20.9933 8.63166 20.9933ZM19.6746 22.6328L19.6744 21.8644H22.9465V22.6326L19.6746 22.6328ZM0.435184 27.7104H27.4345C27.55 27.7104 27.6609 27.6646 27.7425 27.583C27.8242 27.5013 27.87 27.3906 27.87 27.2751V25.1714C27.87 24.9309 27.675 24.7361 27.4345 24.7361H26.2013V23.0681C26.2013 22.9524 26.1551 22.8415 26.0731 22.7597C25.9911 22.678 25.8801 22.6324 25.7643 22.6328H23.8167V21.429C23.8167 21.1886 23.6219 20.9935 23.3814 20.9933H23.2786V13.775H23.3814C23.4969 13.775 23.6076 13.7292 23.6894 13.6474C23.7709 13.5657 23.8168 13.4548 23.8168 13.3393V11.9302H26.0739C26.3144 11.9302 26.5093 11.7356 26.5097 11.4953V11.4799C26.5097 10.924 26.5097 9.88942 26.5067 9.32109C26.5059 9.16521 26.4213 9.02177 26.2857 8.94483L14.1499 2.05665C14.0165 1.98112 13.8532 1.98112 13.7198 2.05665L1.59785 8.94637C1.46566 9.0213 1.38229 9.15991 1.37768 9.31199C1.3606 9.88211 1.3606 10.9309 1.3606 11.4952C1.3606 11.7355 1.55587 11.9302 1.79612 11.9302H4.05291V13.3392C4.05291 13.4551 4.09891 13.5662 4.18107 13.6479C4.26324 13.7297 4.37433 13.7755 4.49024 13.7749H4.5933V20.9932H4.49024C4.24978 20.9934 4.05492 21.1885 4.05492 21.429V22.6327H2.10572C1.99021 22.6325 1.87952 22.6785 1.79776 22.76C1.716 22.8418 1.67019 22.9525 1.67019 23.068V24.736H0.435528C0.195064 24.7362 0.000205709 24.9311 0 25.1713V27.275C0 27.5155 0.194721 27.7104 0.435184 27.7104Z"  stroke-width="12" mask="url(#path-1-inside-1_1050_4332)"/>
</svg>
