<svg viewBox="0 0 2004 234" xmlns="http://www.w3.org/2000/svg">

<path d="M1746.32 25.3312H1769.35C1769.95 25.3312 1771.39 26.0937 1771.64 26.602L1830.3 165.373C1830.3 165.373 1837.79 173.379 1847.11 171.812V176.175H1796.71V174.015C1796.71 174.015 1803.83 172.32 1808.36 170.245C1816.41 166.475 1806.84 148.302 1805.18 143.77C1797.05 121.404 1795.65 117.422 1775.11 106.916C1754.57 96.4112 1730.69 101.071 1724.38 102.638C1718.02 104.205 1707.06 107.255 1702.91 113.863C1702.91 113.863 1703.16 98.9528 1720.99 90.3537C1738.82 81.7547 1766.69 95.6064 1768.85 96.3688C1771.05 97.1737 1784.18 105.18 1791.17 112.762L1764.44 48.968L1748.22 86.3719L1718.41 155.715C1717.56 157.664 1717.35 159.824 1717.86 161.9C1718.41 164.06 1718.36 165.246 1720.74 167.449C1722.51 169.059 1725.73 171.304 1733.61 171.812L1733.82 174.481L1685.96 174.015V170.753C1685.96 170.753 1695.54 170.499 1700.7 166.517C1705.87 162.535 1716.33 141.313 1717.39 137.331C1718.45 133.349 1733.14 101.41 1733.14 101.41L1760.67 42.6988C1760.67 42.6988 1757.92 37.9121 1755.42 34.1421C1752.46 29.6519 1749.32 29.1859 1745.17 27.2374L1745.26 25.2465H1746.36L1746.32 25.3312Z" />
<path d="M1598.89 27.2798C1643.99 27.2798 1674.7 56.8471 1674.7 101.24C1674.7 145.634 1643.95 175.074 1598.89 175.074H1527.4V172.956H1530.11C1537.48 172.956 1543.49 167.068 1543.62 159.697V41.4281C1543.62 34.6505 1537.14 29.3555 1530.15 29.3555H1527.49V27.2798H1598.85H1598.89ZM1557.39 168.677H1598.89C1635.06 168.677 1658.86 141.694 1658.86 101.24C1658.86 60.7866 1634.85 33.6338 1598.89 33.6338H1557.39V168.677Z" />
<path d="M1975.44 44.4781C1962.43 32.9561 1945.75 27.2375 1926.18 27.2375C1910.26 27.2375 1894.55 30.9652 1882.47 39.6914C1863.63 53.2889 1852.32 77.0529 1852.32 102.299C1852.32 136.78 1873.24 165.246 1904.41 174.057C1910.72 175.836 1921.18 176.429 1928.05 176.429C1934.31 176.429 1940.62 175.031 1946.43 173.549C1978.49 165.331 2000 137.416 2000 102.342C2000 79.7639 1990.89 58.2874 1975.39 44.5204L1975.44 44.4781ZM1970.44 146.989C1959.85 161.434 1943 169.779 1925.59 169.779C1909.37 169.779 1893.53 162.027 1883.03 149.234C1872.86 136.823 1867.78 119.667 1867.78 100.986C1867.78 62.9894 1891.54 32.1937 1925.63 32.1937C1959.72 32.1937 1983.48 62.9894 1983.48 100.986C1983.48 118.311 1979.37 134.874 1970.48 146.989H1970.44Z" />
<path d="M1921.18 19.9093V203.074C1921.18 203.074 1926.18 190.366 1930.71 185.494V0.0848389C1930.71 0.0848389 1927.49 8.64155 1921.18 19.9093Z" />
<path d="M146.197 141.482C144.672 135.171 137.346 119.413 127.478 111.576C117.61 103.74 101.771 100.435 101.771 100.435C101.771 100.435 110.961 98.2328 116.932 92.7683C122.904 87.3039 127.647 76.4174 128.494 65.3615C129.341 54.3055 124.386 44.0544 118.796 36.9379C113.163 29.7791 100.839 24.6112 91.9027 23.1286C80.8066 21.2647 27.0204 22.4508 27.0204 22.4508V24.9924C27.0204 24.9924 31.552 24.9077 33.966 25.5854C36.3801 26.3056 41.674 29.9485 42.9022 33.295C42.9022 33.295 44.8927 35.1588 45.8244 43.1225V192.272C45.8244 193.373 45.7397 194.475 45.6127 195.576C45.1468 199.431 43.961 208.792 42.9445 210.826L64.8402 180.03C64.8402 180.03 63.2308 178.674 62.5955 175.37C61.9603 172.066 62.0873 156.901 62.0873 156.901L61.7062 106.493L61.5368 105.985L82.416 105.73C85.9735 105.73 93.1309 106.747 96.5613 107.764C101.982 109.373 107.192 111.746 110.876 114.414C116.763 118.693 124.894 131.528 126.461 146.608C127.52 156.732 125.741 173.634 123.581 181.174C119.431 195.576 112.189 204.599 104.862 210.233C96.8154 216.417 84.7029 223.195 74.5386 224.381C64.4166 225.567 56.3275 225.313 49.3396 223.703C42.3516 222.093 33.5002 218.577 28.3757 214.087C23.2511 209.555 17.1525 202.184 14.1456 193.289C11.181 184.435 11.8586 173.252 15.162 162.45C16.4749 158.172 25.0299 140.381 35.5754 137.331C35.5754 137.331 32.1026 135.891 25.3687 138.432C18.6348 140.974 12.4092 143.643 5.37888 156.224C-1.6938 168.847 -0.423257 183.885 1.65196 191.552C3.68482 199.219 9.06344 208.284 18.3384 215.993C28.5451 224.508 37.6506 227.049 53.3206 229.972C70.5152 233.149 87.5828 229.083 93.1309 227.304C98.6789 225.524 117.906 216.925 124.81 209.936C131.459 203.243 138.743 197.27 144.842 179.988C150.856 163.044 147.722 147.794 146.197 141.482ZM95.9684 94.9287C90.5051 98.4022 83.6865 100.266 77.2067 100.266H61.7485L63.1038 27.8729C63.1038 27.8729 77.1221 27.4069 82.6701 28.7201C93.6814 31.3464 98.086 37.1497 100.542 39.6066C103.888 42.9954 109.351 52.5687 109.267 66.7593C109.224 80.6534 105.032 84.9741 103.253 87.9393C101.728 90.4809 98.5095 93.2343 95.926 94.8863L95.9684 94.9287Z" />
<path d="M174.107 29.4825H178.85C181.264 29.6096 181.815 29.9061 183.085 30.7533C185.033 32.0241 187.49 34.3963 187.786 38.0816L188.464 158.003C188.464 158.003 188.083 163.679 184.44 166.517C180.756 169.355 178.384 170.202 173.175 170.456V172.871H216.712V170.626C216.712 170.626 208.369 170.118 205.32 165.543C203.71 163.086 203.287 160.163 203.033 157.41C202.906 156.096 202.27 55.6186 202.186 40.7926C202.186 39.3524 202.44 37.9122 202.948 36.5566C203.498 35.1164 204.388 33.2949 205.701 32.1936C208.115 30.2026 208.792 29.652 215.992 29.5249L215.865 26.6868H174.022L174.149 29.5249L174.107 29.4825Z" />
<path d="M363.586 29.0589C363.586 29.0589 368.669 29.4825 370.998 30.4144C373.243 31.304 374.979 31.7276 377.52 35.8789C378.325 37.1497 378.579 37.9545 378.748 40.1572L379.892 162.154V163.086C379.892 163.086 367.271 166.22 356.641 170.753C346.011 175.243 340.039 179.056 330.764 186.765C330.764 186.765 346.477 175.879 378.113 173.888C378.113 173.888 396.621 173.888 404.625 175.158C414.705 176.81 429.4 180.708 439.861 184.393C447.146 186.977 459.512 191.552 477.046 199.6C493.69 207.267 517.915 217.264 526.004 219.806C534.093 222.347 543.876 225.906 563.697 229.337C586.482 233.276 605.497 229.549 611.977 227.854C618.457 226.16 631.416 218.959 638.743 213.664C641.792 211.461 648.526 206.928 658.394 194.856C658.394 194.856 652.507 202.184 634.127 209.639C615.069 217.391 611.85 217.645 598.128 218.366C583.39 219.17 567.042 217.688 555.015 214.977C542.987 212.266 510.927 201.252 496.739 195.618C482.551 189.984 484.881 190.196 455.828 178.547C441.979 172.998 434.271 169.948 420.464 167.407C403.312 164.272 393.021 163.467 393.021 163.467L393.444 40.1149C393.487 37.7004 394.969 35.8365 395.985 34.5234C397.213 32.9137 398.484 32.2359 399.882 31.4734C402.211 30.2026 406.277 29.3978 408.733 29.3554L408.818 26.8138H363.544V28.9742L363.586 29.0589Z" />
<path d="M448.755 29.1436H452.99C455.15 29.2707 455.616 29.5249 456.759 30.245C458.496 31.3887 460.656 33.4644 460.91 36.7684L461.503 143.304C461.503 143.304 461.164 148.345 457.903 150.844C454.642 153.343 452.524 154.106 447.908 154.36V156.478H486.575V154.487C486.575 154.487 479.163 154.021 476.453 149.954C475.013 147.794 474.632 145.168 474.42 142.711C474.293 141.567 473.742 52.3145 473.658 39.1406C473.658 37.8698 473.869 36.5566 474.335 35.3706C474.843 34.0998 475.606 32.4901 476.792 31.5158C478.909 29.779 479.544 29.2707 485.939 29.1436L485.812 26.6444H448.628L448.755 29.1436Z" />
<path d="M637.896 44.2661C624.937 32.7866 608.293 27.068 588.769 27.068C572.887 27.068 557.217 30.7957 545.147 39.4795C526.385 53.0346 515.077 76.7562 515.077 101.918C515.077 136.314 535.956 164.696 567.042 173.464C573.31 175.243 583.771 175.836 590.632 175.836C596.858 175.836 603.168 174.438 608.97 172.956C640.945 164.78 662.418 136.907 662.418 101.918C662.418 79.4249 653.354 57.9908 637.896 44.2661ZM632.899 146.523C622.311 160.925 605.497 169.27 588.176 169.27C571.997 169.27 556.158 161.561 545.697 148.768C535.575 136.399 530.493 119.286 530.493 100.647C530.493 62.7351 554.168 32.0241 588.176 32.0241C622.184 32.0241 645.858 62.7351 645.858 100.647C645.858 117.93 641.75 134.451 632.899 146.523Z"/>
<path d="M583.771 19.7821V202.438C583.771 202.438 588.769 189.73 593.3 184.901V0C593.3 0 590.081 8.51435 583.771 19.7821Z" />
<path d="M743.055 32.4478L783.034 33.1679C784.813 33.1679 786.592 33.6762 788.116 34.6505C791.293 36.7685 794.046 40.115 794.342 42.6566C794.554 44.5204 794.808 48.5446 794.808 48.5446H795.951V25.0772L675.843 24.5265V48.5446H676.902C676.944 46.4266 677.325 44.0121 677.622 42.826C678.045 41.0045 679.443 37.997 681.518 35.7095C682.492 34.6082 683.678 33.9304 684.652 33.5068C685.584 33.0832 686.558 32.9138 687.617 32.9138C694.605 32.8714 728.994 32.7867 728.994 32.7867L729.333 157.96C729.333 157.96 728.952 163.637 725.309 166.475C721.625 169.313 719.253 170.16 714.044 170.414V172.829H757.581V170.584C757.581 170.584 748.772 170.499 745.342 166.178C743.309 163.637 743.859 160.078 743.605 157.283C743.478 155.969 743.139 55.5763 743.055 40.708V32.4054V32.4478Z" />
<path d="M955.108 169.948V171.812H911.571V169.948C916.78 169.694 919.194 168.296 922.836 165.5C926.478 162.662 926.859 156.986 926.859 156.986L926.436 83.3644L926.182 37.065C925.885 33.3373 923.429 31.0075 921.481 29.7367C920.21 28.8895 918.982 28.0847 916.568 27.9576H912.46L912.375 25.6702H954.218L954.345 28.0847C947.146 28.2541 946.468 29.186 944.054 31.177C942.741 32.2783 941.894 34.0574 941.301 35.54C940.793 36.8956 940.539 38.3358 940.539 39.776C940.624 54.602 941.259 155.08 941.386 156.351C941.64 159.146 942.064 162.069 943.673 164.484C946.722 169.101 955.065 169.991 955.065 169.991L955.108 169.948Z" />
<path d="M842.411 83.3221H926.478V91.3705H842.453C842.665 122.42 842.877 155.588 842.961 156.308C843.215 159.062 843.639 162.027 845.248 164.441C848.298 169.059 856.641 169.948 856.641 169.948V171.812H813.104V169.821C818.313 169.567 820.727 168.296 824.369 165.458C828.054 162.62 828.435 156.944 828.435 156.944L827.757 37.0226C827.461 33.295 825.004 30.9652 823.056 29.6944C821.786 28.8472 820.261 28.0423 817.847 27.9152L814.035 27.7458L813.908 25.6278H855.794L855.921 28.0423C848.721 28.2118 848.043 29.1437 845.629 31.1346C844.317 32.236 843.47 34.0151 842.877 35.4977C842.368 36.8532 842.114 38.2934 842.114 39.7337C842.114 45.537 842.284 64.3872 842.411 85.313V83.3644V83.3221Z" />
<path d="M1023.38 171.812H982.678V170.033C987.295 169.736 991.445 168.296 994.706 165.5C997.967 162.705 998.306 157.071 998.306 157.071L997.713 37.9969C997.459 34.3116 995.257 31.9818 993.563 30.711C992.462 29.8638 991.953 29.6096 989.793 29.4826L982.678 28.9742V27.1104L1022.62 26.6868L1067.59 25.6278L1067.04 49.0105H1065.48C1065.39 47.3161 1065.18 42.4023 1062.47 37.7004C1059.76 32.9984 1055.78 33.3373 1055.78 33.3373L1010.38 33.7186L1010.46 40.708C1010.55 55.4492 1011.1 155.207 1011.22 156.478L1011.05 166.517H1048.49C1049.55 166.517 1054.13 166.263 1055.14 166.051C1058.28 165.416 1063.15 164.314 1067.25 161.434C1072.72 157.664 1074.83 152.199 1075.39 144.32H1076.27V171.854H1023.38V171.812Z" />
<path d="M1076.27 144.278V171.812H982.678V170.033C987.295 169.779 991.488 168.296 994.749 165.5C998.01 162.705 998.306 157.071 998.306 157.071L997.713 37.9969C997.459 34.3116 995.257 31.9818 993.563 30.711C992.462 29.8638 991.953 29.6096 989.793 29.4402L982.678 28.9742V27.068L1022.66 26.6444L1067.64 25.6278L1067.08 48.9681H1065.52C1065.43 47.2738 1065.22 42.36 1062.47 37.658C1059.76 32.9561 1055.78 33.2526 1055.78 33.2526L1010.42 33.6338L1010.5 40.6232C1010.5 46.0453 1010.63 63.074 1010.71 82.4325H1049.21C1050.86 82.4325 1052.43 81.67 1053.45 80.3992C1054.89 78.5354 1056.45 75.5702 1056.37 70.6141H1057.3V103.951H1056.29C1056.29 103.951 1056.45 100.012 1055.18 96.4537C1054.13 93.5308 1052.3 91.7941 1048.15 91.667L1010.84 91.8364C1011.01 122.674 1011.22 155.673 1011.31 156.435L1011.14 166.475H1048.53C1049.59 166.475 1054.17 166.221 1055.18 166.009C1058.32 165.373 1063.19 164.23 1067.3 161.391C1072.76 157.621 1074.88 152.157 1075.43 144.278H1076.32H1076.27Z" />
<path d="M1173.68 30.9228C1134.17 31.2617 1113.63 61.8879 1113.63 100.097C1113.63 138.305 1135.27 170.16 1173.47 170.16C1173.47 170.16 1187.19 169.609 1196.43 165.712C1206.84 161.349 1209.64 159.019 1216.97 152.962C1225.48 145.93 1228.95 139.83 1228.95 139.83V147.159C1227.13 150.251 1219.51 158.13 1206.8 166.348C1198.08 171.982 1185.46 174.269 1179.32 174.904C1177.96 175.031 1171.99 174.904 1170.59 174.904C1126.21 173.972 1097.66 140.254 1097.66 98.7835C1097.66 57.3131 1128.96 23.3827 1172.37 23.3827C1172.37 23.3827 1196.34 22.6626 1224.5 39.3101L1224.93 65.1073L1223.11 64.9802C1223.11 64.9802 1222.56 55.1104 1219.3 50.5778C1216.03 46.0453 1209.43 39.3101 1198.59 35.3706C1190.28 32.3631 1174.57 30.9228 1173.64 30.9228" />
<path d="M1173.68 30.9228C1134.17 31.2617 1113.63 61.8879 1113.63 100.097C1113.63 138.305 1135.27 170.16 1173.47 170.16C1173.47 170.16 1187.19 169.609 1196.43 165.712C1206.84 161.349 1209.64 159.019 1216.97 152.962C1225.48 145.93 1228.95 139.83 1228.95 139.83V147.159C1227.13 150.251 1219.51 158.13 1206.8 166.348C1198.08 171.982 1185.46 174.269 1179.32 174.904C1177.96 175.031 1171.99 174.904 1170.59 174.904C1126.21 173.972 1097.66 140.254 1097.66 98.7835C1097.66 57.3131 1128.96 23.3827 1172.37 23.3827C1172.37 23.3827 1196.34 22.6626 1224.5 39.3101L1224.93 65.1073L1223.11 64.9802C1223.11 64.9802 1222.56 55.1104 1219.3 50.5778C1216.03 46.0453 1209.43 39.3101 1198.59 35.3706C1190.28 32.3631 1174.57 30.9228 1173.64 30.9228H1173.68Z" />
<path d="M1430.08 200.744C1428.38 201.464 1410.77 203.37 1400.77 198.499C1389.34 192.95 1381.59 184.52 1372.57 168.593C1366.93 158.638 1363.67 148.302 1363.67 148.302C1363.67 148.302 1336.02 65.5309 1335 61.6337C1333.98 57.7366 1325.51 32.5748 1324.67 30.5839C1324.2 29.5249 1323.52 28.7624 1322.93 28.0846C1322.59 27.661 1321.45 26.8138 1320.81 26.8138L1290.45 27.0256V29.6943C1302.09 29.9061 1307.01 34.8199 1307.34 36.1754C1307.47 36.6414 1307.34 37.5309 1307.34 37.5309L1288.92 79.5944C1277.49 77.1798 1270.16 76.7562 1257.62 78.1965C1244.24 79.7214 1235.26 87.5157 1230.26 96.6654C1226.11 104.29 1227.43 112.593 1227.43 112.593C1242.38 93.1496 1253.22 91.0739 1261.69 89.2948C1271.73 87.1768 1285.96 88.1934 1285.96 88.1934C1285.96 88.1934 1274.69 113.609 1263.26 143.727C1257.37 159.231 1255 162.916 1251.27 165.712C1245.85 169.821 1237.46 171.473 1237.46 171.473V172.871L1277.78 172.575L1277.66 171.007C1271.9 169.44 1272.23 169.397 1269.44 166.856C1268.42 165.966 1267.91 164.314 1267.66 162.62C1267.19 159.316 1267.75 155.969 1268.97 152.877L1294.43 88.7865C1323.61 96.4113 1334.32 107.976 1334.32 107.976C1334.32 107.976 1341.01 126.148 1343.39 133.985C1345.84 141.991 1353.3 165.712 1365.83 182.995C1374.6 195.068 1388.74 201.761 1397.89 203.709C1407.04 205.658 1414.28 206.039 1420.59 204.556C1430.37 202.226 1430.04 200.617 1430.04 200.617L1430.08 200.744ZM1298.15 82.6866L1313.78 43.3342C1315.26 44.8168 1316.36 48.0785 1316.36 48.0785L1331.23 99.207C1318.06 89.083 1298.15 82.729 1298.15 82.729V82.6866Z" />
<path d="M336.524 114.287C334.195 109.543 329.07 102.808 323.522 99.2918C316.195 94.6322 304.21 92.9378 304.21 92.9378C304.21 92.9378 313.273 89.7608 317.593 86.2873C321.913 82.8138 326.275 78.7472 328.011 72.1814C329.705 65.7004 329.451 59.1769 328.858 55.8728C327.757 49.6459 325.386 46.003 321.828 41.5128C318.99 37.9122 314.798 34.6929 309.885 31.6853C303.49 27.7458 297.518 27.5764 294.766 27.3222C293.241 27.1528 291.25 26.8986 289.768 26.9833C289.683 26.9833 288.582 26.8986 288.498 26.8986H241.445V29.9909C241.445 29.9909 245.469 29.6944 248.221 30.4569C251.398 31.3464 253.515 32.829 254.913 34.947C256.692 37.6581 257.581 40.0726 257.835 43.2072C258.259 48.5869 258.132 142.838 258.132 157.41C258.132 159.274 257.708 161.053 256.903 162.705C256.565 163.425 256.014 164.314 255.421 165.077C253.685 167.237 251.737 168.466 248.814 169.143C243.69 170.372 242.038 170.245 242.038 170.245V172.617L299.128 171.812C302.008 171.558 306.751 170.923 310.647 169.906C310.817 169.864 312.595 169.355 312.765 169.27C314.162 168.805 320.769 166.644 324.581 164.484C328.816 162.069 332.628 158.342 334.745 155.334C338.599 149.743 341.013 142.245 341.098 135.382C341.183 128.52 338.26 117.676 336.609 114.245L336.524 114.287ZM271.515 32.6172C271.515 32.6172 277.147 31.3464 284.601 32.1089C292.013 32.8714 300.949 35.6671 307.047 43.6308C310.817 48.5022 314.332 62.2268 311.748 72.3085C308.445 85.0165 301.33 87.0498 298.704 88.5747C295.782 90.2691 288.752 92.0482 281.891 92.26C275.03 92.4295 271.557 92.3448 271.557 92.3448V32.5749L271.515 32.6172ZM323.649 144.32C319.329 157.664 309.631 161.9 305.438 163.721C303.617 164.526 293.622 167.28 284.813 167.491C276.004 167.703 271.515 167.576 271.515 167.576V97.3856C271.515 97.3856 278.799 96.7926 288.328 97.6821C297.857 98.5717 308.233 98.487 317.254 109.67C321.616 115.092 325.174 125.216 325.047 134.832C325.047 138.094 324.581 141.313 323.649 144.278V144.32Z" />

<defs>

</defs>
</svg>
