<svg xmlns="http://www.w3.org/2000/svg" viewBox="0 0 47 43"><g><g><path d="M47 33h-3c-.372 2.076-.242 1.924-1 3-1.021-.804-.274-.355-2-1 .2-3.316-29.364-2.131-37-2v5c2.049.713 4.674.993 8 1 .594-3.362 15.997-2.18 23-2v1c-5.95-.161-18.029-1.595-22 1 5.765.44 20.336 4.005 27 1 2.802-1.264-.763-2.112 5-3 .075 3.042.755 2.744 0 4-4.372 2.675-31.94 1.137-42 1-.962-1.766-1.257-1.68-2-4-3.006-4.682 5.472-30.689 7-37h4C14.177-.39 32.825-.097 39 0v1h1c.756 11.093 6.098 22.592 7 32zM11 3l-1 2zm11 0v2c-3.823-.018-6.27.433-9 1-.605 6.905-3.574 4.3-5 10 6.175 2.962-.585 4.85 2 9 1.455 2.336 5.539-.434 8 1 2.43 1.416 3.847 7.463 11 3-1.754-.63-.971-.193-2-1 3.62-.71 7.824-2.135 12-3-.753-2.163-1.49-5.55-2-8 2.245-.587 2.655-.748 4-2h-1C38.119 8.906 34.93 4.725 26 5c-.279-2.588.466-1.775-4-2zM9 8v2h1V8H9zm14 0c4.34.44 6.66 1.451 8 5 1.544 2.347.586 4.28 0 7-4.29 1.184-4.582 3.362-8 5-1.585-6.447-5.665-4.06-6-13 1.807-1.08 4.367-2.568 6-4zm-1 3c-.65 1.257-1.09 2.07-2 3 .842 2.389.402 1.645 2 3v1h1c.06-2.903.048-5.469-1-7zm4 0v7h1v-1c.803-1.18.773-1.681 1-4-.872-.74-1.128-1.26-2-2zM7 17v2h1v-2H7zm34 0c.195 2.327.192 2.826 1 4zM6 22v2h1v-2H6zm36 1l1 6c-3.872-.147-9.715-.537-12 1h14v-1c-2.256-2.662-.71-3.364-3-6zM5 27c.828 3.245-.49 1.528 2 3v-1c-.872-.74-1.128-1.26-2-2zm4 1c.095 1.51-1.926 1.46 0 2h2c.167-1.61-1.55-1.209-2-2zm3 1c1.832 1.327 5.17 1.29 7 0zm-7 5h2v1H6v1c-.804-1.021-.355-.274-1-2zm11 0l3 1v1h-6v-1c2.076-.372 1.924-.242 3-1zm4 0c1.116 1.66 1.77 1.069 0 2zm13 0c2.327.195 2.826.193 4 1zm3 3c2.327.195 2.826.193 4 1"/></g></g></svg>