<svg fill="#EB5600" viewBox="0 0 190 94.4" xmlns="http://www.w3.org/2000/svg"><g id="svgGroup" stroke-linecap="round" fill-rule="evenodd" ><path d="M 173.5 28.5 L 173.5 20.4 L 190 20.4 L 190 94.4 L 171 94.4 L 171 65.2 A 15.556 15.556 0 0 1 159.736 73.517 A 25.704 25.704 0 0 1 154.6 74 Q 149.8 74 145.7 71.95 Q 141.6 69.9 138.55 66.2 Q 135.5 62.5 133.85 57.45 Q 132.2 52.4 132.2 46.5 A 33.648 33.648 0 0 1 132.835 39.846 A 28.09 28.09 0 0 1 134 35.7 Q 135.8 30.8 139.1 27.1 Q 142.4 23.4 146.85 21.4 A 23.099 23.099 0 0 1 155.853 19.408 A 26.683 26.683 0 0 1 156.5 19.4 A 24.235 24.235 0 0 1 161.167 19.827 A 17.331 17.331 0 0 1 166.55 21.8 Q 170.7 24.2 173.5 28.5 Z M 16.5 64.8 L 16.5 73 L 0 73 L 0 0 L 19 0 L 19 28.2 Q 21.3 23.9 25.5 21.65 Q 29.7 19.4 35.4 19.4 Q 40.2 19.4 44.3 21.45 Q 48.4 23.5 51.45 27.2 Q 54.5 30.9 56.2 35.95 A 32.806 32.806 0 0 1 57.794 44.003 A 38.869 38.869 0 0 1 57.9 46.9 A 31.951 31.951 0 0 1 57.065 54.31 A 28.079 28.079 0 0 1 56.05 57.65 A 28.245 28.245 0 0 1 52.305 64.621 A 25.95 25.95 0 0 1 50.95 66.3 Q 47.7 70 43.25 72 A 23.01 23.01 0 0 1 35.135 73.951 A 27.089 27.089 0 0 1 33.5 74 A 24.879 24.879 0 0 1 28.482 73.517 A 18.517 18.517 0 0 1 23.3 71.65 Q 19 69.3 16.5 64.8 Z M 100.4 19.5 L 100.4 36.6 A 43.721 43.721 0 0 0 94.838 36.939 A 34.017 34.017 0 0 0 90.4 37.8 Q 86.711 38.784 84.568 40.843 A 9.259 9.259 0 0 0 83.7 41.8 L 83.7 73 L 64.7 73 L 64.7 20.4 L 82.1 20.4 L 82.1 30.4 A 25.545 25.545 0 0 1 85.033 25.97 A 19.643 19.643 0 0 1 89.1 22.25 A 16.557 16.557 0 0 1 94.123 19.907 A 14.919 14.919 0 0 1 98 19.4 L 99.55 19.4 Q 100 19.4 100.4 19.5 Z M 125.3 73 L 106.3 73 L 106.3 20.4 L 125.3 20.4 L 125.3 73 Z M 125.3 16 L 106.3 16 L 106.3 0 L 125.3 0 L 125.3 16 Z M 171 52.6 L 171 43.2 Q 170.3 41.5 169.25 40.05 A 13.207 13.207 0 0 0 167.379 37.958 A 12.056 12.056 0 0 0 166.9 37.55 Q 165.6 36.5 164.15 35.95 Q 162.7 35.4 161.2 35.4 Q 159.1 35.4 157.35 36.3 Q 155.6 37.2 154.3 38.8 A 11.495 11.495 0 0 0 152.46 42.047 A 13.199 13.199 0 0 0 152.3 42.5 A 13.86 13.86 0 0 0 151.617 46.257 A 15.994 15.994 0 0 0 151.6 47 A 14.128 14.128 0 0 0 151.886 49.907 A 10.74 10.74 0 0 0 152.9 52.75 Q 154.2 55.2 156.55 56.6 A 9.932 9.932 0 0 0 160.497 57.912 A 12.593 12.593 0 0 0 162 58 A 9.604 9.604 0 0 0 165.394 57.402 A 8.812 8.812 0 0 0 165.4 57.4 A 9.827 9.827 0 0 0 168.036 55.899 A 11.33 11.33 0 0 0 168.4 55.6 Q 169.8 54.4 171 52.6 Z M 19 43.2 L 19 52.6 A 17.127 17.127 0 0 0 20.754 54.751 A 15.699 15.699 0 0 0 20.95 54.95 A 12.079 12.079 0 0 0 22.147 56.005 A 9.638 9.638 0 0 0 23.1 56.65 Q 24.2 57.3 25.45 57.65 Q 26.7 58 28 58 A 11.477 11.477 0 0 0 30.655 57.703 A 9.801 9.801 0 0 0 32.2 57.2 Q 34.1 56.4 35.5 54.95 A 9.872 9.872 0 0 0 37.596 51.64 A 11.299 11.299 0 0 0 37.65 51.5 A 11.66 11.66 0 0 0 38.295 48.805 A 14.946 14.946 0 0 0 38.4 47 A 14.222 14.222 0 0 0 37.868 43.059 A 12.641 12.641 0 0 0 37.15 41.15 A 11.458 11.458 0 0 0 35.404 38.454 A 9.92 9.92 0 0 0 33.75 36.95 A 8.221 8.221 0 0 0 28.931 35.401 A 10.033 10.033 0 0 0 28.8 35.4 A 8.179 8.179 0 0 0 25.257 36.221 A 9.662 9.662 0 0 0 24.9 36.4 A 11.908 11.908 0 0 0 21.993 38.571 A 13.897 13.897 0 0 0 21.45 39.15 A 13.385 13.385 0 0 0 19.057 43.057 A 15.062 15.062 0 0 0 19 43.2 Z" vector-effect="non-scaling-stroke"/></g></svg>