<svg xmlns="http://www.w3.org/2000/svg"  viewBox="0 0 65 61"><g><g><path d="M12 43l1 5h1v-1h1v-1c-2.84-2.596-1.248-4.952-3-9C7.752 27.186.102 20.602 0 7c1.514-1.411 2.208-2.764 4-4C8.362-.296 34.144.944 43 0c1.765 2.122 4.949 4.16 7 6-1.008 5.663-2.523 9.504-9 10-5.398 2.287-23.114.232-31 3v1h4s24.91-4.59 30-2c4.185 2.13-.143 5.181 5 6 2.132-5.698 8.548-6.648 12-11h1v1c2.315 1.614 2.352 1.46 3 5-2.342 1.367-14.329 9.223-13 10-.625 2.599-.464 1.903 0 5-3.58.416-2.516-.472-4 2 2.72-.007 4.597.039 6 1 9.339 8.857 1.77 20.698-12 20-7.39 2.962-26.41 4.928-35 3-.99-5.544-3.976-6.241-5-12 3.292-3.245 3.031-4.91 10-5zM4 5L3 8h1V7c.565-.713 1.442-.042 1-2H4zm4 0c.207 1.399-.822-.403-1 1-1.923.775 2 1 2 1-.63-1.754-.193-.971-1-2zM6 9c-.797 2.722-.546 2.91 0 6h3v-2c-3.944-1.678-1.596-2.241-3-4zm-3 5c.754 2.962 1.723 3.826 3 6h2v-1c-2.145-1.497-2.972-3.447-5-5zm32 10v2h1v-1h1c-1.021-.804-.274-.355-2-1zm4 0c1.021.804.274.355 2 1zm4 2c-2.047 1.947-4.308 2.602-6 5h1c2.695-2.316 5.37-2.157 5-5zm-13 3v2l3-1v-1h-3zm-6 1c1.72.88 1.278.889 3 0zm9 3c-.123 4.249 1.371-.428 2 4h-1c-.99 1.01.985.988 1 1v-1c.752-1.073.601-.946 1-3l-3-1zm-11 2v2h1v-2h-1zm8 0c-1.712 1.691-8.21 5.92-6 8 1.567 1.243.51.642 2 0l8-3v-1c-3.115.678-4.5 1.507-8 2v-2c2.113-.642 5.912-2.71 4-4zm9 0v2h1c-.63-1.754-.193-.972-1-2zm0 7c-1.021.804-.274.355-2 1v1h4c.86-.649 3.144-1.338 4-2h-6zm-8 1v2l3-1v-1h-3zM8 47c-1.122 2.091-1.435 1.832-2 5 1.105 1.384 1.494 2.873 2 5 1.754.63.971.193 2 1 2.121-.452 3.647-.896 5-2 .751-1.073.601-.946 1-3h-1c-1.051 2.939-2.213 3.868-4 3-2.694-1.865-2.86-2.377-3-7 1.754-.63.971-.193 2-1l-2-1zm3 4v2h1v-2h-1z"/></g></g></svg>