<svg xmlns="http://www.w3.org/2000/svg" viewBox="0 0 62 39">
    <g>
        <g>
            <path
                d="M44 12V9c3.196-.257 3.191-.995 5 0 .752 1.073.601.946 1 3 2.076.372 1.924.242 3 1h-1c-2.448 2.036-1.452-1.224-3 2h5l-1-2h1c1.057-.37 2.175 1.665 4 0 2.477-2.26-.57-2.99 4-4v2c-2.994 3.567-2.317 9.985-7 12-3.49 2.31-9.276.284-14 0-.454-3.485-1.207-3.999-2-7-.804 1.021-.355.274-1 2-.99 1.805 1.415 6.421 1 8-.382 1.452-1.648 2.234-2 5h-1v-1c-3.452 1.204-6.14.522-10 0-.07-4.75-.344-5.9 0-9h-2c.287 2.457.659.482 0 3-5.111-1.827-9.315-.14-18 0-1.252-6.07-3.802-10.593-6-16h1V7c4.077 2.886 5.022 7.663 14 8 6.47-4.997 13.248-6.463 18-15 1.754.63.971.193 2 1 3.6 4.546 5.348 11.574 12 13v-2h-3zM19 7c1.687 2.4.905 4.452-3 5-1.021.804-.274.355-2 1v-2h1c1.21-2.522 2.278-2.256 4-4zm10 6c-.877 2.252-1.779 2.58-1 4v1h1v-1c1.809-2.499 2.16-1.92 0-4zm6 0v4h2v-1c-.682-.771-1.311-2.232-2-3zm-9 5v2h1c-.63-1.754-.193-.972-1-2zm3 1l-1 9c2.09 1.121 1.832 1.434 5 2 2.82-4.911 2.419-6.118 1-12h-2c-1.073.752-.946.601-3 1zm-6 7v3c-2.076.372-1.925.242-3 1h1c3.105 2.583 29.986 3.177 32 0H42c-1.021-.804-.274-.355-2-1 .34-2.422.327-.883 0-4h2c4.13 2.943 7.474 1.724 12 2l-1 11c-16.188.195-29.883 1.13-45-1-.327-5.013-1.632-8.22 1-10 2.448-2.295 7.453-1.369 14-1zm-6 3v2c-2.738-.578-4.632-1.526-7 0h1c1.838 1.238 5.703 1.089 9 1v-1c-1.546-1.133-.843-1.085-3-2z" />
        </g>
    </g>
</svg>