<?xml version="1.0" encoding="iso-8859-1"?>
<!-- Generator: Adobe Illustrator 19.0.0, SVG Export Plug-In . SVG Version: 6.00 Build 0)  -->
<svg version="1.1" id="Layer_1" xmlns="http://www.w3.org/2000/svg" xmlns:xlink="http://www.w3.org/1999/xlink" x="0px" y="0px"
	 viewBox="0 0 329.113 329.113" style="enable-background:new 0 0 329.113 329.113;" xml:space="preserve">
<g>
	<g>
		<polygon style="fill:#D99C16;" points="164.559,144.805 235.337,80.813 306.116,144.803 306.116,220.302 164.554,220.302 
			22.997,220.302 22.997,144.803 93.776,80.813 164.554,144.805 		"/>
	</g>
	<polygon style="fill:#FFB819;" points="235.334,144.805 164.557,80.813 93.777,144.803 23,80.813 23,144.805 22.997,144.805 
		22.997,220.302 306.112,220.302 306.112,144.805 306.113,144.805 306.113,80.813 	"/>
	<rect x="22.997" y="220.302" style="fill:#65513C;" width="283.115" height="27.998"/>
	<ellipse style="fill:#D85C72;" cx="164.555" cy="165.147" rx="23" ry="29.658"/>
	<circle style="fill:#DE6E7F;" cx="174.391" cy="153.391" r="5.833"/>
	<path style="fill:#D85C72;" d="M40.012,165.147c0-16.38-4.31-29.658-17.012-29.658c-12.702,0-23,13.278-23,29.658
		c0,16.379,10.298,29.657,23,29.657C35.702,194.805,40.012,181.526,40.012,165.147z"/>
	<circle style="fill:#DE6E7F;" cx="27.83" cy="153.391" r="5.833"/>
	<path style="fill:#D85C72;" d="M289.1,165.147c0-16.38,4.311-29.658,17.013-29.658c12.702,0,23,13.278,23,29.658
		c0,16.379-10.298,29.657-23,29.657C293.411,194.805,289.1,181.526,289.1,165.147z"/>
	<circle style="fill:#DE6E7F;" cx="315.724" cy="153.391" r="5.833"/>
</g>
<g>
</g>
<g>
</g>
<g>
</g>
<g>
</g>
<g>
</g>
<g>
</g>
<g>
</g>
<g>
</g>
<g>
</g>
<g>
</g>
<g>
</g>
<g>
</g>
<g>
</g>
<g>
</g>
<g>
</g>
</svg>
