<svg viewBox="0 0 522 338" fill="none" xmlns="http://www.w3.org/2000/svg">
<path fill-rule="evenodd" clip-rule="evenodd" d="M46.1821 151.046C100.498 200.624 100.682 193.433 116.491 111.062C109.284 111.316 102.026 108.676 96.4991 102.73C80.4051 85.3753 91.4405 56.5823 116.19 56.5823C138.651 56.5823 151.62 82.7233 137.628 100.23C135.831 102.48 133.765 104.398 131.511 105.976C191.62 189.589 201.652 171.378 247.531 68.6954C243.078 66.8985 238.914 64.0938 235.301 60.211C214.117 37.379 229.488 0 260.567 0C291.649 0 307.02 37.398 285.833 60.211C282.22 64.0899 278.056 66.8985 273.603 68.6954C319.486 171.375 329.513 189.585 389.623 105.976C387.373 104.398 385.307 102.48 383.506 100.23C369.529 82.7263 382.498 56.5823 404.944 56.5823C429.706 56.5823 440.745 85.3793 424.635 102.73C419.092 108.695 411.85 111.332 404.643 111.062C420.452 193.433 420.635 200.605 474.952 151.046C474.045 150.171 473.206 149.249 472.397 148.242C458.42 130.719 471.389 104.594 493.835 104.594C518.597 104.594 529.636 133.391 513.526 150.727C507.796 156.91 500.186 159.531 492.729 159.027L469.311 278.437H51.771L28.353 159.027C20.8921 159.531 13.298 156.91 7.55604 150.727C-8.53796 133.391 2.49744 104.594 27.247 104.594C49.708 104.594 62.677 130.735 48.685 148.242C47.8803 149.249 47.0405 150.191 46.1303 151.046H46.1821ZM44.5532 284.706H476.583V337.323H44.5532V284.706Z" />
</svg>
