<?xml version="1.0" encoding="utf-8"?>
<!-- Generator: Adobe Illustrator 24.1.1, SVG Export Plug-In . SVG Version: 6.00 Build 0)  -->
<svg version="1.1" id="Layer_1" xmlns="http://www.w3.org/2000/svg" xmlns:xlink="http://www.w3.org/1999/xlink" x="0px" y="0px"
	 viewBox="0 0 512 512" style="enable-background:new 0 0 512 512;" xml:space="preserve">
<g>
	<path class="st0" d="M224,448c0,35.22-28.81,64-64,64c-35.22,0-64-28.78-64-64c0-35.19,28.78-64,64-64
		C195.19,384,224,412.81,224,448z M160,192c-35.22,0-64,28.81-64,64c0,35.22,28.78,64,64,64c35.19,0,64-28.78,64-64
		C224,220.81,195.19,192,160,192z M160,0c-35.22,0-64,28.81-64,64c0,35.22,28.78,64,64,64c35.19,0,64-28.78,64-64
		C224,28.81,195.19,0,160,0z M352,128c35.19,0,64-28.78,64-64c0-35.19-28.81-64-64-64c-35.22,0-64,28.81-64,64
		C288,99.22,316.78,128,352,128z M352,192c-35.22,0-64,28.81-64,64c0,35.22,28.78,64,64,64c35.19,0,64-28.78,64-64
		C416,220.81,387.19,192,352,192z M352,384c-35.22,0-64,28.81-64,64c0,35.22,28.78,64,64,64c35.19,0,64-28.78,64-64
		C416,412.81,387.19,384,352,384z"/>
</g>
</svg>
