<svg xmlns="http://www.w3.org/2000/svg" viewBox="0 0 116 109"><g><g><path d="M44 1C70.058.34 96.564.764 97 25c-1.262 1.358-1.365 1.768-2 4l4 1c-.86 1.51-2.849.742-1 2 .932.913 1.755 1.33 3 2l-2-3h2c3.85 4.71 9.442 7.904 12 14 7.798 18.586-5.823 36.375-13 47-3.78 5.595-18.32 22.28-31 14-2.952-.866-3.786-1.364-5-4 2.006-1.397 2.066-1.346 3-4h-1v1c-2.38 2.243-1.752 3.174-6 4v-1c1.191-.868 1.125-.822 2-2h-2c-1.012 2.31-1.712 2.163-3 4 2.266-.4 1.084-.918 3 0h-1c-9.021 8.812-26.3 3.92-34-2-7.123-5.475-27.695-32.316-24-47 1.125-4.471 3.748-8.54 5-13 3.488-2.115 4.26-3.692 10-4-2.29-11.417 3.99-25.957 13-32 4.14-2.777 10.688-2.247 15-5zm5 2c-2.834 1.78-10.963 2.332-14 3l-4 9c-1.466-2.525-.44-1.544-4-2v1c2.329.294 2.477.451 4 1v2c-2.266-.4-1.084-.918-3 0 1.261 1.359 1.365 1.768 2 4h-1c-.087-.097-1.313-2.886-2-2v1c-1.522 1.313-2.113 1.895-3 4h2c1.294-2.468-.43-.681 2-2-.294 2.329-.451 2.477-1 4h1v-1c.775-1.923 1 2 1 2-1.243 1.567-.642.51 0 2 .63-1.754.193-.971 1-2 .02 4.915.38 2.643 1 8h-1c-.868-1.191-.823-1.125-2-2v1l2 1v1c1.01.99.988-.985 1-1 3.55-5.092-1.002-9.102-1-14 2.467-1.295.68.429 2-2h1c.828 3.245-.49 1.528 2 3 9.158-7.293 34.183-5.741 47-3v2h-2c-8.443-6.205-44.884.024-46 4 4.239 1.473 5.924 5.534 7 10h-1v-1c-2.383-2.504-5.006-6.325-7-9h-1v2c2.508 1.579 3.936 2.86 5 6h-1c-.867-1.191-.823-1.125-2-2-.075 3.042-.756 2.744 0 4 1.098 2.05 1.822 3.84 4 5v-2c.173-1.184-.339-2.243-1-5h1v1c.913.932 1.33 1.755 2 3 2.457-.287.482-.659 3 0v-1c.772-1.747 16.106-1.216 22-1 1.532-.364 7.466-6.468 11-8 2.448-1.061 5.313.117 7-1-3.22-6.742 5.207-19.728-7-21-4.302-2.756-19.772-2.106-27-2zM26 16v2h1v-2h-1zm5 1c.804 1.021.355.274 1 2h-1v-2zm53 9v2h3v-1l-3-1zm7 1c1.02.804.274.355 2 1zm-66 2c.294 2.329.451 2.477 1 4h1c-.552-3.136-.21-2.433-2-4zm63 0c1.02.804.274.355 2 1zm-71 1c.195 2.328.193 2.826 1 4zm0 5c-.328 1.384 1.42 1.451 2 2zm54 7v-3c-2.33-.294-2.477-.451-4-1v2l5 3v1c-1.754.63-.971.193-2 1-9.212-1.695-21.613 1.01-29-1v1c2.593 2.914.692 1.99 0 7 2.262.013 11.235 16.405 15 20-.604 2.45-2.35 2.965-1 4v1c2.962-1.465 4.449-2.996 8-4-.86-1.51-2.848-.742-1-2 5.308-6.328 8.749-15.749 13-23l3 2c-1.674-2.896-1.443-2.8-6-3v-1c1.754-.63.971-.193 2-1-1.754-.63-.972-.193-2-1 2.467-1.295.68.43 2-2h-3zm6-4c-.723 3.941-1.247 4.28-2 7h1v-1c1.11-1.312 2.168-3.524 3-5l-2-1zm-61 2v2h1c-.63-1.754-.193-.971-1-2zm17 0c1.08 2.81-.295 3.507 4 5v-1c-3.594-2.098-.698-2.387-4-4zm61 0c.98.798 2.743 1.446 4 2zm-75 1v2h1c-.63-1.754-.193-.971-1-2zm19 0l1 3h1v-3h-2zm41 0v2c2.612-.394 3.862-.298 5 1 .804-1.021.355-.274 1-2l-6-1zm11 0c1.02.804.274.355 2 1zm4 2c-2.086 2.419-1.759.423-4 2h2c1.646 2.774 5.627 2.24 10 2 .384 2.617-.743 1.31 2 2 .535-1.516.675-1.693 1-4-.804-1.021-.355-.274-1-2h-2v2c1.3.555.741.03 1 1v1c-3.224-1.714-6.423-1.519-9-3 1.754-.63.971-.193 2-1h-2zm-74 8c-8.792.365-16.242 5.018-16 15 7.185 8.805 10.248 21.07 17 30 5.994 7.928 9.88 1.69 14 4-.391 2.164-.249 2.217 2 4v-2h-1l1-2c1.119 1.077 2.05 4.822 3 3h1c-1.683-2.956-1.018-.012-1-4h1c1.02 1.519 1.498 1.967 3 3v-5h-2c-.63 1.754-.193.971-1 2-.878-8.765-7.065-9.386-12-16-6.451-8.646-10.526-18.23-15-29h1v-1c2.706 3.12 2.993 8.1 5 12 5.343 10.383 13.257 21.915 23 28 .06-5.71 1.76-8.597 5-11 .909-1.084-.078-.085 1-1v2c-3.257 2.482-4.077 6.16-5 11h1v-1c2.05-2.346 2.059-4.068 3-8h1c.195 2.327.192 2.826 1 4 1.021-.804.274-.355 2-1 .903-2.207 1.954-4.14 3-6h-4c-.842 2.389-.402 1.645-2 3v-2c2.104-2.366.98-2.615 2-5h-1c-1.35 1.624-.64 1.121-3 2-.375-1.443-9.5-20.628-10-21h-6c-1.4-.615-5.05-2.722-7-4-3.426-2.245-2.073-7.916-6-10v1c1.495 1.624 1.552 2.023 2 5zm50-6h2v1h-2v-1zm7 0c1.568 1.828.882 1.395 4 2v-1l-4-1zm6 0c.184 2.912 2.41 5.39 6 3 1.754-.63.971-.193 2-1-2.963-1.534-5.497-1.354-8-2zm-49 1c.06 2.686.032.916 4 3 1.295-2.468-.43-.681 2-2v-1c-3.346.468-2.65.508-6 0zm73 1v2h2v-1l-2-1zm-13 1c-2.536 1.95-8.318 2.318-12 3 1.403 2.376 1.699.58 1 3-1.52 6.075-6.85 14.091-11 18 1.508 5.44 3.346 11.856 1 16-1.466 4.27-5.14 6.184-9 8v1h2c1.273-1.68 6.451-5.95 7-5 4.828 3.643 8.443 7.843 16 9 9.51-10.162 22.606-23.417 23-42-1.495-1.398-2.886-3.244-4-5 2.637-.866 1.096-.81 3-3l-4 1c-.327-2.212 1.038-1.08-1-2-.907-.15-2.207-.363-4 1 3.161.401 3.795.985 6 2v1h-2c-2.237-1.9-4.949-2.164-7.834-2H97l-.002.086C92.63 52.469 87.967 53.444 84 51c6.266.121 9.816-.89 14-2v-1h-4zm-55 1v2h1c-.63-1.754-.193-.971-1-2zm-1 3c-1.685 3.695-1.907 1.521 1 5v-1c1.183-2.414.907-2.198-1-4zm58.998.086c.392-.035.781-.064 1.168-.086H99c-.075 20.172-12.945 29.912-20 43h-2v-2c9.917-6.75 19.546-25.175 19.998-40.914zM59 72h2v1c-1.754-.63-.972-.193-2-1zm7 0c-1.366 1.317-3.18 2.121-5 3v1h2c1.493-1.665.725-1.017 2-1l2 1v-1h-1c1.552-1.495 1.838-.777 3-3h-3zm-7 4c.983 3.033 1.966 2.988 3 6h1c-1.018-4.884-1.588-3.839-4-6zm-4 2c.327 2.212-1.038 1.08 1 2 .909-1.084-.078-.085 1-1-1.021-.804-.274-.355-2-1zm3 2l1 3c-3.199.877-2.781 1.13-3 2v1h1c1.623-3.583 4.057-2.8 1-6zm-6 9c-1.18.803-1.681.773-4 1-.973 3.654-2.238 4.005-3 8h2v-1c2.315-1.506 5.851-7.504 5-8zm9 4c1.02.804.274.355 2 1zm-8 1c-.962 1.766-1.257 1.68-2 4h1c1.157-2.401 2.04-1.735 1-4zm-7 5l-1 2h1c-.216 1.398 1 1 1 1 1.224-1.236-1-3-1-3z"/></g></g></svg>