<svg xmlns="http://www.w3.org/2000/svg" viewBox="0 0 2648 692"><g><g><path d="M185.032 682.143h-1.709c-.683 0-2.339.288-4.956.855-2.622.57-4.501 1.084-5.639 1.537h-78.95a58.413 58.413 0 0 0-1.709-2.392c-1.367-1.82-2.168-3.076-2.392-3.76v-2.05c0-2.958 1.196-5.238 3.589-6.835 2.392-1.591 5.18-2.734 8.373-3.418a69.456 69.456 0 0 1 9.912-1.367c3.417-.224 6.034-.683 7.86-1.367 1.592-.907 3.471-2.221 5.64-3.93 2.162-1.709 3.7-3.247 4.614-4.614.224-.683.512-1.991.854-3.93.342-1.933.625-3.93.855-5.98.224-2.051.395-3.984.512-5.81.112-1.822.171-3.077.171-3.76.454-4.555 1.367-9.169 2.734-13.841 1.367-4.667 2.051-9.281 2.051-13.842v-40.67c0-.223.112-.907.342-2.05.224-1.137.395-2.275.512-3.417.113-1.138.283-2.222.513-3.247.224-1.025.342-1.65.342-1.88v-2.05c0-1.138-.23-3.076-.684-5.81-.459-2.734-.8-4.667-1.025-5.81l-1.367-80.997-.342-6.152v-53.657c0-.453-.683-1.708-2.05-3.759-1.368-2.05-2.51-3.642-3.418-4.785-1.827-2.734-4.903-4.838-9.228-6.322a166.785 166.785 0 0 0-13.33-3.93c-4.56-1.138-8.602-2.505-12.132-4.101-3.536-1.592-5.298-3.872-5.298-6.836 0-2.05.625-3.642 1.88-4.784 1.25-1.138 2.734-1.992 4.443-2.564 1.709-.566 3.589-.907 5.64-1.025 2.05-.112 3.759-.17 5.126-.17h4.101c.908 0 2.734.058 5.469.17 2.734.118 5.521.289 8.373.513 2.846.23 5.58.4 8.202.512 2.617.118 4.497.289 5.64.513l2.05 2.392h2.393c.454-.454 1.538-.966 3.247-1.538 1.709-.566 2.787-.854 3.247-.854h40.67c.908 0 2.735-.17 5.47-.513 2.733-.341 4.325-.736 4.784-1.196h94.671c.454.46 1.48.855 3.076 1.196 1.591.342 2.734.513 3.418.513h23.582c4.556.46 8.085 2.05 10.595 4.785 2.505 2.734 4.668 6.269 6.494 10.594V406c0 .46.395 1.94 1.196 4.443.796 2.51 1.196 3.877 1.196 4.102v3.075c0 .914-.17 2.622-.512 5.127a65.29 65.29 0 0 1-1.538 7.69c-.684 2.621-1.538 4.955-2.563 7.006-1.026 2.05-2.222 3.075-3.589 3.075h-.342c-3.877-2.958-6.835-5.692-8.886-8.202-2.05-2.504-4.101-5.468-6.152-8.886-.46-.907-1.196-2.392-2.222-4.442-1.025-2.051-1.88-3.53-2.563-4.443-1.143-2.959-2.851-6.205-5.126-9.74a59.279 59.279 0 0 0-7.861-9.74 41.706 41.706 0 0 0-9.912-7.349c-3.647-1.933-7.294-2.905-10.936-2.905h-73.482c-1.143-1.137-2.11-1.82-2.905-2.05-.801-.224-1.88-.342-3.247-.342h-2.392c-.913.46-2.451 1.196-4.614 2.222-2.168 1.025-3.477 1.88-3.93 2.563-.23 0-.401.512-.513 1.538-.118 1.025-.23 2.168-.342 3.417-.117 1.255-.23 2.393-.342 3.418-.117 1.025-.288 1.655-.512 1.88 0 .459-.289 1.196-.855 2.221-.571 1.025-1.084 1.768-1.538 2.221 0 2.28-.117 6.152-.342 11.62-.23 5.469-.459 11.225-.683 17.26-.23 6.039-.46 11.79-.684 17.258-.23 5.468-.459 9.228-.683 11.278v12.645c.224 1.367.454 3.535.683 6.494.225 2.964.454 6.04.684 9.227.224 3.194.454 6.152.683 8.886.225 2.734.342 4.673.342 5.81.908.684 2.393 1.426 4.443 2.222 2.051.8 4.155 1.537 6.323 2.221a46.237 46.237 0 0 0 6.323 1.538c2.05.342 3.642.513 4.785.513h4.101a431.6 431.6 0 0 1 17.26-1.026c5.81-.224 11.16-1.137 16.063-2.734 4.897-1.591 9.228-4.213 12.987-7.86 3.76-3.642 6.323-9.11 7.69-16.405 0-.683.112-2.05.342-4.101.224-2.05.454-4.213.683-6.493.225-2.275.455-4.443.684-6.494.224-2.05.342-3.53.342-4.443.908-1.82 2.846-3.7 5.81-5.639 2.959-1.933 5.468-2.905 7.519-2.905 3.418 0 5.922 1.314 7.519 3.93 1.591 2.622 2.393 5.415 2.393 8.374 0 2.51-.06 4.784-.171 6.835-.118 2.05-.63 4.33-1.538 6.835v68.352c.907 1.826 1.42 3.647 1.538 5.468.112 1.827.17 3.648.17 5.469v15.379c0 3.417-.63 6.381-1.88 8.886-1.254 2.51-4.16 3.759-8.714 3.759-3.648 0-6.494-1.308-8.545-3.93-2.05-2.617-3.647-5.981-4.785-10.082-1.142-4.101-2.05-8.427-2.734-12.987-.683-4.555-1.538-8.886-2.563-12.987-1.025-4.101-2.393-7.46-4.101-10.082-1.71-2.617-4.273-3.93-7.69-3.93h-3.76c-.46.23-1.655.459-3.588.683-1.939.23-4.048.46-6.323.684-2.28.23-4.331.459-6.152.683-1.827.23-2.852.342-3.076.342h-23.924c-4.331.913-7.749 2.563-10.254 4.956-2.51 2.392-4.443 5.243-5.81 8.544-1.367 3.305-2.221 6.893-2.563 10.765-.342 3.877-.513 7.86-.513 11.962v11.961c0 1.367-.117 2.734-.341 4.101-.23 1.367-.342 2.622-.342 3.76 0 .459-.342 1.826-1.026 4.1-.683 2.281-1.025 3.648-1.025 4.102v28.708c0 5.244.224 10.14.684 14.696.454 4.56 1.709 9.457 3.76 14.695 5.468 3.194 10.765 4.902 15.892 5.127 5.126.23 10.536.571 16.234 1.025.908 0 2.958.23 6.152.684 3.188.459 6.606 1.025 10.253 1.708 3.642.684 7.06 1.255 10.253 1.71 3.188.458 5.24.683 6.152.683h18.798c0 .23.625.854 1.88 1.88 1.25 1.025 2.221 1.655 2.905 1.879h1.709a8.365 8.365 0 0 0 2.05-1.025c.454-.225.908-.454 1.367-.684.454-.224.796-.342 1.026-.342.453 0 1.137.63 2.05 1.88.908 1.255 1.592 2.11 2.05 2.563h2.393c0-.454.224-1.308.684-2.563.454-1.25 1.025-1.88 1.709-1.88h1.709c13.67-7.972 25.173-17.883 34.519-29.733a895.69 895.69 0 0 0 27.342-36.568l1.025-.342c.224 0 .395.059.513.171.112.118.283.17.512.17h.342c.224 0 .854.572 1.88 1.71 1.025 1.142 1.65 1.938 1.88 2.392v15.037c0 1.368-.23 3.877-.684 7.52-.46 3.646-.854 7.518-1.196 11.62a286.99 286.99 0 0 1-1.196 11.619c-.46 3.647-.684 6.152-.684 7.519-1.367 1.826-2.221 3.76-2.563 5.81a625 625 0 0 1-1.026 5.98 38.779 38.779 0 0 1-1.367 5.469c-.571 1.708-1.767 3.246-3.588 4.613-1.367 0-3.93.06-7.69.171-3.76.118-7.69.289-11.791.513-4.102.23-7.979.46-11.62.683-3.648.23-6.153.342-7.52.342-.23 0-.972.23-2.221.684a54.394 54.394 0 0 0-4.102 1.708 56.233 56.233 0 0 1-4.1 1.71c-1.256.453-1.998.683-2.222.683-.46 0-1.939-.4-4.443-1.196-2.51-.801-3.878-1.197-4.102-1.197h-1.367c-5.244 0-10.595.396-16.063 1.197-5.469.795-11.167 1.196-17.089 1.196-11.62 0-23.187-.801-34.69-2.393a252.949 252.949 0 0 0-34.69-2.392zm285.381-9.227c0-2.505 1.42-5.127 4.272-7.86 2.847-2.735 5.752-4.326 8.716-4.786l34.519-4.442c1.137 0 2.617-1.25 4.443-3.76 1.82-2.504 3.188-4.667 4.101-6.493v-17.43c0-10.023-.288-19.876-.854-29.562-.572-9.682-.855-19.652-.855-29.904v-4.785a481.772 481.772 0 0 0 1.538-34.176c.112-11.62.171-23.352.171-35.201v-40.67c-.46-3.642-.742-8.143-.854-13.5a684.116 684.116 0 0 0-.513-15.55c-.23-5.922-.46-11.961-.683-18.113l-2.393-1.709c-.23 0-1.655-.112-4.272-.341a428.053 428.053 0 0 0-9.399-.684c-3.647-.224-7.348-.454-11.108-.684-3.76-.224-6.782-.453-9.057-.683H477.25c-1.143 0-3.023.059-5.64.17-2.622.118-5.356.29-8.202.513-2.852.23-5.64.513-8.374.855-2.734.342-4.56.63-5.468.854-.46 0-1.196.171-2.221.513-1.026.342-1.768.742-2.222 1.196-.684.46-1.939 1.367-3.76 2.734a18.083 18.083 0 0 1-2.734 1.709c-.23.46-.742 1.367-1.538 2.734a510.673 510.673 0 0 1-2.734 4.614 118.057 118.057 0 0 0-2.734 4.785c-.801 1.484-1.314 2.45-1.538 2.905-.23.23-.63.742-1.196 1.537-.572.801-1.197 1.71-1.88 2.734-.684 1.026-1.709 2.452-3.076 4.273-.684.683-1.597 1.938-2.734 3.759a239.796 239.796 0 0 1-3.76 5.81 234.656 234.656 0 0 0-3.76 5.81 194.911 194.911 0 0 1-2.392 3.76c-1.597 1.142-3.022 1.767-4.272 1.879a42.22 42.22 0 0 1-3.93.17c-1.827 0-3.306-.17-4.443-.512-1.143-.342-1.939-1.42-2.393-3.247v-16.746c0-10.477 1.197-20.559 3.589-30.246 2.392-9.681 4.042-19.763 4.956-30.246.453-1.82 1.479-3.017 3.075-3.588 1.592-.566 3.076-.854 4.444-.854h7.519c.224 0 .854.742 1.88 2.22 1.025 1.485 1.762 2.222 2.22 2.222.909.46 2.618.913 5.128 1.367 2.504.46 4.325.684 5.468.684h47.165c2.958 1.143 4.955 1.768 5.98 1.88 1.026.117 2.676.17 4.956.17h4.102c1.137 0 4.101-.112 8.886-.341 4.785-.225 9.911-.454 15.38-.684a2669.86 2669.86 0 0 0 15.55-.683c4.897-.225 7.915-.342 9.057-.342h123.38c.455 0 1.368-.17 2.735-.513a130.73 130.73 0 0 0 4.443-1.196 217.32 217.32 0 0 0 4.614-1.367c1.48-.454 2.563-.796 3.247-1.025.908-.684 1.821-1.591 2.734-2.734a73.053 73.053 0 0 1 3.076-3.589 20.402 20.402 0 0 1 3.76-3.246c1.367-.908 2.958-1.367 4.784-1.367 2.275 0 4.214.683 5.81 2.05 1.592 1.367 2.906 3.022 3.93 4.956 1.026 1.938 1.822 4.047 2.393 6.322.566 2.28.855 4.33.855 6.152.224 1.143.454 2.68.683 4.614.225 1.938.454 3.93.684 5.98.224 2.051.454 3.877.684 5.469.224 1.596.341 2.51.341 2.734v49.555c-.913 2.05-1.826 3.588-2.734 4.614-.913 1.025-2.734 1.538-5.468 1.538h-2.735c-.459-.225-1.767-1.48-3.93-3.76-2.168-2.275-3.706-3.871-4.614-4.784-.46-.684-1.367-2.163-2.734-4.443a2025.195 2025.195 0 0 0-4.443-7.348 316.327 316.327 0 0 0-4.614-7.348c-1.485-2.275-2.563-3.76-3.247-4.443-.46-.683-1.426-1.82-2.905-3.417a215.309 215.309 0 0 0-4.956-5.127 228.233 228.233 0 0 0-5.297-5.126c-1.709-1.592-2.905-2.734-3.589-3.418-2.51-.454-5.244-1.25-8.203-2.392-2.963-1.138-5.927-1.709-8.886-1.709h-2.392c-.23 0-1.597.4-4.101 1.196-2.51.801-3.99 1.196-4.443 1.196h-2.393c-.459-.224-2.05-.624-4.785-1.196a433.21 433.21 0 0 0-8.715-1.709 153.689 153.689 0 0 0-8.715-1.367c-2.734-.341-4.443-.512-5.127-.512h-4.1c-6.612 0-10.938 2.221-12.988 6.664-2.051 4.443-3.076 9.516-3.076 15.208 0 4.102.17 8.15.512 12.133.342 3.989.513 7.577.513 10.765 0 .46-.117 1.314-.342 2.563-.23 1.255-.459 2.622-.683 4.102-.23 1.484-.46 2.851-.684 4.1-.23 1.256-.342 2.11-.342 2.564 0 1.143.113 3.818.342 8.031.224 4.219.454 8.833.684 13.842.224 5.014.454 9.74.683 14.183.225 4.443.342 7.348.342 8.715v63.225c.224 2.964.513 8.09.855 15.38.341 7.294.736 15.037 1.196 23.24.454 8.201.854 15.891 1.196 23.068.342 7.177.625 12.25.854 15.208 1.592 2.964 4.043 5.244 7.349 6.836 3.3 1.596 6.947 2.905 10.936 3.93a206.516 206.516 0 0 0 12.133 2.734c4.102.801 7.86 1.826 11.279 3.076 3.417 1.255 6.205 2.905 8.373 4.955 2.163 2.05 3.247 4.785 3.247 8.203 0 3.193-1.025 5.756-3.076 7.69-2.05 1.938-4.502 3.417-7.348 4.442-2.852 1.025-5.869 1.762-9.057 2.222-3.193.454-5.81.683-7.86.683-.685 0-2.169-.4-4.444-1.196-2.28-.801-3.76-1.196-4.443-1.196-1.367-.23-3.647-.572-6.836-1.026-3.193-.453-5.126-.683-5.81-.683h-34.177c-.46-.224-1.426-.625-2.905-1.196-1.485-.566-2.451-.855-2.905-.855-.23 0-1.026.118-2.393.342-1.367.23-2.851.46-4.443.684-1.596.23-3.193.459-4.784.683-1.597.23-2.735.342-3.418.342-6.836 1.591-13.105 2.563-18.798 2.905-5.698.342-12.191.737-19.48 1.196-.684 0-1.88.112-3.59.342a125.18 125.18 0 0 0-5.468.854c-1.938.342-3.706.625-5.297.855-1.597.224-2.622.341-3.076.341-1.827 0-3.477-.63-4.956-1.88-1.485-1.254-2.852-2.85-4.101-4.784-1.255-1.933-2.222-3.871-2.905-5.81-.684-1.933-1.026-3.588-1.026-4.955zm376.635 9.227h-1.709c-.683 0-2.339.288-4.955.855-2.623.57-4.502 1.084-5.64 1.537h-78.95a58.19 58.19 0 0 0-1.709-2.392c-1.367-1.82-2.167-3.076-2.392-3.76v-2.05c0-2.958 1.196-5.238 3.589-6.835 2.392-1.591 5.18-2.734 8.373-3.418a69.455 69.455 0 0 1 9.912-1.367c3.417-.224 6.034-.683 7.86-1.367 1.592-.907 3.472-2.221 5.64-3.93 2.163-1.709 3.7-3.247 4.614-4.614.224-.683.512-1.991.854-3.93.342-1.933.625-3.93.855-5.98.224-2.051.395-3.984.512-5.81.112-1.822.171-3.077.171-3.76.454-4.555 1.367-9.169 2.734-13.841 1.367-4.667 2.051-9.281 2.051-13.842v-40.67c0-.223.112-.907.342-2.05.224-1.137.395-2.275.512-3.417.113-1.138.283-2.222.513-3.247.224-1.025.342-1.65.342-1.88v-2.05c0-1.138-.23-3.076-.684-5.81-.459-2.734-.8-4.667-1.025-5.81l-1.367-80.997-.342-6.152v-53.657c0-.453-.683-1.708-2.05-3.759-1.368-2.05-2.51-3.642-3.418-4.785-1.827-2.734-4.903-4.838-9.228-6.322a166.785 166.785 0 0 0-13.33-3.93c-4.56-1.138-8.602-2.505-12.132-4.101-3.536-1.592-5.298-3.872-5.298-6.836 0-2.05.625-3.642 1.88-4.784 1.25-1.138 2.734-1.992 4.443-2.564 1.709-.566 3.589-.907 5.64-1.025 2.05-.112 3.759-.17 5.126-.17h4.101c.908 0 2.734.058 5.469.17 2.734.118 5.521.289 8.373.513 2.846.23 5.58.4 8.203.512 2.616.118 4.496.289 5.639.513l2.05 2.392h2.393c.454-.454 1.538-.966 3.247-1.538 1.709-.566 2.787-.854 3.246-.854h40.672c.908 0 2.734-.17 5.468-.513 2.734-.341 4.326-.736 4.785-1.196h94.671c.454.46 1.48.855 3.076 1.196 1.592.342 2.734.513 3.418.513h23.582c4.556.46 8.085 2.05 10.595 4.785 2.505 2.734 4.668 6.269 6.494 10.594V406c0 .46.395 1.94 1.196 4.443.796 2.51 1.196 3.877 1.196 4.102v3.075c0 .914-.17 2.622-.512 5.127a65.336 65.336 0 0 1-1.538 7.69c-.684 2.621-1.538 4.955-2.563 7.006-1.026 2.05-2.222 3.075-3.59 3.075h-.34c-3.878-2.958-6.836-5.692-8.887-8.202-2.05-2.504-4.101-5.468-6.152-8.886-.46-.907-1.196-2.392-2.222-4.442-1.025-2.051-1.88-3.53-2.563-4.443-1.143-2.959-2.851-6.205-5.126-9.74a59.292 59.292 0 0 0-7.861-9.74 41.706 41.706 0 0 0-9.912-7.349c-3.647-1.933-7.294-2.905-10.936-2.905h-73.482c-1.143-1.137-2.11-1.82-2.905-2.05-.8-.224-1.88-.342-3.247-.342h-2.392c-.913.46-2.451 1.196-4.614 2.222-2.168 1.025-3.477 1.88-3.93 2.563-.23 0-.401.512-.513 1.538-.118 1.025-.23 2.168-.342 3.417-.117 1.255-.23 2.393-.342 3.418-.117 1.025-.288 1.655-.512 1.88 0 .459-.289 1.196-.855 2.221-.571 1.025-1.084 1.768-1.538 2.221 0 2.28-.117 6.152-.342 11.62-.23 5.469-.459 11.225-.683 17.26-.23 6.039-.46 11.79-.684 17.258-.23 5.468-.459 9.228-.683 11.278v12.645c.224 1.367.454 3.535.683 6.494.225 2.964.454 6.04.684 9.227.224 3.194.454 6.152.683 8.886.225 2.734.342 4.673.342 5.81.908.684 2.393 1.426 4.443 2.222 2.05.8 4.155 1.537 6.323 2.221a46.245 46.245 0 0 0 6.323 1.538c2.05.342 3.642.513 4.785.513h4.101c5.693-.454 11.45-.796 17.26-1.026 5.81-.224 11.16-1.137 16.063-2.734 4.897-1.591 9.228-4.213 12.987-7.86 3.76-3.642 6.323-9.11 7.69-16.405 0-.683.112-2.05.342-4.101.224-2.05.454-4.213.684-6.493.224-2.275.454-4.443.683-6.494.224-2.05.342-3.53.342-4.443.908-1.82 2.846-3.7 5.81-5.639 2.959-1.933 5.468-2.905 7.519-2.905 3.418 0 5.922 1.314 7.52 3.93 1.59 2.622 2.392 5.415 2.392 8.374 0 2.51-.06 4.784-.171 6.835-.118 2.05-.63 4.33-1.538 6.835v68.352c.907 1.826 1.42 3.647 1.538 5.468.112 1.827.17 3.648.17 5.469v15.379c0 3.417-.63 6.381-1.88 8.886-1.254 2.51-4.16 3.759-8.714 3.759-3.648 0-6.494-1.308-8.545-3.93-2.05-2.617-3.647-5.981-4.785-10.082-1.142-4.101-2.05-8.427-2.734-12.987-.683-4.555-1.538-8.886-2.563-12.987-1.025-4.101-2.393-7.46-4.101-10.082-1.71-2.617-4.272-3.93-7.69-3.93h-3.76c-.46.23-1.655.459-3.588.683-1.939.23-4.048.46-6.323.684-2.28.23-4.331.459-6.152.683-1.827.23-2.852.342-3.076.342h-23.924c-4.331.913-7.749 2.563-10.254 4.956-2.51 2.392-4.443 5.243-5.81 8.544-1.367 3.305-2.221 6.893-2.563 10.765-.342 3.877-.513 7.86-.513 11.962v11.961c0 1.367-.117 2.734-.341 4.101-.23 1.367-.342 2.622-.342 3.76 0 .459-.342 1.826-1.026 4.1-.683 2.281-1.025 3.648-1.025 4.102v28.708c0 5.244.224 10.14.684 14.696.454 4.56 1.709 9.457 3.76 14.695 5.468 3.194 10.765 4.902 15.892 5.127 5.126.23 10.536.571 16.234 1.025.908 0 2.958.23 6.152.684 3.188.459 6.606 1.025 10.253 1.708 3.642.684 7.06 1.255 10.253 1.71 3.189.458 5.24.683 6.152.683h18.798c0 .23.625.854 1.88 1.88 1.25 1.025 2.221 1.655 2.905 1.879h1.709a8.365 8.365 0 0 0 2.05-1.025c.454-.225.908-.454 1.367-.684.454-.224.796-.342 1.026-.342.453 0 1.137.63 2.05 1.88.908 1.255 1.592 2.11 2.05 2.563h2.393c0-.454.224-1.308.684-2.563.454-1.25 1.025-1.88 1.709-1.88h1.708c13.672-7.972 25.174-17.883 34.52-29.733a895.69 895.69 0 0 0 27.342-36.568l1.025-.342c.224 0 .395.059.513.171.112.118.283.17.512.17h.342c.224 0 .854.572 1.88 1.71 1.025 1.142 1.65 1.938 1.88 2.392v15.037c0 1.368-.23 3.877-.684 7.52-.46 3.646-.854 7.518-1.196 11.62a286.59 286.59 0 0 1-1.196 11.619c-.46 3.647-.684 6.152-.684 7.519-1.367 1.826-2.221 3.76-2.563 5.81-.342 2.05-.684 4.047-1.026 5.98a38.779 38.779 0 0 1-1.367 5.469c-.571 1.708-1.767 3.246-3.588 4.613-1.367 0-3.93.06-7.69.171-3.76.118-7.69.289-11.791.513-4.102.23-7.979.46-11.62.683-3.648.23-6.153.342-7.52.342-.23 0-.972.23-2.221.684a54.394 54.394 0 0 0-4.102 1.708 56.233 56.233 0 0 1-4.1 1.71c-1.256.453-1.998.683-2.222.683-.46 0-1.939-.4-4.443-1.196-2.51-.801-3.878-1.197-4.102-1.197h-1.367c-5.244 0-10.595.396-16.063 1.197-5.469.795-11.167 1.196-17.089 1.196-11.62 0-23.187-.801-34.69-2.393a252.945 252.945 0 0 0-34.69-2.392zm225.913-4.443c0-5.009 2.05-8.255 6.152-9.74 4.1-1.48 8.715-2.617 13.841-3.418 5.127-.795 9.965-1.991 14.526-3.588 4.555-1.591 7.29-5.009 8.202-10.253 0-1.591.113-4.325.342-8.202.224-3.872.454-7.973.684-12.303.224-4.326.454-8.374.683-12.133.225-3.76.342-6.435.342-8.031 0-.684.053-4.555.17-11.62.113-7.06.172-15.15.172-24.265 0-9.11.053-18.396.17-27.854.113-9.451.172-16.917.172-22.385 0-3.188-.06-8.886-.171-17.088-.118-8.202-.171-16.97-.171-26.316 0-9.34-.059-18.113-.171-26.315-.118-8.202-.171-13.895-.171-17.088 0-.908-.117-2.563-.342-4.956-.23-2.392-.46-4.955-.683-7.69-.23-2.733-.46-5.297-.684-7.689-.23-2.392-.342-4.042-.342-4.955-.683-4.102-2.793-7.119-6.322-9.057-3.536-1.933-7.637-3.589-12.304-4.956a396.617 396.617 0 0 1-14.184-4.443c-4.785-1.59-8.662-4.1-11.62-7.518-.46-.225-.972-.855-1.538-1.88-.572-1.025-.855-1.65-.855-1.88v-1.708c0-2.051.684-3.813 2.05-5.298 1.368-1.479 3.077-2.675 5.128-3.588a31.195 31.195 0 0 1 6.493-2.05c2.275-.455 4.326-.684 6.152-.684h1.709a618.14 618.14 0 0 0 18.798 3.076c6.152.913 12.645 1.367 19.48 1.367h4.102c5.468-.225 12.699-.454 21.703-.684 8.998-.224 17.943-.454 26.829-.683 8.886-.225 16.688-.396 23.411-.513 6.718-.112 10.537-.171 11.45-.171 1.137 0 2.958-.112 5.468-.342 2.505-.224 5.127-.454 7.861-.683 2.734-.225 5.239-.454 7.519-.684 2.275-.224 3.872-.454 4.785-.683.454-.225 1.025-.566 1.709-1.026 1.367-.907 2.392-1.367 3.076-1.367.907-.224 2.392-.566 4.443-1.025 2.05-.454 3.417-.683 4.101-.683.224.459 1.48 1.538 3.76 3.246 2.275 1.71 3.871 2.793 4.785 3.247 3.417 1.826 7.519 3.076 12.303 3.76 4.785.683 8.886 2.28 12.304 4.784 4.555 2.964 8.828 6.835 12.817 11.62 3.983 4.785 7.46 10.028 10.424 15.72a91.767 91.767 0 0 1 7.006 17.773c1.71 6.151 2.563 11.961 2.563 17.43 0 6.38-.23 12.42-.683 18.113-.46 5.697-1.025 12.303-1.709 19.822-1.597.913-3.135 2.68-4.614 5.297-1.485 2.622-2.905 5.468-4.272 8.544a679.524 679.524 0 0 1-4.101 9.057c-1.368 2.963-2.735 5.126-4.102 6.493-.459.46-1.425 1.314-2.905 2.563a109.895 109.895 0 0 1-4.955 3.93 163.426 163.426 0 0 1-5.469 3.93c-1.826 1.256-3.193 2.11-4.101 2.564-.46.46-1.768 1.143-3.93 2.05a166.43 166.43 0 0 0-6.836 3.076 174.657 174.657 0 0 0-6.494 3.247c-1.938 1.025-3.022 1.656-3.246 1.88-.46.46-1.197.972-2.222 1.538-1.025.571-2.11 1.196-3.247 1.88a21.033 21.033 0 0 0-3.076 2.22c-.913.802-1.367 1.656-1.367 2.564 0 .23.454.63 1.367 1.196a80.628 80.628 0 0 1 3.076 2.05 87.062 87.062 0 0 1 3.247 2.393c1.025.801 1.762 1.426 2.222 1.88 0 .23.17.742.512 1.538.342.8.737 1.655 1.196 2.563.454.913.855 1.826 1.196 2.734.342.913.513 1.485.513 1.709l4.102 4.1c3.871 2.965 7.743 6.494 11.62 10.595 3.871 4.102 7.29 8.203 10.253 12.304.224.46.854 1.938 1.88 4.443 1.025 2.51 1.65 3.877 1.88 4.1.453.684 1.137 1.71 2.05 3.077.908 1.367 1.821 2.734 2.734 4.1.908 1.368 1.763 2.682 2.564 3.931.795 1.255 1.308 1.997 1.538 2.222.453.459 1.591 1.596 3.417 3.417 1.821 1.826 3.813 3.818 5.981 5.981a265.435 265.435 0 0 0 6.152 5.98c1.933 1.827 3.247 2.964 3.93 3.418 0 .46.343 1.197 1.026 2.222a45.855 45.855 0 0 1 2.05 3.417 44.781 44.781 0 0 0 2.051 3.418c.684 1.025 1.026 1.655 1.026 1.88 1.82 2.51 5.41 5.697 10.766 9.569 5.35 3.877 10.819 7.807 16.405 11.79 5.58 3.99 10.595 7.75 15.038 11.279 4.443 3.535 6.664 6.21 6.664 8.031 0 2.51-.683 4.443-2.05 5.81a13.298 13.298 0 0 1-4.785 3.076c-1.826.684-3.877 1.137-6.152 1.367-2.28.224-4.219.342-5.81.342-2.964 0-5.586-.118-7.861-.342-2.28-.23-4.902-.913-7.86-2.05h-44.09c-6.152-.225-10.936-1.309-14.354-3.247-3.418-1.933-6.323-4.497-8.715-7.69-2.393-3.188-4.56-6.776-6.494-10.765-1.939-3.984-4.39-8.032-7.348-12.133-.23-.683-1.255-2.221-3.076-4.614a255.404 255.404 0 0 0-5.981-7.518c-2.168-2.617-4.16-5.01-5.981-7.177-1.827-2.163-2.852-3.589-3.076-4.272-.684-.454-1.538-2.05-2.563-4.785-1.026-2.734-1.768-4.785-2.222-6.152-.46-.454-.972-1.538-1.538-3.246-.571-1.71-.855-2.676-.855-2.905-.913-.684-2.28-1.933-4.1-3.76a262.27 262.27 0 0 1-5.64-5.81c-1.939-2.05-3.76-3.983-5.468-5.81-1.71-1.82-2.905-3.3-3.59-4.442-.458-.225-1.254-1.538-2.391-3.93-1.143-2.393-1.827-3.93-2.051-4.614-.23 0-.855-.566-1.88-1.71a77.859 77.859 0 0 1-3.418-4.1 79.222 79.222 0 0 0-3.93-4.614c-1.367-1.48-2.51-2.788-3.418-3.93a174.903 174.903 0 0 1-4.614-5.64 71.383 71.383 0 0 0-5.468-6.151c-1.939-1.933-3.93-3.589-5.981-4.956-2.05-1.367-4.219-2.05-6.494-2.05h-2.734c-.23 2.05-.46 5.81-.684 11.278-.23 5.468-.459 11.278-.683 17.43-.23 6.151-.46 11.961-.684 17.43-.23 5.468-.341 9.227-.341 11.278v4.1c0 3.648.053 8.203.17 13.671.113 5.468.396 10.824.855 16.063.454 5.927.908 12.191 1.367 18.797l3.76 4.784c.683.23 2.05.46 4.1.684 2.051.23 4.273.4 6.665.512 2.393.118 4.614.23 6.665.342 2.05.118 3.418.171 4.101.171 1.367.46 3.13 1.025 5.298 1.709a29.966 29.966 0 0 1 6.152 2.734c1.933 1.143 3.642 2.451 5.126 3.93 1.48 1.485 2.222 3.135 2.222 4.956 0 3.193-2.05 5.244-6.152 6.151-1.367.225-3.647.513-6.836.855-3.193.342-6.61.737-10.253 1.196a539.54 539.54 0 0 0-10.253 1.367c-3.194.454-5.468.796-6.836 1.025h-1.708c-.914-.459-2.452-1.196-4.614-2.221-2.169-1.025-3.477-1.768-3.93-2.222h-38.963c-.46 0-1.485.283-3.076.855-1.597.566-2.734 1.079-3.418 1.538-.23.224-1.196.908-2.905 2.05-1.709 1.138-2.793 1.71-3.247 1.71-.459 0-1.596-.631-3.417-1.88-1.827-1.255-2.964-1.88-3.418-1.88h-1.367c-3.418 0-6.44.737-9.057 2.221-2.622 1.48-5.64 2.222-9.057 2.222a5.074 5.074 0 0 1-1.88-.342c-.571-.23-1.084-.342-1.538-.342-1.143 0-2.734-.4-4.785-1.196a34.923 34.923 0 0 1-5.81-2.905c-1.826-1.143-3.418-2.446-4.785-3.93-1.367-1.48-2.05-3.13-2.05-4.956zm102.874-154.476c1.82 4.56 4.613 7.52 8.373 8.886 3.76 1.367 7.802 2.05 12.133 2.05 8.427 0 16.234-2.333 23.411-7.005 7.178-4.667 13.383-10.477 18.627-17.43 5.239-6.947 9.34-14.578 12.304-22.898 2.959-8.314 4.443-16.234 4.443-23.752 0-6.152-.513-12.475-1.538-18.968-1.025-6.494-3.364-12.474-7.006-17.942-.684-.684-1.997-1.934-3.93-3.76a267.658 267.658 0 0 1-5.982-5.81c-2.05-2.05-4.048-3.93-5.98-5.639-1.94-1.709-3.248-2.787-3.931-3.247 0-.224-.513-.566-1.538-1.025a73.95 73.95 0 0 1-3.247-1.538 21.93 21.93 0 0 0-3.418-1.367c-1.143-.342-1.938-.513-2.392-.513-.23-.224-.855-.683-1.88-1.367a153.44 153.44 0 0 1-3.247-2.22 27.945 27.945 0 0 0-3.418-2.051c-1.142-.567-1.938-.855-2.392-.855h-3.418c-8.432 0-14.755 1.826-18.968 5.468-4.219 3.647-6.553 9.57-7.006 17.772-.23.683-.46 3.247-.684 7.69-.23 4.442-.46 9.457-.684 15.037-.23 5.586-.459 11.278-.683 17.088-.23 5.81-.342 10.424-.342 13.841v6.494c0 1.367.112 4.16.342 8.373.224 4.218.454 8.603.683 13.158.225 4.56.454 8.944.684 13.157.224 4.219.454 7.006.684 8.374zm227.28 150.375c0-3.642 1.195-6.664 3.588-9.057 2.392-2.392 5.297-4.325 8.715-5.81a83.6 83.6 0 0 1 10.595-3.759c3.642-1.025 6.718-2.104 9.228-3.247 4.785-2.504 8.656-4.955 11.62-7.347 2.959-2.393 5.239-5.01 6.836-7.86 1.591-2.847 2.734-6.153 3.417-9.912.684-3.76 1.026-8.373 1.026-13.841v-40.328c0-.454.112-1.538.341-3.247.225-1.709.513-3.53.855-5.468.342-1.933.625-3.7.855-5.297.224-1.591.341-2.617.341-3.076v-2.392c0-.454-.117-1.71-.341-3.76-.23-2.05-.513-4.272-.855-6.664-.342-2.392-.63-4.614-.855-6.664-.23-2.05-.341-3.418-.341-4.101v-4.443c0-.454.112-1.71.341-3.76.225-2.05.513-4.272.855-6.664.342-2.392.625-4.667.855-6.835.224-2.163.341-3.471.341-3.93.225-1.592.454-4.614.684-9.057.224-4.443.454-9.169.683-14.183.225-5.01.454-9.74.684-14.183.224-4.443.342-7.572.342-9.399.907-2.275 1.42-4.154 1.538-5.639.112-1.479.17-3.129.17-4.955 0-5.239-1.425-10.307-4.272-15.209-2.851-4.896-6.323-9.51-10.424-13.84a133.645 133.645 0 0 0-13.158-12.133 2941.97 2941.97 0 0 1-12.475-10.082c-.23 0-.571-.225-1.025-.684-.46-.454-.684-1.025-.684-1.709-.683-.454-1.596-1.367-2.734-2.734a494.483 494.483 0 0 0-3.76-4.443 608.344 608.344 0 0 1-3.93-4.613c-1.255-1.48-2.11-2.446-2.563-2.905v-2.393c0-2.05.566-3.7 1.709-4.955 1.137-1.25 2.616-3.017 4.443-5.298 1.137-1.137 1.88-1.82 2.221-2.05.342-.224 1.079-.342 2.222-.342h10.937c.224.23.966.46 2.221.684 1.25.23 2.563.459 3.93.683 1.368.23 2.676.46 3.93.684 1.25.23 1.993.341 2.222.341h21.19c.908.23 2.788.914 5.64 2.051 2.846 1.143 4.614 1.709 5.297 1.709 1.138.23 3.017.459 5.64.683 2.616.23 5.409.46 8.373.684 2.958.23 5.751.46 8.373.683 2.617.23 4.497.342 5.64.342l8.544 8.544c.224.46.625 1.196 1.196 2.222a50.84 50.84 0 0 1 1.709 3.417 45.244 45.244 0 0 0 1.71 3.418c.565 1.025.966 1.655 1.195 1.88.225.23 1.309 1.425 3.247 3.588a598.744 598.744 0 0 0 7.006 7.69 573.63 573.63 0 0 0 8.545 9.056c2.958 3.076 5.35 5.527 7.177 7.348l.342.342c.224.23.342.4.342.512 0 .118.112.289.341.513.225.46.566.801 1.026 1.025.454 0 1.25.289 2.392.855 1.137.571 1.709.972 1.709 1.196.454 0 .854.972 1.196 2.905.342 1.938.737 3.135 1.196 3.588.225.46 1.079 1.597 2.564 3.418a632.032 632.032 0 0 1 4.785 5.98c1.708 2.169 3.3 4.16 4.784 5.982 1.48 1.826 2.446 2.963 2.905 3.417 0 .46.513 1.367 1.538 2.734a105.19 105.19 0 0 1 3.247 4.614 83.646 83.646 0 0 0 3.418 4.785c1.137 1.484 1.933 2.45 2.392 2.905.684.683 2.505 2.45 5.469 5.297a753.42 753.42 0 0 1 9.399 9.228 751.3 751.3 0 0 1 9.227 9.398c2.847 2.964 4.614 4.902 5.298 5.81.683.683 1.82 2.221 3.418 4.614 1.591 2.392 3.359 5.073 5.297 8.031 1.933 2.964 3.7 5.64 5.298 8.031 1.591 2.393 2.734 3.93 3.417 4.614.454.684 1.48 1.88 3.076 3.589 1.592 1.708 3.3 3.535 5.127 5.468a243.591 243.591 0 0 0 5.298 5.468c1.708 1.709 2.905 2.68 3.588 2.905.454.46 1.42 1.538 2.905 3.247a311.773 311.773 0 0 1 4.614 5.468c1.591 1.938 3.13 3.76 4.614 5.468 1.48 1.709 2.446 2.68 2.905 2.905.225.23.855.742 1.88 1.538 1.025.8 2.163 1.655 3.418 2.563 1.25.913 2.333 1.826 3.247 2.734.907.913 1.479 1.485 1.708 1.709 2.051 1.597 3.76 3.305 5.127 5.126 1.367 1.827 3.3 2.964 5.81 3.418.908-2.958 2.959-5.81 6.152-8.544v-23.581c0-.454-.117-1.48-.342-3.076-.23-1.592-.459-3.3-.683-5.127-.23-1.82-.46-3.588-.684-5.297-.23-1.709-.342-2.905-.342-3.588v-40.328c0-.454-.117-1.592-.341-3.418-.23-1.82-.513-3.7-.855-5.639-.342-1.933-.63-3.7-.854-5.297-.23-1.592-.342-2.505-.342-2.734v-3.418c0-4.101.395-8.031 1.196-11.79.796-3.76 1.196-7.46 1.196-11.108 0-4.555-.17-9.11-.512-13.67a102.118 102.118 0 0 0-1.88-13.329c-.46-2.275-2.05-4.838-4.785-7.69-2.734-2.846-4.56-4.496-5.468-4.955-2.28-1.591-6.099-2.846-11.45-3.76a231.773 231.773 0 0 1-16.405-3.417c-5.586-1.367-10.483-3.188-14.696-5.468-4.219-2.275-6.323-5.58-6.323-9.911 0-2.505.855-4.614 2.563-6.323 1.71-1.709 3.701-2.787 5.982-3.247.907-.224 2.274-.512 4.1-.854a79.581 79.581 0 0 1 5.811-.854c2.05-.225 3.93-.396 5.64-.513 1.708-.112 2.787-.17 3.246-.17.684 0 1.821.229 3.418.683 1.591.459 2.846 1.025 3.76 1.708h55.025l4.101-2.392h48.532c.684 0 1.538.913 2.563 2.734 1.026 1.826 1.763 2.964 2.222 3.418v6.493c-1.143 2.05-2.852 3.818-5.127 5.298a42.93 42.93 0 0 1-7.177 3.759 65.437 65.437 0 0 1-7.519 2.563c-2.51.684-4.56 1.255-6.152 1.709h-10.253c-.46 0-1.367.513-2.734 1.538s-2.51 1.767-3.418 2.221c-.684.684-2.222 1.88-4.614 3.589s-3.818 2.793-4.272 3.246c-2.51 1.827-4.048 3.819-4.614 5.981-.572 2.168-1.084 5.185-1.538 9.057 0 1.597-.118 4.502-.342 8.715a799.93 799.93 0 0 1-.854 13.5c-.342 4.784-.63 9.227-.855 13.328-.23 4.101-.342 6.953-.342 8.544 0 .684-.117 1.938-.341 3.76-.23 1.826-.513 3.876-.855 6.151-.341 2.28-.63 4.33-.854 6.152-.23 1.826-.342 3.076-.342 3.76v59.466c0 .683-.117 1.938-.342 3.759-.23 1.826-.4 3.818-.512 5.98a100.917 100.917 0 0 1-.513 6.152c-.23 1.939-.342 3.135-.342 3.589v48.872c.454.459.855 1.142 1.196 2.05.342.913.513 1.597.513 2.05 0 .46-.288 1.539-.854 3.247-.572 1.71-.855 2.681-.855 2.905v7.177c0 4.785.283 9.516.855 14.183.566 4.673.854 9.628.854 14.867v12.645c-.46 3.418-2.05 6.494-4.785 9.228-2.734 2.734-5.927 4.1-9.57 4.1-5.244 0-9.97-1.708-14.183-5.126a1783.91 1783.91 0 0 1-12.133-9.91 16.132 16.132 0 0 0-2.393-3.076 24.598 24.598 0 0 1-1.88-2.905 39.425 39.425 0 0 0-1.537-2.564 575.116 575.116 0 0 0-22.728-29.22 1122.807 1122.807 0 0 0-24.095-28.024 5502.015 5502.015 0 0 0-24.779-27.683 694.298 694.298 0 0 1-24.095-28.195c-.684-.454-1.538-1.138-2.563-2.05-1.026-.909-1.768-1.592-2.222-2.051-5.468-4.326-9.97-8.998-13.5-14.013-3.535-5.009-7.578-10.477-12.133-16.404-.23 0-.972-.566-2.221-1.709a581.78 581.78 0 0 1-4.102-3.76 131.58 131.58 0 0 1-4.1-3.93c-1.256-1.25-1.998-2.103-2.222-2.563 0-.454-.684-1.933-2.051-4.443-1.367-2.504-2.28-3.871-2.734-4.1 0-.684-.684-1.763-2.05-3.247a169.631 169.631 0 0 0-4.615-4.785 169.698 169.698 0 0 0-4.785-4.614c-1.484-1.367-2.45-2.163-2.905-2.392-.23-.225-.571-1.026-1.025-2.393a8.76 8.76 0 0 0-1.025-2.05c-.684-.684-2.11-2.05-4.272-4.101-2.169-2.05-3.707-3.642-4.615-4.785-.23 0-.57.342-1.025 1.025-.46.684-.683 1.143-.683 1.367-.46.914-1.196 2.734-2.222 5.469-1.025 2.734-1.768 4.56-2.221 5.468v40.67c0 6.38.112 12.473.341 18.283.225 5.81.908 12.363 2.05 19.652.225 4.1.855 8.373 1.88 12.816 1.026 4.443 1.65 8.832 1.88 13.157v29.734c0 .913.113 2.563.342 4.955.224 2.392.454 4.956.684 7.69.224 2.734.454 5.356.683 7.86.225 2.51.454 4.331.684 5.468.454 4.56 1.42 7.978 2.905 10.253 1.48 2.28 4.155 5.015 8.032 8.203 1.591 1.826 3.871 2.734 6.835 2.734 1.138 0 2.392-.112 3.76-.342 1.367-.224 2.616-.342 3.76-.342 2.05.46 4.271 1.196 6.664 2.222 2.392 1.025 4.496 2.392 6.323 4.1a27.159 27.159 0 0 1 4.613 5.64c1.25 2.05 1.88 4.218 1.88 6.493 0 3.877-1.313 6.782-3.93 8.715-2.622 1.939-5.87 2.905-9.74 2.905h-3.418c-.46 0-1.538-.117-3.247-.342a75.792 75.792 0 0 0-5.469-.512 62.7 62.7 0 0 1-5.297-.513c-1.597-.224-2.51-.342-2.734-.342-.914 0-2.852.289-5.81.855-2.964.566-4.673.854-5.127.854h-23.582c-1.143 0-3.76.224-7.861.684a928.16 928.16 0 0 1-13.33 1.367 797.02 797.02 0 0 0-13.329 1.367c-4.101.454-6.723.795-7.86 1.025h-2.735c-1.826 0-3.93-.46-6.322-1.367a32.797 32.797 0 0 1-6.836-3.589c-2.168-1.479-3.989-3.188-5.468-5.126-1.485-1.933-2.222-3.93-2.222-5.98zm433.71-95.693c0-20.73.625-41.064 1.88-61.004 1.25-19.934 1.88-40.27 1.88-61.004v-15.38c0-1.367-.059-3.812-.171-7.347-.118-3.53-.289-7.29-.513-11.279-.23-3.983-.4-7.69-.512-11.107-.118-3.417-.289-5.81-.513-7.177 0-1.591-.572-2.846-1.709-3.76-1.143-.907-2.451-1.65-3.93-2.22a21.868 21.868 0 0 0-4.443-1.197c-1.485-.224-2.452-.454-2.905-.683-1.827-.908-4.16-1.65-7.007-2.222a68.476 68.476 0 0 1-8.373-2.221c-2.735-.908-5.074-2.104-7.007-3.589-1.938-1.479-2.905-3.812-2.905-7.006 0-1.137.054-2.05.171-2.734.112-.683.737-1.25 1.88-1.709h72.456c.684 0 2.221-.112 4.614-.341a384.19 384.19 0 0 0 8.032-.855c2.958-.341 5.75-.624 8.373-.854 2.617-.224 4.272-.342 4.956-.342.454 0 1.709.118 3.76.342 2.05.23 4.271.513 6.664.854 2.392.342 4.614.63 6.665.855 2.05.23 3.417.341 4.1.341h.684c1.367 0 2.676-.395 3.93-1.196 1.25-.795 2.564-1.196 3.931-1.196h1.71c2.503 1.597 4.554 3.193 6.151 4.785 1.591 1.596 2.392 3.647 2.392 6.151 0 3.418-1.538 5.928-4.614 7.52-3.076 1.596-6.61 2.904-10.595 3.93a1626.005 1626.005 0 0 1-11.45 2.904c-3.646.914-6.039 2.393-7.176 4.443-2.28 3.877-3.819 7.407-4.614 10.595-.801 3.193-1.314 6.953-1.538 11.278-.46.913-.914 3.305-1.367 7.177-.46 3.877-.972 8.09-1.538 12.645a314.78 314.78 0 0 0-1.367 12.987c-.342 4.101-.513 6.61-.513 7.519v43.062c0 .683-.23 2.45-.684 5.297-.459 2.851-.972 5.927-1.538 9.227a169.323 169.323 0 0 0-1.367 9.399c-.341 2.963-.512 4.784-.512 5.468 0 2.05-.06 3.76-.171 5.126a47.891 47.891 0 0 0-.171 4.101v3.418c0 15.497 3.13 29.167 9.399 41.011 6.264 11.85 15.32 23.016 27.17 33.493 4.556 3.877 10.425 6.269 17.602 7.177 7.177.913 13.842 1.367 19.994 1.367h21.532c1.137-.454 3.017-1.079 5.639-1.88 2.617-.795 4.384-1.538 5.297-2.221.454-.454 1.538-1.42 3.247-2.905a817.95 817.95 0 0 0 5.469-4.785c1.933-1.709 3.7-3.3 5.297-4.784 1.591-1.48 2.505-2.446 2.734-2.905.454 0 1.538-.171 3.247-.513 1.709-.342 2.676-.737 2.905-1.196 2.505-.908 4.785-2.505 6.836-4.785 2.05-2.275 3.813-4.897 5.297-7.86a55.649 55.649 0 0 0 3.589-9.057c.908-3.076 1.479-5.751 1.709-8.031v-13.33c0-.223.112-.854.341-1.879.225-1.025.513-2.221.855-3.588a53.19 53.19 0 0 0 .854-4.101c.224-1.367.342-2.393.342-3.076.224-.454.625-1.762 1.196-3.93.566-2.163.855-3.701.855-4.614v-25.29c.224-.908.566-3.247 1.025-7.007.454-3.759.908-7.801 1.367-12.132.454-4.326.855-8.315 1.196-11.962.342-3.642.513-5.922.513-6.835v-15.037c0-.908-.4-2.847-1.196-5.81-.801-2.959-1.196-4.668-1.196-5.127v-46.821c-.914-1.591-2.34-3.3-4.273-5.126-1.938-1.821-3.93-3.076-5.98-3.76a101.982 101.982 0 0 0-10.767-1.538 89.338 89.338 0 0 1-11.107-1.708 42.09 42.09 0 0 1-10.424-3.76c-3.306-1.709-6.099-4.272-8.374-7.69v-1.708c0-2.505.967-4.956 2.905-7.348 1.933-2.392 4.155-3.589 6.665-3.589h1.367c.908 0 3.13.118 6.665.342 3.53.23 7.348.513 11.449.855 4.101.341 7.914.63 11.45.854 3.53.23 5.75.342 6.664.342h72.114c.684 0 1.763.17 3.247.512 1.48.342 3.017.743 4.614 1.197 1.592.459 3.076.913 4.443 1.367 1.367.459 2.275.683 2.734.683.908.46 1.88 1.196 2.905 2.222 1.026 1.025 1.538 1.88 1.538 2.563.225 1.826-.57 3.417-2.392 4.784-1.826 1.367-3.989 2.622-6.494 3.76-2.51 1.143-4.955 2.05-7.348 2.734-2.392.683-4.048 1.143-4.955 1.367-2.051.46-4.844 1.255-8.374 2.392a116.209 116.209 0 0 0-10.424 3.93c-3.418 1.485-6.44 3.306-9.057 5.469-2.622 2.168-4.048 4.501-4.272 7.006-.23 1.142-.46 2.905-.684 5.297-.23 2.392-.459 4.956-.683 7.69-.23 2.734-.46 5.356-.684 7.86-.23 2.51-.342 4.219-.342 5.127v80.313c-.913 2.05-1.426 3.99-1.538 5.81a90.802 90.802 0 0 0-.17 5.81v8.886c0 1.143-.06 2.392-.172 3.76a44.09 44.09 0 0 0-.17 3.759c0 .683-.289 2.109-.855 4.272-.571 2.168-.854 3.476-.854 3.93a829.436 829.436 0 0 0-3.589 22.727 207.752 207.752 0 0 1-4.101 21.018 131.486 131.486 0 0 1-6.836 20.164c-2.851 6.611-6.664 13.217-11.449 19.822-.913 1.367-2.05 2.905-3.418 4.614a503.152 503.152 0 0 1-4.443 5.468 74.209 74.209 0 0 1-4.785 5.297c-1.596 1.597-3.076 2.852-4.443 3.76-.459 0-1.484.342-3.076 1.025a121.78 121.78 0 0 1-5.126 2.05 147.25 147.25 0 0 1-5.298 1.88c-1.709.572-2.793.972-3.247 1.197-.913.459-2.45 1.196-4.614 2.22-2.168 1.026-3.476 1.768-3.93 2.222-3.194 1.827-6.782 3.135-10.766 3.93-3.99.802-7.69 2.452-11.108 4.956h-63.228c-.683 0-1.767-.112-3.247-.342a697.153 697.153 0 0 0-4.613-.683 167.162 167.162 0 0 1-4.444-.684c-1.367-.224-2.28-.454-2.734-.683-.23-.224-.8-.625-1.709-1.196a20.384 20.384 0 0 1-2.734-2.05 35.195 35.195 0 0 0-2.563-2.051c-.801-.567-1.314-.967-1.538-1.197-.23 0-.854-.341-1.88-1.025-1.025-.683-1.768-1.025-2.221-1.025-.23 0-1.197-.283-2.905-.855-1.71-.566-2.793-1.078-3.247-1.538-.46-.453-1.597-1.537-3.418-3.246-1.826-1.709-2.964-2.676-3.418-2.905-.459-.225-1.196-.513-2.221-.855a55.82 55.82 0 0 1-3.247-1.196c-1.143-.454-2.734-1.137-4.785-2.05-.46-.225-.913-.566-1.367-1.026-.684-.224-1.025-.683-1.025-1.367-9.57-11.62-16.918-24.035-22.045-37.252-5.126-13.21-7.69-27.34-7.69-42.378zm580.332 100.478c0-2.734 1.48-4.838 4.443-6.323l7.178-3.588c4.101-1.138 7.519-2.163 10.253-3.076 2.734-.908 5.81-1.367 9.228-1.367 2.275 0 5.126.342 8.544 1.025 2.05-.908 3.76-2.563 5.127-4.955a35.61 35.61 0 0 0 3.247-7.69 72.08 72.08 0 0 0 1.88-8.202c.453-2.734.683-5.127.683-7.177 1.137-13.895 1.709-27.565 1.709-41.012 0-13.44.224-26.999.683-40.669 0-.684.112-2.221.342-4.614.224-2.392.395-4.897.513-7.519.112-2.616.283-5.067.512-7.347.225-2.275.342-3.642.342-4.101 0-.684-.117-1.88-.342-3.589-.23-1.709-.4-3.53-.512-5.468a67.9 67.9 0 0 0-.513-5.297c-.23-1.592-.342-2.505-.342-2.735v-24.265c0-1.367-.46-3.641-1.367-6.835-.913-3.188-2.51-5.126-4.785-5.81-1.826-.683-4.048 0-6.664 2.05-2.622 2.051-5.127 4.503-7.52 7.349-2.392 2.851-4.501 5.698-6.322 8.544-1.826 2.851-3.076 4.731-3.76 5.639-.459.913-1.596 2.905-3.417 5.98-1.827 3.076-3.818 6.44-5.981 10.083a477.847 477.847 0 0 1-6.152 10.081c-1.939 3.076-3.247 5.074-3.93 5.981-.46.684-1.256 2.168-2.393 4.443-1.143 2.28-1.709 3.877-1.709 4.785-.23.23-.972 1.255-2.222 3.076a3323.31 3323.31 0 0 0-4.1 5.98 169.312 169.312 0 0 1-4.273 5.981c-1.367 1.827-2.28 2.964-2.734 3.418 0 .913-.23 3.076-.684 6.493-.459 3.418-.913 5.586-1.367 6.494-1.597 5.468-4.272 10.594-8.031 15.379-3.76 4.785-6.895 9.799-9.4 15.037 0 .46-.288 1.368-.854 2.735a325.89 325.89 0 0 0-1.88 4.613 99.99 99.99 0 0 1-2.05 4.785 137.544 137.544 0 0 1-1.367 2.905c-.23.684-.743 1.88-1.538 3.588-.801 1.71-1.656 3.536-2.563 5.469a254.414 254.414 0 0 1-2.564 5.297 763.277 763.277 0 0 0-1.538 3.076c-.23.23-.63 1.196-1.196 2.905-.571 1.709-1.084 2.793-1.538 3.246-.23 1.827-.913 4.502-2.05 8.032-1.143 3.535-2.564 7.177-4.273 10.936-1.709 3.76-3.647 7.006-5.81 9.74-2.168 2.734-4.502 4.101-7.006 4.101-1.367 0-2.964-.966-4.785-2.905-1.827-1.933-3.076-3.47-3.76-4.613-.459-.454-.8-.908-1.025-1.367-.46-.908-.684-1.592-.684-2.05a430.102 430.102 0 0 1-10.765-27.17 295.45 295.45 0 0 0-11.108-26.83c-.23-.453-1.025-1.537-2.392-3.246s-2.051-2.787-2.051-3.247c-.23-.453-.684-1.308-1.367-2.563a120.466 120.466 0 0 1-2.05-3.93c-.684-1.367-1.315-2.617-1.88-3.76-.572-1.137-.972-1.82-1.197-2.05a621.832 621.832 0 0 1-9.74-25.632c-3.076-8.656-7.007-16.629-11.792-23.923a933.302 933.302 0 0 0-11.107-17.6 314.263 314.263 0 0 1-10.424-17.26c-.23-.224-.743-1.137-1.538-2.734a123.233 123.233 0 0 1-2.564-5.468 305.893 305.893 0 0 1-2.734-6.323c-.913-2.162-1.484-3.93-1.709-5.297-.23-.224-.571-1.196-1.025-2.905-.46-1.709-.801-2.787-1.025-3.247 0-.453-.289-1.137-.855-2.05-.571-.908-1.084-1.591-1.538-2.05-.683-1.138-1.484-2.446-2.392-3.931a153.572 153.572 0 0 0-2.734-4.272 58.061 58.061 0 0 0-3.076-4.785h-6.836c-.459 1.597-.8 3.194-1.025 4.785a17.521 17.521 0 0 0-.855 4.272c-.117 1.485-.288 2.793-.512 3.93a628.66 628.66 0 0 0-3.589 48.701 1398.76 1398.76 0 0 0-.854 49.043v76.212c.683 1.143 1.48 2.451 2.392 3.93a27.69 27.69 0 0 0 3.247 4.273 28.525 28.525 0 0 0 3.93 3.588c1.367 1.025 2.735 1.538 4.102 1.538h23.582c2.959 0 5.81 1.255 8.544 3.76 2.735 2.51 4.102 5.243 4.102 8.202v2.392c-.46.913-1.485 1.997-3.076 3.247-1.597 1.255-2.622 1.88-3.076 1.88h-43.747c-2.051 1.137-3.589 1.82-4.614 2.05-1.026.224-2.793.342-5.298.342h-5.126c-1.827-.23-5.015-.513-9.57-.855-4.56-.341-9.458-.63-14.696-.854-5.244-.23-10.2-.4-14.867-.513-4.673-.117-7.808-.17-9.4-.17-1.142-.454-2.792-1.48-4.955-3.076-2.168-1.592-3.477-2.617-3.93-3.076l-2.05-2.393c.223-.683.795-1.538 1.708-2.563.908-1.025 1.992-2.104 3.247-3.246a418.972 418.972 0 0 1 3.417-3.076c1.026-.908 1.88-1.592 2.564-2.05.224-.455.737-.967 1.538-1.539.795-.566 1.42-.854 1.88-.854.454-.225 1.59-.395 3.417-.513 1.821-.112 3.701-.283 5.64-.513a117.55 117.55 0 0 1 5.468-.512c1.709-.112 2.787-.171 3.247-.171 1.367-.684 2.905-1.42 4.614-2.221a55.56 55.56 0 0 0 5.126-2.735c1.71-1.025 3.188-2.221 4.443-3.588 1.25-1.367 1.992-2.958 2.222-4.785.683-1.591 1.367-3.93 2.05-7.006a516.75 516.75 0 0 1 2.222-9.57c.796-3.3 1.48-6.263 2.05-8.885.567-2.616.967-4.272 1.197-4.955 0-.908-.059-3.3-.171-7.177-.117-3.872-.17-7.52-.17-10.937v-4.614c0-1.25.111-1.991.34-2.22 0-.909.172-2.676.514-5.298.341-2.617.683-5.297 1.025-8.032.342-2.734.737-5.297 1.196-7.69.454-2.392.684-4.042.684-4.955v-79.972c1.137-2.275 1.933-4.1 2.392-5.468.454-1.367.684-2.734.684-4.101 0-1.137-.118-2.392-.342-3.76-.23-1.366-.342-2.958-.342-4.784v-3.418c0-.683.395-2.445 1.196-5.297.796-2.846 1.309-4.726 1.538-5.639v-21.873c0-.453.283-1.762.855-3.93.566-2.163 1.078-3.7 1.538-4.614v-.683c0-5.239-1.367-9.623-4.101-13.158-2.735-3.53-6.099-6.606-10.083-9.227-3.99-2.617-8.32-4.897-12.987-6.836a378.301 378.301 0 0 1-12.988-5.639c-3.989-1.82-7.348-3.812-10.082-5.98-2.734-2.163-4.101-4.839-4.101-8.032 0-2.504 1.308-4.101 3.93-4.785 2.617-.683 4.838-1.025 6.665-1.025h69.038c5.922 0 11.962 1.025 18.114 3.076 6.152 2.05 10.82 6.04 14.013 11.962.224.459.624 1.596 1.196 3.417.566 1.827 1.25 3.818 2.05 5.981.796 2.168 1.48 4.219 2.051 6.152.566 1.938.967 3.246 1.196 3.93 2.505 7.294 6.152 14.354 10.937 21.19a203.81 203.81 0 0 1 12.988 21.188 176.201 176.201 0 0 1 11.107 29.05 312.673 312.673 0 0 0 10.083 29.733c.224.23.795 1.143 1.709 2.734.907 1.597 1.88 3.364 2.904 5.298 1.026 1.938 1.992 3.759 2.906 5.468.907 1.708 1.479 2.905 1.709 3.588 1.82 4.33 3.417 9.228 4.784 14.696s3.188 10.37 5.469 14.696c0 .913.966 2.563 2.905 4.955 1.933 2.392 3.13 3.818 3.589 4.272.907 1.143 2.05 3.023 3.417 5.64a191.54 191.54 0 0 0 4.443 8.03c1.592 2.735 3.247 5.127 4.956 7.178 1.709 2.05 3.359 2.963 4.956 2.734.454-.684.908-1.25 1.367-1.71.454-.453.854-.795 1.196-1.024.342-.225.625-.454.854-.684 3.189-4.555 5.581-9.452 7.178-14.696 1.591-5.238 3.642-10.135 6.152-14.695a173.674 173.674 0 0 0 6.664-10.082c2.163-3.53 4.155-7.23 5.981-11.108 1.367-2.504 2.446-5.692 3.247-9.569.796-3.871 1.992-7.06 3.589-9.57.224-.223.854-.966 1.88-2.22a550.761 550.761 0 0 1 3.246-3.93 116.394 116.394 0 0 1 3.418-3.931c1.138-1.25 1.933-2.104 2.393-2.563 0-.454.17-1.42.512-2.905.342-1.48.737-2.788 1.196-3.93 2.05-7.29 4.727-14.237 8.032-20.848a321.17 321.17 0 0 1 10.595-19.48c3.76-6.376 7.573-12.758 11.45-19.139 3.871-6.376 7.401-13.099 10.595-20.164 1.82-3.642 3.017-7.118 3.588-10.423.566-3.3 1.25-6.376 2.05-9.228.796-2.846 1.993-5.692 3.59-8.544 1.59-2.846 4.442-5.751 8.544-8.715a301.486 301.486 0 0 1 23.24-1.88 558.62 558.62 0 0 1 23.925-.512c3.871 0 7.802.117 11.79.342 3.985.23 7.915.341 11.792.341l4.443-2.392 15.038 4.101a8.363 8.363 0 0 0 1.025 2.05c.225.46.454.973.684 1.539.224.571.454 1.084.683 1.538v.683c0 4.56-1.255 8.202-3.76 10.936-2.51 2.734-5.585 5.073-9.227 7.007a116.368 116.368 0 0 1-11.45 5.297c-3.989 1.596-7.348 3.417-10.082 5.468-.459.23-.742.46-.854.683-.118.23-.289.46-.513.684-.23.46-.342.801-.342 1.025-.23.23-.459.855-.683 1.88a81.8 81.8 0 0 0-.684 3.418c-.23 1.254-.459 2.45-.683 3.588-.23 1.143-.342 1.826-.342 2.05-.23.684-.571 1.827-1.025 3.418-.46 1.597-.914 3.306-1.367 5.127a56.188 56.188 0 0 1-1.539 5.126 162.028 162.028 0 0 0-1.196 3.418c.454 6.38.684 12.42.684 18.113v16.404c0 8.203-.171 16.405-.513 24.607-.342 8.202-.972 17.206-1.88 27 0 .458-.117 1.537-.341 3.246a72.79 72.79 0 0 0-.513 5.468 78.592 78.592 0 0 1-.513 5.468c-.23 1.71-.341 2.905-.341 3.589v1.709c0 .459.283 1.826.854 4.1.566 2.28.855 3.648.855 4.102v1.709a773.43 773.43 0 0 1-.855 36.226 773.577 773.577 0 0 0-.854 36.569v31.1c.683 3.647 2.616 5.927 5.81 6.835 1.367.46 3.53 1.196 6.493 2.222a823.523 823.523 0 0 0 9.57 3.246c3.418 1.143 6.665 2.222 9.74 3.247 3.077 1.025 5.298 1.768 6.665 2.221 1.138.23 1.933.743 2.393 1.538.454.801.683 1.426.683 1.88 0 2.28-.742 4.048-2.221 5.297-1.485 1.25-3.247 2.163-5.298 2.734-2.05.566-4.16.908-6.323 1.026-2.168.112-3.93.17-5.297.17-5.928 0-12.08-.288-18.456-.854a214.531 214.531 0 0 0-19.14-.854h-4.784c-.46 0-2.168.283-5.127.854-2.964.566-4.902.855-5.81.855-.23 0-1.143-.118-2.734-.342-1.597-.23-3.364-.4-5.297-.513a78.653 78.653 0 0 1-5.469-.512c-1.709-.23-2.793-.342-3.247-.342h-32.127c-.683 0-1.938-.118-3.759-.342-1.826-.23-3.76-.513-5.81-.854-2.05-.342-4.048-.63-5.981-.855-1.939-.23-3.247-.342-3.93-.342a14.876 14.876 0 0 1-5.127-2.392c-1.597-1.137-2.393-2.392-2.393-3.76zM606 92l84 1-1 15-491-4-150-2c-10.84-.734-33.073 2.564-48-2l6-4h138l294-3 168-1zm1353 1l491 4 150 2c10.84.734 33.073-2.565 48 2l-6 4-684 3 1-15zm-908.89 121.315c-38.35 21.509-64.028 18.563-64.028 18.563s-43.658 2.223-84.454-53.438c-38.183-52.104-47.66-53.91-52.828-58.662-11.589-10.671-28.763-11.894-29.541-11.755l-.611 70.667s.472 5.058 1.556 7.281c1.528 3.168 4.057 8.03 9.754 9.615 3.557.973 4.53.778 6.17.834 1.5.055 2.667 0 2.667 0v3.362h-61.36v-3.251c8.114.25 13.84-2.779 16.702-4.864 4.64-3.362 5.335-10.198 5.335-10.198V19.182c-.945-6.642-2.334-6.808-5.113-8.976-3.474-2.723-16.924-4.808-16.924-4.808V2.453s60.388-1.167 73.838 0c12.533 1.084 29.263 3.974 40.712 14.95 12.867 12.339 17.674 23.26 17.008 38.71-.806 18.73-15.202 34.348-24.928 40.21-16.313 9.838-37.266 12.84-37.266 12.84 22.26 5.085 42.352 22.48 49.744 31.567 13.839 17.007 34.153 42.795 52.411 57.329 14.757 11.754 46.743 23.51 67.002 23.037 20.259-.473 34.154-6.808 34.154-6.78zM849.717 100.353c12.06-2.807 29.068-15.311 33.403-27.844 4.335-12.533 2.64-22.426 0-32.791-2.64-10.365-13.061-20.73-20.731-25.038-8.81-4.974-23.038-4.502-37.1-3.723 0 0-5.864 1.389-5.864 7.113v82.255s18.23 2.78 30.292.028zm238.42 100.268H960.444v-2.418c6.336-.36 11.977-2.334 16.451-6.169 4.42-3.807 4.864-11.504 4.864-11.504l-.779-162.426c-.36-5.002-2.973-9.643-5.28-11.366-1.528-1.14-2.556-1.806-5.502-2.028l-9.726-.445V1.486h115.884l-.75 31.624-2.14-.028c-.14-2.279-.417-9.004-4.141-15.423-3.724-6.419-9.115-5.974-9.115-5.974l-61.916.528.139 9.503c.027 7.392.167 30.624.306 57.023h52.495c2.278 0 4.363-1.028 5.78-2.807 1.973-2.528 4.113-6.613 3.974-13.366h1.278v42.49h-1.39s.223-5.392-1.528-10.2c-1.417-3.973-3.946-6.363-9.615-6.53l-50.883.25c.25 42.073.5 90.064.61 91.092l-.25 13.7h51.051c1.417 0 7.67-.333 9.06-.639 4.307-.862 10.92-2.39 16.534-6.28 7.42-5.141 9.477-12.533 10.255-23.287l2.029-.084zm233.09-3.672v3.696l-66.919.167v-3.418s10.06.334 16.34-3.585c10.033-6.252-2.917-29.317-5.113-35.32-10.81-29.678-12.644-34.958-39.906-48.908-14.84-7.558-30.958-9.198-43.963-8.78l-33.877 75.168c-1.111 2.584-3 7.559-2.334 10.282.722 2.89 2.168 4.863 5.03 6.67 2.696 1.666 7.003 3.695 17.424 4.39l.306 3.5h-63.527v-4.278s13.394.36 20.258-4.891c6.864-5.253 21.76-36.293 24.039-41.656 2.112-4.974 20.898-47.657 20.898-47.657l.277-.584c-5.39.694-9.587 1.584-11.921 2.167-8.42 2.112-22.983 6.142-28.485 14.895 0 0 .334-19.785 24.01-31.179 7.393-3.557 16.09-4.224 24.622-3.418l28.04-59.802s-3.696-6.335-6.975-11.337c-3.918-5.975-8.309-7.92-13.59-9.199l.084-2.612h32.042c1.306 0 2.723.723 3.029 1.695l76.311 180.489c1.223 2.89 3.196 5.419 5.725 7.253 4.058 2.89 9.393 6.002 18.174 6.252zm-74.255-79.56l-35.488-84.7-21.51 49.687-1.528 3.418c14.812 3.168 27.262 9.254 28.902 9.837 2.918 1.056 20.342 11.672 29.624 21.759zm151.328 85.43c2.53 1.417 18.786 7.197 30.597 12.449 10.838 4.835 58.08 16.506 79.118 17.951 17.813 1.223 45.075-.166 55.747-4.057 12.171-4.418 22.565-11.31 22.565-11.31-2.306 4.252-17.646 20.592-39.49 26.844-23.787 6.78-51.577 5.697-63.416 3.557-18.758-3.39-43.408-11.254-75.227-29.29-34.293-19.424-61.472-18.118-61.472-18.118v-4.696c10.477-1 15.73-4.585 18.202-7.225 1.501-1.584 2.28-3.752 2.335-5.947v-.195c-.028-24.231.692-157.896.525-159.785-.39-4.057-1-8.42-3.39-12.005-4.503-6.78-16.758-7.503-16.758-7.503V.154h61.694V3.85c-7.698.417-10.477.834-15.869 4.974-5.39 4.169-5.974 11.977-5.974 11.977l.447 167.456c.445 5.446.029 8.753 10.366 14.562zm152.804-187.7c11.727 24.176 72.06 146.669 72.06 146.669l70.28-157.869s.334-2.75 3.863-2.695c5.836.083 21.148.111 21.148.111l.028 3.474s-6.17-1.612-11.005 3.751l-1.056 2.057 19.759 168.511c.083.695.611 2.78.889 3.446 1.306 3.39 5.558 13.616 13.783 13.616h6.976l-.084 4.197-59.053.083v-4.196s11.894-.611 14.228-5.308c2.335-4.724 2.863-4.89 2.585-13.255-.25-8.364-16.924-137.944-16.924-137.944l-68.002 158.313-82.898-166.094c-4.502 34.986-19.703 142.474-19.814 150.116-.222 16.867 13.09 16.062 13.09 16.062v2.917l-51.857-.138v-2.918c6.864-.028 13.145-2.585 18.258-7.03 7.309-6.365 9.893-16.174 9.893-16.174l20.065-152.811a3.163 3.163 0 0 0-.417-2.001c-2.056-3.418-8.115-14.06-20.87-12.672V1.113c4.613-.028 33.098-.417 35.098-.084.028.056 2.974.667 5.864 5.947 1.417 2.585 2.807 5.502 4.113 8.142zm313.482 30.55s-1.779.25-4.613 0c0 0-.64-13.923-3.891-21.12-2.473-5.447-6.836-13.7-28.568-13.673-21.732.028-29.402 18.341-30.152 21.148-.779 2.807-5.364 15.59 16.34 32.957 21.732 17.368 40.63 23.649 56.748 43.462 16.09 19.813 15.59 38.654 11.754 51.938-3.834 13.283-16.98 26.816-25.76 31.818-9.45 5.363-23.317 10.087-39.018 8.67-15.09-1.39-27.568-6.114-33.876-10.81-5.863-4.39-16.229-10.81-18.035-26.9-1.78-16.09 10.198-29.178 15.228-33.68 0 0 11.672-9.976 23.76-7.141 0 0-13.283 6.141-18.647 17.618-5.363 11.504-5.196 29.817 8.421 42.766 8.364 7.948 17.257 12.561 32.736 11.339 16.174-1.279 25.65-9.226 31.292-14.812 5.252-5.224 8.865-16.284 8.282-29.317-.584-13.172-10.811-30.846-20.537-37.487-9.7-6.642-43.103-29.012-48.66-33.764-4.002-3.418-18.731-10.893-18.981-33.43-.25-22.481 19.62-36.042 28.485-38.793 8.225-2.556 18.98-4.53 39.74-.028 0 0 8.003 1.64 10.393.584 2.807-1.223 3.752-1.445 4.085-5.641l3.612-.056z"/></g></g></svg>