<svg viewBox="0 0 430 426" fill="none" xmlns="http://www.w3.org/2000/svg">
<path d="M202.065 200.007V5.28709C202.065 1.87043 198.701 -0.848378 195.461 0.245488C144.529 17.4228 104.106 100.939 100.873 200.005L202.065 200.007Z" />
<path d="M227.452 225.394V420.114C227.452 423.53 230.817 426.249 234.056 425.155C284.988 407.978 325.411 324.462 328.644 225.395L227.452 225.394Z" />
<path d="M202.065 420.1V225.38H100.872C104.106 324.443 144.528 407.954 195.46 425.14C198.7 426.234 202.064 423.515 202.064 420.099L202.065 420.1Z" />
<path d="M227.452 5.30058V200.021H328.646C325.411 100.958 284.989 17.4472 234.057 0.260577C230.818 -0.833169 227.453 1.88565 227.453 5.30218L227.452 5.30058Z" />
<path d="M75.4925 200.007C77.6435 125.538 98.3471 60.9137 130.148 19.6071C131.763 17.5081 129.55 14.6644 127.133 15.7425C57.0755 47.0345 6.78887 114.529 0.0182 194.369C-0.237013 197.364 2.22647 200.005 5.2318 200.005L75.4925 200.007Z" />
<path d="M354.025 200.007H424.285C427.29 200.007 429.754 197.367 429.499 194.372C422.733 114.528 372.447 47.0385 302.384 15.7452C299.968 14.667 297.754 17.516 299.369 19.6097C331.171 60.9164 351.874 125.542 354.025 200.01L354.025 200.007Z" />
<path d="M75.4918 225.394H5.2318C2.2266 225.394 -0.237003 228.035 0.0181974 231.03C6.7838 310.874 57.0702 378.363 127.133 409.656C129.55 410.734 131.763 407.885 130.148 405.792C98.3458 364.485 77.6432 299.86 75.4925 225.392L75.4918 225.394Z" />
<path d="M354.026 225.394C351.874 299.863 331.171 364.487 299.37 405.794C297.755 407.893 299.968 410.736 302.385 409.658C372.442 378.366 422.729 310.871 429.5 231.031C429.755 228.037 427.292 225.396 424.286 225.396L354.026 225.394Z" />
</svg>
