<?xml version="1.0" encoding="UTF-8"?>
<!-- Generated by Pixelmator Pro 2.4.1 -->
<svg viewBox="0 0 512 512" xmlns="http://www.w3.org/2000/svg" xmlns:xlink="http://www.w3.org/1999/xlink">
    <linearGradient id="linearGradient1" x1="22.1416" y1="80.6084" x2="490.4624" y2="322.7762" gradientUnits="userSpaceOnUse">
        <stop offset="1e-05" stop-color="#ffffff" stop-opacity="1"/>
        <stop offset="1" stop-color="#798cb0" stop-opacity="1"/>
    </linearGradient>
    <path id="Path" fill="url(#linearGradient1)" stroke="none" d="M 496.899994 120.299988 C 425.899994 179.100006 344.799988 166.899994 344.799988 166.899994 C 335.899994 89.200012 256 81.5 256 81.5 C 256 81.5 176.100006 89.299988 167.199997 167 C 167.199997 167 86.199997 179.200012 15.1 120.399994 C 15.1 120.399994 -8.2 173.700012 135.5 218.100006 L 154.899994 247 L 129.399994 292.5 C 111.599998 322.5 125 326.899994 125 326.899994 L 153.899994 354.600006 L 189.399994 284.100006 L 196.100006 222.5 L 243.800003 234.700012 L 234.899994 284.100006 L 256 296.899994 L 277.100006 284.100006 L 268.200012 234.700012 L 315.899994 222.5 L 322.600006 284.100006 L 358.100006 354.600006 L 387 326.899994 C 387 326.899994 400.299988 322.5 382.600006 292.5 L 357 246.799988 L 376.399994 217.899994 C 520.200012 173.600006 496.899994 120.299988 496.899994 120.299988 Z"/>
    <linearGradient id="linearGradient2" x1="159.091" y1="307.3699" x2="366.3576" y2="404.2537" gradientUnits="userSpaceOnUse">
        <stop offset="1e-05" stop-color="#c8d0d9" stop-opacity="1"/>
        <stop offset="1" stop-color="#798cb0" stop-opacity="1"/>
    </linearGradient>
    <path id="path1" fill="url(#linearGradient2)" stroke="none" d="M 298.200012 301.200012 L 298.200012 361.100006 L 272.700012 370 L 272.700012 341.100006 L 256.100006 341.100006 L 239.5 341.100006 L 239.5 370 L 214 361.100006 L 214 301.200012 L 190.699997 301.200012 L 164.100006 361.100006 C 164.100006 361.100006 239.199997 424.799988 242.899994 428 C 246.600006 431.200012 250.5 430.399994 250.5 430.399994 L 256.200012 430.399994 L 261.899994 430.399994 C 261.899994 430.399994 265.799988 431.100006 269.5 428 C 273.200012 424.799988 348.299988 361.100006 348.299988 361.100006 L 321.700012 301.200012 L 298.200012 301.200012 Z"/>
</svg>
