<svg viewBox="0 0 202 294" fill="none" xmlns="http://www.w3.org/2000/svg">
<path d="M99.7203 0.00605774V0.341995C-18.4497 1.424 1.22828 100.692 1.22828 100.692V219.052C13.5333 253.157 59.0333 280.4 84.2713 293.286L84.2674 143.246C65.6464 141.711 41.2714 131.773 41.2714 131.773L35.0605 100.683C61.1505 114.05 95.7635 115.402 101.646 115.523C107.514 115.398 142.048 114.046 168.072 100.683L161.885 131.773C161.885 131.773 137.569 141.707 118.998 143.246V292.036C144.506 278.735 187.939 252.016 199.9 218.79L199.904 100.41C199.896 100.41 219.795 0 99.7239 0L99.7203 0.00605774Z" />
</svg>
