<svg viewBox="0 0 512 512" fill="none" xmlns="http://www.w3.org/2000/svg">
<path d="M255.024 0.0105752V0.597033C48.8031 2.48593 83.1435 175.782 83.1435 175.782V382.407C104.617 441.945 184.02 489.504 228.063 512L228.057 250.07C195.561 247.39 153.023 230.041 153.023 230.041L142.185 175.766C187.715 199.101 248.119 201.461 258.384 201.673C268.625 201.454 328.89 199.094 374.305 175.766L363.508 230.041C363.508 230.041 321.074 247.383 288.666 250.07V509.818C333.18 486.598 408.976 439.953 429.849 381.95L429.856 175.289C429.842 175.289 464.568 0 255.03 0L255.024 0.0105752Z"/>
</svg>
