<svg viewBox="0 0 17 17" fill="none" xmlns="http://www.w3.org/2000/svg">
<path d="M10.9142 4.12129C10.5801 3.92111 10.227 3.76858 9.84523 3.65419C9.79752 3.64466 9.75934 3.6256 9.71162 3.61606C9.31078 3.50166 8.88128 3.44447 8.44224 3.44447C8.05094 3.44447 7.67872 3.49213 7.30649 3.57792C7.2397 3.59698 7.17288 3.60653 7.11561 3.6256C6.75293 3.73045 6.40935 3.87343 6.08484 4.05456C4.57689 4.8839 3.55566 6.49492 3.55566 8.33474C3.55566 10.2031 4.60552 11.8332 6.15166 12.653C6.48571 12.8341 6.84837 12.9772 7.23016 13.0725V12.8627L7.2397 12.0906C6.84839 11.9667 6.48571 11.7856 6.1612 11.5472C5.15908 10.8323 4.51008 9.65978 4.51008 8.34427C4.51008 7.00015 5.18771 5.80858 6.21847 5.10315C6.54296 4.87437 6.91519 4.69325 7.30649 4.57886C7.66917 4.46447 8.05094 4.40727 8.44224 4.40727C8.88128 4.40727 9.30121 4.48353 9.70208 4.61698C10.0934 4.75045 10.4561 4.94111 10.7806 5.17941C11.7445 5.89437 12.3744 7.04782 12.3744 8.34427C12.3744 9.65978 11.7254 10.8323 10.7329 11.5472C10.4083 11.7856 10.0361 11.9667 9.64481 12.1001L9.63527 12.939V13.0915C10.017 12.9962 10.3797 12.8532 10.7233 12.6721C12.2695 11.8523 13.3288 10.2222 13.3288 8.3538C13.3288 6.5426 12.3553 4.9697 10.9142 4.12129Z" fill="url(#paint0_linear_690_3697)"/>
<path d="M10.9142 4.12129C10.5801 3.92111 10.227 3.76858 9.84523 3.65419C9.79752 3.64466 9.75934 3.6256 9.71162 3.61606C9.31078 3.50166 8.88128 3.44447 8.44224 3.44447C8.05094 3.44447 7.67872 3.49213 7.30649 3.57792C7.2397 3.59698 7.17288 3.60653 7.11561 3.6256C6.75293 3.73045 6.40935 3.87343 6.08484 4.05456C4.57689 4.8839 3.55566 6.49492 3.55566 8.33474C3.55566 10.2031 4.60552 11.8332 6.15166 12.653C6.48571 12.8341 6.84837 12.9772 7.23016 13.0725V12.8627L7.2397 12.0906C6.84839 11.9667 6.48571 11.7856 6.1612 11.5472C5.15908 10.8323 4.51008 9.65978 4.51008 8.34427C4.51008 7.00015 5.18771 5.80858 6.21847 5.10315C6.54296 4.87437 6.91519 4.69325 7.30649 4.57886C7.66917 4.46447 8.05094 4.40727 8.44224 4.40727C8.88128 4.40727 9.30121 4.48353 9.70208 4.61698C10.0934 4.75045 10.4561 4.94111 10.7806 5.17941C11.7445 5.89437 12.3744 7.04782 12.3744 8.34427C12.3744 9.65978 11.7254 10.8323 10.7329 11.5472C10.4083 11.7856 10.0361 11.9667 9.64481 12.1001L9.63527 12.939V13.0915C10.017 12.9962 10.3797 12.8532 10.7233 12.6721C12.2695 11.8523 13.3288 10.2222 13.3288 8.3538C13.3288 6.5426 12.3553 4.9697 10.9142 4.12129Z" fill="white"/>
<path d="M16.0297 12.4624C16.0011 12.3861 15.9534 12.3575 15.8961 12.3575C15.8293 12.3575 15.7625 12.4242 15.6957 12.5672C15.6289 12.7102 15.5907 12.8151 15.5716 12.8913C15.4476 13.2154 15.333 13.4538 15.2376 13.6158C15.1422 13.7779 14.999 13.959 14.7986 14.1592C14.7031 14.264 14.5504 14.3689 14.35 14.4642C14.1496 14.5595 13.9205 14.6168 13.6533 14.6072L11.8399 14.5882C11.3627 14.5882 11.0573 14.4928 10.9236 14.3117C10.79 14.1306 10.7232 13.8541 10.7232 13.4824V13.1201V12.9867L10.7328 11.9953V11.8713L10.7805 5.64651V5.63698V5.05549C10.7805 4.86484 10.8187 4.71231 10.895 4.59792L10.9046 4.58839C10.9714 4.49306 11.0573 4.42633 11.1718 4.37867C11.4295 4.26427 11.7349 4.16894 12.0976 4.09269C12.2598 4.05455 12.3839 4.0069 12.4602 3.94969C12.5366 3.89251 12.5748 3.81625 12.5843 3.73998C12.5843 3.66372 12.5461 3.61606 12.4698 3.58745C12.3934 3.55886 12.2885 3.5398 12.1644 3.5398C11.9639 3.5398 11.7826 3.5398 11.6204 3.54933L11.6395 1.67139L10.9332 1.66186L10.9236 2.71998C10.9236 3.16802 10.4751 3.52074 9.92151 3.52074C9.36795 3.52074 8.91937 3.14896 8.92891 2.71045V1.65232L8.30856 1.64279L8.29899 2.70092C8.29899 3.14896 7.84089 3.50165 7.29687 3.50165C6.74331 3.49212 6.30427 3.12988 6.30427 2.69139L6.32338 1.62373H5.6171L5.59802 3.50165C5.57893 3.50165 5.56939 3.50165 5.55029 3.50165C5.36897 3.49212 5.13989 3.48259 4.87266 3.47306C4.74859 3.47306 4.6436 3.48259 4.56725 3.51118C4.49089 3.5398 4.45272 3.58745 4.45272 3.66372C4.45272 3.74951 4.49089 3.81625 4.56725 3.88296C4.6436 3.94016 4.76767 3.99737 4.92993 4.02596C5.29261 4.11176 5.59802 4.21661 5.85571 4.331C5.9607 4.37867 6.03705 4.44539 6.09431 4.52165C6.12293 4.5598 6.14204 4.59792 6.16112 4.63604C6.20883 4.7409 6.22794 4.86484 6.22794 5.01735L6.21839 5.56071V5.75137L6.17066 11.7093V12.0143L6.16112 12.8723V13.1297V13.4538C6.16112 13.8255 6.08476 14.102 5.95115 14.2736C5.81752 14.4452 5.50257 14.5405 5.02537 14.531L3.21199 14.5119C2.94475 14.5119 2.7157 14.4547 2.51525 14.3594C2.31483 14.2545 2.17168 14.1497 2.06669 14.0448C1.8758 13.8446 1.73264 13.654 1.6372 13.4919C1.5513 13.3298 1.43677 13.0915 1.3127 12.7674C1.29361 12.7007 1.25544 12.5863 1.18863 12.4433C1.12182 12.3003 1.06455 12.2241 0.997744 12.2241C0.94048 12.2241 0.892759 12.2622 0.864127 12.3289C0.835494 12.3956 0.816406 12.4719 0.816406 12.5386C0.816406 12.5482 0.816406 12.5672 0.82595 12.5863C0.835494 12.6054 0.835494 12.6244 0.835494 12.634C0.902303 12.9485 0.959568 13.225 1.00729 13.4824C1.05501 13.7302 1.10273 13.9685 1.13136 14.1973C1.16954 14.4261 1.18863 14.6644 1.20771 14.9123C1.21726 14.9981 1.23635 15.0648 1.25544 15.1315C1.28407 15.1887 1.33179 15.2173 1.40814 15.2173C1.89489 15.2173 2.36256 15.2173 2.81114 15.2078C3.2597 15.1982 3.68919 15.1982 4.10913 15.1887C4.52908 15.1887 4.92039 15.1792 5.30215 15.1697C5.68391 15.1601 6.05614 15.1601 6.42836 15.1601C6.65741 15.1601 6.92465 15.1697 7.22052 15.1792V15.1697L7.23006 13.53V13.3203L7.2396 12.5482V12.3194L7.30641 5.16035V5.04596V4.71231H9.70199V5.08408V5.12222L9.64473 12.4147V12.5577L9.63519 13.3966V13.5491L9.62565 15.2078V15.2173C9.92151 15.2078 10.1792 15.2078 10.4178 15.2078C10.79 15.2078 11.1622 15.2173 11.544 15.2364C11.9258 15.2554 12.3266 15.265 12.737 15.2745C13.1474 15.284 13.5864 15.2936 14.035 15.3126C14.4836 15.3317 14.9513 15.3412 15.438 15.3412C15.5144 15.3412 15.5621 15.3126 15.5907 15.2554C15.6194 15.1982 15.6289 15.122 15.648 15.0457C15.6671 14.7979 15.6957 14.5595 15.7339 14.3308C15.7721 14.102 15.8198 13.8637 15.8675 13.6158C15.9248 13.368 15.982 13.0915 16.0584 12.7769C16.0584 12.7674 16.0584 12.7483 16.0679 12.7293C16.0679 12.7102 16.0775 12.7007 16.0775 12.6816C16.0679 12.6054 16.0584 12.5386 16.0297 12.4624ZM9.71153 4.13082V4.09269V3.98784H9.75926V4.13082H9.71153Z" fill="url(#paint1_linear_690_3697)"/>
<path d="M16.0297 12.4624C16.0011 12.3861 15.9534 12.3575 15.8961 12.3575C15.8293 12.3575 15.7625 12.4242 15.6957 12.5672C15.6289 12.7102 15.5907 12.8151 15.5716 12.8913C15.4476 13.2154 15.333 13.4538 15.2376 13.6158C15.1422 13.7779 14.999 13.959 14.7986 14.1592C14.7031 14.264 14.5504 14.3689 14.35 14.4642C14.1496 14.5595 13.9205 14.6168 13.6533 14.6072L11.8399 14.5882C11.3627 14.5882 11.0573 14.4928 10.9236 14.3117C10.79 14.1306 10.7232 13.8541 10.7232 13.4824V13.1201V12.9867L10.7328 11.9953V11.8713L10.7805 5.64651V5.63698V5.05549C10.7805 4.86484 10.8187 4.71231 10.895 4.59792L10.9046 4.58839C10.9714 4.49306 11.0573 4.42633 11.1718 4.37867C11.4295 4.26427 11.7349 4.16894 12.0976 4.09269C12.2598 4.05455 12.3839 4.0069 12.4602 3.94969C12.5366 3.89251 12.5748 3.81625 12.5843 3.73998C12.5843 3.66372 12.5461 3.61606 12.4698 3.58745C12.3934 3.55886 12.2885 3.5398 12.1644 3.5398C11.9639 3.5398 11.7826 3.5398 11.6204 3.54933L11.6395 1.67139L10.9332 1.66186L10.9236 2.71998C10.9236 3.16802 10.4751 3.52074 9.92151 3.52074C9.36795 3.52074 8.91937 3.14896 8.92891 2.71045V1.65232L8.30856 1.64279L8.29899 2.70092C8.29899 3.14896 7.84089 3.50165 7.29687 3.50165C6.74331 3.49212 6.30427 3.12988 6.30427 2.69139L6.32338 1.62373H5.6171L5.59802 3.50165C5.57893 3.50165 5.56939 3.50165 5.55029 3.50165C5.36897 3.49212 5.13989 3.48259 4.87266 3.47306C4.74859 3.47306 4.6436 3.48259 4.56725 3.51118C4.49089 3.5398 4.45272 3.58745 4.45272 3.66372C4.45272 3.74951 4.49089 3.81625 4.56725 3.88296C4.6436 3.94016 4.76767 3.99737 4.92993 4.02596C5.29261 4.11176 5.59802 4.21661 5.85571 4.331C5.9607 4.37867 6.03705 4.44539 6.09431 4.52165C6.12293 4.5598 6.14204 4.59792 6.16112 4.63604C6.20883 4.7409 6.22794 4.86484 6.22794 5.01735L6.21839 5.56071V5.75137L6.17066 11.7093V12.0143L6.16112 12.8723V13.1297V13.4538C6.16112 13.8255 6.08476 14.102 5.95115 14.2736C5.81752 14.4452 5.50257 14.5405 5.02537 14.531L3.21199 14.5119C2.94475 14.5119 2.7157 14.4547 2.51525 14.3594C2.31483 14.2545 2.17168 14.1497 2.06669 14.0448C1.8758 13.8446 1.73264 13.654 1.6372 13.4919C1.5513 13.3298 1.43677 13.0915 1.3127 12.7674C1.29361 12.7007 1.25544 12.5863 1.18863 12.4433C1.12182 12.3003 1.06455 12.2241 0.997744 12.2241C0.94048 12.2241 0.892759 12.2622 0.864127 12.3289C0.835494 12.3956 0.816406 12.4719 0.816406 12.5386C0.816406 12.5482 0.816406 12.5672 0.82595 12.5863C0.835494 12.6054 0.835494 12.6244 0.835494 12.634C0.902303 12.9485 0.959568 13.225 1.00729 13.4824C1.05501 13.7302 1.10273 13.9685 1.13136 14.1973C1.16954 14.4261 1.18863 14.6644 1.20771 14.9123C1.21726 14.9981 1.23635 15.0648 1.25544 15.1315C1.28407 15.1887 1.33179 15.2173 1.40814 15.2173C1.89489 15.2173 2.36256 15.2173 2.81114 15.2078C3.2597 15.1982 3.68919 15.1982 4.10913 15.1887C4.52908 15.1887 4.92039 15.1792 5.30215 15.1697C5.68391 15.1601 6.05614 15.1601 6.42836 15.1601C6.65741 15.1601 6.92465 15.1697 7.22052 15.1792V15.1697L7.23006 13.53V13.3203L7.2396 12.5482V12.3194L7.30641 5.16035V5.04596V4.71231H9.70199V5.08408V5.12222L9.64473 12.4147V12.5577L9.63519 13.3966V13.5491L9.62565 15.2078V15.2173C9.92151 15.2078 10.1792 15.2078 10.4178 15.2078C10.79 15.2078 11.1622 15.2173 11.544 15.2364C11.9258 15.2554 12.3266 15.265 12.737 15.2745C13.1474 15.284 13.5864 15.2936 14.035 15.3126C14.4836 15.3317 14.9513 15.3412 15.438 15.3412C15.5144 15.3412 15.5621 15.3126 15.5907 15.2554C15.6194 15.1982 15.6289 15.122 15.648 15.0457C15.6671 14.7979 15.6957 14.5595 15.7339 14.3308C15.7721 14.102 15.8198 13.8637 15.8675 13.6158C15.9248 13.368 15.982 13.0915 16.0584 12.7769C16.0584 12.7674 16.0584 12.7483 16.0679 12.7293C16.0679 12.7102 16.0775 12.7007 16.0775 12.6816C16.0679 12.6054 16.0584 12.5386 16.0297 12.4624ZM9.71153 4.13082V4.09269V3.98784H9.75926V4.13082H9.71153Z" fill="white"/>
<defs>
<linearGradient id="paint0_linear_690_3697" x1="8.44224" y1="3.44447" x2="8.44224" y2="13.0915" gradientUnits="userSpaceOnUse">
<stop offset="0.190625" stop-color="#818181"/>
<stop offset="0.591667"/>
<stop offset="0.982292" stop-color="#818181"/>
<stop offset="1" stop-color="#818181"/>
</linearGradient>
<linearGradient id="paint1_linear_690_3697" x1="8.44695" y1="1.62373" x2="8.44695" y2="15.3412" gradientUnits="userSpaceOnUse">
<stop stop-color="#818181"/>
<stop offset="0.341667"/>
<stop offset="0.982292" stop-color="#818181"/>
<stop offset="1" stop-color="#818181"/>
</linearGradient>
</defs>
</svg>
