<svg xmlns="http://www.w3.org/2000/svg" xmlns:xlink="http://www.w3.org/1999/xlink" viewBox="0 0 160.2 169.95"><defs><style>.cls-1{fill:url(#linear-gradient);}.cls-2{fill:url(#linear-gradient-2);}.cls-3{fill:url(#linear-gradient-3);}.cls-4{opacity:0.53;}.cls-5{fill:url(#linear-gradient-4);}.cls-6{opacity:0.65;}.cls-7,.cls-8{fill:url(#linear-gradient-5);}.cls-8{opacity:0.74;}</style><linearGradient id="linear-gradient" x1="80.1" y1="180.99" x2="80.1" y2="0.8" gradientUnits="userSpaceOnUse"><stop offset="0" stop-color="#842d72"/><stop offset="0.37" stop-color="#ef326c"/><stop offset="0.52" stop-color="#f3544a"/><stop offset="0.73" stop-color="#f97d22"/><stop offset="0.9" stop-color="#fc9709"/><stop offset="1" stop-color="#fda000"/></linearGradient><linearGradient id="linear-gradient-2" x1="81.38" y1="142.85" x2="81.38" y2="72.89" gradientTransform="matrix(1, 0.04, -0.04, 1, 2.84, 19.33)" gradientUnits="userSpaceOnUse"><stop offset="0" stop-color="#ef326c"/><stop offset="1" stop-color="#fda000"/></linearGradient><linearGradient id="linear-gradient-3" x1="80.44" y1="164.99" x2="80.44" y2="94.57" gradientTransform="matrix(1, 0, 0, 1, 0, 0)" xlink:href="#linear-gradient-2"/><linearGradient id="linear-gradient-4" x1="88.27" y1="110.72" x2="88.27" y2="70.2" xlink:href="#linear-gradient-2"/><linearGradient id="linear-gradient-5" x1="89.32" y1="104.29" x2="89.32" y2="69.64" xlink:href="#linear-gradient-2"/></defs><title>Matchbox Icon</title><g id="Layer_2" data-name="Layer 2"><g id="Main_Logo" data-name="Main Logo"><g id="Verttical"><g id="Icon"><path class="cls-1" d="M160.2,52.1v69.83a24.6,24.6,0,0,1-13.6,22l-28.81,14.4-4.34,2,.07,0a62.34,62.34,0,0,0-4.24-108c-.81-.43-1.62-.83-2.45-1.22a.83.83,0,0,0-1.17.92,153.7,153.7,0,0,1,1.86,16.29c1.27,15.88-1.08,27.06-5.65,33.32a10.88,10.88,0,0,1-12.75,4.07c-12.59-5.29-7.58-24-2.7-35.4s5.07-24.09,5.07-24.09c-.15-20.87-11.66-29.54-15.55-31.88a.84.84,0,0,0-1.27.65c-.32,3.6-3.16,14.66-23.61,35.11-2.52,2.52-6.74,6.25-9.77,8.91C27.6,70.66,18,87.93,18,107.55a62.17,62.17,0,0,0,19.23,45,57.47,57.47,0,0,0,9.23,7.81L13.6,143.94a24.62,24.62,0,0,1-13.6-22V52.1a24.59,24.59,0,0,1,13.68-22l55.5-27.5A24.61,24.61,0,0,1,91,2.56l55.49,27.5A24.59,24.59,0,0,1,160.2,52.1Z"/><path class="cls-2" d="M115.42,126.78v0a61.46,61.46,0,0,1-1.7,11.88,45.56,45.56,0,0,1-3.57,9.77,0,0,0,0,1,0,0,43.19,43.19,0,0,1-6.45,10,35.94,35.94,0,0,1-8.37,7.19A22.6,22.6,0,0,1,92,167.46h0a29.52,29.52,0,0,1-7,2.09l-.13,0a29.41,29.41,0,0,1-5.34.36H79a29.26,29.26,0,0,1-14.63-4.49,28.82,28.82,0,0,1-8.75-8.63h0c-.28-.35-.52-.69-.72-1h0a48.35,48.35,0,0,1-7.34-15.49,45.55,45.55,0,0,1-2.05-15.78c1-19.89,15.65-32.91,20-36.33a.76.76,0,0,1,1.23.54c.23,4.25,1.45,17,8.2,25.72A21.2,21.2,0,0,0,85.55,122a18.94,18.94,0,0,0,13.34-1c6.46-2.8,11.38-8.08,13.27-10.31a.77.77,0,0,1,1.32.25C115.26,116.53,115.41,126.25,115.42,126.78Z"/><path class="cls-3" d="M115.42,126.78v0a63.11,63.11,0,0,1-1.69,11.88,46.48,46.48,0,0,1-3.58,9.77,0,0,0,0,1,0,0,43,43,0,0,1-6.45,10,37.45,37.45,0,0,1-3.93,3.94,35,35,0,0,1-4.44,3.25A22.08,22.08,0,0,1,92,167.46h0a29.07,29.07,0,0,1-7,2.09l-.12,0a29.58,29.58,0,0,1-5.35.36H79a29.36,29.36,0,0,1-14.63-4.49,28.45,28.45,0,0,1-8.74-8.63h0a12.11,12.11,0,0,1-.72-1h0a48.14,48.14,0,0,1-7.34-15.49,45.58,45.58,0,0,1-2.05-15.78c1-19.89,15.65-32.91,20-36.33l.14-.09a.76.76,0,0,1,1.09.63c.23,4.25,1.44,17,8.2,25.72A21.18,21.18,0,0,0,85.54,122a19,19,0,0,0,13.35-1c6.45-2.8,11.38-8.08,13.27-10.31a.76.76,0,0,1,1.31.25C115.26,116.53,115.42,126.25,115.42,126.78Z"/><g class="cls-4"><path class="cls-5" d="M113.14,110.46c-1.76,18.4-22.38,34.57-39.84,19.77C57,116.41,64.12,93.65,66.19,88.09a.72.72,0,0,1,.52.66c.22,4.25,1.44,17,8.2,25.72A21.16,21.16,0,0,0,85.55,122a18.94,18.94,0,0,0,13.34-1c6.45-2.8,11.39-8.08,13.27-10.32A.78.78,0,0,1,113.14,110.46Z"/></g><g class="cls-6"><path class="cls-7" d="M113.11,110.44q-.72,1.66-1.44,3h0a34.22,34.22,0,0,1-5.24,7.71,27.34,27.34,0,0,1-6.5,5.37,15.55,15.55,0,0,1-2.55,1.23h0a19.82,19.82,0,0,1-5.24,1.36H92a19.8,19.8,0,0,1-3.93.06H88l-.2,0a20,20,0,0,1-10.48-4.2,21.9,21.9,0,0,1-6-7.25h0a8.34,8.34,0,0,1-.47-.83,36.12,36.12,0,0,1-2.76-5.92,43.85,43.85,0,0,1-1.82-6.72,38.94,38.94,0,0,1-.68-12.65c.14-1.2.32-2.36.56-3.49a.74.74,0,0,1,.57.68c.22,4.25,1.44,17,8.2,25.72A21.16,21.16,0,0,0,85.55,122a18.94,18.94,0,0,0,13.34-1c6.45-2.8,11.39-8.08,13.27-10.32A.8.8,0,0,1,113.11,110.44Z"/><path class="cls-8" d="M113.11,110.44q-.72,1.66-1.44,3h0a34.22,34.22,0,0,1-5.24,7.71,27.34,27.34,0,0,1-6.5,5.37,15.55,15.55,0,0,1-2.55,1.23h0a19.82,19.82,0,0,1-5.24,1.36H92a19.8,19.8,0,0,1-3.93.06H88l-.2,0a20,20,0,0,1-10.48-4.2,21.9,21.9,0,0,1-6-7.25h0a8.34,8.34,0,0,1-.47-.83,36.12,36.12,0,0,1-2.76-5.92,43.85,43.85,0,0,1-1.82-6.72,38.94,38.94,0,0,1-.68-12.65c.14-1.2.32-2.36.56-3.49a.74.74,0,0,1,.57.68c.22,4.25,1.44,17,8.2,25.72A21.16,21.16,0,0,0,85.55,122a18.94,18.94,0,0,0,13.34-1c6.45-2.8,11.39-8.08,13.27-10.32A.8.8,0,0,1,113.11,110.44Z"/></g></g></g></g></g></svg>