<svg  viewBox="0 0 24 24" fill="none" xmlns="http://www.w3.org/2000/svg">
<path fill-rule="evenodd" clip-rule="evenodd" d="M20.8853 11.7618C20.8853 11.7618 20.3416 10.9996 20.2925 10.5406C20.2435 10.0815 19.0714 8.65534 18.8307 8.48598C18.7019 8.39366 18.5374 8.3914 18.4115 8.38967C18.3064 8.38823 18.2282 8.38716 18.2201 8.33445C18.2023 8.21857 17.9661 8.08041 17.9661 8.08041C18.0686 7.96008 18.1176 7.65701 18.1176 7.24698C18.1176 6.83695 18.0151 6.3467 18.0151 6.3467C18.0151 6.3467 17.2307 4.57733 16.1922 4.05588C11.2407 1.57787 7.72424 4.23861 7.72424 4.23861C7.72424 4.23861 7.11365 5.12106 6.94429 5.25923C6.77493 5.39293 5.72311 7.75506 5.72311 7.75506L5.78997 8.38793L5.66963 8.82916H5.42451C5.17938 8.82916 4.14985 9.58682 4.14985 9.58682C4.14985 9.58682 2.45179 11.9623 3.18271 13.5712C3.83787 15.0108 6.52535 18.817 6.52535 18.817C6.52535 18.817 6.96657 19.4275 8.43288 19.6236C9.42403 19.7558 9.9456 19.6329 10.3454 19.5387C10.5389 19.4931 10.7038 19.4543 10.8797 19.4543C11.419 19.4543 11.8602 19.0131 11.8602 19.0131L12.1677 18.7367L12.6089 18.9997C12.6089 18.9997 13.7321 19.7172 15.2786 20.0114C15.595 20.0738 16.8786 19.4721 17.4535 19.0621C19.2028 17.8157 20.7546 13.2439 20.9429 12.6894L20.9522 12.662C21.0903 12.2565 20.8853 11.7618 20.8853 11.7618ZM15.6663 10.242C15.4792 10.184 15.5014 10.4425 15.5014 10.4425C15.5014 10.4425 15.3276 10.4737 15.2296 10.291C15.2296 10.291 15.6218 9.80075 16.0229 10.3356C16.0229 10.3356 15.9516 10.5272 15.6396 10.4693C15.6396 10.4693 15.8758 10.3044 15.6663 10.2375V10.242ZM11.3922 15.7061C11.566 15.6169 11.3699 15.4476 11.3699 15.4476C11.3699 15.4476 11.4724 15.305 11.673 15.3718C11.673 15.3718 11.7265 15.9958 11.0669 15.8843C11.0669 15.8843 10.9822 15.6972 11.2496 15.5233C11.2496 15.5233 11.1917 15.8086 11.3922 15.7061ZM8.97215 11.2448L11.4335 14.8812L12.8184 14.4938C12.8184 14.4938 15.653 11.1957 14.8062 10.7144C14.3649 10.4648 13.8569 9.44866 13.8569 9.44866C13.8569 9.44866 9.14597 8.9183 9.32425 9.51997C9.56046 10.3222 8.97215 11.2448 8.97215 11.2448ZM15.2117 8.13835C15.0379 8.18737 15.2207 8.33891 15.2207 8.33891C15.2207 8.33891 15.0647 8.47261 14.8819 8.37456C14.8819 8.37456 14.9844 7.87985 15.5594 8.05367C15.5594 8.05367 15.6084 8.2364 15.3187 8.32999C15.3187 8.32999 15.4212 8.08487 15.2117 8.13835ZM16.4775 6.19071C16.4775 6.19071 16.9856 6.69879 16.5844 7.42525C16.5844 7.42525 14.668 7.84865 14.2223 8.65089C14.2223 8.65089 10.1889 8.14281 8.95878 8.57512C8.95878 8.57512 8.60669 7.07316 7.65293 7.11328L7.52368 6.7077C7.52368 6.7077 10.5187 4.47928 16.4819 6.19962L16.4775 6.19071ZM8.86519 9.7027C8.86519 9.7027 8.9365 9.86315 8.78051 10.0013C8.78051 10.0013 8.21003 9.73836 8.63343 9.22136C8.63343 9.22136 8.83845 9.24365 8.85628 9.56008C8.85628 9.56008 8.63789 9.36844 8.62898 9.59128C8.62006 9.78738 8.86519 9.7027 8.86519 9.7027ZM6.84624 11.0843C7.03343 11.2002 7.00223 10.915 7.00223 10.915C7.25181 11.1111 7.16713 11.2359 7.16713 11.2359C6.49861 11.2893 6.60111 10.7367 6.60111 10.7367C6.79721 10.7189 6.88635 10.8303 6.88635 10.8303C6.88635 10.8303 6.67688 10.9818 6.84178 11.0888L6.84624 11.0843ZM9.60503 17.5779L9.48024 17.9345C9.48024 17.9345 6.47632 15.92 4.73815 11.1512C4.73815 11.1512 4.57325 10.2286 5.78105 10.2108C5.78105 10.2108 6.3025 11.6949 8.37939 11.7885C8.37939 11.7885 9.70308 13.7272 10.1844 15.6882C10.1844 15.6882 9.11032 16.7222 9.60057 17.5779H9.60503ZM13.3131 16.4504C13.3131 16.4504 13.4602 16.6999 13.5404 16.4905C13.6117 16.3077 13.3488 16.3122 13.3488 16.3122C13.3488 16.3122 13.3265 16.1384 13.5181 16.0537C13.5181 16.0537 13.9816 16.4771 13.4201 16.8426C13.4201 16.8426 13.2329 16.7623 13.3131 16.4548V16.4504ZM14.7928 18.5718C13.9683 19.1601 13.4067 17.832 13.4067 17.832C14.1064 16.5261 13.5627 15.2782 13.5627 15.2782L16.4106 10.9907C17.9126 11.2626 18.3806 10.5629 18.3806 10.5629L18.7505 10.7189C18.7505 10.7189 17.6853 16.5172 14.7928 18.5763V18.5718Z" />
</svg>
