<svg viewBox="0 0 410 686" xmlns="http://www.w3.org/2000/svg">
<path d="M390.251 264.337H301.348C326.306 212.73 338.925 172.923 338.925 145.828C338.91 65.8124 278.856 0.747559 205.023 0.747559C131.19 0.747559 71.1093 65.8185 71.1093 145.828C71.1093 172.922 83.7411 212.715 108.671 264.337H19.7599C8.87179 264.337 0 273.171 0 284.084V359.174C0 370.072 8.87201 378.929 19.755 378.929H139.741L101.142 663.232C100.387 668.893 102.092 674.617 105.838 678.888C109.608 683.198 115.025 685.663 120.74 685.663H289.279H289.389C300.301 685.663 309.135 676.815 309.135 665.893C309.135 664.307 308.954 662.745 308.6 661.269L270.259 378.935H390.23C401.166 378.935 410 370.063 410 359.18V284.09C410.014 273.178 401.166 264.343 390.245 264.343L390.251 264.337ZM370.466 339.398H247.658C241.949 339.398 236.526 341.864 232.781 346.173C229.011 350.482 227.301 356.168 228.056 361.82L266.645 646.147L143.371 646.142L181.961 361.815C182.715 356.163 181.01 350.468 177.264 346.168C173.495 341.859 168.063 339.394 162.362 339.394L39.5417 339.398V303.849H140.818C147.726 303.849 154.143 300.222 157.721 294.308C161.309 288.388 161.529 280.992 158.308 274.891C127.569 216.447 110.666 170.615 110.666 145.833C110.666 87.6224 152.987 40.2713 205.024 40.2713C257.047 40.2713 299.381 87.6322 299.381 145.833C299.381 170.62 282.444 216.456 251.714 274.891C248.48 280.993 248.714 288.373 252.302 294.308C255.876 300.203 262.282 303.849 269.205 303.849H370.481L370.476 339.398H370.466Z" />
<path d="M205.029 75.8318C172.594 75.8318 146.222 107.221 146.222 145.819C146.222 168.627 168.638 216.953 187.443 253.454C190.835 260.043 197.61 264.18 205.005 264.18C212.401 264.18 219.199 260.043 222.567 253.454C241.396 216.953 263.841 168.604 263.841 145.819C263.836 107.23 237.439 75.8318 205.028 75.8318H205.029ZM205.001 199.362C191.136 169.038 185.732 151.208 185.732 145.815C185.732 128.659 196.105 115.343 205.024 115.343C213.92 115.343 224.292 128.659 224.292 145.815C224.297 151.18 218.889 169.033 205.001 199.362Z" />
</svg>
