<svg viewBox="0 0 29 28" fill="none" xmlns="http://www.w3.org/2000/svg">
<path d="M29 23.8254C28.9928 23.7721 28.9786 23.7202 28.9576 23.6707L23.9375 12.0917C23.9438 12.0697 23.9489 12.0474 23.9527 12.025C23.976 11.8656 23.9351 11.7034 23.839 11.574C23.7427 11.4449 23.5991 11.3591 23.4397 11.3359L17.0838 10.4102C17.0341 9.91229 16.8327 9.44166 16.5071 9.06184C16.1815 8.68202 15.7472 8.41102 15.2629 8.28571V4.60697C15.2629 4.27183 14.991 4 14.6557 4C14.3205 4 14.0487 4.27184 14.0487 4.60697V8.27959C13.3005 8.47351 12.6876 9.00894 12.3946 9.72431L5.73842 8.75296C5.55846 8.72649 5.37618 8.78196 5.24153 8.90412C5.10687 9.02649 5.03426 9.20264 5.04336 9.38429L0.0446186 20.9178C0.0236589 20.9673 0.00947424 21.0194 0.0020642 21.0725V21.1119V21.1545C-0.000688066 21.1879 -0.000688066 21.2214 0.0020642 21.2546V21.2699C0.0128617 21.3215 0.0302219 21.3715 0.0537219 21.4187L0.0719297 21.4521V21.4519C0.0983938 21.4996 0.130995 21.5436 0.169108 21.5826L0.92789 22.3413C2.19099 23.6017 3.90248 24.3094 5.68702 24.3094C7.47135 24.3094 9.18284 23.6016 10.4459 22.3413L11.2047 21.5826C11.2428 21.5436 11.2756 21.4996 11.3019 21.4519L11.3201 21.4217C11.3438 21.3745 11.3612 21.3245 11.3718 21.2728C11.3745 21.2396 11.3745 21.2061 11.3718 21.1727V21.1301V21.0908C11.3646 21.0376 11.3502 20.9855 11.3292 20.936L6.64612 10.1125L12.2248 10.9259H12.2246C12.2917 11.6548 12.6838 12.3145 13.292 12.7217C13.9003 13.1288 14.6597 13.2397 15.359 13.0238C16.0583 12.8078 16.6229 12.2881 16.8956 11.6089L22.5383 12.4315L17.6637 23.6614C17.6428 23.711 17.6286 23.7628 17.6214 23.8162V23.8556V23.8981C17.6186 23.9314 17.6186 23.965 17.6214 23.9983V24.0135C17.632 24.0652 17.6493 24.1151 17.6728 24.1621L17.6911 24.1956C17.7175 24.2432 17.7501 24.2871 17.7882 24.326L18.547 25.0848C19.8103 26.3451 21.5218 27.0531 23.3061 27.0531C25.0905 27.0531 26.802 26.3451 28.0653 25.0848L28.8241 24.326C28.8622 24.287 28.8948 24.2432 28.9212 24.1956L28.9394 24.1621C28.9629 24.1151 28.9803 24.0652 28.9909 24.0135V23.9983C28.9936 23.965 28.9936 23.9314 28.9909 23.8981V23.8556C28.9909 23.8405 29 23.8374 29 23.8253L29 23.8254ZM9.8483 20.5475H1.52013L5.69663 10.9473L9.8483 20.5475ZM19.1483 23.3034L23.3002 13.7124L27.4766 23.3007L19.1483 23.3034Z" />
</svg>
