<?xml version="1.0" encoding="iso-8859-1"?>
<!-- Generator: Adobe Illustrator 18.0.0, SVG Export Plug-In . SVG Version: 6.00 Build 0)  -->
<!DOCTYPE svg PUBLIC "-//W3C//DTD SVG 1.1//EN" "http://www.w3.org/Graphics/SVG/1.1/DTD/svg11.dtd">
<svg version="1.1" id="Capa_1" xmlns="http://www.w3.org/2000/svg" xmlns:xlink="http://www.w3.org/1999/xlink" x="0px" y="0px"
	 viewBox="0 0 464.06 464.06" style="enable-background:new 0 0 464.06 464.06;" xml:space="preserve">
<g>
	<path d="M401.824,133.379c3.038,0,5.5-2.462,5.5-5.5v-8.87h21.826c3.038,0,5.5-2.462,5.5-5.5v-10.72h23.91
		c3.038,0,5.5-2.462,5.5-5.5v-21.32c0-3.038-2.462-5.5-5.5-5.5h-23.91v-10.72c0-3.038-2.462-5.5-5.5-5.5h-21.826v-8.866
		c0-3.038-2.462-5.5-5.5-5.5H62.243c-3.038,0-5.5,2.462-5.5,5.5v8.866H34.92c-3.038,0-5.5,2.462-5.5,5.5v10.72H5.5
		c-3.038,0-5.5,2.462-5.5,5.5v21.32c0,3.038,2.462,5.5,5.5,5.5h23.92v10.72c0,3.038,2.462,5.5,5.5,5.5h21.823v8.87
		c0,3.038,2.462,5.5,5.5,5.5h3.212v197.302h-3.212c-3.038,0-5.5,2.462-5.5,5.5v8.866H34.92c-3.038,0-5.5,2.462-5.5,5.5v10.72H5.5
		c-3.038,0-5.5,2.462-5.5,5.5v21.32c0,3.038,2.462,5.5,5.5,5.5h23.92v10.72c0,3.038,2.462,5.5,5.5,5.5h21.823v8.87
		c0,3.038,2.462,5.5,5.5,5.5h339.581c3.038,0,5.5-2.462,5.5-5.5v-8.87h21.826c3.038,0,5.5-2.462,5.5-5.5v-10.72h23.91
		c3.038,0,5.5-2.462,5.5-5.5v-21.32c0-3.038-2.462-5.5-5.5-5.5h-23.91v-10.72c0-3.038-2.462-5.5-5.5-5.5h-21.826v-8.866
		c0-3.038-2.462-5.5-5.5-5.5h-3.213V133.379H401.824z M453.06,81.469v10.32h-18.41v-10.32H453.06z M11,91.789v-10.32h18.42v10.32H11
		z M40.42,108.009v-42.76h16.323v42.76H40.42z M11,382.587v-10.32h18.42v10.32H11z M40.42,398.807v-42.76h16.323v42.76H40.42z
		 M453.06,372.267v10.32h-18.41v-10.32H453.06z M423.65,65.249v42.76h-16.326v-42.76H423.65z M67.743,50.883h328.581v71.496H67.743
		V50.883z M396.324,413.177H67.743v-71.496h328.581V413.177z M423.65,356.047v42.76h-16.326v-42.76H423.65z M387.611,330.681H76.456
		V133.379h311.156V330.681z"/>
	<path d="M156.14,166.379h100c3.038,0,5.5-2.462,5.5-5.5s-2.462-5.5-5.5-5.5h-100c-3.038,0-5.5,2.462-5.5,5.5
		S153.103,166.379,156.14,166.379z"/>
	<path d="M280.64,166.379h72.89c3.038,0,5.5-2.462,5.5-5.5s-2.462-5.5-5.5-5.5h-72.89c-3.038,0-5.5,2.462-5.5,5.5
		S277.603,166.379,280.64,166.379z"/>
	<path d="M110.54,166.379h21.1c3.038,0,5.5-2.462,5.5-5.5s-2.462-5.5-5.5-5.5h-21.1c-3.038,0-5.5,2.462-5.5,5.5
		S107.502,166.379,110.54,166.379z"/>
	<path d="M353.53,179.129H210.64c-3.038,0-5.5,2.462-5.5,5.5s2.462,5.5,5.5,5.5h142.89c3.038,0,5.5-2.462,5.5-5.5
		S356.568,179.129,353.53,179.129z"/>
	<path d="M110.54,190.129h75.6c3.038,0,5.5-2.462,5.5-5.5s-2.462-5.5-5.5-5.5h-75.6c-3.038,0-5.5,2.462-5.5,5.5
		S107.502,190.129,110.54,190.129z"/>
	<path d="M353.53,202.879h-96.89c-3.038,0-5.5,2.462-5.5,5.5s2.462,5.5,5.5,5.5h96.89c3.038,0,5.5-2.462,5.5-5.5
		S356.568,202.879,353.53,202.879z"/>
	<path d="M110.54,213.879h121.6c3.038,0,5.5-2.462,5.5-5.5s-2.462-5.5-5.5-5.5h-121.6c-3.038,0-5.5,2.462-5.5,5.5
		S107.502,213.879,110.54,213.879z"/>
	<path d="M308.64,232.119c0-3.038-2.462-5.5-5.5-5.5h-123.5c-3.038,0-5.5,2.462-5.5,5.5s2.462,5.5,5.5,5.5h123.5
		C306.178,237.619,308.64,235.157,308.64,232.119z"/>
	<path d="M353.53,226.619h-25.89c-3.038,0-5.5,2.462-5.5,5.5s2.462,5.5,5.5,5.5h25.89c3.038,0,5.5-2.462,5.5-5.5
		S356.568,226.619,353.53,226.619z"/>
	<path d="M110.54,237.619h44.6c3.038,0,5.5-2.462,5.5-5.5s-2.462-5.5-5.5-5.5h-44.6c-3.038,0-5.5,2.462-5.5,5.5
		S107.502,237.619,110.54,237.619z"/>
	<path d="M353.53,250.369h-87.39c-3.038,0-5.5,2.462-5.5,5.5s2.462,5.5,5.5,5.5h87.39c3.038,0,5.5-2.462,5.5-5.5
		S356.568,250.369,353.53,250.369z"/>
	<path d="M110.54,261.369h131.1c3.038,0,5.5-2.462,5.5-5.5s-2.462-5.5-5.5-5.5h-131.1c-3.038,0-5.5,2.462-5.5,5.5
		S107.502,261.369,110.54,261.369z"/>
	<path d="M353.53,274.119H160.64c-3.038,0-5.5,2.462-5.5,5.5s2.462,5.5,5.5,5.5h192.89c3.038,0,5.5-2.462,5.5-5.5
		S356.568,274.119,353.53,274.119z"/>
	<path d="M110.54,285.119h25.6c3.038,0,5.5-2.462,5.5-5.5s-2.462-5.5-5.5-5.5h-25.6c-3.038,0-5.5,2.462-5.5,5.5
		S107.502,285.119,110.54,285.119z"/>
	<path d="M353.53,297.869h-42.39c-3.038,0-5.5,2.462-5.5,5.5s2.462,5.5,5.5,5.5h42.39c3.038,0,5.5-2.462,5.5-5.5
		S356.568,297.869,353.53,297.869z"/>
	<path d="M110.54,308.869h176.1c3.038,0,5.5-2.462,5.5-5.5s-2.462-5.5-5.5-5.5h-176.1c-3.038,0-5.5,2.462-5.5,5.5
		S107.502,308.869,110.54,308.869z"/>
	<path d="M368.82,68.53h15.213c3.038,0,5.5-2.462,5.5-5.5s-2.462-5.5-5.5-5.5H368.82c-3.038,0-5.5,2.462-5.5,5.5
		S365.783,68.53,368.82,68.53z"/>
	<path d="M223.034,68.53H343.82c3.038,0,5.5-2.462,5.5-5.5s-2.462-5.5-5.5-5.5H223.034c-3.038,0-5.5,2.462-5.5,5.5
		S219.996,68.53,223.034,68.53z"/>
	<path d="M241.034,395.53H229.82c-3.038,0-5.5,2.462-5.5,5.5s2.462,5.5,5.5,5.5h11.213c3.038,0,5.5-2.462,5.5-5.5
		S244.071,395.53,241.034,395.53z"/>
	<path d="M208.82,395.53H80.034c-3.038,0-5.5,2.462-5.5,5.5s2.462,5.5,5.5,5.5H208.82c3.038,0,5.5-2.462,5.5-5.5
		S211.857,395.53,208.82,395.53z"/>
</g>
<g>
</g>
<g>
</g>
<g>
</g>
<g>
</g>
<g>
</g>
<g>
</g>
<g>
</g>
<g>
</g>
<g>
</g>
<g>
</g>
<g>
</g>
<g>
</g>
<g>
</g>
<g>
</g>
<g>
</g>
</svg>
