<svg xmlns="http://www.w3.org/2000/svg" width="57" height="55" viewBox="0 0 57 55"><g><g><path d="M32.485 0c16.588-.44 30.03 12.968 22.259 29.57-3.045 6.506-14.02 14.493-25.266 10.645-3.616-1.237-6.158-3.987-9.024-5.914v.591c1.175.9 1.336 1.285 1.805 2.957-4.924 3.33-8.13 11.486-14.439 13.011-1.77-1.793-3.865-2.657-4.812-5.322 5.148-3.427 8.44-12.176 15.64-13.011v.591h.603c-1.048-2.001-2.887-4.38-3.61-6.505-3.643-10.702 3.64-20.748 9.625-24.247L32.486 0zm0 4.14c-.779.519-1.484.529-3.008.591-2.78 3.594-7.386 5.822-9.625 10.054-4.176 7.893 3.09 18.02 8.422 20.699 12.911 6.484 31.158-9.719 22.86-21.29-2.23-7.257-8.542-10.29-18.649-10.054zM1.805 47.312c2.66.805 4.913 2.906 5.414 5.914-1.278.666-1.62 1.211-3.008 1.774C2.62 52.907.631 52.232 0 49.086c.484-.604.213-.162.602-1.183 1.055-.373.584-.114 1.203-.591z"/></g></g></svg>