<svg  viewBox="0 0 649 649" fill="none" xmlns="http://www.w3.org/2000/svg">
<path d="M0 571.664L228.507 343.157L305.34 419.991L76.8333 648.497L0 571.664Z" />
<path d="M288.44 329.891L268.341 349.995L298.513 380.167L345.18 333.5V233.328C345.18 187.479 369.639 145.115 409.347 122.188C449.055 99.2668 497.972 99.2668 537.68 122.188C577.388 145.115 601.847 187.48 601.847 233.328V326.022C624.653 298.98 639.779 266.308 645.644 231.423C647.556 220.496 648.514 209.423 648.514 198.329C648.524 144.455 626.618 92.8975 587.831 55.5162C549.039 18.1308 496.711 -1.8585 442.871 0.136168C389.038 2.13617 338.33 25.9535 302.418 66.1095C299.954 68.7032 297.975 71.1251 295.98 73.6407C268.548 107.547 253.059 149.553 251.912 193.151C250.766 236.75 264.032 279.511 289.647 314.807C293.001 319.453 292.491 325.844 288.439 329.895L288.44 329.891Z" />
</svg>
