<svg xmlns="http://www.w3.org/2000/svg" viewBox="0 0 46 46"><g><g><path d="M19 0c32.765-1.1 34.95 38.055 9 45C13.842 48.789-3.013 32.224 1 18 4.068 7.123 10.992 5.831 19 0zm14 11c-1.167 3.178-2.349 3.079 2 5 .899-2.19.862-1.443 2-3-1.766-.962-1.68-1.257-4-2zm10 11c-3.346.475-4.655 2.637-8 2-10.591-2.017-10.295-13.068-27-10-1.943 3.078-3.87 4.811-5 9 7.128.977 30.446 25.65 38 7 1.882-2.038 2-3.835 2-8zM7 20c15.67.56 13.34 13.767 32 10v1c-.804 1.021-.355.274-1 2-18.098 4.27-17.157-3.447-28-10-2.216-1.34-3.362-.428-5-2 1.754-.63.971-.193 2-1zm3 13v2h2v-2h-2z"/></g></g></svg>