<svg viewBox="0 0 512 593" fill="none" xmlns="http://www.w3.org/2000/svg">
<path fill-rule="evenodd" clip-rule="evenodd" d="M255.544 17C276.926 54.672 290.16 85.219 310.523 122.89L280.996 399.84H231.105L201.578 122.89C221.941 85.218 235.181 54.671 255.544 17ZM326.816 407.98C335.981 407.98 343.105 415.109 343.105 424.269C343.105 432.414 335.977 440.558 326.816 440.558H276.926L275.906 523.031C283.035 528.121 287.105 537.285 287.105 546.449C287.105 563.758 272.851 576.996 255.543 576.996C239.254 576.996 224.996 563.758 224.996 546.449C224.996 537.285 229.07 528.121 235.18 523.031C242.309 518.957 256.563 518.957 262.672 518.957C263.691 518.957 258.598 511.828 235.18 513.867V440.558H185.289C176.125 440.558 169 432.414 169 424.269C169 415.105 176.129 407.98 185.289 407.98H326.819H326.816Z"/>
</svg>
