<svg  viewBox="0 0 2018 280" fill="none" xmlns="http://www.w3.org/2000/svg">
<path d="M1897.01 168.03L1834.88 77.9014H1848.99L1902.24 155.512H1897.01L1950.72 77.9014H1964.38L1901.79 168.03H1897.01ZM1893.6 233.123V158.243H1905.66V233.123H1893.6Z" fill="white"/>
<path d="M1651.97 235.172C1640.74 235.172 1630.35 233.199 1620.79 229.254C1611.23 225.157 1602.96 219.543 1595.98 212.412C1589 205.281 1583.54 196.86 1579.6 187.149C1575.8 177.438 1573.91 166.893 1573.91 155.513C1573.91 144.133 1575.88 133.587 1579.82 123.877C1583.77 114.166 1589.23 105.669 1596.21 98.3858C1603.34 91.1026 1611.69 85.4886 1621.25 81.5436C1630.81 77.4468 1641.2 75.3984 1652.43 75.3984C1665.02 75.3984 1676.55 77.902 1687.02 82.9091C1697.49 87.9163 1705.99 95.1235 1712.51 104.531L1704.09 112.952C1698.33 104.607 1690.97 98.234 1682.01 93.8338C1673.21 89.2819 1663.35 87.0059 1652.43 87.0059C1639.68 87.0059 1628.3 89.9647 1618.29 95.8822C1608.27 101.8 1600.46 109.917 1594.85 120.235C1589.23 130.553 1586.42 142.312 1586.42 155.513C1586.42 168.713 1589.23 180.473 1594.85 190.79C1600.46 201.108 1608.12 209.15 1617.83 214.916C1627.54 220.681 1638.77 223.564 1651.52 223.564C1663.66 223.564 1674.2 221.061 1683.15 216.054C1692.11 211.046 1699.08 203.763 1704.09 194.204C1709.1 184.493 1711.6 172.962 1711.6 159.609L1717.75 164.161H1649.24V153.237H1724.12V155.285C1724.12 172.279 1721.09 186.769 1715.02 198.756C1709.1 210.591 1700.68 219.619 1689.75 225.84C1678.98 232.061 1666.39 235.172 1651.97 235.172Z" fill="white"/>
<path d="M1378.87 235.398C1367.95 235.398 1357.78 233.35 1348.38 229.253C1339.12 225.156 1331 219.466 1324.02 212.183C1317.04 204.749 1311.58 196.176 1307.64 186.465C1303.84 176.754 1301.95 166.36 1301.95 155.284C1301.95 144.056 1303.84 133.662 1307.64 124.103C1311.43 114.392 1316.81 105.895 1323.79 98.6123C1330.77 91.3292 1338.89 85.7151 1348.15 81.7701C1357.4 77.6734 1367.49 75.625 1378.42 75.625C1389.34 75.625 1399.43 77.6734 1408.69 81.7701C1418.1 85.7151 1426.21 91.3292 1433.04 98.6123C1440.02 105.895 1445.48 114.392 1449.43 124.103C1453.37 133.814 1455.35 144.284 1455.35 155.512C1455.35 166.588 1453.37 176.982 1449.43 186.692C1445.64 196.403 1440.25 204.9 1433.27 212.183C1426.29 219.466 1418.17 225.156 1408.92 229.253C1399.81 233.35 1389.8 235.398 1378.87 235.398ZM1378.42 223.791C1390.86 223.791 1401.86 220.832 1411.42 214.915C1421.13 208.845 1428.79 200.652 1434.41 190.334C1440.02 180.016 1442.83 168.333 1442.83 155.284C1442.83 145.573 1441.16 136.621 1437.82 128.428C1434.63 120.082 1430.16 112.875 1424.39 106.806C1418.63 100.585 1411.8 95.8053 1403.91 92.4672C1396.17 88.9774 1387.67 87.2325 1378.42 87.2325C1366.13 87.2325 1355.13 90.1912 1345.42 96.1087C1335.86 102.026 1328.27 110.144 1322.66 120.462C1317.19 130.628 1314.46 142.235 1314.46 155.284C1314.46 164.995 1316.06 174.023 1319.24 182.368C1322.43 190.713 1326.91 197.996 1332.67 204.217C1338.44 210.438 1345.19 215.294 1352.93 218.784C1360.82 222.122 1369.31 223.791 1378.42 223.791Z" fill="white"/>
<path d="M1108.39 233.123V77.9014H1120.45V233.123H1108.39ZM1116.13 233.123V222.198H1203.75V233.123H1116.13Z" fill="white"/>
<path d="M906.295 235.398C895.37 235.398 885.204 233.35 875.797 229.253C866.541 225.156 858.424 219.466 851.444 212.183C844.464 204.749 839.002 196.176 835.057 186.465C831.264 176.754 829.367 166.36 829.367 155.284C829.367 144.056 831.264 133.662 835.057 124.103C838.85 114.392 844.237 105.895 851.216 98.6123C858.196 91.3292 866.314 85.7151 875.569 81.7701C884.825 77.6734 894.915 75.625 905.84 75.625C916.764 75.625 926.855 77.6734 936.11 81.7701C945.518 85.7151 953.635 91.3292 960.463 98.6123C967.443 105.895 972.905 114.392 976.85 124.103C980.795 133.814 982.768 144.284 982.768 155.512C982.768 166.588 980.795 176.982 976.85 186.692C973.057 196.403 967.67 204.9 960.691 212.183C953.711 219.466 945.593 225.156 936.338 229.253C927.234 233.35 917.22 235.398 906.295 235.398ZM905.84 223.791C918.282 223.791 929.282 220.832 938.841 214.915C948.552 208.845 956.215 200.652 961.829 190.334C967.443 180.016 970.25 168.333 970.25 155.284C970.25 145.573 968.581 136.621 965.243 128.428C962.056 120.082 957.58 112.875 951.814 106.806C946.049 100.585 939.221 95.8053 931.331 92.4672C923.592 88.9774 915.095 87.2325 905.84 87.2325C893.55 87.2325 882.549 90.1912 872.838 96.1087C863.279 102.026 855.693 110.144 850.078 120.462C844.616 130.628 841.885 142.235 841.885 155.284C841.885 164.995 843.478 174.023 846.665 182.368C849.851 190.713 854.327 197.996 860.093 204.217C865.859 210.438 872.611 215.294 880.349 218.784C888.239 222.122 896.736 223.791 905.84 223.791Z" fill="white"/>
<path d="M628.088 168.94V158.243H677.249C684.38 158.243 690.677 156.878 696.139 154.146C701.602 151.264 705.926 147.243 709.112 142.084C712.299 136.773 713.892 130.552 713.892 123.421C713.892 116.289 712.299 110.144 709.112 104.985C705.926 99.6748 701.602 95.654 696.139 92.9228C690.677 90.0399 684.38 88.5984 677.249 88.5984H628.088V77.9014H678.614C687.718 77.9014 695.76 79.798 702.74 83.5913C709.871 87.2329 715.485 92.4676 719.582 99.2955C723.83 106.123 725.955 114.165 725.955 123.421C725.955 132.676 723.83 140.718 719.582 147.546C715.485 154.222 709.871 159.457 702.74 163.25C695.76 167.044 687.718 168.94 678.614 168.94H628.088ZM620.805 233.123V77.9014H632.867V233.123H620.805Z" fill="white"/>
<path d="M110.899 233.123V82.2257H122.734V233.123H110.899ZM54 88.826V77.9014H179.634V88.826H54Z" fill="white"/>
<path d="M410.481 1.51761C504.562 10.9696 549.923 103.898 527.755 153.126C511.442 189.353 479.46 198.168 443.519 194.227C403.095 189.793 356.292 171.263 342.261 201.689C330.381 232.063 381.652 250.483 403.46 256.574C415.246 259.866 418.272 263.967 418.154 269.174C418.037 274.381 414.344 277.133 404.77 278.566C376.193 282.842 317.097 268.834 285.066 225.13C209.605 128.138 283.57 -11.2326 410.481 1.51761Z" fill="url(#paint0_radial_788_5151)" fill-opacity="0.3"/>
<path fill-rule="evenodd" clip-rule="evenodd" d="M284.506 225.553C208.68 128.079 283.023 -11.9919 410.55 0.820266C457.821 5.56935 492.861 31.2942 513.294 62.018C533.705 92.7081 539.61 128.507 528.393 153.415C520.169 171.68 507.97 183.072 493.273 189.384C478.596 195.688 461.482 196.903 443.442 194.924C434.062 193.895 424.343 192.11 414.797 190.357C414.027 190.216 413.257 190.074 412.49 189.934C402.193 188.047 392.15 186.273 382.94 185.585C373.724 184.896 365.408 185.3 358.55 187.725C351.729 190.137 346.329 194.553 342.906 201.964C340.028 209.336 340.975 215.955 344.353 221.875C347.752 227.831 353.625 233.098 360.61 237.65C374.577 246.754 392.764 252.859 403.648 255.899C409.579 257.556 413.413 259.442 415.751 261.646C418.131 263.889 418.917 266.417 418.855 269.19C418.791 271.995 417.745 274.2 415.414 275.857C413.14 277.474 409.687 278.539 404.873 279.26C390.438 281.42 368.397 278.958 345.965 270.497C323.525 262.032 300.62 247.537 284.506 225.553ZM410.41 2.21558C284.118 -10.4724 210.532 128.19 285.619 224.7L285.625 224.708L285.631 224.716C301.547 246.432 324.203 260.789 346.46 269.185C368.729 277.584 390.524 279.989 404.666 277.873C409.425 277.161 412.605 276.134 414.601 274.715C416.539 273.336 417.398 271.561 417.453 269.159C417.508 266.725 416.84 264.599 414.789 262.667C412.698 260.695 409.125 258.885 403.27 257.25C392.346 254.199 373.994 248.048 359.844 238.825C352.77 234.215 346.69 228.801 343.135 222.57C339.562 216.308 338.554 209.24 341.607 201.434L341.615 201.414L341.624 201.396C345.216 193.605 350.925 188.933 358.083 186.403C365.21 183.883 373.753 183.492 383.044 184.186C392.341 184.881 402.455 186.67 412.742 188.554C413.508 188.694 414.274 188.835 415.042 188.976C424.598 190.731 434.268 192.507 443.594 193.53C461.494 195.493 478.342 194.271 492.72 188.096C507.077 181.929 519.026 170.801 527.115 152.839C538.066 128.518 532.374 93.2389 512.127 62.7946C491.902 32.384 457.221 6.91848 410.41 2.21558Z" fill="white"/>
<path d="M392.02 20.7463C454.167 31.187 498.906 82.3044 483.276 124.985C456.059 199.304 357.373 136.983 329.682 194.972C320.001 215.245 331.327 232.982 344.328 242.614C349.433 246.395 354.674 249.402 352.809 254.926C350.943 260.45 344.328 258.948 339.418 257.813C310.236 251.067 250.866 208.49 257.077 124.86C261.814 61.0674 329.872 10.3055 392.02 20.7463Z" fill="url(#paint1_radial_788_5151)" fill-opacity="0.3"/>
<path fill-rule="evenodd" clip-rule="evenodd" d="M302.592 44.4073C328.094 24.951 360.838 14.7962 392.134 20.0539C423.358 25.2995 450.228 40.7649 467.34 60.313C484.447 79.8552 491.864 103.568 483.932 125.225C477.059 143.993 465.643 154.179 451.952 159.767C438.308 165.336 422.437 166.323 406.676 166.802C404.695 166.862 402.715 166.915 400.742 166.967C386.968 167.33 373.495 167.685 361.708 170.702C348.284 174.138 337.124 181.009 330.313 195.273C320.841 215.109 331.871 232.513 344.744 242.05C345.247 242.422 345.758 242.792 346.268 243.161C348.286 244.619 350.283 246.063 351.703 247.648C352.606 248.656 353.316 249.761 353.662 251.016C354.012 252.28 353.978 253.648 353.471 255.149C352.958 256.669 352.1 257.745 350.998 258.456C349.908 259.158 348.627 259.474 347.302 259.565C344.677 259.747 341.688 259.057 339.258 258.496C309.794 251.684 250.136 208.835 256.376 124.807C258.762 92.6744 277.089 63.8642 302.592 44.4073ZM303.443 45.5222C278.196 64.7841 260.125 93.2509 257.774 124.911C251.593 208.143 310.675 250.449 339.574 257.129C342.054 257.703 344.828 258.331 347.205 258.166C348.381 258.085 349.41 257.811 350.238 257.277C351.054 256.751 351.723 255.943 352.143 254.701C352.568 253.44 352.579 252.36 352.311 251.389C352.04 250.408 351.47 249.49 350.658 248.583C349.35 247.123 347.517 245.797 345.516 244.348C344.99 243.968 344.452 243.579 343.909 243.176C330.779 233.449 319.157 215.379 329.047 194.669C336.081 179.939 347.642 172.854 361.36 169.343C373.313 166.284 386.962 165.925 400.715 165.564C402.687 165.512 404.662 165.46 406.634 165.4C422.408 164.921 438.041 163.93 451.422 158.469C464.754 153.028 475.88 143.135 482.615 124.743C490.314 103.72 483.177 80.5336 466.285 61.2367C449.398 41.9458 422.825 26.632 391.902 21.4369C361.05 16.2539 328.691 26.2597 303.443 45.5222Z" fill="white"/>
<path d="M320.704 183.379C338.538 154.45 421.767 160.841 433.935 107.187C446.102 53.534 382.084 32.9838 346.709 38.3769C311.334 43.77 275.138 54.7465 260.444 113.235C254.734 144.665 260.617 174.893 273.794 196.827C288.46 221.239 310.39 240.252 316.754 231.883C323.119 223.514 304.969 208.901 320.704 183.379Z" fill="url(#paint2_radial_788_5151)" fill-opacity="0.3"/>
<path fill-rule="evenodd" clip-rule="evenodd" d="M407.791 51.2433C389.031 40.1591 364.347 36.3967 346.812 39.07C329.147 41.7632 311.39 45.8373 296.221 56.4693C281.08 67.0823 268.442 84.2853 261.127 113.384C255.453 144.651 261.313 174.694 274.393 196.466C281.694 208.618 290.794 219.41 298.834 226.109C302.861 229.465 306.574 231.753 309.625 232.7C312.669 233.645 314.859 233.214 316.194 231.459C317.602 229.607 317.701 227.377 317.153 224.494C316.879 223.054 316.452 221.494 315.974 219.776L315.898 219.501C315.444 217.868 314.953 216.104 314.529 214.217C312.724 206.197 312.118 195.965 320.105 183.011C324.689 175.575 333.421 170.481 343.941 166.166C350.48 163.483 357.803 161.069 365.343 158.583C369.926 157.072 374.59 155.535 379.208 153.894C403.772 145.167 427.256 133.457 433.249 107.032C436.257 93.7681 434.551 82.5938 429.788 73.3637C425.02 64.1223 417.162 56.7797 407.791 51.2433ZM431.034 72.7207C435.959 82.2651 437.692 93.7797 434.616 107.342C428.442 134.571 404.228 146.493 379.677 155.215C374.988 156.881 370.295 158.428 365.702 159.942C358.205 162.413 350.977 164.796 344.473 167.463C333.991 171.763 325.632 176.718 321.298 183.747C313.55 196.315 314.151 206.151 315.897 213.91C316.313 215.761 316.795 217.494 317.251 219.133L317.325 219.4C317.8 221.109 318.244 222.726 318.53 224.232C319.103 227.24 319.084 229.975 317.31 232.308C315.463 234.736 312.525 235.068 309.209 234.039C305.9 233.012 302.02 230.59 297.936 227.187C289.754 220.368 280.556 209.448 273.191 197.188C259.919 175.097 254.014 144.694 259.752 113.11L259.756 113.087L259.762 113.064C267.142 83.6876 279.947 66.1639 295.416 55.321C310.863 44.4942 328.892 40.3835 346.601 37.6837C364.441 34.9638 389.454 38.78 408.505 50.0359C418.04 55.6695 426.116 63.1875 431.034 72.7207Z" fill="white"/>
<path d="M328.039 160.701C293.971 178.462 307.916 206.797 296.67 209.963C292.66 211.092 285.433 205.814 278.307 195.292C263.88 173.99 249.829 133.174 271.227 88.3568C296.549 35.3195 378.727 38.7029 396.975 75.487C417.891 117.648 362.108 142.94 328.039 160.701Z" fill="url(#paint3_radial_788_5151)" fill-opacity="0.3"/>
<path fill-rule="evenodd" clip-rule="evenodd" d="M336.72 47.5392C362.843 46.3475 388.3 56.4262 397.602 75.1762C402.906 85.8681 403.366 95.5444 400.484 104.311C397.609 113.051 391.435 120.819 383.59 127.77C369.824 139.967 350.737 149.792 334.784 158.005C332.576 159.141 330.428 160.247 328.362 161.324C319.934 165.717 314.507 170.747 310.919 175.85C307.329 180.955 305.555 186.166 304.479 190.959C303.94 193.359 303.577 195.649 303.246 197.776L303.201 198.068C302.889 200.075 302.598 201.948 302.206 203.591C301.387 207.02 300.062 209.737 296.859 210.639C295.666 210.975 294.303 210.817 292.867 210.285C291.426 209.752 289.861 208.826 288.225 207.551C284.951 204.999 281.316 200.987 277.726 195.686C263.202 174.241 249.059 133.159 270.593 88.0555C283.396 61.2399 310.55 48.7332 336.72 47.5392ZM336.784 48.9401C310.973 50.1177 284.378 62.438 271.858 88.6597C250.597 133.191 264.556 173.74 278.887 194.9C282.422 200.121 285.963 204.009 289.087 206.445C290.649 207.663 292.088 208.502 293.353 208.97C294.622 209.44 295.667 209.518 296.479 209.289C298.898 208.608 300.047 206.595 300.842 203.266C301.22 201.679 301.504 199.857 301.819 197.826L301.861 197.561C302.191 195.434 302.561 193.102 303.111 190.652C304.212 185.746 306.043 180.345 309.772 175.043C313.502 169.739 319.108 164.567 327.714 160.08C329.79 158.998 331.943 157.889 334.153 156.751C350.126 148.527 369.037 138.791 382.66 126.72C390.406 119.857 396.384 112.287 399.152 103.873C401.91 95.4836 401.5 86.188 396.346 75.7994C387.399 57.7653 362.644 47.7603 336.784 48.9401Z" fill="white"/>
<path d="M270.135 97.73C284.548 67.5093 329.942 54.5845 347.351 76.1572C364.76 97.7299 353.528 117.908 327.415 133.995C301.302 150.082 301.676 181.095 292.13 183.093C284.253 184.74 280 177.476 275.095 169.418C265.656 153.909 255.721 127.951 270.135 97.73Z" fill="url(#paint4_radial_788_5151)" fill-opacity="0.3"/>
<path fill-rule="evenodd" clip-rule="evenodd" d="M307.436 66.8458C322.896 62.4959 338.948 64.6196 347.903 75.7165C356.74 86.6662 358.367 97.3678 354.362 107.393C350.384 117.35 340.897 126.517 327.789 134.592C314.916 142.522 308.554 154.137 304.209 164.107C303.359 166.058 302.579 167.964 301.841 169.768C300.709 172.534 299.675 175.063 298.632 177.153C297.764 178.895 296.861 180.397 295.846 181.536C294.826 182.68 293.663 183.489 292.28 183.779C288.05 184.663 284.791 183.127 282.013 180.394C279.385 177.81 277.125 174.094 274.795 170.262C274.698 170.102 274.6 169.942 274.503 169.782C265.001 154.171 254.951 127.949 269.508 97.4278C276.818 82.1026 291.953 71.2022 307.436 66.8458ZM307.816 68.1957C292.647 72.4637 277.878 83.136 270.774 98.0315C256.504 127.951 266.324 153.647 275.701 169.053C275.782 169.186 275.863 169.319 275.943 169.452C278.318 173.355 280.496 176.936 282.996 179.395C285.54 181.897 288.346 183.169 291.993 182.406C292.996 182.196 293.91 181.599 294.799 180.602C295.693 179.6 296.531 178.225 297.377 176.527C298.402 174.472 299.399 172.035 300.509 169.319C301.249 167.509 302.04 165.575 302.924 163.547C307.307 153.489 313.814 141.554 327.054 133.398C340.059 125.386 349.246 116.42 353.06 106.873C356.846 97.3941 355.385 87.2202 346.812 76.5972C338.358 66.1214 323.008 63.9211 307.816 68.1957Z" fill="white"/>
<path d="M300.222 134.684C285.902 144.261 294.7 157.559 288.71 160.72C282.72 163.882 258.52 145.718 267.932 114.691C275.388 90.1136 310.926 80.4273 321.469 94.9782C334.203 112.553 314.543 125.106 300.222 134.684Z" fill="url(#paint5_radial_788_5151)" fill-opacity="0.3"/>
<path fill-rule="evenodd" clip-rule="evenodd" d="M309.809 87.7712C314.871 88.5453 319.263 90.7386 322.038 94.5691C325.3 99.0703 326.527 103.311 326.236 107.304C325.947 111.284 324.156 114.929 321.546 118.263C316.583 124.603 308.512 129.993 301.59 134.616C301.263 134.834 300.938 135.052 300.615 135.267C297.131 137.598 295.082 140.132 293.857 142.656C292.629 145.187 292.21 147.746 292.044 150.159C291.972 151.193 291.948 152.19 291.924 153.151C291.92 153.315 291.916 153.478 291.912 153.639C291.883 154.739 291.845 155.798 291.719 156.759C291.467 158.682 290.839 160.392 289.041 161.341C288.09 161.842 286.869 161.881 285.571 161.609C284.26 161.335 282.788 160.728 281.26 159.829C278.201 158.03 274.836 155.014 271.972 150.927C266.234 142.737 262.49 130.217 267.262 114.486C271.073 101.925 282.034 93.2223 293.322 89.4965C298.973 87.6314 304.749 86.9973 309.809 87.7712ZM293.767 90.8275C282.786 94.4517 272.25 102.881 268.605 114.897C263.965 130.193 267.615 142.269 273.121 150.126C275.88 154.064 279.099 156.935 281.968 158.622C283.404 159.466 284.732 160.002 285.854 160.237C286.99 160.475 287.835 160.389 288.382 160.101C289.579 159.469 290.097 158.331 290.328 156.572C290.443 155.692 290.48 154.702 290.509 153.598C290.513 153.439 290.517 153.279 290.521 153.116C290.545 152.156 290.57 151.125 290.644 150.058C290.817 147.554 291.257 144.796 292.594 142.041C293.935 139.279 296.156 136.56 299.832 134.101C300.131 133.901 300.432 133.7 300.735 133.498C307.718 128.833 315.619 123.555 320.439 117.397C322.943 114.199 324.574 110.812 324.837 107.197C325.099 103.594 324.008 99.6744 320.903 95.3881C318.406 91.9432 314.402 89.8907 309.602 89.1566C304.801 88.4224 299.25 89.0176 293.767 90.8275Z" fill="white"/>
<path d="M359.615 204.994C349.926 225.472 406.644 235.979 436.322 262.323C455.833 279.641 500.375 237.974 514.407 214.406C518.643 207.292 519.802 203.29 516.432 200.469C513.063 197.648 509.384 199.402 503.235 203.29C490.656 211.243 466.762 217.342 446.142 214.406C408.511 209.05 368.048 187.172 359.615 204.994Z" fill="url(#paint6_radial_788_5151)" fill-opacity="0.3"/>
<path fill-rule="evenodd" clip-rule="evenodd" d="M371.446 198.893C366.023 199.254 362.207 201.152 360.247 205.294C359.104 207.71 358.954 209.937 359.582 212.057C360.217 214.198 361.665 216.292 363.825 218.382C368.158 222.576 375.176 226.59 383.522 230.834C386.625 232.411 389.907 234.018 393.291 235.674C408.012 242.881 424.648 251.024 436.786 261.798C441.426 265.917 447.595 266.583 454.604 264.777C461.621 262.97 469.373 258.705 477.004 253.131C492.264 241.983 506.84 225.742 513.803 214.048C515.921 210.491 517.206 207.809 517.579 205.705C517.763 204.669 517.719 203.806 517.467 203.061C517.216 202.32 516.742 201.644 515.98 201.007C515.217 200.368 514.464 200.009 513.682 199.862C512.897 199.715 512.038 199.775 511.058 200.04C509.066 200.58 506.694 201.931 503.608 203.882C490.887 211.925 466.825 218.059 446.041 215.1C433.226 213.276 420.044 209.532 407.96 206.1C402.265 204.483 396.813 202.934 391.76 201.689C383.829 199.735 376.896 198.529 371.446 198.893ZM408.473 204.786C420.507 208.205 433.516 211.901 446.239 213.712C466.696 216.624 490.422 210.56 502.859 202.697C505.921 200.761 508.464 199.291 510.691 198.687C511.819 198.381 512.897 198.288 513.941 198.484C514.989 198.68 515.959 199.16 516.88 199.931L516.43 200.469L516.88 199.931C517.804 200.704 518.448 201.586 518.795 202.611C519.141 203.633 519.174 204.744 518.96 205.95C518.538 208.331 517.126 211.208 515.008 214.765C507.939 226.638 493.228 243.015 477.831 254.263C470.133 259.887 462.214 264.265 454.954 266.135C447.685 268.008 440.97 267.387 435.855 262.847C423.875 252.214 407.466 244.178 392.751 236.973C389.347 235.306 386.033 233.684 382.886 232.084C374.554 227.847 367.354 223.749 362.85 219.39C360.592 217.204 358.966 214.911 358.238 212.456C357.504 209.979 357.701 207.397 358.98 204.694C361.236 199.925 365.64 197.874 371.352 197.493C377.036 197.114 384.152 198.37 392.095 200.327C397.244 201.596 402.748 203.16 408.473 204.786Z" fill="white"/>
<path d="M406.171 228.261C413.02 236.882 428.556 247.563 449.2 250.068C469.586 252.541 487.565 239.473 495.992 229.005C500.073 223.935 501.268 220.846 498.646 218.404C496.024 215.963 493.139 217.328 485.074 220.126C475.106 223.583 468.321 228.261 449.2 226.437C430.078 224.613 422.594 220.63 413.721 218.59C408.824 217.465 406.859 218.554 405.518 220.357C404.125 222.228 403.499 224.898 406.171 228.261Z" fill="url(#paint7_radial_788_5151)" fill-opacity="0.3"/>
<path fill-rule="evenodd" clip-rule="evenodd" d="M487.486 220.024C486.806 220.263 486.08 220.518 485.302 220.788C483.534 221.401 481.874 222.051 480.212 222.7C479.545 222.961 478.877 223.223 478.202 223.482C475.855 224.382 473.447 225.244 470.742 225.941C465.321 227.337 458.762 228.054 449.131 227.135C435.524 225.837 427.708 223.431 421.197 221.427C418.536 220.607 416.093 219.855 413.562 219.274C411.17 218.724 409.586 218.738 408.474 219.051C407.39 219.355 406.683 219.963 406.078 220.775C405.447 221.624 405.017 222.615 405.02 223.748C405.022 224.877 405.456 226.237 406.718 227.825C413.451 236.298 428.818 246.889 449.282 249.372C469.332 251.805 487.096 238.935 495.444 228.565C497.481 226.034 498.717 224.091 499.156 222.529C499.37 221.765 499.385 221.124 499.233 220.561C499.08 219.999 498.746 219.457 498.166 218.917C497.587 218.378 497.024 218.074 496.398 217.934C495.759 217.791 495.005 217.806 494.028 217.989C492.418 218.291 490.371 219.011 487.486 220.024ZM496.705 216.566C497.609 216.768 498.389 217.209 499.122 217.891C499.853 218.572 500.352 219.331 500.586 220.194C500.819 221.056 500.772 221.961 500.506 222.909C499.982 224.769 498.58 226.906 496.536 229.444C488.029 240.012 469.835 253.278 449.113 250.764C428.29 248.237 412.586 237.465 405.62 228.697L405.62 228.697C404.21 226.922 403.621 225.265 403.617 223.751C403.613 222.24 404.192 220.961 404.953 219.938C405.69 218.948 406.636 218.11 408.094 217.701C409.524 217.299 411.371 217.331 413.876 217.907L413.876 217.907C416.532 218.517 419.039 219.29 421.74 220.122C428.214 222.116 435.806 224.455 449.264 225.739C458.754 226.644 465.148 225.934 470.393 224.583C473.021 223.906 475.372 223.065 477.699 222.172C478.357 221.92 479.014 221.663 479.676 221.404C481.348 220.751 483.047 220.086 484.842 219.463C485.591 219.203 486.299 218.955 486.968 218.719C489.862 217.702 492.044 216.935 493.77 216.611C494.85 216.408 495.813 216.366 496.705 216.566Z" fill="white"/>
<path d="M467.751 242.211C455.111 245.314 448.994 243.208 446.216 242.211C444.249 241.276 442.658 239.5 442.939 236.415C443.194 233.611 445.466 231.18 449.492 231.461C453.229 231.721 460.729 233.704 466.909 233.05C473.089 232.395 480.767 229.591 484.887 226.693C486.693 225.422 487.883 225.003 488.913 225.945C489.812 226.768 490.036 227.908 489.381 228.936C488.726 229.965 480.392 239.108 467.751 242.211Z" fill="url(#paint8_radial_788_5151)" fill-opacity="0.3"/>
<path fill-rule="evenodd" clip-rule="evenodd" d="M487.044 224.805C487.911 224.611 488.702 224.796 489.392 225.428C489.939 225.928 490.311 226.554 490.427 227.248C490.544 227.947 490.393 228.663 489.978 229.313C489.767 229.644 489.072 230.457 488 231.508C486.908 232.578 485.387 233.935 483.487 235.357C479.69 238.197 474.362 241.311 467.924 242.892C461.542 244.458 456.778 244.717 453.238 244.447C449.691 244.177 447.399 243.378 445.985 242.871L445.952 242.859L445.921 242.844C444.851 242.335 443.847 241.581 443.151 240.498C442.449 239.408 442.093 238.034 442.246 236.352C442.389 234.78 443.1 233.295 444.357 232.243C445.619 231.188 447.379 230.61 449.547 230.761C450.75 230.845 452.353 231.106 454.142 231.397C455.177 231.565 456.273 231.744 457.39 231.904C460.492 232.349 463.841 232.67 466.841 232.352C472.918 231.709 480.479 228.94 484.489 226.119C485.401 225.478 486.247 224.983 487.044 224.805ZM487.35 226.173C486.843 226.287 486.191 226.637 485.296 227.266C481.066 230.242 473.271 233.081 466.989 233.747C463.809 234.083 460.318 233.74 457.191 233.292C455.991 233.12 454.857 232.935 453.811 232.764C452.082 232.482 450.594 232.24 449.45 232.16C447.591 232.031 446.202 232.528 445.257 233.319C444.308 234.113 443.755 235.246 443.643 236.479C443.515 237.881 443.814 238.938 444.33 239.74C444.845 240.541 445.608 241.137 446.492 241.563C447.857 242.052 450.005 242.795 453.344 243.049C456.717 243.306 461.332 243.066 467.59 241.53C473.793 240.007 478.952 236.998 482.647 234.234C484.492 232.853 485.967 231.537 487.018 230.507C488.087 229.458 488.679 228.742 488.796 228.559C489.037 228.181 489.1 227.813 489.044 227.48C488.987 227.14 488.797 226.785 488.445 226.462C488.106 226.152 487.787 226.076 487.35 226.173Z" fill="white"/>
<defs>
<radialGradient id="paint0_radial_788_5151" cx="0" cy="0" r="1" gradientUnits="userSpaceOnUse" gradientTransform="translate(439.711 141.236) rotate(105.722) scale(202.646 321.566)">
<stop stop-color="white"/>
<stop offset="0.390625" stop-color="#B5B5B5"/>
<stop offset="0.703125" stop-color="#F0F0F0"/>
<stop offset="1" stop-color="white"/>
</radialGradient>
<radialGradient id="paint1_radial_788_5151" cx="0" cy="0" r="1" gradientUnits="userSpaceOnUse" gradientTransform="translate(409.219 140.199) rotate(105.114) scale(173.709 266.006)">
<stop stop-color="white"/>
<stop offset="0.390625" stop-color="#B5B5B5"/>
<stop offset="0.703125" stop-color="#F0F0F0"/>
<stop offset="1" stop-color="white"/>
</radialGradient>
<radialGradient id="paint2_radial_788_5151" cx="0" cy="0" r="1" gradientUnits="userSpaceOnUse" gradientTransform="translate(375.929 136.587) rotate(104.254) scale(141.84 205.922)">
<stop stop-color="white"/>
<stop offset="0.390625" stop-color="#B5B5B5"/>
<stop offset="0.703125" stop-color="#F0F0F0"/>
<stop offset="1" stop-color="white"/>
</radialGradient>
<radialGradient id="paint3_radial_788_5151" cx="0" cy="0" r="1" gradientUnits="userSpaceOnUse" gradientTransform="translate(354.081 129.847) rotate(103.797) scale(116.774 164.527)">
<stop stop-color="white"/>
<stop offset="0.390625" stop-color="#B5B5B5"/>
<stop offset="0.703125" stop-color="#F0F0F0"/>
<stop offset="1" stop-color="white"/>
</radialGradient>
<radialGradient id="paint4_radial_788_5151" cx="0" cy="0" r="1" gradientUnits="userSpaceOnUse" gradientTransform="translate(324.533 124.907) rotate(102.501) scale(84.5451 108.695)">
<stop stop-color="white"/>
<stop offset="0.390625" stop-color="#B5B5B5"/>
<stop offset="0.703125" stop-color="#F0F0F0"/>
<stop offset="1" stop-color="white"/>
</radialGradient>
<radialGradient id="paint5_radial_788_5151" cx="0" cy="0" r="1" gradientUnits="userSpaceOnUse" gradientTransform="translate(306.786 123.394) rotate(96.3333) scale(50.6378 73.0905)">
<stop stop-color="white"/>
<stop offset="0.390625" stop-color="#B5B5B5"/>
<stop offset="0.703125" stop-color="#F0F0F0"/>
<stop offset="1" stop-color="white"/>
</radialGradient>
<radialGradient id="paint6_radial_788_5151" cx="0" cy="0" r="1" gradientUnits="userSpaceOnUse" gradientTransform="translate(464.687 232.578) rotate(123.385) scale(57.269 160.078)">
<stop stop-color="white"/>
<stop offset="0.390625" stop-color="#B5B5B5"/>
<stop offset="0.703125" stop-color="#F0F0F0"/>
<stop offset="1" stop-color="white"/>
</radialGradient>
<radialGradient id="paint7_radial_788_5151" cx="0" cy="0" r="1" gradientUnits="userSpaceOnUse" gradientTransform="translate(467.883 233.902) rotate(129.033) scale(29.9576 89.1553)">
<stop stop-color="white"/>
<stop offset="0.390625" stop-color="#B5B5B5"/>
<stop offset="0.703125" stop-color="#F0F0F0"/>
<stop offset="1" stop-color="white"/>
</radialGradient>
<radialGradient id="paint8_radial_788_5151" cx="0" cy="0" r="1" gradientUnits="userSpaceOnUse" gradientTransform="translate(474.02 234.718) rotate(125.623) scale(15.8549 45.6672)">
<stop stop-color="white"/>
<stop offset="0.390625" stop-color="#B5B5B5"/>
<stop offset="0.703125" stop-color="#F0F0F0"/>
<stop offset="1" stop-color="white"/>
</radialGradient>
</defs>
</svg>
