<svg viewBox="0 0 1162 391" fill="none" xmlns="http://www.w3.org/2000/svg">
<path fill-rule="evenodd" clip-rule="evenodd" d="M171.406 5.63989L166.78 13.6485L88.2074 149.656L9.63534 285.664L5 293.687L14.2663 293.701L330.28 294.148L339.582 294.161L334.898 286.124L176.064 13.6306L171.406 5.63989ZM171.437 21.6392L18.9015 285.677L325.595 286.112L171.437 21.6392Z" fill="white" stroke="white" stroke-width="5"/>
<path d="M170.827 12.0232L172.108 382.431" stroke="white" stroke-width="14.5"/>
<path fill-rule="evenodd" clip-rule="evenodd" d="M339.639 191.025L171.746 16.3542L6.60059 175.091V163.953L166.182 10.5647L171.971 5L177.536 10.7894L339.639 179.437V191.025ZM339.639 214.971L172.478 375.645L6.60059 203.071V214.66L166.688 381.21L172.253 387L178.042 381.435L339.639 226.11V214.971Z" fill="white" stroke="white" stroke-width="5"/>
<path d="M527.915 276H560.479L488.95 122.738H488.022L416.587 276H449.058L458.613 255.126H518.452L527.915 276ZM470.303 229.521L488.579 189.535L506.763 229.521H470.303ZM615.679 278.969C647.686 278.969 669.951 261.62 669.951 234.345C669.951 211.337 654.365 198.72 629.595 187.03C612.432 178.959 601.113 175.897 601.113 166.991C601.113 159.291 609.463 152.797 620.688 152.797C629.038 152.797 637.666 156.415 642.119 165.321L664.292 149.828C657.52 131.737 640.635 123.295 620.225 123.295C592.764 123.295 570.869 140.365 570.869 166.249C570.869 190.092 589.331 199.276 606.123 207.626C621.802 215.419 639.707 224.047 639.707 234.994C639.707 242.973 630.244 248.725 616.143 248.725C603.247 248.725 593.691 243.9 587.104 233.324L563.076 250.209C573.096 268.764 591.187 278.969 615.679 278.969ZM688.135 276H718.193V227.387H740.645C769.59 227.387 793.247 204.75 793.247 177.011C793.247 149.179 769.59 126.449 740.645 126.449H688.135V276ZM740.645 197.699L718.193 197.606V156.229H740.645C753.076 156.229 763.188 165.414 763.188 176.732C763.188 188.329 753.076 197.792 740.645 197.699ZM900.4 156.044V126.449H810.225V276H900.4V246.127H840.283V215.233H891.865V185.268H840.283V156.044H900.4ZM994.194 278.876C1016.83 278.876 1032.88 269.042 1046.05 255.961L1028.8 231.654C1018.87 241.396 1007 248.725 993.267 248.725C970.166 248.725 946.416 228.129 946.416 201.503C946.416 175.341 969.331 154.003 993.359 154.003C1006.25 154.003 1018.5 160.126 1028.71 170.146L1046.05 146.488C1030.38 131.366 1013.12 123.666 993.638 123.388C951.519 123.388 915.986 159.105 915.986 201.317C915.986 243.344 951.055 278.876 994.194 278.876ZM1157.57 126.449H1053.85V156.229H1090.68V276H1120.83V156.229H1157.57V126.449Z" fill="white"/>
</svg>
