<?xml version="1.0" encoding="UTF-8"?>
<svg version="1.1" viewBox="0 0 700 500" xmlns="http://www.w3.org/2000/svg" xmlns:xlink="http://www.w3.org/1999/xlink">
 <g>
  <path d="m197.19 376.34h302.94v50.98h-302.94z" fill-rule="evenodd"/>
  <path d="m532.11 177c-12.492 0-22.691 10.191-22.691 22.691 0 5.582 2.1094 10.641 5.4805 14.605l-69.016 61.613-4.5469-1.0312-45.773-53.766-33.352-39.168c7.4141-4.7695 12.375-13.047 12.375-22.496 0-14.746-12.023-26.77-26.773-26.77-14.746 0-26.773 12.023-26.773 26.77 0 9.4453 4.9609 17.723 12.375 22.496l-33.359 39.176-46.652 54.789-68.52-61.184c3.5039-3.9922 5.7109-9.1602 5.7109-14.875 0-12.492-10.191-22.691-22.691-22.691-12.492 0-22.688 10.191-22.688 22.691s10.191 22.688 22.688 22.688c1.4062 0 2.7773-0.16797 4.1172-0.41406l25.145 134.15h304.98l25.195-134.42c1.5469 0.33594 3.1406 0.53125 4.7812 0.53125 12.492 0 22.691-10.191 22.691-22.691s-10.207-22.695-22.703-22.695z" fill-rule="evenodd"/>
 </g>
</svg>
