{
  "asset": {
    "generator": "Khronos glTF Blender I/O v1.5.17",
    "version": "2.0"
  },
  "scene": 0,
  "scenes": [
    {
      "name": "Scene",
      "nodes": [0]
    }
  ],
  "nodes": [
    {
      "mesh": 0,
      "name": "Curve.007"
    }
  ],
  "materials": [
    {
      "doubleSided": true,
      "name": "Material.001",
      "pbrMetallicRoughness": {
        "baseColorFactor": [
          0.00617165258154273, 0.00617165258154273, 0.00617165258154273, 1
        ],
        "metallicFactor": 0,
        "roughnessFactor": 0
      }
    },
    {
      "doubleSided": true,
      "name": "Material.002",
      "pbrMetallicRoughness": {
        "baseColorFactor": [
          0.800000011920929, 0.800000011920929, 0.800000011920929, 1
        ],
        "metallicFactor": 0,
        "roughnessFactor": 0.0882352888584137
      }
    }
  ],
  "meshes": [
    {
      "name": "Curve.007",
      "primitives": [
        {
          "attributes": {
            "POSITION": 0,
            "NORMAL": 1,
            "TEXCOORD_0": 2
          },
          "indices": 3,
          "material": 0
        },
        {
          "attributes": {
            "POSITION": 4,
            "NORMAL": 5,
            "TEXCOORD_0": 6
          },
          "indices": 7,
          "material": 1
        }
      ]
    }
  ],
  "accessors": [
    {
      "bufferView": 0,
      "componentType": 5126,
      "count": 385,
      "max": [2.774960517883301, 5.322258949279785, 0.23938053846359253],
      "min": [-2.546921968460083, 0.0015008337795734406, -0.28527122735977173],
      "type": "VEC3"
    },
    {
      "bufferView": 1,
      "componentType": 5126,
      "count": 385,
      "type": "VEC3"
    },
    {
      "bufferView": 2,
      "componentType": 5126,
      "count": 385,
      "type": "VEC2"
    },
    {
      "bufferView": 3,
      "componentType": 5123,
      "count": 1203,
      "type": "SCALAR"
    },
    {
      "bufferView": 4,
      "componentType": 5126,
      "count": 363,
      "max": [2.776461601257324, 5.323760509490967, 0.2359352707862854],
      "min": [-2.5484228134155273, -7.8145056647827e-8, -0.2818259000778198],
      "type": "VEC3"
    },
    {
      "bufferView": 5,
      "componentType": 5126,
      "count": 363,
      "type": "VEC3"
    },
    {
      "bufferView": 6,
      "componentType": 5126,
      "count": 363,
      "type": "VEC2"
    },
    {
      "bufferView": 7,
      "componentType": 5123,
      "count": 1293,
      "type": "SCALAR"
    }
  ],
  "bufferViews": [
    {
      "buffer": 0,
      "byteLength": 4620,
      "byteOffset": 0
    },
    {
      "buffer": 0,
      "byteLength": 4620,
      "byteOffset": 4620
    },
    {
      "buffer": 0,
      "byteLength": 3080,
      "byteOffset": 9240
    },
    {
      "buffer": 0,
      "byteLength": 2406,
      "byteOffset": 12320
    },
    {
      "buffer": 0,
      "byteLength": 4356,
      "byteOffset": 14728
    },
    {
      "buffer": 0,
      "byteLength": 4356,
      "byteOffset": 19084
    },
    {
      "buffer": 0,
      "byteLength": 2904,
      "byteOffset": 23440
    },
    {
      "buffer": 0,
      "byteLength": 2586,
      "byteOffset": 26344
    }
  ],
  "buffers": [
    {
      "byteLength": 28932,
      "uri": "data:application/octet-stream;base64,"
    }
  ]
}
