<svg width="129" height="130" viewBox="0 0 129 130" fill="none" xmlns="http://www.w3.org/2000/svg">
<path fill-rule="evenodd" clip-rule="evenodd" d="M39.2856 26.44L3.76983 61.9558C2.20774 63.5178 2.20774 66.0505 3.76984 67.6126L39.2856 103.128L39.2856 39.3657C39.2856 38.3049 39.707 37.2874 40.4572 36.5373L61.7971 15.1974C63.2458 13.7486 65.5947 13.7486 67.0434 15.1974L88.3833 36.5373C89.1335 37.2874 89.5549 38.3049 89.5549 39.3657L89.5549 103.128L125.071 67.6126C126.633 66.0505 126.633 63.5178 125.071 61.9557L89.5549 26.44L83.7497 20.6348L70.0547 6.93978L67.2487 4.13377C65.6866 2.57167 63.1539 2.57167 61.5918 4.13377L44.4034 21.3222L39.2856 26.44ZM45.0908 108.934L61.5918 125.435C63.1539 126.997 65.6866 126.997 67.2487 125.435L83.7497 108.934L83.7497 39.3657C83.7497 38.3049 83.3283 37.2874 82.5782 36.5373L66.9693 20.9284C65.4072 19.3663 62.8745 19.3663 61.3124 20.9284L45.7165 36.5243C44.9587 37.2821 44.5367 38.3124 44.5451 39.3841L45.0908 108.934Z" fill="#0059FF"/>
<path d="M0.941406 66.3L39.2856 104.644V64.5367L20.1135 47.128L0.941406 66.3Z" fill="#0043BE"/>
<path d="M45.0908 110.449L64.4202 129.779L83.7497 110.449V69.8079L64.4202 87.3596L45.0908 69.8079V110.449Z" fill="#0043BE"/>
<path d="M89.5549 104.644L127.899 66.3L108.727 47.128L89.5549 64.5367V104.644Z" fill="#0043BE"/>
<path d="M24.9948 40.7309L61.5918 4.1336C63.1539 2.57149 65.6865 2.57148 67.2486 4.13358L125.071 61.9556C126.633 63.5177 126.633 66.0503 125.071 67.6124L90.2669 102.416" stroke="black" stroke-width="5"/>
<path d="M114.347 78.3357L67.2485 125.435C65.6864 126.997 63.1537 126.997 61.5916 125.434L3.76962 67.6125C2.20752 66.0504 2.20752 63.5177 3.76962 61.9557L18.963 46.7623" stroke="black" stroke-width="5"/>
<circle cx="18.9248" cy="46.803" r="2.5" fill="black"/>
<circle cx="24.9653" cy="40.7598" r="2.5" fill="black"/>
</svg>
