<?xml version="1.0" encoding="iso-8859-1"?>
<!-- Generator: Adobe Illustrator 18.0.0, SVG Export Plug-In . SVG Version: 6.00 Build 0)  -->
<!DOCTYPE svg PUBLIC "-//W3C//DTD SVG 1.1//EN" "http://www.w3.org/Graphics/SVG/1.1/DTD/svg11.dtd">
<svg version="1.1" id="Capa_1" xmlns="http://www.w3.org/2000/svg" xmlns:xlink="http://www.w3.org/1999/xlink" x="0px" y="0px"
	 viewBox="0 0 437.081 437.081" style="enable-background:new 0 0 437.081 437.081;" xml:space="preserve">
<g>
	<path d="M402.323,34.458c-118.515-45.945-249.051-45.944-367.564,0c-2.117,0.821-3.512,2.858-3.512,5.128v63.912
		c0,66.958,9.68,126.114,28.771,175.825c15.355,39.982,36.795,73.985,63.726,101.063c46.086,46.339,91.764,56.184,93.686,56.581
		c0.366,0.076,0.739,0.113,1.111,0.113s0.745-0.038,1.111-0.113c1.922-0.396,47.6-10.242,93.686-56.581
		c26.931-27.078,48.372-61.081,63.727-101.063c19.091-49.711,28.771-108.867,28.771-175.825V39.586
		C405.835,37.316,404.44,35.279,402.323,34.458z M394.835,103.499c0,65.377-9.369,123.037-27.848,171.38
		c-14.718,38.506-35.221,71.221-60.94,97.238c-22.864,23.129-45.727,36.596-60.88,43.821c-13.472,6.423-23.412,9.19-26.626,9.994
		c-3.223-0.806-13.161-3.573-26.627-9.994c-15.153-7.225-38.016-20.691-60.88-43.821c-25.718-26.017-46.221-58.732-60.939-97.238
		c-18.479-48.342-27.848-106.003-27.848-171.38v-60.13c113.844-43.158,238.745-43.157,352.588,0V103.499z"/>
	<path d="M63.97,54.675c-2.228,0.76-3.725,2.852-3.725,5.206v43.618c0,62.188,8.696,116.961,25.846,162.798
		c13.473,36.007,32.186,66.62,55.62,90.988c30.996,32.231,62.833,45.252,75.082,49.354c0.567,0.19,1.157,0.285,1.747,0.285
		s1.18-0.095,1.747-0.285c12.25-4.102,44.086-17.123,75.082-49.354c23.434-24.368,42.147-54.981,55.62-90.988
		c17.15-45.836,25.846-100.61,25.846-162.798V59.881c0-2.353-1.497-4.446-3.725-5.206c-49.795-16.983-101.8-25.594-154.569-25.594
		S113.766,37.692,63.97,54.675z M365.835,103.499c0,60.867-8.461,114.343-25.149,158.943
		c-12.943,34.593-30.858,63.938-53.246,87.218c-27.922,29.036-56.35,41.51-68.9,45.947c-12.55-4.438-40.978-16.912-68.9-45.947
		c-22.388-23.28-40.302-52.625-53.246-87.218c-16.688-44.6-25.149-98.076-25.149-158.943V63.833
		c47.515-15.762,97.051-23.752,147.295-23.752s99.779,7.99,147.294,23.752V103.499z"/>
	<path d="M82.117,67.697c-2.302,0.714-3.871,2.843-3.871,5.253v30.549c0,59.241,8.099,111.317,24.071,154.78
		c12.343,33.586,29.416,62.124,50.746,84.822c25.265,26.885,50.63,39.342,63.501,44.375c0.644,0.251,1.323,0.377,2.003,0.377
		c0.684,0,1.368-0.127,2.015-0.382c11.924-4.696,35.5-16.166,59.43-40.227c22.29-22.411,40.18-50.933,53.175-84.771
		c17.018-44.312,25.647-97.799,25.647-158.974V72.95c0-2.41-1.569-4.54-3.871-5.253c-44.117-13.679-90.016-20.615-136.423-20.615
		C172.133,47.081,126.234,54.017,82.117,67.697z M234.843,58.375v66.614c-5.187-1.481-10.654-2.291-16.31-2.291
		c-5.656,0-11.123,0.81-16.31,2.291V58.376c5.43-0.195,10.87-0.294,16.317-0.294C223.983,58.081,229.418,58.18,234.843,58.375z
		 M218.534,230.698c-26.743,0-48.5-21.757-48.5-48.5s21.757-48.5,48.5-48.5s48.5,21.757,48.5,48.5S245.277,230.698,218.534,230.698z
		 M89.246,77.022c33.174-9.959,67.355-16.01,101.978-18.101v70.442c-11.008,5.713-20.01,14.76-25.667,25.802
		c-24.459,2.065-48.963,5.608-72.987,10.547c-2.211-19.679-3.323-40.441-3.323-62.213V77.022z M161.559,199.331
		c-20.808,2.036-41.602,5.211-61.997,9.459c-2.232-10.341-4.114-21.048-5.623-32.13c22.116-4.579,44.652-7.961,67.185-10.065
		c-1.354,4.976-2.09,10.203-2.09,15.602C159.034,188.153,159.924,193.902,161.559,199.331z M161.078,335.568
		c-20.311-21.613-36.607-48.894-48.437-81.083c-4.069-11.073-7.599-22.75-10.612-34.973c21.016-4.369,42.466-7.571,63.906-9.542
		c5.677,10.708,14.526,19.478,25.289,25.064V361.47C181.836,355.067,171.467,346.622,161.078,335.568z M218.56,376.423
		c-4.372-1.804-9.96-4.413-16.336-8.061V239.407c5.187,1.481,10.654,2.291,16.31,2.291c5.656,0,11.123-0.81,16.31-2.291v128.951
		C228.452,372.02,222.874,374.63,218.56,376.423z M322.919,258.53c-12.443,32.4-29.503,59.638-50.707,80.958
		c-9.1,9.15-18.117,16.349-26.369,21.975V235.034c10.76-5.584,19.608-14.351,25.285-25.055c21.39,1.959,42.84,5.161,63.909,9.541
		C331.655,233.232,327.63,246.263,322.919,258.53z M275.944,166.595c22.522,2.103,45.063,5.483,67.203,10.06
		c-1.509,11.087-3.393,21.798-5.627,32.145c-20.447-4.26-41.247-7.436-62.014-9.462c1.637-5.431,2.528-11.183,2.528-17.141
		C278.034,176.799,277.298,171.571,275.944,166.595z M347.835,103.499c0,21.778-1.125,42.527-3.336,62.204
		c-24.044-4.935-48.548-8.475-72.988-10.539c-5.657-11.042-14.659-20.089-25.668-25.802V58.92
		c34.627,2.09,68.813,8.142,101.991,18.102V103.499z"/>
	<path d="M218.534,152.965c-16.119,0-29.233,13.114-29.233,29.233s13.114,29.233,29.233,29.233s29.233-13.114,29.233-29.233
		S234.653,152.965,218.534,152.965z M218.534,200.431c-10.054,0-18.233-8.179-18.233-18.233s8.18-18.233,18.233-18.233
		s18.233,8.179,18.233,18.233S228.588,200.431,218.534,200.431z"/>
</g>
<g>
</g>
<g>
</g>
<g>
</g>
<g>
</g>
<g>
</g>
<g>
</g>
<g>
</g>
<g>
</g>
<g>
</g>
<g>
</g>
<g>
</g>
<g>
</g>
<g>
</g>
<g>
</g>
<g>
</g>
</svg>
