<svg width="13" height="14" viewBox="0 0 13 14" fill="none" xmlns="http://www.w3.org/2000/svg">
    <path d="M12.7071 1.70711C13.0976 1.31658 13.0976 0.683418 12.7071 0.292893C12.3166 -0.0976311 11.6834 -0.0976311 11.2929 0.292893L12.7071 1.70711ZM6 7L5.29289 6.29289L4.58579 7L5.29289 7.70711L6 7ZM11.2929 13.7071C11.6834 14.0976 12.3166 14.0976 12.7071 13.7071C13.0976 13.3166 13.0976 12.6834 12.7071 12.2929L11.2929 13.7071ZM11.2929 0.292893L5.29289 6.29289L6.70711 7.70711L12.7071 1.70711L11.2929 0.292893ZM5.29289 7.70711L11.2929 13.7071L12.7071 12.2929L6.70711 6.29289L5.29289 7.70711Z" fill="currentColor"/>
    <path d="M1 2V12" stroke="currentColor" stroke-width="2" stroke-linecap="round"/>
</svg>
