<svg width="512" height="512" viewBox="0 0 512 512" fill="none" xmlns="http://www.w3.org/2000/svg">
<rect width="512" height="512" rx="256" fill="white"/>
<path d="M151.2 353.6C129.6 353.6 110.533 348.933 94 339.6C77.4667 330 64.4 316.933 54.8 300.4C45.4667 283.6 40.8 264.4 40.8 242.8C40.8 220.933 45.4667 201.733 54.8 185.2C64.4 168.4 77.4667 155.333 94 146C110.533 136.4 129.6 131.6 151.2 131.6C172.533 131.6 191.467 136.4 208 146C224.533 155.333 237.467 168.4 246.8 185.2C256.4 201.733 261.2 220.933 261.2 242.8C261.2 264.4 256.533 283.6 247.2 300.4C237.867 316.933 224.933 330 208.4 339.6C191.867 348.933 172.8 353.6 151.2 353.6ZM151.2 317.6C165.067 317.6 177.333 314.4 188 308C198.667 301.6 206.933 292.8 212.8 281.6C218.933 270.4 222 257.467 222 242.8C222 228.133 218.933 215.2 212.8 204C206.933 192.533 198.667 183.6 188 177.2C177.333 170.8 165.067 167.6 151.2 167.6C137.333 167.6 125.067 170.8 114.4 177.2C103.733 183.6 95.3333 192.533 89.2 204C83.0667 215.2 80 228.133 80 242.8C80 257.467 83.0667 270.4 89.2 281.6C95.3333 292.8 103.733 301.6 114.4 308C125.067 314.4 137.333 317.6 151.2 317.6ZM353.122 353.6C333.655 353.6 316.189 348.8 300.722 339.2C285.255 329.333 272.989 316.133 263.922 299.6C255.122 282.8 250.722 263.867 250.722 242.8C250.722 221.733 255.522 202.8 265.122 186C274.989 169.2 288.189 156 304.722 146.4C321.522 136.533 340.322 131.6 361.122 131.6C381.922 131.6 400.589 136.533 417.122 146.4C433.655 156 446.722 169.2 456.322 186C466.189 202.8 471.122 221.733 471.122 242.8H455.522C455.522 263.867 450.989 282.8 441.922 299.6C433.122 316.133 420.989 329.333 405.522 339.2C390.055 348.8 372.589 353.6 353.122 353.6ZM361.122 317.6C374.722 317.6 386.855 314.4 397.522 308C408.189 301.333 416.589 292.4 422.722 281.2C428.855 269.733 431.922 256.933 431.922 242.8C431.922 228.4 428.855 215.6 422.722 204.4C416.589 192.933 408.189 184 397.522 177.6C386.855 170.933 374.722 167.6 361.122 167.6C347.789 167.6 335.655 170.933 324.722 177.6C314.055 184 305.522 192.933 299.122 204.4C292.989 215.6 289.922 228.4 289.922 242.8C289.922 256.933 292.989 269.733 299.122 281.2C305.522 292.4 314.055 301.333 324.722 308C335.655 314.4 347.789 317.6 361.122 317.6ZM450.722 352.4C444.855 352.4 439.922 350.533 435.922 346.8C432.189 342.8 430.322 337.867 430.322 332V270.8L437.922 228.4L471.122 242.8V332C471.122 337.867 469.122 342.8 465.122 346.8C461.389 350.533 456.589 352.4 450.722 352.4Z" fill="url(#paint0_linear_2_4)"/>
<defs>
<linearGradient id="paint0_linear_2_4" x1="45.3776" y1="240" x2="464.133" y2="243.471" gradientUnits="userSpaceOnUse">
<stop stop-color="#F472B6"/>
<stop offset="0.515625" stop-color="#F87185"/>
<stop offset="1" stop-color="#FBBF24"/>
</linearGradient>
</defs>
</svg>
